<?xml version="1.0" standalone="no"?>
<!DOCTYPE svg PUBLIC "-//W3C//DTD SVG 1.1//EN" "http://www.w3.org/Graphics/SVG/1.1/DTD/svg11.dtd" >
<svg xmlns="http://www.w3.org/2000/svg">
<metadata></metadata>
<defs>
<font id="requiemtext-htf-roman" horiz-adv-x="434" >
<font-face units-per-em="2048" ascent="1638" descent="-410" />
<missing-glyph horiz-adv-x="462" />
<glyph horiz-adv-x="0" />
<glyph horiz-adv-x="682" />
<glyph unicode=" "  horiz-adv-x="462" />
<glyph unicode="&#x09;" horiz-adv-x="462" />
<glyph unicode="&#xa0;" horiz-adv-x="462" />
<glyph unicode="!" horiz-adv-x="514" d="M172 53q0 35 25.5 61.5t64.5 26.5q35 0 60.5 -25.5t25.5 -58.5q0 -35 -26.5 -61.5t-63.5 -26.5q-36 0 -61 25.5t-25 58.5zM182 1196q-3 21 42 35t91.5 13t46.5 -17q-11 -418 -86 -920q-1 -5 -10.5 -6t-18.5 1t-9 5q-3 441 -56 889z" />
<glyph unicode="&#x22;" horiz-adv-x="655" d="M47 973l266 416q6 9 28.5 0.5t39 -25t8.5 -27.5l-311 -381q-7 -6 -15.5 -5.5t-14.5 7.5t-1 15zM265.5 960q-4.5 7 0.5 15l287 403q7 9 28 -0.5t36.5 -27t7.5 -25.5l-330 -369q-6 -7 -15.5 -5t-14 9z" />
<glyph unicode="#" horiz-adv-x="1466" d="M109 325.5q0 26.5 6 26.5l338 -6l18 219l14 215l-335 -4q-7 0 -6.5 26.5t6.5 26.5l337 -6l31 437q0 4 12 5t24.5 -1.5t12.5 -8.5l-35 -432l220 -2l219 2l28 437q0 4 13 4.5t26 -2t13 -7.5l-35 -432l334 6q8 0 8 -26.5t-8 -26.5l-344 4l-11 -217l-14 -217l336 6 q7 0 7 -26.5t-7 -26.5q-21 1 -56 2t-109.5 3t-123.5 3t-49 0l-31 -440q0 -6 -12 -7t-24.5 2t-12.5 9l33 432l-215 2l-219 -2l-33 -436q0 -4 -11.5 -5.5t-23.5 1t-12 8.5l33 432l-336 -4q-6 0 -6 26.5zM500 346l217 -2h6.5t17 -1t25 -1.5t30 -1t33 -1.5t32.5 -1.5t30 -1 t23.5 -1t15.5 -1t4 -0.5l18 231l17 215l-217 2l-222 -2l-16 -217z" />
<glyph unicode="$" horiz-adv-x="937" d="M121 97.5q-1 13.5 0 41t2.5 52.5t4 68t3.5 71q0 5 9.5 6.5t18.5 0t9 -4.5q9 -128 73.5 -210t178.5 -95q1 0 8 106t15.5 226.5t9.5 138.5q-132 77 -180 119q-111 95 -111 221q0 124 95.5 221.5t240.5 103.5l6 97q0 4 13 4.5t25.5 -2t12.5 -7.5l-8 -92q118 -6 201 -57 q11 -6 19.5 -64t8.5 -145q0 -5 -10 -6t-20.5 0.5t-10.5 3.5q-15 91 -67.5 144.5t-139.5 62.5q0 4 -4.5 -92.5t-9.5 -202t-6 -129.5q130 -76 177 -115q128 -105 128 -246q0 -144 -99.5 -248t-254.5 -108l-6 -94q0 -6 -13 -7t-25.5 2t-11.5 9l9 92q-157 8 -287 119 q-3 2 -4 15.5zM299 932q0 -73 43.5 -125t124.5 -102l27 399q-85 -3 -140 -49.5t-55 -122.5zM459 25h4l33 448q91 -57 140.5 -114t49.5 -138q0 -92 -64.5 -144t-162.5 -52z" />
<glyph unicode="%" horiz-adv-x="1136" d="M98 764q0 101 48.5 193.5t132.5 152.5q96 68 145 68q60 0 110 -69.5t50 -186.5q0 -99 -49.5 -193t-131.5 -154q-87 -65 -145 -65q-60 0 -110 68.5t-50 185.5zM158 -37l389 619l383 624q3 4 16 0t23.5 -11t7.5 -11l-391 -619l-381 -622q-5 -3 -16.5 0t-22.5 9.5t-8 10.5z M231 813q0 -101 27 -155t72 -54q47 0 84 72.5t37 195.5q0 101 -27 156t-72 55q-48 0 -84.5 -73.5t-36.5 -196.5zM551 229q0 99 48 191.5t132 154.5q92 68 143 68q60 0 111 -70.5t51 -187.5q0 -99 -48.5 -191.5t-131.5 -154.5q-96 -68 -145 -68q-60 0 -110 69.5t-50 188.5z M684 279q0 -103 25.5 -157t70.5 -54q49 0 86 72t37 196q0 101 -26.5 156t-71.5 55q-49 0 -85 -72t-36 -196z" />
<glyph unicode="&#x26;" horiz-adv-x="1472" d="M90 297q0 116 78.5 210t226.5 152q-137 118 -137 242q0 114 75 188t210 74q105 0 185.5 -63.5t80.5 -155.5q0 -144 -215 -242q95 -58 171 -143.5t157 -202.5q137 183 137 285q0 48 -146 59q-6 0 -7 22q1 16 7 15q91 -12 261 -12q152 0 229 12q5 1 7.5 -3t2.5 -9.5 t-0.5 -11t-2 -9.5t-3.5 -4q-59 -2 -96 -11t-79.5 -35t-84 -72.5t-98.5 -126.5l-99 -140q44 -63 71.5 -98.5t65.5 -74.5t75 -56.5t77 -17.5q91 0 170 47q3 2 10.5 -4t10.5 -14t-3 -15q-52 -44 -124.5 -76.5t-135.5 -32.5q-100 0 -173.5 51t-149.5 150q-89 -97 -182 -151 t-211 -54q-40 0 -87 12t-96 38.5t-88.5 63.5t-64.5 93t-25 121zM244 373q0 -118 84 -197.5t213 -79.5q90 0 150 28.5t120 94.5q-11 16 -48 69.5t-54 77t-53.5 69.5t-64.5 73.5t-69 61t-84 59.5q-91 -34 -142.5 -102t-51.5 -154zM391 969q0 -50 38.5 -105.5t129.5 -130.5 q66 39 90.5 88.5t24.5 118.5q0 75 -41 124.5t-109 49.5q-133 0 -133 -145z" />
<glyph unicode="'" horiz-adv-x="464" d="M45 967q-4 6 2 16l297 391q7 9 27.5 -1t35.5 -28t7 -26l-340 -354q-6 -6 -15.5 -5t-13.5 7z" />
<glyph unicode="(" horiz-adv-x="821" d="M225 473q0 188 53.5 362t147 309t213.5 238.5t258 167.5q8 3 15.5 -13.5t0.5 -20.5q-503 -349 -503 -1043q0 -693 503 -1042q7 -4 -0.5 -21t-15.5 -14q-138 64 -258 167.5t-213.5 238.5t-147 309t-53.5 362z" />
<glyph unicode=")" horiz-adv-x="821" d="M-90 -569q506 351 506 1042q0 692 -506 1043q-7 4 0.5 20.5t15.5 13.5q138 -64 258 -167.5t213.5 -238.5t147 -309t53.5 -362t-53.5 -362t-147 -309t-213.5 -238.5t-258 -167.5q-8 -3 -15.5 14t-0.5 21z" />
<glyph unicode="*" horiz-adv-x="620" d="M35 1174q-8 5 0 20t18 12l209 -63l68 203q3 9 20 5t17 -12v-209h219q9 0 11.5 -16.5t-5.5 -19.5l-207 -68l68 -203q3 -7 -12.5 -14.5t-20.5 -1.5l-129 170l-178 -125q-8 -5 -20.5 7.5t-6.5 19.5l127 170z" />
<glyph unicode="+" horiz-adv-x="1232" d="M108 477.5q0 26.5 7 26.5l481 -8l-6 469q0 6 26.5 6t26.5 -6l-6 -469l481 8q6 0 6 -26.5t-6 -26.5l-481 6l6 -467q0 -6 -26.5 -6t-26.5 6l6 467l-481 -6q-7 0 -7 26.5z" />
<glyph unicode="," d="M87.5 -223.5q-1.5 9.5 0.5 19t4 9.5q89 0 126.5 31.5t37.5 77.5q0 25 -16.5 42.5t-55.5 37.5q-31 14 -44 29t-13 40q0 29 22 48.5t54 19.5q53 0 94 -42.5t41 -113.5q0 -89 -69 -148.5t-175 -59.5q-5 0 -6.5 9.5z" />
<glyph unicode="-" horiz-adv-x="821" d="M136.5 461.5q-6.5 37.5 8.5 40.5l263 55l258 64q11 3 18.5 -16t7 -37.5t-7.5 -26.5l-264 -56l-260 -61q-17 0 -23.5 37.5z" />
<glyph unicode="." d="M131 53q0 35 25 61.5t63 26.5q36 0 61 -25.5t25 -58.5q0 -35 -26.5 -61.5t-63.5 -26.5q-36 0 -60 25.5t-24 58.5z" />
<glyph unicode="/" horiz-adv-x="708" d="M6 -653l676 2128q1 2 3 3.5t5 1.5t7 -0.5t7.5 -2l7 -3t6 -3.5t3.5 -4.5t0 -4.5l-678 -2128q-3 -5 -12 -4.5t-18 6t-7 11.5z" />
<glyph unicode="0" horiz-adv-x="1257" d="M123 461q0 139 67 258.5t190 192.5t273 73q134 0 246.5 -67t176 -179.5t63.5 -244.5q0 -140 -68 -260t-191.5 -192.5t-275.5 -72.5q-133 0 -244 67t-174 180t-63 245zM295 526q0 -121 31 -217.5t82 -154.5t113 -88.5t128 -30.5q142 0 230 104t88 289q0 121 -31.5 218 t-83 155.5t-114 89.5t-128.5 31q-141 0 -228 -105.5t-87 -290.5z" />
<glyph unicode="1" horiz-adv-x="790" d="M124 948q1 16 7 15q69 -9 285 -9q174 0 239 9q5 2 8 -7q3 -21 -4 -30q-56 -5 -85.5 -12.5t-53.5 -27.5t-32.5 -55.5t-8.5 -95.5v-516q0 -60 8.5 -95t33 -54.5t53.5 -26.5t85 -12q6 0 5 -23q-2 -17 -9 -16q-57 8 -239 8q-224 0 -285 -8q-5 -2 -6 7q-2 21 6 32q32 4 45 5.5 t36.5 6t32.5 9.5t24 14.5t20.5 22t12.5 31t9 43t2 56.5v516q0 36 -4 63.5t-9.5 46.5t-19 32.5t-24 21t-34.5 13t-40.5 8t-50.5 6.5q-6 0 -7 22z" />
<glyph unicode="2" horiz-adv-x="1024" d="M88 43q275 144 409 281t134 299q0 114 -59 178.5t-152 64.5q-71 0 -127.5 -28t-112.5 -86q-4 -4 -11.5 1t-12 13.5t-0.5 13.5q150 205 331 205q137 0 222.5 -86.5t85.5 -210.5q0 -72 -37.5 -150.5t-100.5 -148.5t-137 -130.5t-155 -108.5h288q63 0 99 3t64.5 10t42 24 t21 40t11.5 62q0 3 17.5 3.5t17.5 -3.5q4 -34 -4 -135t-15 -127q-9 -35 -41 -35q-25 0 -143.5 4t-190.5 4q-299 0 -428 -8q-8 0 -15.5 23.5t-0.5 27.5z" />
<glyph unicode="3" horiz-adv-x="870" d="M77 -326.5q1 9.5 3 9.5q142 18 244 56t155 88.5t76 102.5t23 109q0 104 -108.5 170.5t-281.5 44.5q-7 -1 -14 13.5t-8 28t4 17.5q194 59 287.5 160.5t93.5 212.5q0 73 -49.5 124.5t-132.5 51.5q-63 0 -133 -38.5t-130 -96.5q-1 -2 -8 3t-12.5 13t-1.5 13q75 97 169.5 163 t184.5 66q117 0 202 -80t85 -190q0 -100 -78 -194t-231 -152q167 -14 257.5 -99t90.5 -207q0 -54 -24.5 -110.5t-78.5 -112t-131 -99t-192.5 -70.5t-251.5 -27q-5 0 -7.5 10t-1.5 19.5z" />
<glyph unicode="4" horiz-adv-x="1052" d="M14 115l721 897q5 5 20 4.5t15 -10.5v-820h246v-118q-93 0 -246 6v-176q0 -59 8.5 -94.5t32.5 -55.5t54 -28t85 -13q5 0 4 -22q-2 -16 -8 -15q-79 11 -241 11q-199 0 -283 -11q-5 -2 -7 7q-1 20 5 30q31 4 45.5 6t37 7t32.5 10.5t24.5 15t20.5 22.5t13 31.5t9 42.5t2 56 v178h-41q-362 0 -530 -13q-6 0 -14.5 23t-4.5 29zM143 186h461v570z" />
<glyph unicode="5" horiz-adv-x="874" d="M141 590q0 36 14 95t31 101q47 113 94.5 162t106.5 49q28 0 116 -27.5t146 -27.5q36 0 54 24t32 87q0 2 9.5 3t18.5 -0.5t9 -6.5q-3 -145 -42.5 -207t-113.5 -62q-54 0 -143.5 31t-136.5 31q-43 0 -74 -45t-31 -101q0 -35 15 -59t74 -62t182 -96q262 -124 262 -350 q0 -169 -154.5 -298t-441.5 -185q-5 -1 -9 8.5t-4 18.5t1 10q86 22 161.5 56t140 82t102.5 114t38 141q0 90 -49 151t-180 121q-121 55 -174.5 107.5t-53.5 134.5z" />
<glyph unicode="6" horiz-adv-x="1097" d="M123 432q0 102 34 207t107 212.5t178 202t258 176.5t336 136q7 2 12.5 -6.5t5.5 -17t-5 -11.5q-157 -59 -283.5 -139t-211.5 -168t-142 -188.5t-82 -200t-25 -201.5q0 -183 84 -297t209 -114q104 0 164.5 82t60.5 212q0 127 -61.5 206t-169.5 79q-55 0 -109 -33 q-3 -2 -10 4.5t-12.5 14t-3.5 8.5q42 44 104 72t121 28q99 0 173.5 -50.5t109 -124.5t34.5 -156q0 -105 -60 -197t-160 -145.5t-214 -53.5q-139 0 -241.5 66.5t-151.5 170t-49 226.5z" />
<glyph unicode="7" horiz-adv-x="993" d="M123 641q-3 35 5.5 149t14.5 138q5 18 13 25.5t26 7.5q25 0 140.5 -3.5t189.5 -3.5q233 0 410 11q6 0 18 -23.5t8 -30.5q-273 -500 -667 -1261q-8 -7 -31.5 -2t-46.5 19t-17 22q229 381 629 1108h-420q-99 0 -147 -14.5t-66 -46t-22 -97.5q0 -2 -9 -2.5t-18.5 0.5t-9.5 4 z" />
<glyph unicode="8" horiz-adv-x="1069" d="M119 307q0 113 82 208t231 157q-56 36 -94.5 66.5t-74.5 71t-54.5 88t-18.5 103.5q0 159 114 262t282 103q139 0 237.5 -87t98.5 -212q0 -104 -62 -182t-192 -148q64 -40 107 -72.5t87 -78.5t66 -101t22 -120q0 -168 -122 -282t-312 -114q-163 0 -280 96t-117 242z M276 307q0 -87 41 -151.5t99.5 -93.5t124.5 -29q124 0 196 68.5t72 174.5q0 29 -6.5 56.5t-14 48.5t-27 46t-30.5 39.5t-41 38t-42 33.5t-49.5 33.5t-48 30t-52.5 31.5q-112 -56 -167 -133.5t-55 -192.5zM338 1092q0 -43 15.5 -83t37.5 -69t61.5 -61.5t71 -53t82.5 -51.5 q170 106 170 283q0 108 -64 178t-163 70q-95 0 -153 -59t-58 -154z" />
<glyph unicode="9" horiz-adv-x="1118" d="M117 573q0 165 126 288.5t312 123.5q102 0 186.5 -36t139.5 -98t85.5 -143t30.5 -171q0 -103 -27.5 -202.5t-91 -201.5t-159.5 -189.5t-242.5 -165.5t-329.5 -132q-7 -2 -12.5 6t-5.5 17.5t6 11.5q157 59 277 136t195.5 160t123 181t66 191t18.5 198q0 183 -82 284 t-205 101q-115 0 -175 -85.5t-60 -225.5q0 -125 65.5 -201t173.5 -76q62 0 107 25q7 4 14.5 -1.5t10 -13t-1.5 -12.5q-41 -43 -103 -70.5t-119 -27.5q-76 0 -139 29t-102 76.5t-60.5 105.5t-21.5 118z" />
<glyph unicode=":" d="M131 49q0 35 25 61.5t63 26.5q36 0 61 -25.5t25 -58.5q0 -35 -26.5 -61.5t-63.5 -26.5q-36 0 -60 25.5t-24 58.5zM131 666q0 35 25 61.5t63 26.5q36 0 61 -25.5t25 -58.5q0 -34 -26 -60t-64 -26q-36 0 -60 24.5t-24 57.5z" />
<glyph unicode=";" d="M87.5 -223.5q-1.5 9.5 0.5 19t4 9.5q89 0 126.5 31.5t37.5 77.5q0 25 -16.5 42.5t-55.5 37.5q-31 14 -44 29t-13 40q0 29 22 48.5t54 19.5q53 0 94 -42.5t41 -113.5q0 -89 -69 -148.5t-175 -59.5q-5 0 -6.5 9.5zM131 666q0 35 25.5 61.5t62.5 26.5q36 0 61 -25.5 t25 -58.5q0 -35 -25.5 -60.5t-64.5 -25.5q-36 0 -60 24.5t-24 57.5z" />
<glyph unicode="&#x3c;" horiz-adv-x="1708" d="M70 422q0 94 55 178t141.5 133t177.5 49q87 0 174 -49t140 -141l8 6q-8 43 -31 85.5t-49 77t-50.5 70t-41 79t-16.5 89.5q0 89 49 148t135 59q43 0 95 -23t89 -61q5 -8 -8 -21t-18 -9q-26 15 -47 4.5t-21 -39.5q0 -20 24 -37t57.5 -34t67.5 -39.5t58 -62t24 -91.5 q0 -81 -46.5 -156t-108.5 -100q102 -23 194 -68q44 129 121 202.5t166 73.5q92 0 154.5 -67.5t62.5 -161.5q0 -87 -43 -140.5t-106 -53.5q-41 0 -68 24.5t-27 63.5q0 34 21.5 56.5t50.5 22.5q34 0 57 -20q15 24 15 49q0 47 -40 80t-106 33q-60 0 -116 -47t-99 -140 q213 -131 213 -389q0 -118 -53 -191t-135 -73q-46 0 -91.5 28t-64.5 66q-3 5 4.5 11t16.5 9t10 1q23 -32 62 -13q54 25 75 123q10 46 10 103q0 128 -83 222t-205 144q88 -114 88 -268q0 -101 -57 -161t-132 -60q-22 0 -46 7t-32 7q-32 0 -32 -39q0 -29 43 -69q6 -6 -7.5 -20 t-19.5 -11q-190 87 -190 264q0 85 52 172t152 162l-6 10q-40 -3 -87 -33.5t-83.5 -65.5t-82 -64t-81.5 -29q-31 0 -55.5 15t-40 37t-29.5 43.5t-32.5 36.5t-40.5 15q-29 0 -49.5 -23.5t-20.5 -64.5q0 -29 4 -45q2 -5 -8 -9.5t-19.5 -4.5t-11.5 2q-30 67 -30 133z" />
<glyph unicode="=" horiz-adv-x="1335" d="M108.5 321.5q0.5 26.5 6.5 26.5l553 -8l551 8q6 0 6.5 -26.5t-6.5 -26.5l-551 6l-553 -6q-7 0 -6.5 26.5zM109 635q0 27 6 27l553 -9l551 9q6 0 6 -27t-6 -27l-551 6l-553 -6q-6 0 -6 27z" />
<glyph unicode="&#x3e;" horiz-adv-x="1708" d="M84 516q0 94 61.5 161.5t153.5 67.5q89 0 166 -73.5t121 -202.5q92 45 194 68q-61 25 -107 99.5t-46 156.5q0 52 24 91.5t57.5 62t67.5 39.5t58 34t24 37q0 29 -22 39.5t-48 -4.5q-5 -4 -18 9t-8 21q37 38 89 61t95 23q86 0 136.5 -59.5t50.5 -147.5q0 -46 -16.5 -89.5 t-42 -79t-51.5 -70t-49.5 -77t-31.5 -85.5l8 -8q53 93 139.5 142.5t174.5 49.5q91 0 178 -49t142.5 -133t55.5 -178q0 -61 -32 -133q-2 -2 -11.5 -2t-19.5 4.5t-8 9.5q6 24 6 45q0 41 -21 64.5t-51 23.5q-22 0 -40.5 -15t-32.5 -37t-29.5 -43.5t-40 -36.5t-55.5 -15 q-36 0 -81.5 29t-82 64t-83.5 65.5t-87 33.5l-6 -10q100 -76 153 -163t53 -171q0 -175 -194 -264q-6 -3 -18.5 11t-6.5 20q45 42 45 69q0 19 -9.5 29t-24.5 10q-8 0 -32 -7t-46 -7q-75 0 -131 60t-56 161q0 156 86 268q-122 -50 -204 -144t-82 -222q0 -154 62 -212 q36 -34 69 -13q7 5 12 12q1 2 10.5 -1t17.5 -9t5 -11q-19 -38 -64.5 -66t-91.5 -28q-82 0 -134 73t-52 191q0 259 211 389q-43 93 -99 140t-118 47q-64 0 -103 -33t-39 -80q0 -28 13 -49q23 20 57 20q29 0 51.5 -22.5t22.5 -56.5q0 -39 -28 -63.5t-69 -24.5q-63 0 -105 53.5 t-42 140.5z" />
<glyph unicode="?" horiz-adv-x="739" d="M135 1149q0 53 31 129q0 1 10 -1.5t19.5 -6t9.5 -4.5q-4 -14 -4 -37q0 -37 47 -68t184 -71q126 -37 183 -97.5t57 -163.5q0 -96 -52.5 -154.5t-205.5 -119.5q-170 -68 -170 -168q0 -33 12 -65q1 -4 -7.5 -10.5t-17 -8.5t-10.5 2q-49 111 -49 168q0 136 178 213l201 88 q33 14 46 29t13 39q0 19 -21 37t-61 30l-188 54q-105 29 -155 74t-50 112zM168 53q0 35 26.5 61.5t63.5 26.5q35 0 61.5 -25.5t26.5 -58.5q0 -34 -27 -61t-65 -27q-35 0 -60.5 25.5t-25.5 58.5z" />
<glyph unicode="@" horiz-adv-x="1355" d="M109 508q0 123 46 243t125 215t194.5 153.5t244.5 58.5q116 0 216.5 -38.5t168 -103t105.5 -150.5t38 -179t-32 -177t-82 -140t-111 -89t-119 -33q-177 0 -168 197l4 -2q-46 -68 -112.5 -127.5t-98.5 -59.5q-50 0 -83 42t-33 118q0 72 42.5 148t97 130.5t120.5 100.5 q68 49 112 49q29 0 52 -10q40 46 67 64q1 2 6.5 -0.5t10.5 -8t4 -10.5q-2 -9 -13.5 -58.5t-21 -92t-22 -109t-21.5 -125.5q-27 -184 84 -184q102 0 157.5 81.5t55.5 206.5q0 96 -31.5 184.5t-90 158.5t-149.5 111.5t-202 41.5q-185 0 -315 -157t-130 -392q0 -146 64 -265.5 t181.5 -190t264.5 -70.5q171 0 316 111q7 5 16 -2t12.5 -16.5t-0.5 -14.5q-79 -67 -186 -106.5t-221 -39.5q-104 0 -195.5 29.5t-158 80.5t-114 119.5t-71.5 146.5t-24 161zM535 467q0 -47 9 -67.5t31 -20.5q30 0 78.5 42t81.5 93l47 244q-28 22 -61 22q-65 0 -125.5 -103 t-60.5 -210z" />
<glyph unicode="A" horiz-adv-x="1470" d="M-4 -4q-1 4 -1 8q-1 6 1 12q2 10 6 11q99 7 155 73.5t138 251.5l444 989q6 11 20 11h1q15 0 18 -11l379 -989q26 -69 43.5 -110t39 -81.5t40.5 -61t46.5 -38.5t59 -25.5t74.5 -10.5q4 -1 6 -11q1 -5 1 -10q1 -4 -1 -8q-2 -8 -10 -8h-2q-94 12 -235 12q-211 0 -314 -12h-2 q-5 0 -7 8q-2 10 1 20.5t6 10.5l30 3q28 3 41 4.5t30.5 5.5t24.5 10t12.5 16t5.5 24q0 10 -1 21t-4.5 25t-6 25t-8.5 28.5t-9.5 28.5t-11.5 32t-11.5 30.5t-13 34t-12.5 33.5l-62 164h-467l-71 -164q-33 -76 -48 -111.5t-27.5 -77.5t-12.5 -69q0 -33 28 -44.5t103 -18.5 q5 0 7.5 -10.5t0.5 -20.5q-2 -8 -8 -8h-2q-94 12 -197 12h-40.5h-30.5t-26 -1t-20 -1t-20.5 -1.5t-19 -2t-24.5 -3t-28 -3.5h-2q-5 0 -6 8zM465 567h422l-191 525z" />
<glyph unicode="B" horiz-adv-x="1308" d="M141 1316q1 4 3 8q2 3 6 3h2q103 -12 266 -12q21 0 117 4t133 4q183 0 304.5 -81.5t121.5 -227.5q0 -88 -75 -171t-188 -116q169 -8 278.5 -99.5t109.5 -226.5q0 -176 -139.5 -292.5t-368.5 -116.5q-38 0 -137 4t-121 4q-198 0 -301 -12h-2q-8 0 -8 9q-2 10 1.5 20 t6.5 10q103 10 130 23q41 20 53 83q9 52 9 217v615v83t-3 66.5t-3.5 53t-9 39t-12 29.5t-19 20.5t-23.5 14.5t-32.5 8.5t-39.5 7t-50 5.5q-2 0 -4 4t-3.5 9t-1.5 11zM520 340q0 -73 1.5 -114.5t8.5 -78.5t16.5 -53t30.5 -28t45.5 -14.5t67.5 -2.5q177 0 261.5 72t84.5 248 q0 75 -32.5 139t-91.5 108.5t-148 64.5q-57 13 -122 13q-35 0 -73 -4q-9 -2 -7 23q1 16 7 16q188 0 269.5 58.5t81.5 201.5q0 279 -302 279q-37 0 -81 -8q-17 -74 -17 -293v-627z" />
<glyph unicode="C" horiz-adv-x="1507" d="M131 631q0 128 58.5 257t158 233t247.5 169.5t312 65.5q129 0 263 -39.5t176 -71.5q11 -9 23 -100.5t15 -186.5q0 -7 -16 -7t-18 5q-14 63 -50 121t-94 107.5t-148.5 79.5t-199.5 30q-236 0 -387.5 -157.5t-151.5 -429.5q0 -132 34 -244.5t92.5 -192t135.5 -135.5 t162.5 -83t174.5 -27q108 0 204.5 39.5t162 117t73.5 178.5q0 3 10 4.5t19.5 -0.5t9.5 -8q-5 -97 -18 -187t-25 -99q-149 -111 -455 -111q-172 0 -318.5 55t-243.5 148t-151.5 214.5t-54.5 254.5z" />
<glyph unicode="D" horiz-adv-x="1685" d="M141 1316q1 4 3 8q2 3 6 3h2q103 -12 350 -12q23 0 149 4t166 4q179 0 321 -49.5t232.5 -137.5t138 -204.5t47.5 -253.5q0 -139 -55.5 -264.5t-154 -218.5t-243 -148t-312.5 -55q-39 0 -162.5 4t-145.5 4q-228 0 -331 -12h-2q-8 0 -8 9q-2 10 1.5 20t6.5 10 q103 10 130 23q41 20 53 83q9 52 9 217v615v83t-3 66.5t-3.5 53t-9 39t-12 29.5t-19 20.5t-23.5 14.5t-32.5 8.5t-39.5 7t-50 5.5q-2 0 -4 4t-3.5 9t-1.5 11zM520 276q0 -41 1.5 -67.5t8 -51.5t15.5 -39.5t28 -27t40.5 -18.5t58.5 -10.5t76.5 -5.5t99.5 -1q228 0 376 149.5 t148 407.5q0 317 -163 483.5t-453 166.5q-123 0 -219 -11q-17 -89 -17 -284v-691z" />
<glyph unicode="E" horiz-adv-x="1298" d="M122 1316.5q0 5.5 2 9.5q2 3 7 3h2q210 -14 559 -14q243 0 412 14q-14 -46 -14 -119q0 -61 2 -77q2 -9 -24 -5q-12 2 -13 5q-9 48 -34 71t-92 34t-202 11h-197q-10 -64 -10 -274v-262h211q34 0 60.5 1t47.5 1t36.5 3t27 3.5t19 6t12 7t8 9.5t4.5 10t3 13.5t3 14.5 q2 4 19 1.5t20 -5.5q-12 -47 -12 -127q0 -64 2 -80q2 -4 -7 -6q-21 -3 -30 4q-7 36 -19.5 52t-57 26t-136.5 10h-211v-299q0 -132 13.5 -194.5t37.5 -79t76 -16.5h109q81 0 133.5 2t92.5 10.5t61 17t37 30t22.5 42t15.5 59.5q0 1 4 2t9.5 0.5l11 -1t9.5 -2.5q3 -2 3 -4 q0 -51 -39 -191q-7 -27 -18.5 -35t-38.5 -8q-29 0 -151 5t-208 5q-387 0 -567 -12h-2q-3 0 -5 3q-2 4 -2.5 10t0.5 12t3 10t4 4q116 13 143 24q44 17 57 70q11 47 11 229v615q0 89 -0.5 128.5t-8.5 83.5t-16 56.5t-35 28t-52.5 18.5t-80.5 10q-12 1 -18 2q-2 0 -4 4 t-3.5 9.5t-1.5 11z" />
<glyph unicode="F" horiz-adv-x="1243" d="M124 1321q2 8 8 8h1q213 -14 569 -14q86 0 208 5t151 5q24 0 36.5 -9.5t18.5 -33.5q6 -27 12 -98l9 -91q1 -5 -7 -8t-17.5 -2t-10.5 4q-19 79 -34 101q-26 41 -109 52q-62 9 -201 9h-226q-12 -61 -12 -274v-270h142q40 0 71.5 0.5t57.5 3t45 4t34.5 7t25.5 8.5t18 11.5 t12 12.5t8 16.5t5.5 17.5t4.5 21q1 2 9 1.5t18 -2t13 -3.5q-18 -67 -19 -152q0 -74 6 -94q3 -8 -6.5 -12t-20.5 -2t-12 8q-8 42 -26.5 60.5t-72.5 27t-171 8.5h-142v-297v-92t2.5 -70t4.5 -55.5t10.5 -37.5t16 -28.5t25 -16t33 -12.5t45.5 -5t58 -6h2h2q5 0 7 -11 q2 -10 0 -20q-2 -8 -7 -8h-2q-99 12 -264 12q-177 0 -283 -12h-2q-4 0 -6 8q-2 10 0.5 20.5t5.5 10.5q38 4 54.5 5.5t40.5 9t32 14t20.5 25t15 37t6.5 56t4.5 75.5t0.5 101v615v82t-2 65t-3 53t-8 38t-11.5 29.5t-18 19.5t-23.5 15.5t-33 8.5t-40.5 8l-52.5 6q-3 0 -5.5 0.5 t-5.5 1t-6 0.5q-5 0 -8 10q-2 6 -2 12q0 3 1 7z" />
<glyph unicode="G" horiz-adv-x="1591" d="M131 629q0 102 36.5 206.5t106.5 197.5t163.5 165.5t215.5 115t254 42.5q130 0 266.5 -44.5t180.5 -78.5q11 -8 16 -95q2 -37 2 -75q0 -53 -4 -109q-1 -6 -9.5 -8t-17 0.5t-8.5 5.5q-5 62 -40.5 122t-95 109.5t-148.5 80t-191 30.5q-236 0 -387.5 -158.5t-151.5 -430.5 q0 -163 49 -295.5t131 -215.5t184.5 -127t215.5 -44q62 0 112 7.5t79.5 18.5t50.5 26t29 26.5t12 23.5q12 40 12 131q0 56 -0.5 88.5t-5 66.5t-9.5 51t-18.5 35t-27.5 25t-41.5 14.5t-54.5 10.5t-72 6q-9 0 -11 19q-1 19 13 18q86 -12 338 -12q155 0 254 12q7 2 9 -8 q2 -4 2 -9t-2 -10q-2 -10 -7 -10q-43 -3 -70 -9t-49.5 -11.5t-34 -25.5t-20 -34.5t-11 -55.5t-3.5 -71.5t-1 -99.5q0 -55 6 -86.5t27 -48.5q-147 -78 -266 -115t-260 -37q-172 0 -315 55t-236.5 147.5t-145 213.5t-51.5 254z" />
<glyph unicode="H" horiz-adv-x="1816" d="M123 -3v6q0 15 8 23q1 1 2 1q115 13 143 24q43 17 55 70q11 46 11 229v615v82t-2 65t-3 53t-8 38t-11.5 29.5t-18 19.5t-23.5 15.5t-33 8.5t-40.5 8l-52.5 6q-3 0 -5.5 0.5t-5.5 1t-6 0.5q-9 2 -10 22q1 13 9 13h1q106 -12 320 -12q141 0 235 12h2q7 0 9 -8q2 -9 -1 -18 t-6 -9q-28 -2 -46 -4t-36.5 -7.5t-29 -9.5t-21.5 -16.5t-16 -21t-10.5 -31t-7 -39.5t-3.5 -53t-2 -64.5v-80.5v-269h776v269q0 62 -0.5 101t-4.5 76t-7 56t-15 37.5t-20.5 25.5t-31.5 14.5t-40 10t-53 6.5q-9 2 -10 22q1 13 9 13h1q106 -12 285 -12q173 0 272 12h2q6 0 8 -9 q1 -6 1 -10q0 -10 -6 -15l-3 -1q-59 -5 -88 -8t-56.5 -19t-36.5 -26.5t-17 -53.5t-8 -76v-117v-27v-615v-27v-91t3.5 -66.5t6.5 -52t16 -33.5t24 -25t37.5 -12.5t50 -10.5t68.5 -5q5 -1 7 -11q1 -5 1.5 -10t-1.5 -10q-2 -8 -7 -8h-2q-99 12 -272 12q-179 0 -285 -12h-2 q-6 0 -8 9q-2 20 8 29q1 1 2 1q37 4 53.5 6t39.5 9t31 13.5t20.5 25t15 37.5t7 55.5t5 75.5t0.5 101v289h-776v-289v-80.5t2 -64.5t4 -52.5t7 -39.5t10.5 -31.5t16.5 -21t22 -15.5t29.5 -9t36.5 -7t46 -4q3 -1 5.5 -10.5t0.5 -18.5q-2 -8 -10 -8h-2q-94 12 -235 12 q-214 0 -320 -12h-2q-6 0 -8 9z" />
<glyph unicode="I" horiz-adv-x="923" d="M171 1316q1 4 3 8q2 3 6 3h2q106 -12 303 -12q157 0 252 12h2q7 0 9 -8q1 -3 2 -7q0 -5 -2 -11q-4 -9 -9 -9q-39 -3 -61.5 -5.5t-45.5 -12t-34 -14.5t-21.5 -28t-14 -37t-6.5 -57.5t-3 -73.5v-99v-615v-127.5t7.5 -83t15.5 -58t33 -28.5t51 -19.5t79 -6.5q5 0 9 -10 q2 -6 2 -12q0 -4 -2 -8q-2 -9 -9 -9h-2q-95 12 -252 12q-197 0 -303 -12h-2q-8 0 -8 9q-2 10 1.5 20t6.5 10q103 10 130 23q42 20 53 83q10 53 10 217v615v101.5t-5 75.5t-7.5 56.5t-16.5 37.5t-22 25t-35.5 14t-45.5 10t-61 7q-2 0 -4 4t-3.5 9t-1.5 11z" />
<glyph unicode="J" horiz-adv-x="849" d="M23 -381q73 31 125 65.5t92 80.5t65 99.5t40.5 127.5t21.5 158.5t6 199.5v615v101.5t-5 75.5t-7.5 56.5t-16.5 37.5t-22 25t-35.5 14t-45.5 10t-61 7q-2 0 -4 4t-3.5 9t-1.5 10.5t3 8.5q1 3 6 3h2q106 -12 303 -12q153 0 252 12h2q7 0 9 -8q2 -4 2 -7q0 -6 -2 -11 q-4 -9 -9 -9q-39 -3 -61.5 -5.5t-45.5 -12t-34 -14.5t-21.5 -28t-14 -37t-6.5 -57.5t-3 -73.5v-99v-615q0 -207 -47 -345.5t-159.5 -241t-309.5 -179.5q-2 -1 -3 -1q-5 0 -9 7q-5 8 -5 16q0 10 3 13z" />
<glyph unicode="K" horiz-adv-x="1474" d="M124 1312q0 15 8 15h1q103 -12 320 -12q141 0 235 12h2q5 0 7 -7q2 -9 0 -18.5t-5 -9.5q-28 -2 -46 -4t-36.5 -7.5t-29 -9.5t-21.5 -16.5t-16 -21t-10.5 -31t-7 -39.5t-3.5 -53t-2 -64.5v-80.5v-615v-80.5t2 -64.5t4 -52.5t7 -39.5t10.5 -31.5t16.5 -21t22 -15.5t29.5 -9 t36.5 -7t46 -4q7 -2 5 -23q-3 -14 -10 -14h-1q-94 12 -235 12q-217 0 -320 -12h-2q-5 0 -7 8q-1 4 0 8q0 6 2 12q2 10 5 11q116 13 143 24q44 17 57 70q11 47 11 229v615q0 89 -0.5 128.5t-8.5 83.5t-16 56.5t-35 28t-52.5 18.5t-80.5 10q-12 1 -18 2q-6 0 -7 20zM522 633 l312 336q13 15 46 50.5t47.5 51t40 43.5t38.5 44.5t28 36t23 34.5q19 32 2.5 42t-75.5 17q-5 1 -7.5 1t-7 0.5t-8 1t-7.5 1.5q-2 0 -4 4t-3.5 9t-1.5 11q1 4 3 8q2 3 6 3h2q66 -8 238 -8q116 0 176 8h3q7 0 9 -7q2 -9 -2.5 -18.5t-7.5 -9.5q-80 -6 -140 -36t-113 -79 t-163 -164q-10 -11 -16 -17.5t-15.5 -16.5t-17.5 -18l-235 -246l372 -359q185 -179 234 -220q95 -78 182 -99q35 -8 80 -12q6 0 8 -10q1 -5 1 -10q1 -5 -1 -9q-2 -8 -8 -8h-2q-94 12 -264 12q-208 0 -316 -12h-2q-6 0 -8 9q-2 20 8 29q1 1 2 1q11 1 32 3q64 7 73 18 q10 11 -8 38q-12 17 -30 39t-46.5 51t-49.5 50.5t-61 61t-59 58.5z" />
<glyph unicode="L" horiz-adv-x="1200" d="M124 -4q-1 4 -1 8q0 6 2 12q3 10 8 11q115 13 143 24q43 17 55 70q11 46 11 229v615v102t-4.5 75t-7 56.5t-16 37t-21.5 25.5t-35 14t-45 10t-61 7q-9 2 -10 22q1 13 9 13h1q106 -12 301 -12q159 0 254 12h2q7 0 9 -8q2 -9 -1 -18t-6 -9q-53 -5 -80.5 -8t-53 -20 t-34 -29.5t-15.5 -58.5t-7.5 -83.5t-0.5 -127.5v-615q0 -130 9.5 -185t32.5 -73t79 -18h117q84 0 134.5 1t91.5 8t59.5 13t34 25t20.5 35t14 51q0 1 4 2t9 1h11q4 0 8 -2q3 -1 3 -4q0 -67 -29 -171q-7 -27 -19 -35t-38 -8q-29 0 -142 5t-198 5q-406 0 -588 -12h-1 q-6 -1 -8 8z" />
<glyph unicode="M" horiz-adv-x="1980" d="M129 1315q1 14 9 14h1q102 -14 367 -14l502 -1075l307 702q114 261 145 377q71 -5 140 -5q117 0 227 15h2q8 -1 9 -9q2 -10 -1 -19t-6 -9q-157 -13 -183 -56q-23 -37 -23 -208q0 -26 1 -54v-7l12 -617q4 -179 13 -221q12 -58 55 -77q34 -16 147 -25q6 0 7 -22 q0 -18 -9 -17q-99 12 -272 12q-195 0 -285 -12q-8 -2 -10 9q-2 20 8 29q1 1 2 1q30 3 44.5 4.5t35 6t29 8.5t21.5 14.5t17 20.5t10.5 29.5t7.5 39.5t3 52q2 26 2 52v14q0 34 -2 82l-12 727l-477 -1085q-3 -8 -17 -8q-1 0 -1 -1q-13 0 -19 11l-487 1026l-13 -670v-33 q0 -32 -1 -58q-1 -13 -1 -26q0 -25 3 -45q4 -32 6.5 -55t13.5 -40t22.5 -28t33.5 -18.5t47 -12t63 -7.5q3 0 5 -10.5t-0.5 -20.5t-9.5 -8q-94 12 -206 12q-168 0 -256 -12q-8 -2 -10 9q-2 20 8 29q1 1 2 1q38 4 60.5 7.5t45.5 12t34.5 16t23 27.5t16 37.5t8.5 55t5.5 72 t2.5 95.5l15 719q1 105 -54.5 158t-173.5 65q-9 2 -10 23z" />
<glyph unicode="N" horiz-adv-x="1757" d="M114 1316q0 4 2 8q2 3 7 3h2q120 -14 287 -14l974 -1024v676q0 49 -0.5 78.5t-2 63t-4 51.5t-8.5 39t-12 31t-18 22t-24 16.5t-32.5 10.5t-40.5 9t-50 6q-6 0 -7 20q0 15 8 15h1q103 -12 254 -12q116 0 207 12h2q9 1 12 -7q1 -4 1 -8q0 -5 -2 -10q-4 -9 -11 -10 q-43 -4 -70 -10t-49.5 -13t-34 -28t-20 -37t-11 -59.5t-3.5 -75.5t-1 -104v-615q0 -246 15 -375q-1 -4 -7 -7q-5 -2 -11 -2h-4q-9 1 -15 7l-1012 1057v-680q0 -213 26.5 -263t164.5 -60q3 0 6 -10t1 -20t-11 -9q-95 12 -205 12q-153 0 -256 -12q-9 -1 -10.5 9t2 20t6.5 10 q38 4 61 7t45.5 11.5t34.5 16t23 27t15.5 38t8 55.5t4 72.5t0.5 95.5v719q0 67 -77.5 140.5t-151.5 82.5q-2 0 -4 4t-3.5 9t-1.5 11z" />
<glyph unicode="O" horiz-adv-x="1765" d="M131 637q0 102 36 205.5t105 195t161.5 163t214 113.5t253.5 42q159 0 298 -56t233.5 -149.5t149 -216.5t54.5 -254q0 -102 -36 -206t-106 -196t-162.5 -163.5t-215 -113.5t-254.5 -42q-158 0 -296.5 56.5t-232.5 150t-148 216.5t-54 255zM315 705q0 -131 34 -243.5 t91.5 -192t134 -136t162 -83.5t174.5 -27q116 0 215 40t171.5 114t113.5 185.5t41 247.5q0 131 -34 243.5t-92.5 192.5t-135.5 136.5t-162.5 84t-173.5 27.5q-237 0 -388 -158.5t-151 -430.5z" />
<glyph unicode="P" horiz-adv-x="1265" d="M141 1314q1 6 3 10q2 3 6 3h2q86 -12 266 -12q22 0 122.5 4t141.5 4q205 0 332 -92.5t127 -245.5q0 -178 -146.5 -284.5t-392.5 -106.5h-33q-7 0 -7 19.5t7 19.5q4 0 15 -1t16 -1q184 0 271 77.5t87 243.5q0 155 -84.5 235.5t-246.5 80.5q-46 0 -90 -8q-17 -74 -17 -293 v-619v-80.5t2 -63.5t3.5 -52.5t7.5 -38.5t11 -31t17.5 -20t23.5 -16t32 -9t40.5 -7.5t51.5 -4.5q5 0 7 -10q2 -9 0 -19q-2 -8 -7 -8h-2q-95 12 -254 12q-198 0 -301 -12h-2q-6 0 -8 8q-2 10 1.5 19.5t6.5 9.5q103 11 130 25q41 19 53 83q9 52 9 215v617v129t-11 85.5 t-14.5 55t-36 29t-48.5 17t-77 8.5q-3 1 -5 1t-4 4t-3.5 9.5t-1.5 10.5z" />
<glyph unicode="Q" horiz-adv-x="1765" d="M131 635q0 128 57.5 256.5t156 231.5t245.5 168t311 65q158 0 296.5 -56.5t233.5 -150t149 -216.5t54 -255q0 -144 -70.5 -286t-203 -252.5t-299.5 -153.5q374 -247 680 -371.5t612 -124.5q208 0 410 55q4 2 9 -7q7 -10 7 -19q0 -8 -8 -11q-334 -94 -596 -94 q-221 0 -435 63t-421.5 178t-472.5 306q-156 2 -291.5 58.5t-227.5 149.5t-144 214t-52 252zM313 705q0 -132 34 -244.5t92 -192t135 -135.5t162.5 -83t174.5 -27q237 0 389 157t152 428q0 132 -34.5 244.5t-92.5 192.5t-135 136.5t-163 83.5t-175 27q-117 0 -215.5 -40 t-170.5 -114t-112.5 -185.5t-40.5 -247.5z" />
<glyph unicode="R" horiz-adv-x="1435" d="M139 1298q109 35 514 35q115 0 211.5 -18.5t172.5 -55.5t118.5 -99.5t42.5 -145.5q0 -63 -25.5 -128t-93 -133.5t-168.5 -109.5q41 -110 118.5 -226t168 -209.5t191.5 -153.5t184 -60q3 0 6 -10q2 -6 2 -12q-1 -3 -1 -7q-2 -10 -9 -10q-139 0 -259 36.5t-207 97t-157 145 t-114 174.5t-72 192q-79 -12 -162 -12q-51 0 -80 4v-242q0 -89 0.5 -126.5t7.5 -83.5t15.5 -58.5t34 -28.5t52.5 -19t81 -7q3 0 6 -10t1 -20t-11 -9q-95 12 -254 12q-198 0 -301 -12q-7 -2 -8.5 8t1 20.5t5.5 10.5q103 10 131 23q41 20 52 82q9 51 9 218v617q0 68 -1 103.5 t-4.5 76.5t-11 59t-21 35.5t-33.5 23t-50 5.5q-20 0 -78 -8q-5 -1 -9 7q-4 7 -4 14q0 12 9 15zM520 645q1 -1 17 -1h19q34 0 42 1q220 0 318 73t98 208q0 350 -387 350q-22 0 -92 -4q-15 -64 -15 -287v-340z" />
<glyph unicode="S" horiz-adv-x="1093" d="M166 112v9q0 13 2 33q2 28 4 57.5t5 74.5t5 81q0 5 9 6.5t18.5 0t9.5 -4.5q11 -161 98.5 -253.5t243.5 -92.5q113 0 193 61.5t80 177.5q0 69 -34 126.5t-88.5 99t-120 80.5t-131.5 79t-120.5 84t-88.5 107t-34 139q0 95 50.5 181t144.5 142t209 56q146 0 268 -66 q13 -6 22 -65.5t9 -157.5q0 -5 -10 -6.5t-20.5 0t-10.5 4.5q-19 113 -90 171t-185 58q-100 0 -173 -58.5t-73 -150.5q0 -66 33.5 -121t86.5 -94.5t117.5 -77t129.5 -77t118 -85t86.5 -111t33.5 -144.5q0 -172 -119.5 -294t-300.5 -122q-207 0 -373 137q-4 2 -4 16z" />
<glyph unicode="T" horiz-adv-x="1474" d="M80 1100q10 51 10 170q0 56 -10 104q-2 4 9 5q16 2 28 -1q12 -51 57.5 -61t267.5 -10h621q228 0 275 9.5t59 61.5q0 4 12 4q5 0 11 -1q12 -2 12 -6l-17 -169q0 -81 4 -106q2 -7 -27 -5l-10 3q-8 38 -20.5 60t-45 41.5t-93.5 27.5t-160 8h-215v-885v-127.5t7.5 -83 t15.5 -58t33.5 -28.5t52.5 -19.5t81 -6.5q5 0 8 -10t0 -20q-3 -9 -10 -9h-2q-94 12 -252 12q-197 0 -303 -12h-2q-6 0 -8 9q-2 20 8 29q1 1 2 1q101 10 128 23q41 20 52 83q9 53 9 217v885h-226q-127 0 -195.5 -16.5t-93 -43.5t-38.5 -79q-16 -4 -31 0z" />
<glyph unicode="U" horiz-adv-x="1716" d="M109 1319q3 8 10 8h2q106 -12 301 -12q162 0 254 12h3q5 -1 7 -3q4 -4 3.5 -9t-2 -10t-3.5 -9t-4 -4q-53 -5 -80.5 -8t-53 -20t-34 -29.5t-15.5 -58.5t-7.5 -83.5t-0.5 -127.5v-439q0 -95 25.5 -173.5t68.5 -132t100.5 -90.5t119.5 -54t127 -17q209 0 316.5 110 t107.5 323v491q0 53 -1 87.5t-5 67.5t-9.5 52t-17 37t-24.5 27t-36 17.5t-47 12.5t-61 8q-5 1 -9 10q-2 10 0 18t9 7h2q106 -12 260 -12q115 0 209 12h2q8 0 10 -8q2 -4 2 -8.5t-2 -9.5q-3 -9 -8 -9q-37 -3 -63 -7t-48 -13.5t-35.5 -18.5t-24 -29t-15.5 -38t-8 -53 t-3.5 -65.5t-0.5 -84.5v-512q0 -106 -35.5 -198t-103.5 -162.5t-174.5 -111t-239.5 -40.5q-118 0 -221 36.5t-180.5 102.5t-122 166t-44.5 221v480v83.5t-2.5 66.5t-3.5 53t-9 39t-11 29.5t-18.5 20t-23.5 14.5t-32 8.5t-38.5 7t-49.5 5.5q-7 0 -11 9q-2 5 -2 10q0 4 1 8z " />
<glyph unicode="V" horiz-adv-x="1515" d="M52 1312q0 15 8 15h1q95 -12 236 -12q209 0 315 12h2q7 0 8 -10q2 -20 -8 -25q-93 -12 -110 -19q-31 -13 -31 -48q0 -50 84 -258l307 -742l328 742q51 114 69.5 168.5t18.5 89.5q0 34 -30 47.5t-105 19.5q-2 0 -4 4t-3.5 9t-1.5 11q0 4 2 8q2 3 7 3h2q95 -12 199 -12 q31 0 52 0.5t34 0.5t30 1.5t22.5 2t30 3.5t35.5 4h2q7 1 10 -7q2 -4 2 -9t-2 -9q-3 -9 -8 -10q-22 -2 -39.5 -5.5t-35 -10.5t-29.5 -12.5t-26.5 -20.5t-24 -24.5t-24 -33.5t-23 -39.5t-25.5 -51t-28 -59.5l-33 -72l-447 -990q-5 -9 -18 -9t-19 11l-417 988q-71 169 -97 212 q-44 73 -110 97q-40 15 -99 20q-6 0 -7 20z" />
<glyph unicode="W" horiz-adv-x="2131" d="M40 1319q2 8 9 8h2q85 -12 219 -12q232 0 328 12h2q6 0 8 -8q2 -9 -1.5 -18t-6.5 -9q-78 -7 -111.5 -21.5t-33.5 -53.5q0 -30 25 -111.5t48 -138.5l293 -729l303 700l-10 25q-73 175 -96 216q-43 73 -102 96q-33 13 -80 17q-6 0 -7 19q-1 16 8 16h1q89 -12 219 -12 q250 0 346 12h2q5 0 7 -7q2 -9 0 -18.5t-5 -9.5q-98 -8 -133 -24.5t-35 -61.5q0 -59 61 -239l248 -729l293 739q5 12 15 37.5t13.5 35.5t11 30t10.5 28.5t8.5 24t7 24t4 20t3.5 20t1 17.5q0 38 -28.5 54t-104.5 24q-2 0 -4 4t-3.5 9t-1.5 11q1 4 3 8q2 3 6 3h2 q88 -12 203 -12h41.5t32 0.5t23.5 1t21 1.5t19 2t24.5 3.5t30.5 3.5h2q7 0 7 -13q0 -16 -7 -22q-39 -4 -69 -18.5t-52 -35t-47.5 -66t-44.5 -87t-53 -122.5l-414 -990q-3 -9 -17 -9h-1q-13 0 -17 11l-309 869l-383 -871q-4 -9 -18 -9h-1q-13 0 -18 11l-395 988 q-29 72 -45 110t-38 80.5t-39.5 62t-44 38.5t-56 26.5t-70.5 11.5q-5 0 -9 9q-2 5 -2 11q1 4 2 7z" />
<glyph unicode="X" horiz-adv-x="1517" d="M68 -4q-1 4 -1 9q1 6 3 11q4 10 8 11q56 6 86.5 10t67.5 21t56.5 31t58.5 58.5t68 83t91 123.5l205 283l-187 278q-41 61 -58 86.5t-48 69.5t-43.5 59.5t-37.5 45t-36.5 38t-34.5 26t-38.5 22t-40 13t-48 11.5t-55.5 6q-5 1 -8 10q-4 10 -2 18t10 7h2q103 -12 322 -12 q152 0 251 12h2q5 0 8 -7q3 -9 0.5 -18.5t-7.5 -9.5q-94 -8 -109 -39q-3 -7 -3 -18q0 -37 45 -114q24 -41 126 -197l92 -142l135 189q130 181 151 228q11 23 11 39q0 22 -19 33q-22 12 -96 21q-2 0 -4 4t-3.5 9t-1.5 11q0 4 2 8q2 3 7 3h2q103 -12 250 -12q113 0 207 12h2 q6 0 8 -9q4 -18 -5 -25l-3 -1q-40 -3 -68.5 -7t-57 -13.5t-47.5 -18t-44 -29.5t-42 -39t-47 -55.5t-53.5 -69.5t-65.5 -90q-3 -5 -5 -7l-172 -240l215 -324q132 -198 179 -252q68 -78 147 -102q44 -13 114 -18q5 -1 7 -11q1 -5 1.5 -10t-1.5 -10q-2 -8 -7 -8h-2 q-99 12 -252 12q-235 0 -321 -12h-2q-8 0 -8 9q-2 10 1.5 20t6.5 10q89 10 105 34q6 8 6 21q0 31 -34 91q-24 43 -137 218l-120 187l-166 -232q-127 -177 -149 -220q-16 -30 -15.5 -50t15.5 -30q24 -15 100 -21q6 0 9.5 -9.5t0.5 -19.5q-3 -9 -10 -8h-2q-91 12 -205 12 q-164 0 -250 -12h-2q-8 -1 -10 8z" />
<glyph unicode="Y" horiz-adv-x="1562" d="M82 1314q1 13 9 13h1q103 -12 301 -12q157 0 252 12h2q7 0 9 -8q2 -9 -1 -18t-6 -9q-97 -9 -111 -43q-3 -6 -3 -15q0 -39 52 -124q27 -45 122 -186l137 -205l176 252q127 182 148 222q14 29 14 48t-14 28q-20 14 -99 23q-9 2 -10 22q1 13 9 13h1q103 -12 252 -12 q87 0 186 12h2q7 0 9 -8q2 -4 2 -7q0 -6 -2 -11q-4 -9 -9 -9q-46 -4 -77 -9.5t-64.5 -23t-55.5 -35t-59 -60.5t-66.5 -82.5t-86.5 -118.5l-223 -312v-301q0 -90 0.5 -126.5t7.5 -83t15.5 -58.5t33.5 -28.5t52.5 -19.5t80.5 -7q3 0 6 -10t1 -20q-2 -9 -9 -9h-2 q-94 12 -254 12q-198 0 -301 -12h-2q-5 0 -6 8q-2 10 0.5 20.5t5.5 10.5q103 11 130 24q41 19 53 80q9 52 9 219v283l-184 282q-55 84 -89.5 134t-71 95.5t-62 68t-59 41t-65 26t-77.5 12.5q-9 2 -10 22z" />
<glyph unicode="Z" horiz-adv-x="1433" d="M131 0q-2 5 -2 10q0 7 4 13l928 1226h-498q-74 0 -124.5 -3t-86 -13t-55.5 -19.5t-33.5 -32.5t-18.5 -41.5t-12 -56.5q-17 -4 -32 1q-3 2 -4 3q6 24 6 117q0 55 -8 125q164 -14 481 -14q396 0 612 12q9 3 15 -10.5t0 -22.5l-920 -1216h532q63 0 108 1.5t82 7.5t60.5 10.5 t42 19.5t28 25.5t17.5 36.5t11.5 44.5t9.5 57.5q0 2 10 2.5t19.5 -0.5t9.5 -4q0 -47 -14 -130t-25 -116q-9 -28 -19 -35.5t-36 -7.5q-33 0 -180.5 5t-250.5 5q-427 0 -643 -12q-9 0 -14 12z" />
<glyph unicode="[" horiz-adv-x="737" d="M254 -516v1978q227 0 342 14t197 44q14 6 18.5 -9.5t-4.5 -21.5q-75 -79 -383 -113v-1806q308 -34 383 -113q9 -6 4.5 -21t-18.5 -9q-81 30 -196 43.5t-343 13.5z" />
<glyph unicode="\" horiz-adv-x="677" d="M4 1462q-2 6 7.5 11.5t19 6t12.5 -4.5l676 -2128q2 -6 -7 -11.5t-18 -6t-12 4.5z" />
<glyph unicode="]" horiz-adv-x="737" d="M-55.5 -564q-4.5 15 4.5 21q78 82 387 113v1806q-158 16 -254 47t-133 66q-7 7 -3.5 21.5t17.5 9.5q84 -30 198.5 -44t344.5 -14v-1978q-231 0 -345.5 -13.5t-197.5 -43.5q-14 -6 -18.5 9z" />
<glyph unicode="^" horiz-adv-x="1433" d="M102 270q0 145 50 293q-50 145 -50 293q0 5 10 5.5t19.5 -2.5t9.5 -5q3 -35 11 -60.5t26 -43.5t36 -29t54.5 -20t66.5 -13.5t87 -11.5l196 -23l-24 197q-5 40 -8.5 64t-9.5 53t-12 46t-16 36.5t-22 30t-28.5 20.5t-37.5 15t-48 7q-3 0 -6 10t-2 19.5t6 9.5q149 0 307 -49 q155 49 305 49q8 0 8.5 -9.5t-3.5 -19.5t-7 -10q-27 -2 -48 -7t-37.5 -15t-28.5 -20.5t-22 -30t-16 -36.5t-12 -46t-9.5 -53t-8.5 -64l-25 -197l199 23q64 7 101 13t74 18t56 30t31.5 46.5t15.5 70.5q0 3 11 6t21.5 2.5t10.5 -6.5q0 -135 -51 -293q51 -161 51 -293 q0 -6 -10.5 -6.5t-21.5 2.5t-11 6q-3 42 -15.5 70.5t-31.5 46.5t-55.5 30.5t-74 18.5t-101.5 13l-197 20l25 -195q7 -55 11.5 -84t13.5 -64.5t20.5 -53t30 -35t44.5 -25t62 -10.5q5 0 9 -19.5t-9 -19.5q-159 0 -305 49q-148 -49 -307 -49q-6 0 -6.5 9.5t2.5 19.5t6 10 q43 4 72 16.5t47 30t30.5 55t18.5 72t14 98.5l24 195l-196 -20q-64 -7 -102 -13t-74.5 -18.5t-56 -30.5t-32 -46.5t-16.5 -70.5q0 -3 -9.5 -6t-19.5 -2.5t-10 6.5z" />
<glyph unicode="_" horiz-adv-x="1349" d="M140 25.5q0 29.5 7 29.5l527 -8l528 8q6 0 6 -29.5t-6 -29.5l-528 6l-527 -6q-7 0 -7 29.5z" />
<glyph unicode="`" horiz-adv-x="464" d="M51 1311q-8 8 6.5 26t35.5 28t28 1l299 -391q6 -8 0 -15.5t-15 -8.5t-16 5z" />
<glyph unicode="a" horiz-adv-x="872" d="M82 147q0 92 116 155t369 77q4 156 4 225q0 99 -57 133q-41 23 -119 23q-45 0 -82 -18t-37 -40q0 -14 5.5 -32t5.5 -31q0 -31 -43 -57.5t-94 -26.5q-24 0 -38.5 12.5t-11.5 30.5q1 29 42 73t100.5 85t138.5 70.5t147 29.5q85 0 139.5 -58t55.5 -159v-15q0 -56 -5 -228 t-5 -240v-19q1 -59 39 -75q13 -5 33 -6q38 0 102 20l10 -15q2 -5 1.5 -8.5t-1.5 -5.5q-116 -82 -199 -82q-56 0 -92.5 33t-42.5 92q-61 -55 -139 -87t-152 -32q-87 0 -138.5 49.5t-51.5 126.5zM246 166q0 -103 127 -103q51 0 92 17.5t92 58.5q4 80 8 199 q-97 -7 -162.5 -23.5t-98 -40.5t-45.5 -49.5t-13 -58.5z" />
<glyph unicode="b" horiz-adv-x="1056" d="M18 1320q-2 6 -2 10q0 6 4 9q5 3 32.5 17.5t37.5 20t36 19.5t39.5 22t35.5 21.5t36.5 23.5t31 22.5t28.5 23.5q0 1 2 1q3 0 7 -2q8 -2 14.5 -7t5.5 -10q-13 -51 -13 -293v-459q88 51 159.5 75t156.5 24q144 0 249 -114.5t105 -279.5q0 -88 -40 -173.5t-107.5 -151.5 t-163 -107t-199.5 -41q-55 0 -153 20q-63 13 -111 13q-26 0 -47 -4q-13 -3 -19.5 10.5t-1.5 26.5q17 49 17 242v911q0 96 -24 120q-12 12 -38 11q-26 0 -65 -12q-7 -2 -13 11zM313 143q72 -82 250 -82q121 0 186.5 83.5t65.5 244.5q0 168 -81.5 258t-215.5 90 q-113 0 -205 -57v-537z" />
<glyph unicode="c" horiz-adv-x="847" d="M74 369q0 125 72 237t199.5 181t277.5 69q70 0 117.5 -24t47.5 -48q0 -29 -26 -71.5t-47 -42.5q-23 0 -61.5 20t-87 40t-97.5 20q-120 0 -176.5 -72.5t-56.5 -226.5q0 -184 85 -282.5t207 -98.5q134 0 252 88q3 2 10 -4t10 -14q1 -3 1 -6q0 -4 -2 -7q-63 -65 -152 -110.5 t-190 -45.5q-165 0 -274 115t-109 283z" />
<glyph unicode="d" horiz-adv-x="1085" d="M74 367q0 123 64.5 231t179 174t251.5 66q82 0 172 -23v375q1 96 -25 120q-13 12 -38 11q-26 0 -64 -12q-2 -1 -6 5t-5 13t3 12q5 3 17 9q194 104 258 161q0 1 2 1t7 -2q8 -2 15 -7t6 -10q-12 -47 -12 -293v-1026q0 -70 34 -84q12 -5 32 -5q35 0 94 17q1 1 4 -4 q8 -13 8 -22q0 -3 -1 -6q-1 -2 -3 -2q-198 -99 -262 -99q-23 0 -40 40t-22 87q-163 -123 -303 -123q-149 0 -257.5 115t-108.5 281zM231 434q0 -87 27.5 -157.5t72.5 -113.5t99 -66t111 -23q84 0 200 80v489q-111 115 -264 115q-115 0 -180.5 -82.5t-65.5 -241.5z" />
<glyph unicode="e" horiz-adv-x="901" d="M74 385q0 121 65 231t168.5 175t212.5 65q76 0 138.5 -26t101 -67t59.5 -88.5t21 -94.5q0 -7 -2 -16.5t-6 -21t-5 -16.5l-587 -14q-2 -20 -2 -66q0 -97 26 -172t70.5 -119t98 -65.5t112.5 -21.5q145 0 262 86q1 2 7.5 -4t11.5 -14t1 -11q-60 -66 -157.5 -110t-194.5 -44 q-179 0 -290 115.5t-111 298.5zM246 557l432 10q-3 83 -62 154.5t-151 71.5q-78 0 -137 -63t-82 -173z" />
<glyph unicode="f" horiz-adv-x="661" d="M59 792l2 3q131 7 170 26v78q0 258 139.5 431t334.5 173q60 0 116 -31t56 -55q0 -32 -31 -76.5t-55 -44.5q-21 0 -58 21.5t-82.5 43t-85.5 21.5q-73 0 -111 -40t-53.5 -133t-15.5 -271v-119h107q145 0 170 6q4 2 7 -8q6 -16 6 -34q0 -14 -4 -30q-2 -13 -7 -14 q-46 4 -146 4h-133v-540q0 -74 14.5 -107t56 -48t134.5 -19q6 0 7 -22q-2 -15 -8 -15h-1q-57 8 -273 8q-176 0 -235 -8h-2q-4 0 -5 7q-3 18 5 29l2 1q41 5 59.5 7.5t40 10.5t28 17t14 29.5t8.5 44t1 65.5v540q-27 0 -90 1t-71 1q-5 -2 -8 8q-5 14 -5 25q0 7 2 14z" />
<glyph unicode="g" horiz-adv-x="927" d="M37 -313q0 75 64.5 139.5t179.5 97.5q-59 27 -103.5 82t-44.5 86q0 21 33 38.5t91.5 36.5t78.5 28q-105 50 -168.5 133t-63.5 192q0 134 105.5 236t267.5 102q44 0 118 -12t118 -12q150 0 170 6q11 3 17 -17q5 -16 5 -33q0 -20 -7 -40q-7 -18 -17 -17q-23 4 -121 4h-15 q68 -81 68 -188q0 -102 -68 -190t-180 -126q-109 -38 -167 -61.5t-74.5 -35t-16.5 -21.5q0 -30 37 -53q34 -21 101 -21h6l155 4h22q161 0 235 -56q79 -60 79 -159q0 -80 -47.5 -153t-123.5 -123t-171 -79.5t-188 -29.5q-173 0 -274 73.5t-101 168.5zM203 -270 q0 -82 75.5 -139.5t219.5 -57.5q146 0 229.5 61t83.5 152q0 74 -63 120q-58 44 -155 44h-13l-246 -6q-72 -33 -101.5 -73.5t-29.5 -100.5zM260 575q0 -140 71.5 -220.5t157.5 -80.5q81 0 124.5 58.5t43.5 161.5q0 145 -62.5 227t-154.5 82t-136 -60.5t-44 -167.5z" />
<glyph unicode="h" horiz-adv-x="1077" d="M28 -1v9q0 15 5 23q42 4 60.5 6.5t40.5 10t29 16.5t15 29t9 44.5t1 65.5v987q0 96 -25 120q-12 12 -37 11q-26 0 -65 -12q-7 -2 -12 11t2 19q5 3 32.5 17.5t37.5 20t36 19.5t39.5 22t35.5 21.5t36.5 23.5t31 22.5t28.5 23.5q0 1 2 1t6 -2q7 -2 13 -7t5 -10 q-10 -39 -10 -293l-2 -493q115 84 198.5 117.5t161.5 33.5q110 0 159.5 -65.5t49.5 -190.5v-397q0 -40 1 -61.5t6.5 -43t14 -31t26.5 -18.5t41 -12t61 -6q6 0 6 -24q0 -15 -5 -15h-1q-57 8 -225 8q-146 0 -205 -8h-2q-3 0 -4 7q-2 21 6 32q35 3 53 7.5t35 14t24 28.5 t11 47.5t4 74.5v307q0 131 -35 190.5t-113 59.5q-51 0 -103 -21t-165 -88v-448q0 -104 21.5 -134t101.5 -38q5 0 7 -10t0 -20q-2 -9 -8 -9h-1q-52 8 -191 8q-180 0 -237 -8h-2q-3 0 -5 7z" />
<glyph unicode="i" horiz-adv-x="559" d="M61 17q2 12 5 12q41 5 59.5 7.5t40 10.5t28 17t14 29.5t8.5 44t1 65.5v346q-1 96 -25 119q-12 11 -35 11q-26 0 -67 -13q-7 -2 -12 11t2 19q212 118 276 178q1 2 8.5 -0.5t14.5 -7.5t6 -10q-12 -49 -12 -299v-354q0 -42 1 -65.5t8 -44t13.5 -29.5t27.5 -17t39.5 -10.5 t59.5 -7.5q6 0 6 -23q-1 -14 -6 -14q-59 8 -225 8q-172 0 -231 -8h-1q-5 0 -5 11q0 6 1 14zM229 1219q0 39 28 68.5t67 29.5t67.5 -28.5t28.5 -65.5q0 -39 -29.5 -68t-71.5 -29q-36 0 -63 28t-27 65z" />
<glyph unicode="j" horiz-adv-x="542" d="M142 -388q41 67 58 156t17 246v535q0 96 -25 119q-13 12 -38 12q-26 0 -64 -12q-7 -2 -14 14q-6 13 2 14q209 114 278 178q1 2 8.5 -0.5t14.5 -7.5t6 -10q-12 -47 -12 -299v-543q0 -84 -6 -146t-25.5 -115.5t-40 -90t-65.5 -80.5t-85 -76t-114 -86q-2 -1 -3 -1 q-6 0 -15 13q-9 14 -9 18zM227 1219q0 39 28.5 69.5t68.5 30.5q39 0 66.5 -28.5t27.5 -65.5q0 -40 -29 -69.5t-70 -29.5q-38 0 -65 28t-27 65z" />
<glyph unicode="k" horiz-adv-x="989" d="M27 -1q-1 19 6 30q42 5 60.5 7.5t40.5 10.5t29 17t15 29t9 44.5t1 65.5v987q0 96 -26 120q-13 12 -38 12t-63 -13q-7 -2 -13.5 12t1.5 18q210 110 279 170q0 1 2 1t6 -2q7 -2 13 -7t5 -10q-12 -47 -12 -293v-995q0 -104 21.5 -134t101.5 -38q5 0 7 -10t0 -20q-2 -9 -8 -9 h-1q-52 8 -193 8q-176 0 -235 -8h-2q-4 0 -6 7zM346 426l229 211q78 71 78 113q0 45 -92 55q-5 0 -5 23q-1 14 4 14h1q79 -8 180 -8q156 0 195 6q6 1 8.5 -8t0.5 -18t-5 -9q-66 -6 -135.5 -51.5t-157.5 -128.5l-162 -152l306 -307q127 -127 229 -135q5 0 5 -17v-6 q-2 -16 -8 -16h-1q-52 8 -219 8q-136 0 -195 -8h-1q-8 0 -4 27q1 10 3 10q44 7 57.5 17t0 38.5t-67.5 85.5z" />
<glyph unicode="l" horiz-adv-x="530" d="M30 17q2 12 5 12q41 5 59.5 7.5t40.5 10.5t28.5 17t14.5 29t9 44.5t1 65.5v987q0 96 -25 120q-12 12 -37 11q-26 0 -65 -12q-7 -2 -12 11t2 19q5 3 32.5 17.5t37.5 20t36 19.5t39.5 22t35.5 21.5t36.5 23.5t31 22.5t28.5 23.5q0 1 2 1t6 -2q8 -2 14.5 -7t5.5 -10 q-12 -47 -12 -293v-995q0 -42 1 -65.5t8 -44t14 -29.5t28 -17t39.5 -10.5t59.5 -7.5q6 0 6 -23q0 -14 -5 -14h-1q-59 8 -232 8q-168 0 -227 -8h-1q-5 0 -5 11q0 6 1 14z" />
<glyph unicode="m" horiz-adv-x="1640" d="M59 -1q-1 5 -1 9q0 14 5 23q31 3 46.5 5t35.5 6.5t28 8.5t18.5 13.5t13.5 20t7 29t4.5 38.5t0.5 51v344q-1 97 -25 121q-12 12 -35 12q-26 0 -67 -14q-7 -2 -13.5 13t1.5 19q130 68 254 176q0 1 2 1q2 1 5 -1q6 -2 12 -7.5t7 -10.5q7 -58 11 -156q96 68 187.5 112 t148.5 44q85 0 135.5 -40t70.5 -124q92 69 184.5 111.5t164.5 42.5q108 0 160.5 -62.5t52.5 -195.5v-385q0 -106 21 -136t105 -36q5 0 5 -17v-6q-2 -16 -8 -16h-1q-57 8 -198 8q-148 0 -205 -8h-2q-3 0 -4 7q-2 21 6 32q35 3 53 7.5t35 14t24 28.5t11 47.5t4 74.5v295 q0 137 -33 193.5t-106 56.5q-110 0 -262 -103q4 -28 4 -45v-397q0 -105 22.5 -135.5t106.5 -36.5q6 0 5 -23q-2 -16 -8 -16h-1q-57 8 -193 8q-154 0 -213 -8h-1q-8 0 -3 28q2 11 4 11q44 4 65 9.5t37.5 24t20.5 49.5t4 89v307q0 140 -33 195t-117 55q-68 0 -247 -109v-448 q0 -104 21.5 -134.5t103.5 -37.5q6 0 6 -23q-1 -16 -7 -16h-1q-57 8 -193 8q-178 0 -235 -8h-2q-3 0 -5 7z" />
<glyph unicode="n" horiz-adv-x="1105" d="M59 -1q-1 5 -1 9q0 14 5 23q31 3 46.5 5t35.5 6.5t28 8.5t18.5 13.5t13.5 20t7 29t4.5 38.5t0.5 51v344q-1 97 -25 121q-12 12 -35 12q-26 0 -67 -14q-7 -2 -13.5 13t1.5 19q130 68 254 176q0 1 2 1q2 1 5 -1q6 -2 12 -7.5t7 -10.5q7 -58 11 -156q125 86 207.5 121 t154.5 35q110 0 159.5 -65.5t49.5 -190.5v-397q0 -40 1 -61.5t6.5 -43t14 -31t26.5 -18.5t41 -12t61 -6q4 1 4 -13v-11q-2 -15 -7 -15q-52 8 -223 8q-146 0 -205 -8h-2q-3 0 -4 7q-2 21 6 32q44 4 64.5 9.5t37 24t21 49.5t4.5 89v307q0 136 -30.5 193t-116.5 57 q-51 0 -103 -21t-165 -88v-448q0 -104 21.5 -134.5t103.5 -37.5q6 0 6 -23q-1 -16 -7 -16h-1q-57 8 -193 8q-178 0 -235 -8h-2q-3 0 -5 7z" />
<glyph unicode="o" horiz-adv-x="1048" d="M74 399q0 89 32 171t90 146t146.5 102t192.5 38q98 0 182 -35.5t140 -95t88 -136.5t32 -161q0 -89 -33 -171t-91.5 -146t-147.5 -102t-193 -38q-130 0 -231.5 61t-154 157.5t-52.5 209.5zM240 481q0 -209 86.5 -328.5t232.5 -119.5q80 0 137.5 44.5t84 114t26.5 154.5 q0 209 -87 330t-231 121q-120 0 -184.5 -91.5t-64.5 -224.5z" />
<glyph unicode="p" horiz-adv-x="1073" d="M50 687q0 5 3 9q133 74 254 183q1 1 2.5 1t4.5 -1q7 -2 14 -7t8 -10q3 -14 4 -39t1 -58.5t1 -49.5q153 123 295 123q155 0 261 -114t106 -273q0 -85 -41 -171t-109.5 -154.5t-167.5 -111.5t-207 -43q-65 0 -133 19v-307q0 -40 2 -64t11 -44.5t20.5 -30t38 -16.5t55 -9 t80.5 -4q5 0 6.5 -18.5t-6.5 -18.5q-41 3 -139 4h-36q-69 0 -102 -2q-135 -3 -213 -17h-2q-2 0 -4 6q-3 20 4 29q35 5 54 8.5t35.5 13t23 17.5t11 31.5t5 44t0.5 65.5v373q-13 6 -39 21.5t-34 19.5l73 109v346q0 96 -26 121q-13 11 -37 11q-26 0 -66 -13q-2 -1 -6 5 q-5 8 -5 16zM346 131q122 -68 254 -68q106 0 171 92.5t65 250.5q0 151 -85.5 236t-201.5 85q-95 0 -203 -63v-533z" />
<glyph unicode="q" horiz-adv-x="1056" d="M74 367q0 88 38 173t101.5 151t155.5 106.5t192 40.5q118 0 225 -66q41 37 93 102q3 4 8 4t13 -4q15 -7 13 -16q-10 -52 -10 -190v-985q0 -41 1 -62.5t7.5 -43.5t16.5 -31t31.5 -17.5t49 -11t72.5 -4.5q6 0 6 -22q-2 -16 -8 -15q-27 4 -119 5h-56q-50 0 -77 -1 q-129 -3 -206 -17h-2q-2 0 -4 6q-3 20 3 31q33 4 51 8t34.5 12.5t23.5 18.5t13 31t7 45.5t1 65.5v387q-117 -97 -289 -97q-50 0 -102.5 15.5t-103 48t-90.5 78t-64.5 111.5t-24.5 143zM236 455q0 -96 29 -172.5t75.5 -121.5t101 -68t111.5 -23q116 0 195 59v477 q-45 66 -117 105t-156 39q-110 0 -174.5 -74t-64.5 -221z" />
<glyph unicode="r" horiz-adv-x="743" d="M61 17q2 12 5 12q41 5 59.5 7.5t40 10.5t28 17t14 29.5t8.5 44t1 65.5v346q1 95 -25 119q-12 11 -37 12q-26 0 -67 -14q-2 -1 -6 5t-5 13t3 12q139 78 254 181q1 2 8 -1t13.5 -8t6.5 -8q8 -59 11 -178q85 99 153.5 148t108.5 49t75 -40.5t35 -64.5q0 -29 -28.5 -70.5 t-46.5 -41.5q-12 0 -61 30.5t-83 30.5t-68.5 -23t-84.5 -82v-415q0 -56 5.5 -85t28.5 -50.5t61 -28.5t110 -10q5 0 4 -22q-2 -15 -8 -15h-1q-57 8 -270 8q-178 0 -237 -8h-1q-5 0 -5 11q0 6 1 14z" />
<glyph unicode="s" horiz-adv-x="735" d="M90 266q0 5 15.5 5.5t21.5 -1.5q35 -126 103.5 -185.5t154.5 -59.5q143 0 143 141q0 55 -41.5 99.5t-101 78t-119.5 68.5t-101.5 86.5t-41.5 115.5q0 99 79 170.5t214 71.5q107 0 182 -37q8 -5 17.5 -77t9.5 -134q0 -4 -18.5 -4.5t-20.5 2.5q-28 89 -88.5 145t-126.5 56 q-54 0 -83.5 -34.5t-29.5 -94.5q0 -38 22 -70.5t57.5 -56t78 -46.5t85.5 -47.5t78.5 -53.5t57.5 -70.5t22 -91.5q0 -111 -87.5 -191t-221.5 -80q-131 0 -248 62q-12 6 -12 233z" />
<glyph unicode="t" horiz-adv-x="690" d="M84 766q128 86 278 250h2h6q8 -2 15 -6t6 -9q-2 -17 -5 -51.5t-6.5 -75t-4.5 -55.5h108q154 0 181 8q4 2 6 -7q3 -11 3 -26q0 -20 -6 -44q-7 -27 -18 -25q-35 6 -139 6h-135l-8 -510q-1 -85 36.5 -120t108.5 -35q68 0 150 20q4 0 10 -14q3 -7 3 -11.5t-3 -7.5 q-61 -37 -139.5 -59.5t-126.5 -22.5q-101 0 -147 49q-44 47 -44 145v9l8 557q-109 0 -129 -2q-6 -1 -10 8q-3 8 -3 16q0 10 3 13z" />
<glyph unicode="u" horiz-adv-x="1050" d="M32 752q-2 6 -1 9q0 6 4 7q144 26 252 90q1 2 7.5 -1.5t13 -9.5t7.5 -11q7 -65 7 -197l-5 -322v-8q0 -135 33 -185q34 -52 127 -52q106 0 246 123l6 432v14q0 67 -18 85q-20 20 -109 26q-3 0 -7 8.5t-4.5 15.5t3.5 8q150 24 254 82q3 0 14.5 -9.5t11.5 -14.5 q7 -65 7 -203l-4 -467q-1 -70 35 -84q12 -5 32 -5q36 0 96 17q1 1 3.5 -2.5t4.5 -7.5t4 -10q1 -4 1 -8q0 -5 -4 -6q-69 -35 -150 -67t-113 -32q-27 0 -44.5 47.5t-18.5 128.5q-73 -72 -164 -122t-166 -50q-104 0 -167 65t-62 191l6 389v13q0 67 -19 85q-21 20 -110 23 q-5 1 -9 15z" />
<glyph unicode="v" horiz-adv-x="897" d="M-30 814q-1 3 -1 7q1 6 3 11q4 9 10 8q39 -6 211 -6q131 0 210 8h1q8 0 4 -25q-2 -12 -5 -12q-55 -6 -76.5 -20t-20 -48t29.5 -104l176 -436l176 436q28 72 28 109q0 14 -4 22q-14 32 -91 41q-6 0 -8 22q-1 15 7 15h1q79 -8 167 -8q119 0 158 6q6 1 8 -8l2 -10 q0 -4 -1 -8q-2 -9 -5 -9q-81 -6 -120.5 -42.5t-79.5 -133.5l-265 -649q-4 -10 -22 -11h-3q-15 0 -18 8l-266 652q-39 99 -80 134.5t-119 41.5q-5 0 -7 9z" />
<glyph unicode="w" horiz-adv-x="1398" d="M-27 814q-1 4 -1 7q0 5 2 11q3 9 10 8q37 -6 209 -6q134 0 213 8h1q8 0 3 -27q-2 -10 -4 -10q-55 -6 -76.5 -20t-20.5 -48.5t29 -103.5l176 -436l184 456q-35 85 -72.5 115.5t-111.5 36.5q-6 0 -7 21q2 15 9 14q43 -6 213 -6q132 0 211 8h1q8 0 4 -25q-2 -12 -5 -12 q-56 -7 -78 -21q-23 -15 -23 -50q0 -34 25 -101l154 -426l170 426q27 68 28.5 102t-20 49t-76.5 21q-5 0 -5 23q-1 14 4 14h1q79 -8 168 -8q121 0 160 6q6 1 8 -8q2 -6 2 -11v-7q-2 -9 -4 -9q-82 -6 -121.5 -42.5t-79.5 -133.5l-266 -649q-4 -12 -22 -12t-21 9l-217 594 l-240 -591q-4 -10 -22 -11t-21 8l-266 652q-39 99 -80 134.5t-118 41.5q-5 0 -7 9z" />
<glyph unicode="x" horiz-adv-x="937" d="M12 828q0 14 5 14h1q52 -8 199 -8q116 0 189 8h2q10 0 4 -25q-2 -12 -6 -12q-43 -7 -59 -17t-9.5 -39.5t45.5 -84.5l117 -162l110 133q31 37 46 64.5t16 50t-21 36.5t-67 19q-6 0 -8 22q-1 15 7 15h1q73 -8 147 -8q124 0 176 8h1q2 0 4 -3q2 -4 2 -9.5v-11t-1 -9.5t-2 -4 q-63 -5 -117.5 -50t-123.5 -128l-138 -168l211 -293q90 -127 193 -135q1 0 2 -4t1 -10t-0.5 -12t-2.5 -10q-1 -3 -3 -3h-1q-49 8 -213 8q-117 0 -168 -8h-2q-4 0 -5 7q-4 20 3 32q25 4 39 8.5t24 13.5t8.5 23.5t-13.5 37.5t-36 56q-109 157 -127 180l-123 -151 q-43 -53 -56 -86.5t6 -54.5t77 -27q6 0 6 -24q0 -15 -5 -15h-1q-57 8 -137 8q-137 0 -189 -8h-1q-8 0 -6 26q2 13 5 13q51 3 107 41t135 135l152 186q1 1 -50 69.5t-102 137.5l-51 68q-92 129 -193 137q-4 0 -4 16v7z" />
<glyph unicode="y" horiz-adv-x="878" d="M-30 814q-1 3 -1 7q0 5 3 11q3 9 10 8q39 -6 211 -6q126 0 202 8h2q10 0 4 -25q-2 -12 -6 -12q-79 -9 -91 -39q-4 -8 -4 -21q0 -36 26 -112l157 -463l191 463q28 71 28 108q0 14 -4 23q-15 32 -96 41q-6 0 -6 23q1 14 6 14q79 -8 170 -8q108 0 160 8h1q2 0 3 -3 q2 -4 2.5 -9.5t0.5 -11t-1 -9.5t-2 -4q-81 -6 -122.5 -43t-80.5 -133q-5 -13 -55 -125t-94.5 -222t-98.5 -254t-93 -288t-52 -258q-21 -1 -76.5 -1t-73.5 -1q-82 -3 -129 -12h-1q-3 0 -4 2q-3 4 -4 9.5t-1 11t1 9.5t3 4q68 11 129 60q89 68 168 276l56 144l-232 645 q-35 100 -77 135t-122 41q-5 0 -7 9z" />
<glyph unicode="z" horiz-adv-x="884" d="M59 4q-2 5 -2.5 9t2.5 7l541 760h-219q-58 0 -100 -14.5t-69 -45t-43 -64t-32 -85.5q-20 0 -33 9q-3 2 -2 4q18 91 23 127q10 85 10 129q108 -6 289 -6q236 0 377 8q7 0 12 -11.5t0 -19.5l-537 -752h273q102 0 169 69.5t81 172.5q0 2 9.5 2.5t19.5 -0.5t10 -4 q0 -28 -21 -139t-29 -137q-5 -16 -11.5 -22.5t-22.5 -6.5q-20 0 -121.5 3t-161.5 3q-293 0 -399 -6q-8 0 -13 10z" />
<glyph unicode="{" horiz-adv-x="673" d="M66.5 428.5q-5.5 9.5 0 19.5t19.5 11q155 14 220 94.5t65 212.5q0 52 -19.5 112.5t-43 107.5t-43 103.5t-19.5 100.5q0 99 92 195.5t270 156.5q4 1 9.5 -8.5t6.5 -19t-6 -13.5q-89 -36 -143.5 -94t-54.5 -113q0 -48 21 -120.5t42 -157t21 -162.5q0 -144 -83 -256 t-243 -160q151 -35 238.5 -152.5t87.5 -260.5q0 -78 -21 -163t-42 -157.5t-21 -120.5q0 -55 54 -112t144 -93q7 -4 6 -14t-6.5 -20t-9.5 -9q-178 60 -270 157t-92 196q0 44 19.5 100.5t43 103.5t43 107.5t19.5 112.5q0 133 -65 212.5t-220 92.5q-14 1 -19.5 10.5z" />
<glyph unicode="|" horiz-adv-x="1626" d="M65 1287q-5 15 7 20q101 36 207 36q110 0 210.5 -45.5t177 -124.5t132.5 -181.5t86 -219.5q84 243 252 401t362 158q71 0 141 -24q8 -4 7.5 -12t-5.5 -16t-8 -7q-41 8 -94 8q-163 0 -301.5 -123t-217.5 -325.5t-79 -430.5v-51v-127.5t7.5 -83t15.5 -58t33.5 -28.5 t52 -19.5t79.5 -6.5q5 0 7.5 -10.5t0 -20.5t-9.5 -8q-99 12 -254 12q-198 0 -301 -12q-9 -1 -10.5 9t2 20t6.5 10q103 10 130 23q42 20 53 83q10 53 10 217v51q0 183 -51 347.5t-135 279t-196 181.5t-230 67q-26 0 -76 -4q-6 0 -11 15z" />
<glyph unicode="}" horiz-adv-x="673" d="M47 -637q-1 10 10 16q89 37 145 94t56 111q0 48 -21.5 120.5t-43 157.5t-21.5 163q0 93 36.5 177t111.5 148t176 88q-160 48 -242 160t-82 256q0 78 21.5 162.5t43 157t21.5 120.5q0 54 -56 112t-145 95q-11 6 -10 15.5t8 18t11 7.5q177 -60 270.5 -157t93.5 -195 q0 -44 -19.5 -100.5t-43 -103.5t-43 -107.5t-19.5 -112.5q0 -133 64.5 -213t218.5 -94q14 -1 19.5 -11t0 -19.5t-19.5 -10.5q-154 -13 -218.5 -92.5t-64.5 -212.5q0 -52 19.5 -112.5t43 -107.5t43 -103.5t19.5 -100.5q0 -99 -93.5 -196t-270.5 -157q-4 -1 -11 8t-8 19z" />
<glyph unicode="~" horiz-adv-x="778" d="M47 520q9 98 67 153.5t148 55.5q45 0 150.5 -37t156.5 -37q49 0 78 24.5t45 94.5q0 1 10 -0.5t19.5 -4.5t9.5 -7q-8 -90 -56.5 -143.5t-131.5 -53.5q-49 0 -156 40t-172 40q-101 0 -129 -135q-7 -2 -23 2t-16 8z" />
<glyph unicode="&#xa1;" horiz-adv-x="514" d="M152 -420q11 421 86 922q2 7 21.5 5t19.5 -7q0 -439 53 -889q3 -21 -42 -35t-91.5 -13t-46.5 17zM168 750q0 35 25.5 61.5t64.5 26.5q35 0 60.5 -25.5t25.5 -58.5q0 -35 -26.5 -60.5t-65.5 -25.5q-35 0 -59.5 24.5t-24.5 57.5z" />
<glyph unicode="&#xa2;" horiz-adv-x="847" d="M74 369q0 163 121 299t303 174l8 112q0 6 12.5 8t25 -1.5t11.5 -10.5l-8 -100q5 0 32.5 3t43.5 3q70 0 117.5 -24t47.5 -48q0 -29 -26 -71.5t-47 -42.5q-25 0 -84.5 28.5t-91.5 38.5l-45 -665q6 0 17.5 -1t16.5 -1q134 0 252 88q3 2 10 -4.5t10 -14t-1 -12.5 q-137 -141 -312 -154l-6 -94q0 -6 -12.5 -7.5t-24.5 1t-12 8.5l6 92q-159 7 -261.5 119.5t-102.5 276.5zM236 451q0 -151 57.5 -244.5t150.5 -126.5l48 668q0 3 -3.5 3.5t-10.5 -0.5t-9 -1q-120 0 -176.5 -72.5t-56.5 -226.5z" />
<glyph unicode="&#xa3;" horiz-adv-x="1394" d="M-43 -242q0 31 19.5 66t60.5 71.5t119 63t180 33.5q26 70 63 284l-293 -4q-12 0 -12 27t12 27q314 -13 314 -15l-14 2q34 211 59 308q50 203 172 350q72 87 167.5 141.5t188.5 54.5q68 0 112 -41t44 -94q0 -41 -27.5 -71.5t-54.5 -40.5t-31 -5q-44 49 -98 83t-100 34 q-38 0 -64 -13t-48.5 -43.5t-41.5 -94t-36.5 -152t-39.5 -229.5q-15 -94 -39 -183l344 9q12 0 11.5 -27t-11.5 -27q-23 1 -59.5 2t-114.5 4t-130 4.5t-52 0.5q-58 -179 -170 -293v-2q6 0 12 1t17 1q81 0 172.5 -22.5t171 -55t154 -64.5t145 -54.5t121.5 -22.5q60 0 88 32.5 t28 85.5q0 45 -37 82.5t-104 57.5q-2 2 -2.5 10t4.5 16.5t12 7.5q89 -14 146 -72.5t57 -123.5q0 -37 -14.5 -74t-44 -71.5t-83 -56t-122.5 -21.5q-74 0 -155.5 30t-153 73.5t-140 86.5t-139 73t-127.5 30q-10 0 -14.5 -2t-11.5 -3q-51 -143 -122 -215.5t-149 -72.5 q-60 0 -99.5 35.5t-39.5 78.5z" />
<glyph unicode="&#xa4;" horiz-adv-x="1417" d="M16 465q0 27 7 27l153 -5q-2 16 -2 52q0 57 12 110q0 1 -41 -2t-81 -7l-41 -3q-7 0 -7 26.5t7 26.5q186 -10 186 -12l-14 2q26 97 85.5 184t142.5 154.5t195 107t234 39.5q111 0 227 -33.5t150 -60.5q11 -9 23.5 -95t15.5 -169q0 -7 -18.5 -7t-20.5 5q-11 52 -45.5 104 t-86.5 96t-127.5 71.5t-160.5 27.5q-184 0 -307 -111t-146 -309h37l373 6q6 0 6 -26.5t-6 -26.5l-373 6h-39v-39q0 -60 6 -119h33l373 7q6 0 6 -27t-6 -27l-373 6q-2 1 -4.5 1.5t-8 2.5t-9.5 3t-4 0q28 -137 105 -235.5t176.5 -144.5t211.5 -46q138 0 244.5 83.5 t134.5 213.5q1 5 19 3.5t18 -8.5q-5 -86 -17 -170.5t-22 -91.5q-129 -96 -393 -96q-133 0 -249.5 38t-200 104t-138 153t-72.5 186l-161 -2q-7 0 -7 27z" />
<glyph unicode="&#xa5;" horiz-adv-x="1347" d="M-10 1119q0 10 6 11q95 31 178 31q191 0 336.5 -136.5t200.5 -342.5q75 214 214.5 341.5t301.5 127.5q53 0 125 -21q5 -3 4 -11.5t-5.5 -17t-7.5 -7.5q-50 8 -79 8q-166 0 -297 -145t-185 -367l375 6q7 0 7 -26.5t-7 -26.5l-383 4q-14 -69 -20 -158l403 8q7 0 7 -26.5 t-7 -26.5l-401 6v-2v-45q0 -66 1 -101t7.5 -70t15.5 -49.5t30 -28t47 -18t69 -7.5q7 0 7 -24q0 -16 -7 -15q-92 10 -236 10q-200 0 -276 -10q-5 -2 -6 7q-2 21 6 32q33 3 52 6t40 9.5t30.5 13t20.5 22.5t14.5 32.5t7.5 46.5t4.5 62t0.5 82v45v2l-404 -6q-8 0 -8 26.5t8 26.5 l404 -8q-3 79 -19 158l-385 -4q-8 0 -8 26.5t8 26.5q305 -10 379 -12q-54 229 -190 371.5t-303 142.5q-24 0 -64 -4q-5 -2 -8.5 6.5t-3.5 18.5z" />
<glyph unicode="&#xa7;" horiz-adv-x="1075" d="M119 633q0 91 49.5 176.5t130.5 144.5q-4 28 -4 41q0 97 84 195q70 83 159.5 129.5t178.5 46.5q67 0 110 -41t43 -94q0 -26 -11 -48t-27 -35t-32 -21.5t-28 -11t-14 0.5q-44 48 -96.5 81.5t-96.5 33.5q-85 0 -118 -39t-33 -117q0 -50 31 -103t81 -101t110 -98 t120.5 -103.5t110.5 -107.5t81 -119t31 -130q0 -91 -51.5 -174.5t-136.5 -142.5q6 -18 6 -37q0 -98 -84 -199q-143 -172 -320 -172q-99 0 -180.5 55.5t-81.5 125.5q0 41 27 70t53.5 38.5t30.5 3.5q57 -68 134 -117t142 -49q160 0 160 164q0 50 -31 102.5t-80 99.5t-109 96.5 t-119.5 101.5t-108.5 105.5t-80 118t-31 130.5zM240 737q0 -64 34 -128t85.5 -115.5t116 -109t123 -107.5t108.5 -111t71 -119q78 68 78 160q0 55 -25 109.5t-66.5 102.5t-92.5 95t-106.5 94.5t-104.5 93t-90 97.5t-60 102q-71 -71 -71 -164z" />
<glyph unicode="&#xa8;" horiz-adv-x="905" d="M162 1122q0 39 29.5 69t72.5 30q39 0 67.5 -29t28.5 -66q0 -39 -29 -67.5t-71 -28.5q-41 0 -69.5 27.5t-28.5 64.5zM547 1122q0 40 28.5 69.5t71.5 29.5q40 0 68 -28.5t28 -66.5q0 -39 -29 -67.5t-71 -28.5q-41 0 -68.5 27.5t-27.5 64.5z" />
<glyph unicode="&#xa9;" horiz-adv-x="1443" d="M109 567q0 162 82 300t223 218t307 80q167 0 309 -80t224.5 -218t82.5 -300q0 -161 -82.5 -298.5t-224.5 -217.5t-309 -80q-166 0 -307 80t-223 217.5t-82 298.5zM152 567q0 -150 76.5 -277.5t207.5 -201.5t285 -74q117 0 223 44t182.5 118t122 176.5t45.5 214.5 q0 113 -45.5 216t-122 178t-182.5 119t-223 44q-154 0 -285 -74.5t-207.5 -203t-76.5 -279.5zM422 557q0 121 95.5 214t238.5 93q54 0 110.5 -17t73.5 -30q5 -3 12.5 -51t8.5 -88q0 -7 -15.5 -7t-17.5 5q-10 58 -58.5 100.5t-134.5 42.5q-96 0 -152.5 -61.5t-56.5 -169.5 q0 -131 68 -201t166 -70q66 0 117 40t55 102q0 3 7 3.5t14.5 -1t9.5 -4.5q-1 -41 -7.5 -88t-11.5 -50q-61 -45 -192 -45q-146 0 -238 83t-92 200z" />
<glyph unicode="&#xaa;" horiz-adv-x="776" d="M98 821q0 73 88 126.5t277 64.5q0 26 2.5 80.5t1.5 70.5q-4 76 -39 97q-27 16 -82 16q-34 0 -60 -13t-26 -28q0 -10 5 -23.5t5 -23.5q0 -24 -34.5 -46t-77.5 -22q-37 0 -37 35q1 29 50.5 76.5t127.5 86t147 38.5q65 0 109 -45t45 -121q1 -33 -4 -181.5t-4 -191.5 q2 -43 28 -53t95 12q1 1 3 -2t4 -7t3.5 -8.5t1.5 -8.5t-2 -5q-86 -61 -152 -61q-43 0 -75.5 24.5t-38.5 67.5q-92 -86 -207 -86q-66 0 -110 37t-44 94zM244 836q0 -72 86 -72q37 0 61.5 11t61.5 42q1 18 3 80t3 78q-71 -5 -117 -18.5t-66 -35t-26 -40t-6 -45.5z" />
<glyph unicode="&#xab;" horiz-adv-x="972" d="M90.5 431q-0.5 13 7.5 18l424 233q9 5 16.5 -0.5t7.5 -14t-9 -16.5l-308 -225l308 -215q9 -8 8 -16.5t-8.5 -14.5t-14.5 -2l-426 236q-5 4 -5.5 17zM408.5 431q-0.5 13 7.5 18l424 233q9 5 16 -1t6.5 -14.5t-8.5 -15.5l-309 -225l309 -215q6 -6 5.5 -15t-6.5 -15.5 t-13 -2.5l-426 236q-5 4 -5.5 17z" />
<glyph unicode="&#xad;" horiz-adv-x="821" d="M136.5 461.5q-6.5 37.5 8.5 40.5l263 55l258 64q11 3 18.5 -16t7 -37.5t-7.5 -26.5l-264 -56l-260 -61q-17 0 -23.5 37.5z" />
<glyph unicode="&#xae;" horiz-adv-x="1443" d="M109 567q0 162 82 300t223 218t307 80q167 0 309 -80t224.5 -218t82.5 -300q0 -161 -82.5 -298.5t-224.5 -217.5t-309 -80q-166 0 -307 80t-223 217.5t-82 298.5zM152 567q0 -150 76.5 -277.5t207.5 -201.5t285 -74q117 0 223 44t182.5 118t122 176.5t45.5 214.5 q0 113 -45.5 216t-122 178t-182.5 119t-223 44q-154 0 -285 -74.5t-207.5 -203t-76.5 -279.5zM459.5 826q-2.5 15 1.5 18q59 16 235 16q119 0 180.5 -37t61.5 -106q0 -44 -29.5 -83.5t-83.5 -62.5q25 -60 63.5 -117.5t90 -100t96.5 -42.5q4 0 5.5 -16t-5.5 -16 q-129 0 -215.5 76.5t-118.5 187.5q-32 -4 -59 -4h-29v-88q0 -78 13 -100.5t67 -26.5q8 0 5 -22q-2 -12 -7 -11q-35 6 -119 6q-88 0 -141 -6q-10 -2 -4 24q2 9 4 9q55 6 69.5 28t14.5 99v247q0 69 -12 93t-43 24q-7 0 -35 -4q-3 0 -5.5 15zM653 582h29q81 0 117.5 27t36.5 85 q0 66 -38 94.5t-114 28.5h-27q-4 -18 -4 -108v-127z" />
<glyph unicode="&#xaf;" horiz-adv-x="727" d="M66 1071q0 27 8 27l288 -6l291 6q7 0 7 -27t-7 -27l-291 5l-288 -5q-8 0 -8 27z" />
<glyph unicode="&#xb0;" horiz-adv-x="483" d="M57 1186q0 74 54.5 127t130.5 53t131 -53t55 -127q0 -75 -54.5 -127.5t-131.5 -52.5t-131 52.5t-54 127.5zM98 1186q0 -58 42 -98.5t102 -40.5q59 0 101 40.5t42 98.5q0 57 -42 98t-101 41q-60 0 -102 -41t-42 -98z" />
<glyph unicode="&#xb1;" horiz-adv-x="1517" d="M74 369q0 153 104.5 282t270.5 178q-37 73 -37 185q0 104 53 201.5t149.5 161t210.5 63.5q174 0 284 -127t110 -312q0 -23 -9 -105t-10 -91h107q155 0 182 6q8 2 9.5 -20.5t-3 -45t-12.5 -20.5q-75 6 -148 6h-135l-4 -510q0 -65 29 -106t82 -41q103 0 184 26q0 4 8 -8 q10 -14 4 -18q-66 -47 -145.5 -75t-128.5 -28q-101 0 -147 49t-44 154l4 557q-121 0 -141 -2q-5 -1 -7 7t-2 16.5t1 13.5q69 24 119.5 52.5t78.5 54t45 55.5t22 53.5t5 50.5q0 110 -100.5 189t-241.5 79q-142 0 -245 -99.5t-103 -225.5q0 -75 27 -131q78 12 121 12 q71 0 118 -23.5t47 -48.5q0 -26 -24 -67t-43 -41q-23 0 -108 40t-136 40q-239 0 -239 -305q0 -185 84.5 -283t207.5 -98q134 0 252 88q3 2 10 -4.5t10 -14t-1 -12.5q-63 -65 -152 -110.5t-190 -45.5q-166 0 -274.5 114.5t-108.5 283.5z" />
<glyph unicode="&#xb2;" horiz-adv-x="845" d="M86 631q214 107 315 209.5t101 224.5q0 86 -40.5 133t-111.5 47q-58 0 -99.5 -20t-90.5 -66q-1 -2 -9 2.5t-12.5 10.5t0.5 12q125 153 256 153q111 0 173.5 -64t62.5 -159q0 -106 -95.5 -218t-228.5 -189h221q121 0 151 13.5t36 80.5q0 3 15 3t15 -3q3 -25 -4 -94 t-12 -91q-4 -16 -9.5 -20t-21.5 -4q-21 0 -114.5 3t-149.5 3q-198 0 -334 -8q-6 0 -13 19t-1 22z" />
<glyph unicode="&#xb3;" horiz-adv-x="704" d="M91.5 395.5q0.5 16.5 6.5 16.5q377 25 377 256q0 79 -62.5 123t-193.5 67q-4 1 -9.5 23t-2.5 24q124 35 185 93t61 126q0 54 -41 85.5t-103 31.5q-97 0 -182 -82q-1 -2 -9.5 2t-13.5 11t0 12q125 153 258 153q92 0 151.5 -53.5t59.5 -138.5q0 -70 -47 -120.5t-155 -100.5 q229 -59 229 -238q0 -130 -137.5 -218.5t-364.5 -88.5q-7 0 -6.5 16.5z" />
<glyph unicode="&#xb4;" horiz-adv-x="464" d="M45 967q-4 6 2 16l297 391q7 9 27.5 -1t35.5 -28t7 -26l-340 -354q-6 -6 -15.5 -5t-13.5 7z" />
<glyph unicode="&#xb5;" horiz-adv-x="1626" d="M65 1287q-5 15 7 20q101 36 207 36q110 0 210.5 -45.5t177 -124.5t132.5 -181.5t86 -219.5q84 243 252 401t362 158q71 0 141 -24q8 -4 7.5 -12t-5.5 -16t-8 -7q-41 8 -94 8q-163 0 -301.5 -123t-217.5 -325.5t-79 -430.5v-51v-127.5t7.5 -83t15.5 -58t33.5 -28.5 t52 -19.5t79.5 -6.5q5 0 7.5 -10.5t0 -20.5t-9.5 -8q-99 12 -254 12q-198 0 -301 -12q-9 -1 -10.5 9t2 20t6.5 10q103 10 130 23q42 20 53 83q10 53 10 217v51q0 183 -51 347.5t-135 279t-196 181.5t-230 67q-26 0 -76 -4q-6 0 -11 15zM592 1597q0 39 29.5 69t72.5 30 q39 0 68 -28.5t29 -65.5q0 -39 -29.5 -68t-71.5 -29q-41 0 -69.5 27.5t-28.5 64.5zM977 1597q0 40 28.5 69.5t71.5 29.5q41 0 69 -28t28 -66q0 -39 -29.5 -68t-71.5 -29q-41 0 -68.5 27.5t-27.5 64.5z" />
<glyph unicode="&#xb6;" horiz-adv-x="1384" d="M143 549q0 101 28 191.5t88 168.5t147.5 134.5t213.5 89t279 32.5q229 0 367 -43q6 -2 4.5 -11t-7.5 -18t-10 -8q-37 13 -112 25l-4 -549l4 -553q67 5 112 21q4 1 11 -7.5t8.5 -17t-6.5 -12.5q-98 -33 -367 -33q-182 0 -329.5 50t-238.5 134t-139.5 188t-48.5 218z M946 -2q82 3 141 6l3 557l-3 557q-78 8 -141 8v-1128z" />
<glyph unicode="&#xb7;" d="M131 508q0 35 25 61.5t63 26.5q36 0 61 -25.5t25 -58.5q0 -34 -26 -60t-64 -26q-36 0 -60 24.5t-24 57.5z" />
<glyph unicode="&#xb8;" horiz-adv-x="622" d="M172 -186l147 211l52 -19l-78 -108q104 -33 156.5 -90.5t52.5 -120.5q0 -85 -73.5 -154.5t-221.5 -91.5q-7 -1 -11 7.5t-3 17.5t6 10q58 8 97.5 28.5t56.5 47.5t23.5 48.5t6.5 43.5q0 52 -46.5 94.5t-164.5 75.5z" />
<glyph unicode="&#xb9;" horiz-adv-x="589" d="M82 598q0 18 6 25q32 3 46 5t35 7.5t29 14t17.5 23t12.5 36.5t3 53v387q0 31 -3 53t-12.5 36.5t-17.5 23t-29 14.5t-34.5 8t-46.5 6q-5 0 -6 19q1 13 8 12q49 -6 217 -6q121 0 195 8q8 2 7 -18q-2 -15 -7 -15q-84 -6 -113 -31t-29 -110v-387q0 -45 6.5 -71t26 -40.5 t42.5 -19.5t67 -8q8 0 7 -21q-1 -13 -7 -12q-74 8 -195 8q-152 0 -217 -8q-7 -2 -8 8z" />
<glyph unicode="&#xba;" horiz-adv-x="833" d="M70 1012q0 139 98.5 241.5t255.5 102.5q148 0 244 -96t96 -228q0 -139 -99.5 -240.5t-256.5 -101.5q-148 0 -243 95t-95 227zM217 1071q0 -156 59 -245t164 -89q89 0 132.5 66.5t43.5 167.5q0 156 -60.5 246t-166.5 90q-88 0 -130 -66.5t-42 -169.5z" />
<glyph unicode="&#xbb;" horiz-adv-x="972" d="M109.5 667.5q-0.5 8.5 7 14t16.5 0.5l424 -233q8 -5 6.5 -18t-6.5 -17l-424 -236q-7 -4 -14.5 2t-8 14.5t8.5 16.5l307 215l-307 225q-9 8 -9.5 16.5zM426 666.5q0 8.5 7 14.5t16 1l423 -233q8 -5 6.5 -18t-6.5 -17l-423 -236q-7 -4 -13.5 2.5t-7 15.5t5.5 15l309 215 l-309 225q-8 7 -8 15.5z" />
<glyph unicode="&#xbc;" horiz-adv-x="1607" d="M83 1311q-1 13 5 12q68 -8 219 -8q121 0 195 8q8 2 7 -18q-2 -15 -7 -15q-84 -6 -113 -31t-29 -110v-387q0 -45 6.5 -71t26 -40.5t42.5 -19.5t67 -8q8 0 7 -21q-1 -13 -7 -12q-74 8 -195 8q-151 0 -219 -8q-10 -2 -4 24q2 9 4 9q32 3 46 5t35 7.5t29 14t17.5 23 t12.5 36.5t3 53v387q0 31 -3 53t-12.5 36.5t-17.5 23t-29 14.5t-34.5 8t-46.5 6q-5 0 -5 21zM274 -45l988 1427q4 4 13 1t16.5 -10.5t4.5 -12.5l-987 -1428q-4 -4 -13 -1t-17 11t-5 13zM760 88l571 674q5 5 16 3.5t11 -9.5v-617h196v-88q-32 0 -196 4v-129q0 -84 29 -109.5 t112 -31.5q8 0 7 -20q-2 -11 -7 -11q-53 6 -192 6q-171 0 -220 -6q-9 -2 -6 22l4 9q37 4 54.5 7t38.5 11t30 22.5t15 39t6 61.5v131h-35q-285 0 -418 -8q-5 0 -12.5 17.5t-3.5 21.5zM862 139h367v434z" />
<glyph unicode="&#xbd;" horiz-adv-x="1697" d="M82 598q0 18 6 25q32 3 46 5t35 7.5t29 14t17.5 23t12.5 36.5t3 53v387q0 31 -3 53t-12.5 36.5t-17.5 23t-29 14.5t-34.5 8t-46.5 6q-5 0 -6 19q1 13 8 12q49 -6 217 -6q121 0 195 8q8 2 7 -18q-2 -15 -7 -15q-84 -6 -113 -31t-29 -110v-387q0 -45 6.5 -71t26 -40.5 t42.5 -19.5t67 -8q8 0 7 -21q-1 -13 -7 -12q-74 8 -195 8q-152 0 -217 -8q-7 -2 -8 8zM274 -45l988 1427q4 4 13 1t16.5 -10.5t4.5 -12.5l-987 -1428q-4 -4 -13 -1t-17 11t-5 13zM936 37q215 105 316.5 207.5t101.5 224.5q0 85 -41.5 132.5t-112.5 47.5q-58 0 -99 -19.5 t-89 -64.5q-1 -2 -8 2.5t-12 11t-1 9.5q127 155 258 155q109 0 170.5 -64.5t61.5 -160.5q0 -106 -95.5 -217.5t-226.5 -187.5h219q46 0 68 0.5t47.5 4t34.5 9t19.5 18t13.5 29t6 43.5q28 -10 28 -12q6 -52 -14 -185q-5 -15 -11.5 -20.5t-21.5 -5.5q-19 0 -112 3t-152 3 q-232 0 -334 -6q-6 0 -13 20t-1 23z" />
<glyph unicode="&#xbe;" horiz-adv-x="1724" d="M91.5 395.5q0.5 16.5 6.5 16.5q377 25 377 256q0 79 -62.5 123t-193.5 67q-4 1 -9.5 23t-2.5 24q124 35 185 93t61 126q0 54 -41 85.5t-103 31.5q-97 0 -182 -82q-1 -2 -9.5 2t-13.5 11t0 12q125 153 258 153q92 0 151.5 -53.5t59.5 -138.5q0 -70 -47 -120.5t-155 -100.5 q229 -59 229 -238q0 -130 -137.5 -218.5t-364.5 -88.5q-7 0 -6.5 16.5zM393 -45l987 1427q4 4 13 1t17 -10.5t5 -12.5l-987 -1428q-4 -4 -13 -1t-17 11t-5 13zM877 88l573 674q4 5 15.5 3.5t11.5 -9.5v-617h196v-88q-32 0 -196 4v-129q0 -85 28.5 -110t112.5 -31q8 0 7 -20 q-2 -11 -7 -11q-56 6 -193 6q-170 0 -219 -6q-9 -2 -6 22l4 9q45 5 65 9t42 18t29.5 41t7.5 73v131h-35q-285 0 -418 -8q-5 0 -13.5 17.5t-4.5 21.5zM981 139h367v434z" />
<glyph unicode="&#xbf;" horiz-adv-x="739" d="M70 -23q0 96 52.5 155t205.5 120q86 34 128 78t42 90q0 26 -15 67q-1 4 7.5 10t17 7.5t10.5 -2.5q51 -108 51 -168q0 -134 -180 -213l-199 -88q-34 -15 -45.5 -29t-11.5 -39q0 -44 78 -67l190 -54q205 -57 205 -186q0 -49 -33 -127q-2 -1 -6.5 0t-9.5 2.5l-10 3t-8 3.5 t-2 3q6 21 6 35q0 36 -49 67.5t-187 71.5q-126 37 -181.5 97t-55.5 163zM397 750q0 35 25.5 61.5t62.5 26.5q35 0 61.5 -25.5t26.5 -58.5q0 -34 -27 -60t-63 -26t-61 24.5t-25 57.5z" />
<glyph unicode="&#xc0;" horiz-adv-x="1470" d="M-4.5 -4q-1.5 10 1 20.5t5.5 10.5q99 7 155 73.5t138 251.5l444 989q6 11 21 10.5t18 -10.5l379 -989q26 -69 43.5 -110t39 -81.5t40.5 -61t46.5 -38.5t59 -25.5t74.5 -10.5q3 -1 5.5 -10.5t0 -18.5t-11.5 -8q-94 12 -235 12q-211 0 -314 -12q-7 -2 -8.5 8t1 20.5 t5.5 10.5l30 3q28 3 41 4.5t30.5 5.5t24.5 10t12.5 16t5.5 24q0 10 -1 21t-4.5 25t-6 25t-8.5 28.5t-9.5 28.5t-11.5 32t-11.5 30.5t-13 34t-12.5 33.5l-62 164h-467l-71 -164q-33 -76 -48 -111.5t-27.5 -77.5t-12.5 -69q0 -33 28 -44.5t103 -18.5q5 0 7.5 -10.5t0 -20.5 t-9.5 -8q-94 12 -197 12h-40.5h-30.5t-26 -1t-20 -1t-20.5 -1.5t-19 -2t-24.5 -3t-28 -3.5q-7 -2 -8.5 8zM383 1786q-8 8 6.5 26t35.5 28t28 1l299 -391q6 -8 0 -15t-15 -8t-16 5zM465 567h422l-191 525z" />
<glyph unicode="&#xc1;" horiz-adv-x="1470" d="M-4.5 -4q-1.5 10 1 20.5t5.5 10.5q99 7 155 73.5t138 251.5l444 989q6 11 21 10.5t18 -10.5l379 -989q26 -69 43.5 -110t39 -81.5t40.5 -61t46.5 -38.5t59 -25.5t74.5 -10.5q3 -1 5.5 -10.5t0 -18.5t-11.5 -8q-94 12 -235 12q-211 0 -314 -12q-7 -2 -8.5 8t1 20.5 t5.5 10.5l30 3q28 3 41 4.5t30.5 5.5t24.5 10t12.5 16t5.5 24q0 10 -1 21t-4.5 25t-6 25t-8.5 28.5t-9.5 28.5t-11.5 32t-11.5 30.5t-13 34t-12.5 33.5l-62 164h-467l-71 -164q-33 -76 -48 -111.5t-27.5 -77.5t-12.5 -69q0 -33 28 -44.5t103 -18.5q5 0 7.5 -10.5t0 -20.5 t-9.5 -8q-94 12 -197 12h-40.5h-30.5t-26 -1t-20 -1t-20.5 -1.5t-19 -2t-24.5 -3t-28 -3.5q-7 -2 -8.5 8zM465 567h422l-191 525zM729 1442q-4 6 2 16l297 391q7 9 27.5 -1t35.5 -28t7 -26l-340 -354q-6 -6 -15.5 -5t-13.5 7z" />
<glyph unicode="&#xc2;" horiz-adv-x="1470" d="M-4.5 -4q-1.5 10 1 20.5t5.5 10.5q99 7 155 73.5t138 251.5l444 989q6 11 21 10.5t18 -10.5l379 -989q26 -69 43.5 -110t39 -81.5t40.5 -61t46.5 -38.5t59 -25.5t74.5 -10.5q3 -1 5.5 -10.5t0 -18.5t-11.5 -8q-94 12 -235 12q-211 0 -314 -12q-7 -2 -8.5 8t1 20.5 t5.5 10.5l30 3q28 3 41 4.5t30.5 5.5t24.5 10t12.5 16t5.5 24q0 10 -1 21t-4.5 25t-6 25t-8.5 28.5t-9.5 28.5t-11.5 32t-11.5 30.5t-13 34t-12.5 33.5l-62 164h-467l-71 -164q-33 -76 -48 -111.5t-27.5 -77.5t-12.5 -69q0 -33 28 -44.5t103 -18.5q5 0 7.5 -10.5t0 -20.5 t-9.5 -8q-94 12 -197 12h-40.5h-30.5t-26 -1t-20 -1t-20.5 -1.5t-19 -2t-24.5 -3t-28 -3.5q-7 -2 -8.5 8zM465 567h422l-191 525zM498 1446l239 416q5 7 17.5 6.5t17.5 -8.5l242 -414q4 -7 -2 -14t-14.5 -7.5t-16.5 7.5l-231 301l-222 -301q-6 -6 -14.5 -6t-14.5 6t-1 14z " />
<glyph unicode="&#xc3;" horiz-adv-x="1470" d="M-4.5 -4q-1.5 10 1 20.5t5.5 10.5q99 7 155 73.5t138 251.5l444 989q6 11 21 10.5t18 -10.5l379 -989q26 -69 43.5 -110t39 -81.5t40.5 -61t46.5 -38.5t59 -25.5t74.5 -10.5q3 -1 5.5 -10.5t0 -18.5t-11.5 -8q-94 12 -235 12q-211 0 -314 -12q-7 -2 -8.5 8t1 20.5 t5.5 10.5l30 3q28 3 41 4.5t30.5 5.5t24.5 10t12.5 16t5.5 24q0 10 -1 21t-4.5 25t-6 25t-8.5 28.5t-9.5 28.5t-11.5 32t-11.5 30.5t-13 34t-12.5 33.5l-62 164h-467l-71 -164q-33 -76 -48 -111.5t-27.5 -77.5t-12.5 -69q0 -33 28 -44.5t103 -18.5q5 0 7.5 -10.5t0 -20.5 t-9.5 -8q-94 12 -197 12h-40.5h-30.5t-26 -1t-20 -1t-20.5 -1.5t-19 -2t-24.5 -3t-28 -3.5q-7 -2 -8.5 8zM406 1456q9 98 67 153.5t148 55.5q45 0 150.5 -37t156.5 -37q49 0 78 24.5t45 94.5q0 1 9.5 -0.5t19.5 -4.5t10 -7q-8 -90 -57 -143.5t-132 -53.5q-49 0 -156 40 t-172 40q-101 0 -129 -135q-7 -2 -22.5 2t-15.5 8zM465 567h422l-191 525z" />
<glyph unicode="&#xc4;" horiz-adv-x="1470" d="M-4.5 -4q-1.5 10 1 20.5t5.5 10.5q99 7 155 73.5t138 251.5l444 989q6 11 21 10.5t18 -10.5l379 -989q26 -69 43.5 -110t39 -81.5t40.5 -61t46.5 -38.5t59 -25.5t74.5 -10.5q3 -1 5.5 -10.5t0 -18.5t-11.5 -8q-94 12 -235 12q-211 0 -314 -12q-7 -2 -8.5 8t1 20.5 t5.5 10.5l30 3q28 3 41 4.5t30.5 5.5t24.5 10t12.5 16t5.5 24q0 10 -1 21t-4.5 25t-6 25t-8.5 28.5t-9.5 28.5t-11.5 32t-11.5 30.5t-13 34t-12.5 33.5l-62 164h-467l-71 -164q-33 -76 -48 -111.5t-27.5 -77.5t-12.5 -69q0 -33 28 -44.5t103 -18.5q5 0 7.5 -10.5t0 -20.5 t-9.5 -8q-94 12 -197 12h-40.5h-30.5t-26 -1t-20 -1t-20.5 -1.5t-19 -2t-24.5 -3t-28 -3.5q-7 -2 -8.5 8zM459 1597q0 39 29.5 69t72.5 30q39 0 67.5 -28.5t28.5 -65.5q0 -39 -29 -68t-71 -29q-41 0 -69.5 27.5t-28.5 64.5zM465 567h422l-191 525zM844 1597q0 40 28.5 69.5 t71.5 29.5q40 0 68 -28t28 -66q0 -39 -29 -68t-71 -29q-41 0 -68.5 27.5t-27.5 64.5z" />
<glyph unicode="&#xc5;" horiz-adv-x="1470" d="M-4.5 -4q-1.5 10 1 20.5t5.5 10.5q99 7 155 73.5t138 251.5q29 62 76 163t146.5 314.5t166 354t66.5 137.5q-77 8 -127 59t-50 121q0 74 54.5 127t132.5 53q75 0 129.5 -53.5t54.5 -126.5q0 -70 -50 -121t-124 -59q0 4 96.5 -238.5t193.5 -486.5l97 -244 q26 -69 43.5 -110t39 -81.5t40.5 -61t46.5 -38.5t59 -25.5t74.5 -10.5q3 -1 5.5 -10.5t0 -18.5t-11.5 -8q-94 12 -235 12q-211 0 -314 -12q-7 -2 -8.5 8t1 20.5t5.5 10.5l30 3q28 3 41 4.5t30.5 5.5t24.5 10t12.5 16t5.5 24q0 10 -1 21t-4.5 25t-6 25t-8.5 28.5t-9.5 28.5 t-11.5 32t-11.5 30.5t-13 34t-12.5 33.5l-62 164h-467l-71 -164q-33 -76 -48 -111.5t-27.5 -77.5t-12.5 -69q0 -33 28 -44.5t103 -18.5q5 0 7.5 -10.5t0 -20.5t-9.5 -8q-94 12 -197 12h-40.5h-30.5t-26 -1t-20 -1t-20.5 -1.5t-19 -2t-24.5 -3t-28 -3.5q-7 -2 -8.5 8z M465 567h422l-191 525zM614 1501q0 -59 42.5 -99t103.5 -40q59 0 101 40.5t42 98.5q0 57 -42 98t-101 41q-61 0 -103.5 -41t-42.5 -98z" />
<glyph unicode="&#xc6;" horiz-adv-x="1830" d="M-158 9q6 17 13 18q53 4 93.5 21t86 61t85 95t109.5 150l519 742q28 41 39 58t19.5 36t8.5 33q0 26 -45.5 40.5t-163.5 28.5q-2 0 -4 4t-3.5 9.5t-1.5 11t3.5 9.5t9.5 3q210 -14 635 -14q246 0 410 14q-13 -63 -13 -119q0 -51 3 -75q2 -5 -7 -6q-21 -3 -28 4 q-9 48 -34.5 71t-93 34t-202.5 11h-195q-12 -61 -12 -274v-262h213q102 0 147.5 6t56 16t15.5 36q0 2 0.5 3.5t1 3.5t0.5 4q0 5 25 2q13 -2 12 -6q-10 -39 -10 -127q0 -72 2 -80q0 -7 -18.5 -7t-20.5 5q-7 36 -19.5 52t-56.5 26t-135 10h-213v-299q0 -100 6 -157.5t23.5 -87 t39 -37.5t60.5 -8h107q82 0 134.5 2t92.5 10.5t61 17t37 30.5t22.5 41.5t16.5 59.5q0 1 4 2t9 0.5t10.5 -1t9 -2.5t2.5 -5q-22 -138 -41 -190q-11 -28 -20 -35.5t-33 -7.5q-28 0 -151 5t-208 5q-387 0 -569 -12q-5 -1 -7.5 3t-2.5 10t1 12t3 10t4 4q116 13 143 24 q44 17 57 70q11 47 11 229v162h-479l-113 -166q-19 -28 -46 -67.5t-41.5 -61.5t-31 -48t-25.5 -45.5t-12 -35.5q-7 -31 19 -43t98 -18q3 0 4.5 -10t-2 -20t-12.5 -9q-88 12 -193 12h-44.5t-36 -0.5t-25 -1t-24.5 -2t-21 -1.5t-28 -3t-32 -4q-15 -1 -8 21zM455 567h440v641z " />
<glyph unicode="&#xc7;" horiz-adv-x="1507" d="M131 631q0 128 58.5 257t158 233t247.5 169.5t312 65.5q129 0 263 -39.5t176 -71.5q11 -9 23 -100.5t15 -186.5q0 -7 -16 -7t-18 5q-14 63 -50 121t-94 107.5t-148.5 79.5t-199.5 30q-236 0 -387.5 -157.5t-151.5 -429.5q0 -132 34 -244.5t92.5 -192t135.5 -135.5 t162.5 -83t174.5 -27q108 0 204.5 39.5t162 117t73.5 178.5q0 3 10 4.5t19.5 -0.5t9.5 -8q-5 -97 -18 -187t-25 -99q-149 -111 -455 -111h-18l-43 -61q104 -33 156.5 -90.5t52.5 -120.5q0 -85 -74.5 -154.5t-222.5 -91.5q-7 -1 -11.5 7.5t-3.5 17.5t6 10q58 8 98.5 28.5 t58 47.5t24 48.5t6.5 43.5q0 52 -46.5 94.5t-164.5 75.5l104 149q-157 13 -288 72t-218 149.5t-135.5 206t-48.5 240.5z" />
<glyph unicode="&#xc8;" horiz-adv-x="1298" d="M122 1316.5q0 5.5 2.5 9.5t8.5 3q210 -14 559 -14q243 0 412 14q-14 -46 -14 -119q0 -61 2 -77q2 -9 -24 -5q-12 2 -13 5q-9 48 -34 71t-92 34t-202 11h-197q-10 -64 -10 -274v-262h211q34 0 60.5 1t47.5 1t36.5 3t27 3.5t19 6t12 7t8 9.5t4.5 10t3 13.5t3 14.5 q2 4 19 1.5t20 -5.5q-12 -47 -12 -127q0 -64 2 -80q2 -4 -7 -6q-21 -3 -30 4q-7 36 -19.5 52t-57 26t-136.5 10h-211v-299q0 -132 13.5 -194.5t37.5 -79t76 -16.5h109q81 0 133.5 2t92.5 10.5t61 17t37 30t22.5 42t15.5 59.5q0 1 4 2t9.5 0.5l11 -1t9.5 -2.5t3 -5 q-18 -115 -39 -190q-7 -27 -18.5 -35t-38.5 -8q-29 0 -151 5t-208 5q-387 0 -567 -12q-5 -1 -7.5 3t-2.5 10t1 12t3 10t4 4q116 13 143 24q44 17 57 70q11 47 11 229v615q0 89 -0.5 128.5t-8.5 83.5t-16 56.5t-35 28t-52.5 18.5t-80.5 10q-12 1 -18 2q-2 0 -4 4t-3.5 9.5 t-1.5 11zM414 1786q-8 8 6.5 26t35 28t27.5 1l299 -391q6 -8 0.5 -15t-14.5 -8t-16 5z" />
<glyph unicode="&#xc9;" horiz-adv-x="1298" d="M122 1316.5q0 5.5 2.5 9.5t8.5 3q210 -14 559 -14q243 0 412 14q-14 -46 -14 -119q0 -61 2 -77q2 -9 -24 -5q-12 2 -13 5q-9 48 -34 71t-92 34t-202 11h-197q-10 -64 -10 -274v-262h211q34 0 60.5 1t47.5 1t36.5 3t27 3.5t19 6t12 7t8 9.5t4.5 10t3 13.5t3 14.5 q2 4 19 1.5t20 -5.5q-12 -47 -12 -127q0 -64 2 -80q2 -4 -7 -6q-21 -3 -30 4q-7 36 -19.5 52t-57 26t-136.5 10h-211v-299q0 -132 13.5 -194.5t37.5 -79t76 -16.5h109q81 0 133.5 2t92.5 10.5t61 17t37 30t22.5 42t15.5 59.5q0 1 4 2t9.5 0.5l11 -1t9.5 -2.5t3 -5 q-18 -115 -39 -190q-7 -27 -18.5 -35t-38.5 -8q-29 0 -151 5t-208 5q-387 0 -567 -12q-5 -1 -7.5 3t-2.5 10t1 12t3 10t4 4q116 13 143 24q44 17 57 70q11 47 11 229v615q0 89 -0.5 128.5t-8.5 83.5t-16 56.5t-35 28t-52.5 18.5t-80.5 10q-12 1 -18 2q-2 0 -4 4t-3.5 9.5 t-1.5 11zM612 1442q-4 6 2 16l297 391q7 9 27.5 -1t35.5 -28t7 -26l-340 -354q-6 -6 -15.5 -5t-13.5 7z" />
<glyph unicode="&#xca;" horiz-adv-x="1298" d="M122 1316.5q0 5.5 2.5 9.5t8.5 3q210 -14 559 -14q243 0 412 14q-14 -46 -14 -119q0 -61 2 -77q2 -9 -24 -5q-12 2 -13 5q-9 48 -34 71t-92 34t-202 11h-197q-10 -64 -10 -274v-262h211q34 0 60.5 1t47.5 1t36.5 3t27 3.5t19 6t12 7t8 9.5t4.5 10t3 13.5t3 14.5 q2 4 19 1.5t20 -5.5q-12 -47 -12 -127q0 -64 2 -80q2 -4 -7 -6q-21 -3 -30 4q-7 36 -19.5 52t-57 26t-136.5 10h-211v-299q0 -132 13.5 -194.5t37.5 -79t76 -16.5h109q81 0 133.5 2t92.5 10.5t61 17t37 30t22.5 42t15.5 59.5q0 1 4 2t9.5 0.5l11 -1t9.5 -2.5t3 -5 q-18 -115 -39 -190q-7 -27 -18.5 -35t-38.5 -8q-29 0 -151 5t-208 5q-387 0 -567 -12q-5 -1 -7.5 3t-2.5 10t1 12t3 10t4 4q116 13 143 24q44 17 57 70q11 47 11 229v615q0 89 -0.5 128.5t-8.5 83.5t-16 56.5t-35 28t-52.5 18.5t-80.5 10q-12 1 -18 2q-2 0 -4 4t-3.5 9.5 t-1.5 11zM436 1446l240 416q5 7 17.5 6.5t17.5 -8.5l241 -414q4 -7 -1.5 -14t-14 -7.5t-16.5 7.5l-232 301l-221 -301q-6 -6 -15 -6t-15 6t-1 14z" />
<glyph unicode="&#xcb;" horiz-adv-x="1298" d="M122 1316.5q0 5.5 2.5 9.5t8.5 3q210 -14 559 -14q243 0 412 14q-14 -46 -14 -119q0 -61 2 -77q2 -9 -24 -5q-12 2 -13 5q-9 48 -34 71t-92 34t-202 11h-197q-10 -64 -10 -274v-262h211q34 0 60.5 1t47.5 1t36.5 3t27 3.5t19 6t12 7t8 9.5t4.5 10t3 13.5t3 14.5 q2 4 19 1.5t20 -5.5q-12 -47 -12 -127q0 -64 2 -80q2 -4 -7 -6q-21 -3 -30 4q-7 36 -19.5 52t-57 26t-136.5 10h-211v-299q0 -132 13.5 -194.5t37.5 -79t76 -16.5h109q81 0 133.5 2t92.5 10.5t61 17t37 30t22.5 42t15.5 59.5q0 1 4 2t9.5 0.5l11 -1t9.5 -2.5t3 -5 q-18 -115 -39 -190q-7 -27 -18.5 -35t-38.5 -8q-29 0 -151 5t-208 5q-387 0 -567 -12q-5 -1 -7.5 3t-2.5 10t1 12t3 10t4 4q116 13 143 24q44 17 57 70q11 47 11 229v615q0 89 -0.5 128.5t-8.5 83.5t-16 56.5t-35 28t-52.5 18.5t-80.5 10q-12 1 -18 2q-2 0 -4 4t-3.5 9.5 t-1.5 11zM387 1597q0 39 29.5 69t72.5 30q39 0 68 -28.5t29 -65.5q0 -39 -29.5 -68t-71.5 -29q-41 0 -69.5 27.5t-28.5 64.5zM772 1597q0 40 28.5 69.5t71.5 29.5q40 0 68.5 -28t28.5 -66q0 -39 -29.5 -68t-71.5 -29q-41 0 -68.5 27.5t-27.5 64.5z" />
<glyph unicode="&#xcc;" horiz-adv-x="923" d="M168 1786q-8 8 6.5 26t35.5 28t28 1l299 -391q6 -8 0 -15t-15 -8t-16 5zM171 1315.5q0 5.5 2.5 9t8.5 2.5q106 -12 303 -12q157 0 252 12q9 1 11.5 -8t-1 -18t-8.5 -9q-39 -3 -61.5 -5.5t-45.5 -12t-34 -14.5t-21.5 -28t-14 -37t-6.5 -57.5t-3 -73.5v-99v-615v-127.5 t7.5 -83t15.5 -58t33 -28.5t51 -19.5t79 -6.5q5 0 8.5 -10t1 -20t-11.5 -9q-95 12 -252 12q-197 0 -303 -12q-9 -1 -10.5 9t2 20t6.5 10q103 10 130 23q42 20 53 83q10 53 10 217v615v101.5t-5 75.5t-7.5 56.5t-16.5 37.5t-22 25t-35.5 14t-45.5 10t-61 7q-2 0 -4 4t-3.5 9 t-1.5 10.5z" />
<glyph unicode="&#xcd;" horiz-adv-x="923" d="M171 1315.5q0 5.5 2.5 9t8.5 2.5q106 -12 303 -12q157 0 252 12q9 1 11.5 -8t-1 -18t-8.5 -9q-39 -3 -61.5 -5.5t-45.5 -12t-34 -14.5t-21.5 -28t-14 -37t-6.5 -57.5t-3 -73.5v-99v-615v-127.5t7.5 -83t15.5 -58t33 -28.5t51 -19.5t79 -6.5q5 0 8.5 -10t1 -20t-11.5 -9 q-95 12 -252 12q-197 0 -303 -12q-9 -1 -10.5 9t2 20t6.5 10q103 10 130 23q42 20 53 83q10 53 10 217v615v101.5t-5 75.5t-7.5 56.5t-16.5 37.5t-22 25t-35.5 14t-45.5 10t-61 7q-2 0 -4 4t-3.5 9t-1.5 10.5zM414 1458l297 391q7 9 27 -1t35 -28t7 -26l-340 -354 q-10 -10 -23 -3t-3 21z" />
<glyph unicode="&#xce;" horiz-adv-x="923" d="M171 1315.5q0 5.5 2.5 9t8.5 2.5q106 -12 303 -12q157 0 252 12q9 1 11.5 -8t-1 -18t-8.5 -9q-39 -3 -61.5 -5.5t-45.5 -12t-34 -14.5t-21.5 -28t-14 -37t-6.5 -57.5t-3 -73.5v-99v-615v-127.5t7.5 -83t15.5 -58t33 -28.5t51 -19.5t79 -6.5q5 0 8.5 -10t1 -20t-11.5 -9 q-95 12 -252 12q-197 0 -303 -12q-9 -1 -10.5 9t2 20t6.5 10q103 10 130 23q42 20 53 83q10 53 10 217v615v101.5t-5 75.5t-7.5 56.5t-16.5 37.5t-22 25t-35.5 14t-45.5 10t-61 7q-2 0 -4 4t-3.5 9t-1.5 10.5zM207 1446l239 416q5 7 17.5 6.5t17.5 -8.5l242 -414 q4 -7 -2 -14t-14.5 -7.5t-16.5 7.5l-231 301l-221 -301q-6 -6 -15 -6t-15 6t-1 14z" />
<glyph unicode="&#xcf;" horiz-adv-x="923" d="M171 1315.5q0 5.5 2.5 9t8.5 2.5q106 -12 303 -12q157 0 252 12q9 1 11.5 -8t-1 -18t-8.5 -9q-39 -3 -61.5 -5.5t-45.5 -12t-34 -14.5t-21.5 -28t-14 -37t-6.5 -57.5t-3 -73.5v-99v-615v-127.5t7.5 -83t15.5 -58t33 -28.5t51 -19.5t79 -6.5q5 0 8.5 -10t1 -20t-11.5 -9 q-95 12 -252 12q-197 0 -303 -12q-9 -1 -10.5 9t2 20t6.5 10q103 10 130 23q42 20 53 83q10 53 10 217v615v101.5t-5 75.5t-7.5 56.5t-16.5 37.5t-22 25t-35.5 14t-45.5 10t-61 7q-2 0 -4 4t-3.5 9t-1.5 10.5zM174 1597q0 39 29.5 69t72.5 30q39 0 68 -28.5t29 -65.5 q0 -39 -29.5 -68t-71.5 -29q-41 0 -69.5 27.5t-28.5 64.5zM559 1597q0 40 28.5 69.5t71.5 29.5q41 0 69 -28t28 -66q0 -39 -29.5 -68t-71.5 -29q-41 0 -68.5 27.5t-27.5 64.5z" />
<glyph unicode="&#xd0;" horiz-adv-x="1685" d="M136.5 572q-6.5 37 8.5 40l197 43v310v83t-3 66.5t-3.5 53t-9 39t-12 29.5t-19 20.5t-23.5 14.5t-32.5 8.5t-39.5 7t-50 5.5q-2 0 -4 4t-3.5 9t-1.5 10.5t2.5 9t8.5 2.5q103 -12 350 -12q23 0 149 4t166 4q179 0 321 -49.5t232.5 -137.5t138 -204.5t47.5 -253.5 q0 -139 -55.5 -264.5t-154 -218.5t-243 -148t-312.5 -55q-39 0 -162.5 4t-145.5 4q-228 0 -331 -12q-9 -1 -10.5 9t2 20t6.5 10q103 10 130 23q41 20 53 83q9 52 9 217v228l-182 -43q-17 0 -23.5 37zM520 276q0 -41 1.5 -67.5t8 -51.5t15.5 -39.5t28 -27t40.5 -18.5 t58.5 -10.5t76.5 -5.5t99.5 -1q228 0 376 149.5t148 407.5q0 317 -163 483.5t-453 166.5q-123 0 -219 -11q-17 -89 -17 -284v-273l146 37q11 3 18.5 -16t7 -37.5t-7.5 -26.5q-164 -28 -164 -30v-345z" />
<glyph unicode="&#xd1;" horiz-adv-x="1757" d="M114 1315.5q0 5.5 2.5 9t8.5 2.5q120 -14 287 -14l974 -1024v676q0 49 -0.5 78.5t-2 63t-4 51.5t-8.5 39t-12 31t-18 22t-24 16.5t-32.5 10.5t-40.5 9t-50 6q-6 0 -7 20q0 16 9 15q103 -12 254 -12q116 0 207 12q11 1 14 -7.5t-1 -17.5t-11 -10q-43 -4 -70 -10t-49.5 -13 t-34 -28t-20 -37t-11 -59.5t-3.5 -75.5t-1 -104v-615q0 -246 15 -375q0 -4 -6.5 -7t-15.5 -2t-15 7l-1012 1057v-680q0 -213 26.5 -263t164.5 -60q3 0 6 -10t1 -20t-11 -9q-95 12 -205 12q-153 0 -256 -12q-9 -1 -10.5 9t2 20t6.5 10q38 4 61 7t45.5 11.5t34.5 16t23 27 t15.5 38t8 55.5t4 72.5t0.5 95.5v719q0 67 -77.5 140.5t-151.5 82.5q-2 0 -4 4t-3.5 9t-1.5 10.5zM537 1456q9 98 67 153.5t148 55.5q45 0 150.5 -37t156.5 -37q49 0 78 24.5t45 94.5q0 1 10 -0.5t19.5 -4.5t9.5 -7q-8 -90 -57 -143.5t-132 -53.5q-49 0 -155.5 40t-171.5 40 q-102 0 -130 -135q-7 -2 -22.5 2t-15.5 8z" />
<glyph unicode="&#xd2;" horiz-adv-x="1765" d="M131 637q0 102 36 205.5t105 195t161.5 163t214 113.5t253.5 42q159 0 298 -56t233.5 -149.5t149 -216.5t54.5 -254q0 -102 -36 -206t-106 -196t-162.5 -163.5t-215 -113.5t-254.5 -42q-158 0 -296.5 56.5t-232.5 150t-148 216.5t-54 255zM315 705q0 -131 34 -243.5 t91.5 -192t134 -136t162 -83.5t174.5 -27q116 0 215 40t171.5 114t113.5 185.5t41 247.5q0 131 -34 243.5t-92.5 192.5t-135.5 136.5t-162.5 84t-173.5 27.5q-237 0 -388 -158.5t-151 -430.5zM547 1786q-8 8 6.5 26t35 28t27.5 1l299 -391q6 -8 0.5 -15t-14.5 -8t-16 5z" />
<glyph unicode="&#xd3;" horiz-adv-x="1765" d="M131 637q0 102 36 205.5t105 195t161.5 163t214 113.5t253.5 42q159 0 298 -56t233.5 -149.5t149 -216.5t54.5 -254q0 -102 -36 -206t-106 -196t-162.5 -163.5t-215 -113.5t-254.5 -42q-158 0 -296.5 56.5t-232.5 150t-148 216.5t-54 255zM315 705q0 -131 34 -243.5 t91.5 -192t134 -136t162 -83.5t174.5 -27q116 0 215 40t171.5 114t113.5 185.5t41 247.5q0 131 -34 243.5t-92.5 192.5t-135.5 136.5t-162.5 84t-173.5 27.5q-237 0 -388 -158.5t-151 -430.5zM823 1442q-4 6 2 16l297 391q7 9 27.5 -1t35.5 -28t7 -26l-340 -354 q-6 -6 -15.5 -5t-13.5 7z" />
<glyph unicode="&#xd4;" horiz-adv-x="1765" d="M131 637q0 102 36 205.5t105 195t161.5 163t214 113.5t253.5 42q159 0 298 -56t233.5 -149.5t149 -216.5t54.5 -254q0 -102 -36 -206t-106 -196t-162.5 -163.5t-215 -113.5t-254.5 -42q-158 0 -296.5 56.5t-232.5 150t-148 216.5t-54 255zM315 705q0 -131 34 -243.5 t91.5 -192t134 -136t162 -83.5t174.5 -27q116 0 215 40t171.5 114t113.5 185.5t41 247.5q0 131 -34 243.5t-92.5 192.5t-135.5 136.5t-162.5 84t-173.5 27.5q-237 0 -388 -158.5t-151 -430.5zM625 1446l239 416q5 7 17.5 6.5t17.5 -8.5l242 -414q4 -7 -2 -14t-14.5 -7.5 t-16.5 7.5l-231 301l-222 -301q-6 -6 -14.5 -6t-14.5 6t-1 14z" />
<glyph unicode="&#xd5;" horiz-adv-x="1765" d="M131 637q0 102 36 205.5t105 195t161.5 163t214 113.5t253.5 42q159 0 298 -56t233.5 -149.5t149 -216.5t54.5 -254q0 -102 -36 -206t-106 -196t-162.5 -163.5t-215 -113.5t-254.5 -42q-158 0 -296.5 56.5t-232.5 150t-148 216.5t-54 255zM315 705q0 -131 34 -243.5 t91.5 -192t134 -136t162 -83.5t174.5 -27q116 0 215 40t171.5 114t113.5 185.5t41 247.5q0 131 -34 243.5t-92.5 192.5t-135.5 136.5t-162.5 84t-173.5 27.5q-237 0 -388 -158.5t-151 -430.5zM524 1456q9 98 67 153.5t148 55.5q45 0 151 -37t157 -37q49 0 77.5 24.5 t44.5 94.5q0 1 9.5 -0.5t19.5 -4.5t10 -7q-8 -90 -56.5 -143.5t-131.5 -53.5q-49 0 -156 40t-172 40q-101 0 -129 -135q-7 -2 -23 2t-16 8z" />
<glyph unicode="&#xd6;" horiz-adv-x="1765" d="M131 637q0 102 36 205.5t105 195t161.5 163t214 113.5t253.5 42q159 0 298 -56t233.5 -149.5t149 -216.5t54.5 -254q0 -102 -36 -206t-106 -196t-162.5 -163.5t-215 -113.5t-254.5 -42q-158 0 -296.5 56.5t-232.5 150t-148 216.5t-54 255zM315 705q0 -131 34 -243.5 t91.5 -192t134 -136t162 -83.5t174.5 -27q116 0 215 40t171.5 114t113.5 185.5t41 247.5q0 131 -34 243.5t-92.5 192.5t-135.5 136.5t-162.5 84t-173.5 27.5q-237 0 -388 -158.5t-151 -430.5zM592 1597q0 39 29.5 69t72.5 30q39 0 68 -28.5t29 -65.5q0 -39 -29.5 -68 t-71.5 -29q-41 0 -69.5 27.5t-28.5 64.5zM977 1597q0 40 28.5 69.5t71.5 29.5q41 0 69 -28t28 -66q0 -39 -29.5 -68t-71.5 -29q-41 0 -68.5 27.5t-27.5 64.5z" />
<glyph unicode="&#xd8;" horiz-adv-x="1765" d="M131 637q0 102 36 205.5t105 195t161.5 163t214 113.5t253.5 42q259 0 461 -148l162 174q4 4 13.5 0t16 -11t2.5 -11l-161 -178q114 -96 177.5 -227t63.5 -275q0 -102 -36 -206t-106 -196t-162.5 -163.5t-215 -113.5t-254.5 -42q-266 0 -463 150l-163 -177 q-4 -4 -13.5 0.5t-16.5 11.5t-3 11l164 180q-113 95 -174.5 226t-61.5 276zM315 705q0 -278 148 -467l807 872q-83 89 -192.5 136.5t-223.5 47.5q-237 0 -388 -158.5t-151 -430.5zM492 207q83 -90 192.5 -137t226.5 -47q116 0 215 40t171.5 114t113.5 185.5t41 247.5 q0 276 -154 469z" />
<glyph unicode="&#xd9;" horiz-adv-x="1716" d="M109 1319q3 9 12 8q106 -12 301 -12q162 0 254 12q6 1 9.5 -2.5t3.5 -9t-1.5 -10.5t-3.5 -9t-4 -4q-53 -5 -80.5 -8t-53 -20t-34 -29.5t-15.5 -58.5t-7.5 -83.5t-0.5 -127.5v-439q0 -95 25.5 -173.5t68.5 -132t100.5 -90.5t119.5 -54t127 -17q209 0 316.5 110t107.5 323 v491q0 53 -1 87.5t-5 67.5t-9.5 52t-17 37t-24.5 27t-36 17.5t-47 12.5t-61 8q-5 1 -8.5 10t-1 17.5t11.5 7.5q106 -12 260 -12q115 0 209 12q9 1 12 -8t0 -18t-8 -9q-37 -3 -63 -7t-48 -13.5t-35.5 -18.5t-24 -29t-15.5 -38t-8 -53t-3.5 -65.5t-0.5 -84.5v-512 q0 -106 -35.5 -198t-103.5 -162.5t-174.5 -111t-239.5 -40.5q-118 0 -221 36.5t-180.5 102.5t-122 166t-44.5 221v480v83.5t-2.5 66.5t-3.5 53t-9 39t-11 29.5t-18.5 20t-23.5 14.5t-32 8.5t-38.5 7t-49.5 5.5q-7 0 -11 9t-1 18zM610 1786q-8 8 6.5 26t35.5 28t28 1 l299 -391q6 -8 0 -15t-15 -8t-16 5z" />
<glyph unicode="&#xda;" horiz-adv-x="1716" d="M109 1319q3 9 12 8q106 -12 301 -12q162 0 254 12q6 1 9.5 -2.5t3.5 -9t-1.5 -10.5t-3.5 -9t-4 -4q-53 -5 -80.5 -8t-53 -20t-34 -29.5t-15.5 -58.5t-7.5 -83.5t-0.5 -127.5v-439q0 -95 25.5 -173.5t68.5 -132t100.5 -90.5t119.5 -54t127 -17q209 0 316.5 110t107.5 323 v491q0 53 -1 87.5t-5 67.5t-9.5 52t-17 37t-24.5 27t-36 17.5t-47 12.5t-61 8q-5 1 -8.5 10t-1 17.5t11.5 7.5q106 -12 260 -12q115 0 209 12q9 1 12 -8t0 -18t-8 -9q-37 -3 -63 -7t-48 -13.5t-35.5 -18.5t-24 -29t-15.5 -38t-8 -53t-3.5 -65.5t-0.5 -84.5v-512 q0 -106 -35.5 -198t-103.5 -162.5t-174.5 -111t-239.5 -40.5q-118 0 -221 36.5t-180.5 102.5t-122 166t-44.5 221v480v83.5t-2.5 66.5t-3.5 53t-9 39t-11 29.5t-18.5 20t-23.5 14.5t-32 8.5t-38.5 7t-49.5 5.5q-7 0 -11 9t-1 18zM856 1442q-4 6 2 16l297 391q7 9 27.5 -1 t35.5 -28t7 -26l-340 -354q-6 -6 -15.5 -5t-13.5 7z" />
<glyph unicode="&#xdb;" horiz-adv-x="1716" d="M109 1319q3 9 12 8q106 -12 301 -12q162 0 254 12q6 1 9.5 -2.5t3.5 -9t-1.5 -10.5t-3.5 -9t-4 -4q-53 -5 -80.5 -8t-53 -20t-34 -29.5t-15.5 -58.5t-7.5 -83.5t-0.5 -127.5v-439q0 -95 25.5 -173.5t68.5 -132t100.5 -90.5t119.5 -54t127 -17q209 0 316.5 110t107.5 323 v491q0 53 -1 87.5t-5 67.5t-9.5 52t-17 37t-24.5 27t-36 17.5t-47 12.5t-61 8q-5 1 -8.5 10t-1 17.5t11.5 7.5q106 -12 260 -12q115 0 209 12q9 1 12 -8t0 -18t-8 -9q-37 -3 -63 -7t-48 -13.5t-35.5 -18.5t-24 -29t-15.5 -38t-8 -53t-3.5 -65.5t-0.5 -84.5v-512 q0 -106 -35.5 -198t-103.5 -162.5t-174.5 -111t-239.5 -40.5q-118 0 -221 36.5t-180.5 102.5t-122 166t-44.5 221v480v83.5t-2.5 66.5t-3.5 53t-9 39t-11 29.5t-18.5 20t-23.5 14.5t-32 8.5t-38.5 7t-49.5 5.5q-7 0 -11 9t-1 18zM655 1446l240 416q5 7 17.5 6.5t17.5 -8.5 l241 -414q4 -7 -1.5 -14t-14 -7.5t-16.5 7.5l-232 301l-221 -301q-6 -6 -15 -6t-15 6t-1 14z" />
<glyph unicode="&#xdc;" horiz-adv-x="1716" d="M109 1319q3 9 12 8q106 -12 301 -12q162 0 254 12q6 1 9.5 -2.5t3.5 -9t-1.5 -10.5t-3.5 -9t-4 -4q-53 -5 -80.5 -8t-53 -20t-34 -29.5t-15.5 -58.5t-7.5 -83.5t-0.5 -127.5v-439q0 -95 25.5 -173.5t68.5 -132t100.5 -90.5t119.5 -54t127 -17q209 0 316.5 110t107.5 323 v491q0 53 -1 87.5t-5 67.5t-9.5 52t-17 37t-24.5 27t-36 17.5t-47 12.5t-61 8q-5 1 -8.5 10t-1 17.5t11.5 7.5q106 -12 260 -12q115 0 209 12q9 1 12 -8t0 -18t-8 -9q-37 -3 -63 -7t-48 -13.5t-35.5 -18.5t-24 -29t-15.5 -38t-8 -53t-3.5 -65.5t-0.5 -84.5v-512 q0 -106 -35.5 -198t-103.5 -162.5t-174.5 -111t-239.5 -40.5q-118 0 -221 36.5t-180.5 102.5t-122 166t-44.5 221v480v83.5t-2.5 66.5t-3.5 53t-9 39t-11 29.5t-18.5 20t-23.5 14.5t-32 8.5t-38.5 7t-49.5 5.5q-7 0 -11 9t-1 18zM616 1597q0 39 30 69t73 30q39 0 67.5 -28.5 t28.5 -65.5q0 -39 -29 -68t-71 -29q-41 0 -70 27.5t-29 64.5zM1001 1597q0 39 29 69t72 30q40 0 68 -28t28 -66q0 -39 -29 -68t-71 -29q-41 0 -69 27.5t-28 64.5z" />
<glyph unicode="&#xdd;" horiz-adv-x="1562" d="M82 1314q1 14 10 13q103 -12 301 -12q157 0 252 12q9 1 11 -8t-1 -18t-6 -9q-97 -9 -111 -43q-14 -35 49 -139q27 -45 122 -186l137 -205l176 252q127 182 148 222q29 57 0 76q-20 14 -99 23q-9 2 -10 22q1 14 10 13q103 -12 252 -12q87 0 186 12q9 1 11.5 -8t-1 -18 t-8.5 -9q-46 -4 -77 -9.5t-64.5 -23t-55.5 -35t-59 -60.5t-66.5 -82.5t-86.5 -118.5l-223 -312v-301q0 -90 0.5 -126.5t7.5 -83t15.5 -58.5t33.5 -28.5t52.5 -19.5t80.5 -7q3 0 6 -10t1 -20t-11 -9q-94 12 -254 12q-198 0 -301 -12q-7 -2 -8.5 8t1 20.5t5.5 10.5 q103 11 130 24q41 19 53 80q9 52 9 219v283l-184 282q-55 84 -89.5 134t-71 95.5t-62 68t-59 41t-65 26t-77.5 12.5q-9 2 -10 22zM754 1458l297 391q7 9 27 -1t35 -28t7 -26l-340 -354q-10 -10 -23 -3t-3 21z" />
<glyph unicode="&#xde;" horiz-adv-x="1265" d="M141 1313.5q0 5.5 2.5 9t8.5 2.5q103 -12 301 -12q143 0 237 12q8 1 10 -7.5t-1.5 -17.5t-8.5 -8q-42 -4 -65.5 -8.5t-45.5 -16t-31.5 -26t-17 -45t-9 -66t-1.5 -94.5v2q110 9 162 9q205 0 332 -92.5t127 -245.5q0 -179 -146.5 -285.5t-392.5 -106.5h-33q-7 0 -7 19.5 t7 19.5q4 0 15 -1t16 -1q184 0 271 77.5t87 244.5q0 155 -84.5 235t-246.5 80q-57 0 -101 -8q-6 -40 -6 -293v-342q0 -60 0.5 -97.5t5 -74t9 -55.5t17 -38t24 -26.5t36.5 -15t48 -10.5t63 -6q5 0 7.5 -10t0 -19.5t-9.5 -7.5q-95 12 -268 12q-198 0 -301 -12q-9 -1 -10.5 8.5 t2 19t6.5 9.5q103 11 130 25q41 19 53 83q9 52 9 215v617q0 61 -0.5 96t-4 72.5t-8 55.5t-16 38t-22.5 27.5t-34.5 16t-46 12t-60.5 7.5q-2 0 -4 4t-3.5 9t-1.5 10.5z" />
<glyph unicode="&#xdf;" horiz-adv-x="1128" d="M59 792l2 3q13 1 42 2t41.5 2t32 3.5t32 7t22.5 11.5v78q0 258 139.5 431t334.5 173q125 0 209.5 -80.5t84.5 -205.5q0 -58 -16 -106.5t-41 -81.5t-55.5 -61.5t-61 -53.5t-55.5 -50.5t-41 -59t-16 -73.5q0 -38 21 -72.5t54.5 -62t73.5 -54.5t80.5 -56.5t74 -62 t54.5 -76.5t21 -95q0 -112 -83 -196.5t-218 -84.5q-62 0 -113.5 12.5t-81 30.5t-45.5 35t-16 29q0 33 26.5 67.5t52.5 34.5q15 0 34 -16t39 -38.5t41.5 -45.5t48 -39t52.5 -16q132 0 132 163q0 46 -28.5 88t-71 71.5t-92 64.5t-92 67.5t-71 81t-28.5 103.5q0 43 20 83.5 t50.5 71t65.5 66.5t65.5 70t50.5 81.5t20 100.5q0 119 -72 195.5t-180 76.5q-75 0 -120.5 -39.5t-69 -136t-23.5 -260.5v-770q0 -99 25.5 -135t93.5 -39q2 0 4 -10t0 -19.5t-8 -7.5q-57 8 -185 8q-176 0 -235 -8q-6 -2 -7 7q-3 18 5 29l2 1q41 5 59.5 7.5t40 10.5t28 17 t14 29.5t8.5 44t1 65.5v540q-27 0 -90 1t-71 1q-5 -2 -8 8q-8 22 -3 39z" />
<glyph unicode="&#xe0;" horiz-adv-x="872" d="M90 147q0 92 116 155t369 77q5 195 5 225q0 99 -58 133q-41 23 -119 23q-45 0 -81.5 -18t-36.5 -40q0 -14 5 -32t5 -31q0 -31 -43 -57.5t-94 -26.5q-24 0 -38 12t-11 31q1 29 42 73t100.5 85t138.5 70.5t147 29.5q85 0 139 -58t55 -159q1 -43 -5 -243.5t-5 -258.5 q2 -60 39.5 -75.5t134.5 14.5l10 -15q3 -10 0 -14q-116 -82 -198 -82q-56 0 -93 33t-43 92q-61 -55 -138.5 -87t-151.5 -32q-87 0 -139 49.5t-52 126.5zM186 1311q-8 8 6 26t34 28t26 1l285 -391q6 -7 0 -15t-14.5 -9t-14.5 5zM254 166q0 -103 127 -103q51 0 92 17.5 t92 58.5q4 80 8 199q-97 -7 -162.5 -23.5t-98 -40.5t-45.5 -49.5t-13 -58.5z" />
<glyph unicode="&#xe1;" horiz-adv-x="872" d="M90 147q0 92 116 155t369 77q5 195 5 225q0 99 -58 133q-41 23 -119 23q-45 0 -81.5 -18t-36.5 -40q0 -14 5 -32t5 -31q0 -31 -43 -57.5t-94 -26.5q-24 0 -38 12t-11 31q1 29 42 73t100.5 85t138.5 70.5t147 29.5q85 0 139 -58t55 -159q1 -43 -5 -243.5t-5 -258.5 q2 -60 39.5 -75.5t134.5 14.5l10 -15q3 -10 0 -14q-116 -82 -198 -82q-56 0 -93 33t-43 92q-61 -55 -138.5 -87t-151.5 -32q-87 0 -139 49.5t-52 126.5zM254 166q0 -103 127 -103q51 0 92 17.5t92 58.5q4 80 8 199q-97 -7 -162.5 -23.5t-98 -40.5t-45.5 -49.5t-13 -58.5z M362 983l281 391q7 9 26.5 -1t34 -27.5t7.5 -26.5l-324 -354q-10 -10 -22.5 -3t-2.5 21z" />
<glyph unicode="&#xe2;" horiz-adv-x="872" d="M90 147q0 92 116 155t369 77q5 195 5 225q0 99 -58 133q-41 23 -119 23q-45 0 -81.5 -18t-36.5 -40q0 -14 5 -32t5 -31q0 -31 -43 -57.5t-94 -26.5q-24 0 -38 12t-11 31q1 29 42 73t100.5 85t138.5 70.5t147 29.5q85 0 139 -58t55 -159q1 -43 -5 -243.5t-5 -258.5 q2 -60 39.5 -75.5t134.5 14.5l10 -15q3 -10 0 -14q-116 -82 -198 -82q-56 0 -93 33t-43 92q-61 -55 -138.5 -87t-151.5 -32q-87 0 -139 49.5t-52 126.5zM203 971l227 415q5 7 16.5 6.5t16.5 -8.5l229 -413q4 -7 -1 -14t-13 -8t-16 7l-220 301l-211 -301q-6 -6 -14 -6 t-13.5 6.5t-0.5 14.5zM254 166q0 -103 127 -103q51 0 92 17.5t92 58.5q4 80 8 199q-97 -7 -162.5 -23.5t-98 -40.5t-45.5 -49.5t-13 -58.5z" />
<glyph unicode="&#xe3;" horiz-adv-x="872" d="M90 147q0 92 116 155t369 77q5 195 5 225q0 99 -58 133q-41 23 -119 23q-45 0 -81.5 -18t-36.5 -40q0 -14 5 -32t5 -31q0 -31 -43 -57.5t-94 -26.5q-24 0 -38 12t-11 31q1 29 42 73t100.5 85t138.5 70.5t147 29.5q85 0 139 -58t55 -159q1 -43 -5 -243.5t-5 -258.5 q2 -60 39.5 -75.5t134.5 14.5l10 -15q3 -10 0 -14q-116 -82 -198 -82q-56 0 -93 33t-43 92q-61 -55 -138.5 -87t-151.5 -32q-87 0 -139 49.5t-52 126.5zM121 981q9 98 64.5 153.5t140.5 55.5q43 0 142.5 -37t147.5 -37q47 0 75 24.5t42 94.5q0 1 9.5 -0.5t19.5 -4.5t10 -7 q-8 -90 -55 -143.5t-125 -53.5q-46 0 -147.5 40t-163.5 40q-95 0 -123 -135q-7 -2 -22 2t-15 8zM254 166q0 -103 127 -103q51 0 92 17.5t92 58.5q4 80 8 199q-97 -7 -162.5 -23.5t-98 -40.5t-45.5 -49.5t-13 -58.5z" />
<glyph unicode="&#xe4;" horiz-adv-x="872" d="M90 147q0 92 116 155t369 77q5 195 5 225q0 99 -58 133q-41 23 -119 23q-45 0 -81.5 -18t-36.5 -40q0 -14 5 -32t5 -31q0 -31 -43 -57.5t-94 -26.5q-24 0 -38 12t-11 31q1 29 42 73t100.5 85t138.5 70.5t147 29.5q85 0 139 -58t55 -159q1 -43 -5 -243.5t-5 -258.5 q2 -60 39.5 -75.5t134.5 14.5l10 -15q3 -10 0 -14q-116 -82 -198 -82q-56 0 -93 33t-43 92q-61 -55 -138.5 -87t-151.5 -32q-87 0 -139 49.5t-52 126.5zM182 1122q0 39 28.5 69t68.5 30q38 0 65 -29t27 -66q0 -39 -28 -67.5t-67 -28.5t-66.5 27.5t-27.5 64.5zM254 166 q0 -103 127 -103q51 0 92 17.5t92 58.5q4 80 8 199q-97 -7 -162.5 -23.5t-98 -40.5t-45.5 -49.5t-13 -58.5zM549 1122q0 39 27 69t67 30q39 0 65.5 -28.5t26.5 -66.5q0 -39 -27.5 -67.5t-68.5 -28.5q-38 0 -64 27.5t-26 64.5z" />
<glyph unicode="&#xe5;" horiz-adv-x="872" d="M82 147q0 92 116 155t369 77q4 156 4 225q0 99 -57 133q-41 23 -119 23q-45 0 -82 -18t-37 -40q0 -14 5.5 -32t5.5 -31q0 -31 -43 -57.5t-94 -26.5q-24 0 -38.5 12.5t-11.5 30.5q1 29 42 73t100.5 85t138.5 70.5t147 29.5q85 0 139.5 -58t55.5 -159q1 -43 -5 -243.5 t-5 -258.5q2 -60 39.5 -75.5t134.5 14.5l10 -15q3 -10 0 -14q-116 -82 -199 -82q-56 0 -92.5 33t-42.5 92q-61 -55 -139 -87t-152 -32q-87 0 -138.5 49.5t-51.5 126.5zM246 166q0 -103 127 -103q51 0 92 17.5t92 58.5q4 80 8 199q-97 -7 -162.5 -23.5t-98 -40.5t-45.5 -49.5 t-13 -58.5zM291 1126q0 74 54.5 127.5t131.5 53.5q75 0 130 -54t55 -127q0 -75 -55 -127.5t-130 -52.5q-78 0 -132 52.5t-54 127.5zM332 1126q0 -59 42 -99t103 -40q59 0 101.5 40.5t42.5 98.5q0 57 -42.5 98.5t-101.5 41.5q-61 0 -103 -41t-42 -99z" />
<glyph unicode="&#xe6;" horiz-adv-x="1376" d="M68 147q0 234 491 299q4 132 4 170q0 64 -33 103q-33 41 -114 41q-55 0 -101.5 -17.5t-46.5 -37.5q0 -9 2 -28t2 -28q0 -21 -8 -26q-19 -23 -58 -38.5t-71 -15.5q-43 0 -43 25q1 28 43 73t102 87.5t138 73t143 30.5q57 0 107 -36t73 -97q136 133 301 133q138 0 223 -89 t85 -200q0 -9 -3.5 -30t-5.5 -35l-575 -82q3 -95 32.5 -166.5t76.5 -111.5t99.5 -59t110.5 -19q139 0 248 88q6 3 17 -11t4 -20q-59 -70 -151 -111t-185 -41q-110 0 -198.5 50t-145.5 133q-70 -79 -166.5 -131t-185.5 -52q-94 0 -152.5 50.5t-58.5 125.5zM227 195 q0 -57 27.5 -94.5t79.5 -37.5q143 0 276 127q-55 104 -51 213q-106 -17 -176.5 -42t-102 -55t-42.5 -55.5t-11 -55.5zM723 465l422 59q-5 124 -55.5 200.5t-135.5 76.5q-96 0 -161.5 -94.5t-69.5 -241.5z" />
<glyph unicode="&#xe7;" horiz-adv-x="847" d="M74 369q0 125 72 237t199.5 181t277.5 69q70 0 117.5 -24t47.5 -48q0 -29 -26 -71.5t-47 -42.5q-23 0 -61.5 20t-87 40t-97.5 20q-120 0 -176.5 -72.5t-56.5 -226.5q0 -184 85 -282.5t207 -98.5q134 0 252 88q3 2 10 -4.5t10 -14t-1 -12.5q-53 -56 -128.5 -98.5 t-162.5 -53.5l-55 -77q103 -33 154.5 -90.5t51.5 -120.5q0 -85 -73 -154.5t-221 -91.5q-7 -1 -11.5 7.5t-3.5 17.5t6 10q58 8 98 28.5t57.5 47.5t24.5 48.5t7 43.5q0 111 -211 170l110 159q-161 6 -264.5 118.5t-103.5 277.5z" />
<glyph unicode="&#xe8;" horiz-adv-x="901" d="M82 385q0 121 65 231t168.5 175t212.5 65q76 0 138.5 -26t101 -67t59.5 -88.5t21 -94.5q0 -6 -12 -54l-588 -14q-2 -20 -2 -66q0 -97 26 -172t70.5 -119t98 -65.5t112.5 -21.5q145 0 262 86q1 2 8 -4t12 -14t1 -11q-60 -66 -158 -110t-195 -44q-179 0 -290 115.5 t-111 298.5zM182 1311q-8 8 5.5 26t33.5 28t27 1l284 -391q7 -12 -7 -21t-23 2zM254 557l432 10q-3 83 -62 154.5t-151 71.5q-78 0 -137 -63t-82 -173z" />
<glyph unicode="&#xe9;" horiz-adv-x="901" d="M82 385q0 121 65 231t168.5 175t212.5 65q76 0 138.5 -26t101 -67t59.5 -88.5t21 -94.5q0 -6 -12 -54l-588 -14q-2 -20 -2 -66q0 -97 26 -172t70.5 -119t98 -65.5t112.5 -21.5q145 0 262 86q1 2 8 -4t12 -14t1 -11q-60 -66 -158 -110t-195 -44q-179 0 -290 115.5 t-111 298.5zM254 557l432 10q-3 83 -62 154.5t-151 71.5q-78 0 -137 -63t-82 -173zM432 983l281 391q7 9 26.5 -1t33.5 -27.5t7 -26.5l-323 -354q-10 -10 -22.5 -3t-2.5 21z" />
<glyph unicode="&#xea;" horiz-adv-x="901" d="M82 385q0 121 65 231t168.5 175t212.5 65q76 0 138.5 -26t101 -67t59.5 -88.5t21 -94.5q0 -6 -12 -54l-588 -14q-2 -20 -2 -66q0 -97 26 -172t70.5 -119t98 -65.5t112.5 -21.5q145 0 262 86q1 2 8 -4t12 -14t1 -11q-60 -66 -158 -110t-195 -44q-179 0 -290 115.5 t-111 298.5zM229 971l228 415q5 7 17 6.5t15 -8.5l230 -413q4 -7 -1.5 -14t-13.5 -8t-16 7l-219 301l-211 -301q-5 -6 -13.5 -6t-14.5 7t-1 14zM254 557l432 10q-3 83 -62 154.5t-151 71.5q-78 0 -137 -63t-82 -173z" />
<glyph unicode="&#xeb;" horiz-adv-x="901" d="M82 385q0 121 65 231t168.5 175t212.5 65q76 0 138.5 -26t101 -67t59.5 -88.5t21 -94.5q0 -6 -12 -54l-588 -14q-2 -20 -2 -66q0 -97 26 -172t70.5 -119t98 -65.5t112.5 -21.5q145 0 262 86q1 2 8 -4t12 -14t1 -11q-60 -66 -158 -110t-195 -44q-179 0 -290 115.5 t-111 298.5zM211 1122q0 39 28 69t68 30q38 0 65 -29t27 -66q0 -39 -27.5 -67.5t-68.5 -28.5q-38 0 -65 27.5t-27 64.5zM254 557l432 10q-3 83 -62 154.5t-151 71.5q-78 0 -137 -63t-82 -173zM575 1122q0 40 27.5 69.5t69.5 29.5q37 0 63.5 -28.5t26.5 -66.5 q0 -39 -27 -67.5t-67 -28.5q-39 0 -66 27.5t-27 64.5z" />
<glyph unicode="&#xec;" horiz-adv-x="559" d="M-23 1311q-8 8 5.5 26t33.5 28t27 1l285 -391q5 -8 -1 -15.5t-14.5 -8.5t-15.5 5zM67 17q2 12 5 12q39 5 56 7.5t37.5 10.5t27 17t13.5 29.5t8 44t1 65.5v346q0 96 -23.5 119.5t-97.5 -2.5q-7 -2 -12 11t2 19q174 102 234 153q16 13 28 25q1 2 8.5 -0.5t14.5 -7.5t6 -10 q-13 -53 -13 -299v-354q0 -42 1 -65.5t8 -44t13 -29.5t26.5 -17t37.5 -10.5t56 -7.5q6 0 6 -23q0 -15 -6 -14q-55 8 -213 8q-164 0 -219 -8q-9 -2 -5 25z" />
<glyph unicode="&#xed;" horiz-adv-x="559" d="M67 17q2 12 5 12q39 5 56 7.5t37.5 10.5t27 17t13.5 29.5t8 44t1 65.5v346q0 96 -23.5 119.5t-97.5 -2.5q-7 -2 -12 11t2 19q174 102 234 153q16 13 28 25q1 2 8.5 -0.5t14.5 -7.5t6 -10q-13 -53 -13 -299v-354q0 -42 1 -65.5t8 -44t13 -29.5t26.5 -17t37.5 -10.5 t56 -7.5q6 0 6 -23q0 -15 -6 -14q-55 8 -213 8q-164 0 -219 -8q-9 -2 -5 25zM250 983l282 391q6 9 25.5 -1t34 -28t6.5 -26l-324 -354q-8 -10 -21 -3t-3 21z" />
<glyph unicode="&#xee;" horiz-adv-x="559" d="M31 971l229 415q3 7 15.5 6.5t17.5 -8.5l229 -413q4 -7 -1.5 -14t-13.5 -8t-15 7l-222 301l-209 -301q-8 -11 -22 -4t-8 19zM67 17q2 12 5 12q39 5 56 7.5t37.5 10.5t27 17t13.5 29.5t8 44t1 65.5v346q0 96 -23.5 119.5t-97.5 -2.5q-7 -2 -12 11t2 19q174 102 234 153 q16 13 28 25q1 2 8.5 -0.5t14.5 -7.5t6 -10q-13 -53 -13 -299v-354q0 -42 1 -65.5t8 -44t13 -29.5t26.5 -17t37.5 -10.5t56 -7.5q6 0 6 -23q0 -15 -6 -14q-55 8 -213 8q-164 0 -219 -8q-9 -2 -5 25z" />
<glyph unicode="&#xef;" horiz-adv-x="559" d="M6 1122q0 39 28 69t68 30q38 0 65.5 -29t27.5 -66q0 -39 -28 -67.5t-69 -28.5q-38 0 -65 27.5t-27 64.5zM67 17q2 12 5 12q39 5 56 7.5t37.5 10.5t27 17t13.5 29.5t8 44t1 65.5v346q0 96 -23.5 119.5t-97.5 -2.5q-7 -2 -12 11t2 19q174 102 234 153q16 13 28 25 q1 2 8.5 -0.5t14.5 -7.5t6 -10q-13 -53 -13 -299v-354q0 -42 1 -65.5t8 -44t13 -29.5t26.5 -17t37.5 -10.5t56 -7.5q6 0 6 -23q0 -15 -6 -14q-55 8 -213 8q-164 0 -219 -8q-9 -2 -5 25zM371 1122q0 40 27.5 69.5t68.5 29.5q39 0 65.5 -28.5t26.5 -66.5q0 -39 -27.5 -67.5 t-68.5 -28.5q-39 0 -65.5 27.5t-26.5 64.5z" />
<glyph unicode="&#xf0;" horiz-adv-x="1015" d="M74 367q0 123 64 231t178.5 174t252.5 66q60 0 168 -17q-44 146 -112 230q-1 1 -38 -26t-73 -54l-37 -27q-17 -4 -34 27t-5 39l142 88q-106 106 -269 106q-32 0 -89.5 -18.5t-84.5 -42.5q-9 -10 -20 -1.5t0 25.5q41 62 121 103t155 41q184 0 320 -129l114 73 q14 9 31.5 -21.5t9.5 -41.5l-104 -66q82 -98 127 -233t45 -275q0 -203 -57.5 -334.5t-188.5 -228.5q-112 -84 -252 -84q-147 0 -255.5 115t-108.5 281zM231 434q0 -87 27.5 -157.5t72.5 -113.5t99 -66t111 -23q103 0 170 113.5t67 351.5q0 68 -8 125q-57 42 -135.5 68 t-159.5 26q-113 0 -178.5 -82.5t-65.5 -241.5z" />
<glyph unicode="&#xf1;" horiz-adv-x="1105" d="M67 -1q-2 21 5 32q41 4 60 6.5t40.5 10.5t28.5 16.5t14.5 29t8.5 44t1 65.5v344q0 97 -24.5 121t-102.5 -2q-7 -2 -13.5 13t1.5 19q130 68 254 176q1 2 7 -0.5t12.5 -7.5t7.5 -10q5 -45 10 -156q125 86 207.5 121t154.5 35q110 0 159.5 -65.5t49.5 -190.5v-397 q0 -40 1 -61.5t6.5 -43t14 -31t26.5 -18.5t41 -12t61 -6q6 0 5 -24q-1 -16 -7 -15q-52 8 -224 8q-145 0 -204 -8q-5 -2 -6 7q-2 21 6 32q44 4 64.5 9.5t37 24t21 49.5t4.5 89v307q0 136 -31 193t-117 57q-51 0 -103 -21t-165 -88v-448q0 -104 21.5 -134.5t103.5 -37.5 q6 0 6 -23q-1 -17 -8 -16q-57 8 -193 8q-178 0 -235 -8q-5 -2 -7 7zM238 981q9 98 64 153.5t140 55.5q42 0 142.5 -37t148.5 -37q47 0 75 24.5t42 94.5q0 1 9 -0.5t18.5 -4.5t9.5 -7q-6 -90 -53 -143.5t-125 -53.5q-48 0 -149 40t-163 40q-95 0 -123 -135q-6 -2 -21 2t-15 8 z" />
<glyph unicode="&#xf2;" horiz-adv-x="1048" d="M82 399q0 89 32 171t90 146t146.5 102t192.5 38q98 0 182 -35.5t140 -95t88 -136.5t32 -161q0 -89 -33 -171t-91.5 -146t-147.5 -102t-193 -38q-130 0 -231.5 61t-154 157.5t-52.5 209.5zM188 1311q-8 8 6.5 26t34.5 28t27 1l283 -391q6 -8 0.5 -15.5t-14 -8.5t-15.5 5z M248 481q0 -209 86.5 -328.5t232.5 -119.5q80 0 137.5 44.5t84 114t26.5 154.5q0 209 -86.5 330t-230.5 121q-120 0 -185 -91.5t-65 -224.5z" />
<glyph unicode="&#xf3;" horiz-adv-x="1048" d="M82 399q0 89 32 171t90 146t146.5 102t192.5 38q98 0 182 -35.5t140 -95t88 -136.5t32 -161q0 -89 -33 -171t-91.5 -146t-147.5 -102t-193 -38q-130 0 -231.5 61t-154 157.5t-52.5 209.5zM248 481q0 -209 86.5 -328.5t232.5 -119.5q80 0 137.5 44.5t84 114t26.5 154.5 q0 209 -86.5 330t-230.5 121q-120 0 -185 -91.5t-65 -224.5zM438 983l283 391q6 9 25 -1t33 -28t7 -26l-323 -354q-10 -10 -22.5 -3t-2.5 21z" />
<glyph unicode="&#xf4;" horiz-adv-x="1048" d="M82 399q0 89 32 171t90 146t146.5 102t192.5 38q98 0 182 -35.5t140 -95t88 -136.5t32 -161q0 -89 -33 -171t-91.5 -146t-147.5 -102t-193 -38q-130 0 -231.5 61t-154 157.5t-52.5 209.5zM248 481q0 -209 86.5 -328.5t232.5 -119.5q80 0 137.5 44.5t84 114t26.5 154.5 q0 209 -86.5 330t-230.5 121q-120 0 -185 -91.5t-65 -224.5zM285 971l227 415q5 7 16.5 6.5t16.5 -8.5l229 -413q4 -7 -1.5 -14t-13.5 -8t-16 7l-219 301l-211 -301q-6 -6 -14 -6t-13.5 6.5t-0.5 14.5z" />
<glyph unicode="&#xf5;" horiz-adv-x="1048" d="M82 399q0 89 32 171t90 146t146.5 102t192.5 38q98 0 182 -35.5t140 -95t88 -136.5t32 -161q0 -89 -33 -171t-91.5 -146t-147.5 -102t-193 -38q-130 0 -231.5 61t-154 157.5t-52.5 209.5zM182 981q7 97 62 153t141 56q43 0 143.5 -37t149.5 -37q46 0 73.5 24.5t43.5 94.5 q0 1 9 -0.5t18 -4.5t9 -7q-8 -90 -54 -143.5t-126 -53.5q-46 0 -147.5 40t-163.5 40q-96 0 -121 -135q-7 -2 -22 2t-15 8zM248 481q0 -209 86.5 -328.5t232.5 -119.5q80 0 137.5 44.5t84 114t26.5 154.5q0 209 -86.5 330t-230.5 121q-120 0 -185 -91.5t-65 -224.5z" />
<glyph unicode="&#xf6;" horiz-adv-x="1048" d="M82 399q0 89 32 171t90 146t146.5 102t192.5 38q98 0 182 -35.5t140 -95t88 -136.5t32 -161q0 -89 -33 -171t-91.5 -146t-147.5 -102t-193 -38q-130 0 -231.5 61t-154 157.5t-52.5 209.5zM246 1122q0 39 28 69t70 30q36 0 63 -29t27 -66q0 -39 -27.5 -67.5t-66.5 -28.5 t-66.5 27.5t-27.5 64.5zM248 481q0 -209 86.5 -328.5t232.5 -119.5q80 0 137.5 44.5t84 114t26.5 154.5q0 209 -86.5 330t-230.5 121q-120 0 -185 -91.5t-65 -224.5zM612 1122q0 39 27.5 69t67.5 30q39 0 65.5 -28.5t26.5 -66.5q0 -39 -27.5 -67.5t-66.5 -28.5t-66 27.5 t-27 64.5z" />
<glyph unicode="&#xf8;" horiz-adv-x="1048" d="M74 399q0 89 32 171t90 146t146.5 102t192.5 38q138 0 247 -72l78 99q5 4 14 1t16 -11t3 -13l-78 -98q77 -62 119.5 -149.5t42.5 -184.5q0 -89 -33 -171t-91.5 -146t-147.5 -102t-193 -38q-141 0 -264 84q0 1 -18.5 -26.5t-37.5 -55.5l-18 -28q-4 -4 -13 -1t-16.5 10.5 t-3.5 12.5l82 105q-72 61 -110.5 146t-38.5 181zM240 481q0 -185 67 -303l402 512q-81 107 -220 107q-120 0 -184.5 -91.5t-64.5 -224.5zM332 145q80 -112 227 -112q80 0 137.5 44.5t84 114t26.5 154.5q0 189 -74 309z" />
<glyph unicode="&#xf9;" horiz-adv-x="1050" d="M40.5 751.5q-4.5 14.5 2.5 16.5q144 26 252 90q1 2 7.5 -1.5t13.5 -9.5t8 -11q6 -56 6 -197l-4 -322q-1 -142 32.5 -193.5t126.5 -51.5q106 0 246 123l6 432q2 78 -18 98.5t-109 26.5q-3 0 -7 8.5t-4.5 15.5t3.5 8q150 24 254 82q3 0 15 -9.5t12 -14.5q6 -55 6 -203 l-4 -467q0 -70 36 -84.5t128 12.5q1 1 4 -4q11 -18 7 -28q-1 -2 -3 -2q-70 -35 -150 -67t-112 -32q-27 0 -45 48t-19 128q-73 -72 -164 -122t-166 -50q-104 0 -167 65t-62 191l6 389q2 78 -19 98t-110 23q-4 0 -8.5 14.5zM223 1311q-8 8 5.5 26t33.5 28t27 1l284 -391 q6 -7 0.5 -15t-14 -9t-14.5 5z" />
<glyph unicode="&#xfa;" horiz-adv-x="1050" d="M40.5 751.5q-4.5 14.5 2.5 16.5q144 26 252 90q1 2 7.5 -1.5t13.5 -9.5t8 -11q6 -56 6 -197l-4 -322q-1 -142 32.5 -193.5t126.5 -51.5q106 0 246 123l6 432q2 78 -18 98.5t-109 26.5q-3 0 -7 8.5t-4.5 15.5t3.5 8q150 24 254 82q3 0 15 -9.5t12 -14.5q6 -55 6 -203 l-4 -467q0 -70 36 -84.5t128 12.5q1 1 4 -4q11 -18 7 -28q-1 -2 -3 -2q-70 -35 -150 -67t-112 -32q-27 0 -45 48t-19 128q-73 -72 -164 -122t-166 -50q-104 0 -167 65t-62 191l6 389q2 78 -19 98t-110 23q-4 0 -8.5 14.5zM426 983l283 391q7 9 26 -1t33 -28t6 -26l-321 -354 q-9 -10 -22.5 -3t-4.5 21z" />
<glyph unicode="&#xfb;" horiz-adv-x="1050" d="M40.5 751.5q-4.5 14.5 2.5 16.5q144 26 252 90q1 2 7.5 -1.5t13.5 -9.5t8 -11q6 -56 6 -197l-4 -322q-1 -142 32.5 -193.5t126.5 -51.5q106 0 246 123l6 432q2 78 -18 98.5t-109 26.5q-3 0 -7 8.5t-4.5 15.5t3.5 8q150 24 254 82q3 0 15 -9.5t12 -14.5q6 -55 6 -203 l-4 -467q0 -70 36 -84.5t128 12.5q1 1 4 -4q11 -18 7 -28q-1 -2 -3 -2q-70 -35 -150 -67t-112 -32q-27 0 -45 48t-19 128q-73 -72 -164 -122t-166 -50q-104 0 -167 65t-62 191l6 389q2 78 -19 98t-110 23q-4 0 -8.5 14.5zM276 971l230 415q3 7 15.5 6.5t17.5 -8.5l229 -413 q4 -7 -1.5 -14t-14 -8t-15.5 7l-221 301l-209 -301q-6 -6 -14.5 -6t-14.5 6.5t-2 14.5z" />
<glyph unicode="&#xfc;" horiz-adv-x="1050" d="M40.5 751.5q-4.5 14.5 2.5 16.5q144 26 252 90q1 2 7.5 -1.5t13.5 -9.5t8 -11q6 -56 6 -197l-4 -322q-1 -142 32.5 -193.5t126.5 -51.5q106 0 246 123l6 432q2 78 -18 98.5t-109 26.5q-3 0 -7 8.5t-4.5 15.5t3.5 8q150 24 254 82q3 0 15 -9.5t12 -14.5q6 -55 6 -203 l-4 -467q0 -70 36 -84.5t128 12.5q1 1 4 -4q11 -18 7 -28q-1 -2 -3 -2q-70 -35 -150 -67t-112 -32q-27 0 -45 48t-19 128q-73 -72 -164 -122t-166 -50q-104 0 -167 65t-62 191l6 389q2 78 -19 98t-110 23q-4 0 -8.5 14.5zM225 1122q0 39 28.5 69t70.5 30q38 0 65 -29t27 -66 q0 -39 -28 -67.5t-69 -28.5q-39 0 -66.5 27.5t-27.5 64.5zM592 1122q0 40 27.5 69.5t68.5 29.5q37 0 63.5 -28.5t26.5 -66.5q0 -39 -27.5 -67.5t-66.5 -28.5t-65.5 27.5t-26.5 64.5z" />
<glyph unicode="&#xfd;" horiz-adv-x="878" d="M-30 814q-2 9 1.5 18t10.5 8q39 -6 211 -6q126 0 202 8q12 2 6 -25q-2 -12 -6 -12q-79 -9 -91.5 -39t22.5 -133l157 -463l191 463q38 98 23.5 130.5t-95.5 41.5q-6 0 -6 23q1 14 6 14q79 -8 170 -8q108 0 160 8q3 1 4.5 -3t2 -9.5t0.5 -11t-1 -9.5t-2 -4 q-81 -6 -122.5 -43t-80.5 -133q-5 -13 -55 -125t-94.5 -222t-98.5 -254t-93 -288t-52 -258q-21 -1 -76.5 -1t-73.5 -1q-82 -3 -129 -12q-3 -1 -5.5 2.5t-3.5 9t-1 11t1 9.5t3 4q68 11 129 60q89 68 168 276l56 144l-232 645q-35 100 -77 135t-122 41q-5 0 -7 9zM418 983 l282 391q7 9 26.5 -1t33.5 -28t6 -26l-322 -354q-9 -10 -22 -3t-4 21z" />
<glyph unicode="&#xfe;" horiz-adv-x="1042" d="M18.5 1320q-5.5 13 1.5 19q5 3 32.5 17.5t37.5 20t36 19.5t39.5 22t35.5 21.5t36.5 23.5t31 22.5t28.5 23.5q1 2 8.5 -0.5t14.5 -7.5t6 -10q-13 -51 -13 -293v-479q155 119 291 119q155 0 262 -114t107 -273q0 -85 -41 -171t-110.5 -154.5t-168.5 -111.5t-207 -43 q-62 0 -133 19v-307q0 -40 2 -64t11 -44.5t20.5 -30t38 -16.5t55 -9t80.5 -4q5 0 6.5 -18.5t-6.5 -18.5q-41 3 -138 3.5t-138 -1.5q-135 -3 -213 -17q-4 -2 -6 6q-3 20 4 29q35 5 54 8.5t35.5 13t23 17.5t11 31.5t5 44t0.5 65.5v373q-11 4 -74 41l74 109v989 q0 96 -24.5 119.5t-102.5 -0.5q-7 -2 -12.5 11zM313 131q124 -68 256 -68q105 0 169.5 92.5t64.5 250.5q0 151 -85.5 236t-201.5 85q-95 0 -203 -63v-533z" />
<glyph unicode="&#xff;" horiz-adv-x="878" d="M-21 814q-2 9 1 18t10 8q39 -6 211 -6q126 0 202 8q12 2 6 -25q-2 -12 -6 -12q-79 -9 -91.5 -39t22.5 -133l158 -463l190 463q38 98 23.5 130.5t-95.5 41.5q-6 0 -6 23q1 14 6 14q79 -8 170 -8q108 0 160 8q3 1 4.5 -3t2 -9.5t0.5 -11t-1 -9.5t-2 -4q-81 -6 -122.5 -43 t-80.5 -133q-5 -13 -55 -125t-94.5 -222t-98.5 -254t-93 -288t-52 -258q-22 -1 -76.5 -1t-72.5 -1q-82 -3 -129 -12q-5 -1 -8 8t-2.5 18.5t3.5 9.5q69 11 130 60q88 67 167 276l56 144l-232 645q-35 101 -76.5 135.5t-121.5 40.5q-5 0 -7 9zM211 1122q0 39 28 69t68 30 q38 0 65 -29t27 -66q0 -39 -27.5 -67.5t-68.5 -28.5q-38 0 -65 27.5t-27 64.5zM575 1122q0 40 27.5 69.5t69.5 29.5q37 0 63.5 -28.5t26.5 -66.5q0 -39 -27 -67.5t-67 -28.5q-39 0 -66 27.5t-27 64.5z" />
<glyph unicode="&#x152;" horiz-adv-x="2127" d="M131 637q0 139 60 267t163.5 223t251 151.5t314.5 56.5q68 0 289.5 -10t332.5 -10q244 0 416 14q-16 -45 -16 -119v-75q2 -5 -7 -6q-21 -3 -28 4q-9 48 -34.5 71t-93 34t-202.5 11h-195q-12 -76 -12 -274v-262h213q34 0 60.5 0.5t47.5 1t36.5 3.5t27 4t19.5 6t12.5 6.5 t8 9.5t4.5 10t3.5 13t3.5 15q3 5 27 2q10 -2 10 -6q-12 -47 -12 -127q0 -64 2 -80q2 -3 -6 -5q-22 -3 -33 3q-6 36 -18.5 52t-57 26t-135.5 10h-213v-299q0 -100 6 -157.5t23.5 -87t39 -37.5t60.5 -8h109q81 0 133.5 2t92.5 10.5t61 17t37 30t22.5 42t15.5 59.5q0 1 4 2 t9 0.5t10.5 -1t9 -2.5t2.5 -5q-21 -135 -39 -190q-9 -27 -19.5 -35t-35.5 -8q-29 0 -151 5t-208 5q-112 0 -351 -10t-308 -10q-180 0 -326 51.5t-240.5 141.5t-145 208.5t-50.5 255.5zM313 702q0 -306 168.5 -482.5t454.5 -176.5q86 0 135 10t77 39t36 69.5t8 114.5v762 q0 54 -3.5 87.5t-17 62.5t-33.5 43.5t-59.5 25.5t-89.5 14t-127 3q-111 0 -210.5 -40t-174.5 -112.5t-119.5 -181.5t-44.5 -238z" />
<glyph unicode="&#x153;" horiz-adv-x="1622" d="M74 399q0 119 56.5 222.5t164 169t240.5 65.5q118 0 210 -52.5t146 -141.5q64 89 158.5 141.5t195.5 52.5q136 0 221.5 -89t85.5 -200q0 -9 -5.5 -28t-6.5 -25l-569 -12q-1 -8 -1 -18t0.5 -22t0.5 -18q0 -102 27.5 -178t74.5 -118t100 -62t113 -20q140 0 250 86 q1 2 8 -4.5t10.5 -14t-0.5 -12.5q-58 -69 -150 -109.5t-187 -40.5q-111 0 -199.5 50.5t-143.5 136.5q-60 -86 -152.5 -136.5t-209.5 -50.5q-188 0 -313 128t-125 300zM240 481q0 -209 86.5 -328.5t232.5 -119.5q118 0 180 89.5t62 223.5q0 210 -84.5 330.5t-227.5 120.5 q-120 0 -184.5 -91.5t-64.5 -224.5zM977 545l414 12q-5 91 -58 167.5t-133 76.5q-83 0 -142.5 -70t-80.5 -186z" />
<glyph unicode="&#x178;" horiz-adv-x="1562" d="M82 1314q1 14 10 13q103 -12 301 -12q157 0 252 12q9 1 11 -8t-1 -18t-6 -9q-97 -9 -111 -43q-14 -35 49 -139q27 -45 122 -186l137 -205l176 252q127 182 148 222q29 57 0 76q-20 14 -99 23q-9 2 -10 22q1 14 10 13q103 -12 252 -12q87 0 186 12q9 1 11.5 -8t-1 -18 t-8.5 -9q-46 -4 -77 -9.5t-64.5 -23t-55.5 -35t-59 -60.5t-66.5 -82.5t-86.5 -118.5l-223 -312v-301q0 -90 0.5 -126.5t7.5 -83t15.5 -58.5t33.5 -28.5t52.5 -19.5t80.5 -7q3 0 6 -10t1 -20t-11 -9q-94 12 -254 12q-198 0 -301 -12q-7 -2 -8.5 8t1 20.5t5.5 10.5 q103 11 130 24q41 19 53 80q9 52 9 219v283l-184 282q-55 84 -89.5 134t-71 95.5t-62 68t-59 41t-65 26t-77.5 12.5q-9 2 -10 22zM567 1597q0 39 30 69t73 30q39 0 67.5 -28.5t28.5 -65.5q0 -39 -29 -68t-71 -29q-41 0 -70 27.5t-29 64.5zM952 1597q0 39 29 69t72 30 q40 0 68 -28t28 -66q0 -39 -29 -68t-71 -29q-41 0 -69 27.5t-28 64.5z" />
<glyph unicode="&#x2c6;" horiz-adv-x="608" d="M47 971l240 415q5 7 17.5 6.5t17.5 -8.5l241 -413q4 -7 -2 -14t-14.5 -8t-16.5 7l-231 301l-221 -301q-6 -6 -15 -6t-15 6.5t-1 14.5z" />
<glyph unicode="&#x2dc;" horiz-adv-x="778" d="M47 981q9 98 67 153.5t148 55.5q45 0 150.5 -37t156.5 -37q49 0 78 24.5t45 94.5q0 1 10 -0.5t19.5 -4.5t9.5 -7q-8 -90 -56.5 -143.5t-131.5 -53.5q-49 0 -156 40t-172 40q-101 0 -129 -135q-7 -2 -23 2t-16 8z" />
<glyph unicode="&#x2000;" horiz-adv-x="934" />
<glyph unicode="&#x2001;" horiz-adv-x="1868" />
<glyph unicode="&#x2002;" horiz-adv-x="934" />
<glyph unicode="&#x2003;" horiz-adv-x="1868" />
<glyph unicode="&#x2004;" horiz-adv-x="622" />
<glyph unicode="&#x2005;" horiz-adv-x="467" />
<glyph unicode="&#x2006;" horiz-adv-x="311" />
<glyph unicode="&#x2007;" horiz-adv-x="311" />
<glyph unicode="&#x2008;" horiz-adv-x="233" />
<glyph unicode="&#x2009;" horiz-adv-x="373" />
<glyph unicode="&#x200a;" horiz-adv-x="103" />
<glyph unicode="&#x2010;" horiz-adv-x="821" d="M136.5 461.5q-6.5 37.5 8.5 40.5l263 55l258 64q11 3 18.5 -16t7 -37.5t-7.5 -26.5l-264 -56l-260 -61q-17 0 -23.5 37.5z" />
<glyph unicode="&#x2011;" horiz-adv-x="821" d="M136.5 461.5q-6.5 37.5 8.5 40.5l263 55l258 64q11 3 18.5 -16t7 -37.5t-7.5 -26.5l-264 -56l-260 -61q-17 0 -23.5 37.5z" />
<glyph unicode="&#x2012;" horiz-adv-x="821" d="M136.5 461.5q-6.5 37.5 8.5 40.5l263 55l258 64q11 3 18.5 -16t7 -37.5t-7.5 -26.5l-264 -56l-260 -61q-17 0 -23.5 37.5z" />
<glyph unicode="&#x2013;" horiz-adv-x="1349" d="M140 554q0 30 7 30l527 -9l528 9q6 0 6 -30t-6 -30l-528 6l-527 -6q-7 0 -7 30z" />
<glyph unicode="&#x2014;" horiz-adv-x="1875" d="M140 554q0 30 7 30l791 -6l791 6q7 0 7 -30t-7 -30l-791 6l-791 -6q-7 0 -7 30z" />
<glyph unicode="&#x2018;" d="M74 1114q0 98 73 162t193 72q6 0 7.5 -10t-0.5 -19.5t-5 -9.5q-89 -4 -134.5 -41.5t-45.5 -79.5q0 -29 17.5 -50.5t58.5 -43.5q37 -19 52 -35t15 -43q0 -31 -24.5 -51.5t-59.5 -20.5q-60 0 -103.5 45.5t-43.5 124.5z" />
<glyph unicode="&#x2019;" d="M64.5 966q-1.5 10 0.5 19.5t5 9.5q90 4 136 40.5t46 78.5q0 29 -19 50.5t-61 43.5q-34 17 -50 34t-16 44q0 32 25 53t59 21q60 0 105 -46.5t45 -125.5q0 -98 -74.5 -161t-193.5 -71q-6 0 -7.5 10z" />
<glyph unicode="&#x201a;" d="M64.5 -240q-1.5 10 0.5 19.5t5 9.5q90 4 136 40.5t46 78.5q0 29 -19 50.5t-61 43.5q-34 17 -50 34t-16 44q0 32 25 53t59 21q60 0 105 -46.5t45 -125.5q0 -98 -74.5 -161t-193.5 -71q-6 0 -7.5 10z" />
<glyph unicode="&#x201c;" horiz-adv-x="741" d="M76 1114q0 98 73.5 162t192.5 72q6 0 7.5 -10t-0.5 -19.5t-5 -9.5q-89 -4 -134.5 -41.5t-45.5 -79.5q0 -29 17.5 -50.5t58.5 -43.5q37 -19 52 -35t15 -43q0 -31 -24.5 -51.5t-59.5 -20.5q-60 0 -103.5 45.5t-43.5 124.5zM385 1114q0 98 73.5 162t192.5 72q6 0 7.5 -10 t-0.5 -19.5t-5 -9.5q-89 -4 -134.5 -41.5t-45.5 -79.5q0 -29 18 -50.5t60 -43.5q34 -17 50.5 -34t16.5 -44q0 -31 -25.5 -51.5t-60.5 -20.5q-60 0 -103.5 45.5t-43.5 124.5z" />
<glyph unicode="&#x201d;" horiz-adv-x="741" d="M64.5 966q-1.5 10 0.5 19.5t5 9.5q90 4 136 40.5t46 78.5q0 29 -19 50.5t-61 43.5q-34 17 -50 34t-16 44q0 32 25 53t59 21q60 0 105 -46.5t45 -125.5q0 -98 -74.5 -161t-193.5 -71q-6 0 -7.5 10zM374 966q-2 10 0 19.5t5 9.5q90 4 136 40.5t46 78.5q0 29 -18 50.5 t-60 43.5q-36 19 -50.5 34.5t-14.5 43.5q0 32 24 53t58 21q60 0 104.5 -46.5t44.5 -125.5q0 -98 -74.5 -161t-193.5 -71q-5 0 -7 10z" />
<glyph unicode="&#x201e;" horiz-adv-x="784" d="M64.5 -240q-1.5 10 0.5 19.5t5 9.5q90 4 136 40.5t46 78.5q0 29 -19 50.5t-61 43.5q-34 17 -50 34t-16 44q0 32 25 53t59 21q60 0 105 -46.5t45 -125.5q0 -98 -74.5 -161t-193.5 -71q-6 0 -7.5 10zM374 -220.5q2 9.5 5 9.5q90 4 136 40.5t46 78.5q0 29 -18 50.5t-60 43.5 q-36 19 -50.5 34.5t-14.5 43.5q0 32 24 53t58 21q60 0 104.5 -46.5t44.5 -125.5q0 -98 -74.5 -161t-193.5 -71q-5 0 -7 10t0 19.5z" />
<glyph unicode="&#x2022;" d="M131 666q0 35 25 61.5t63 26.5q36 0 61 -25.5t25 -58.5q0 -34 -26 -60t-64 -26q-36 0 -60 24.5t-24 57.5z" />
<glyph unicode="&#x2026;" horiz-adv-x="1175" d="M131 53q0 35 25 61.5t63 26.5q36 0 61 -25.5t25 -58.5q0 -35 -26.5 -61.5t-63.5 -26.5q-36 0 -60 25.5t-24 58.5zM502 53q0 35 25.5 61.5t62.5 26.5q36 0 61 -25.5t25 -58.5q0 -35 -26.5 -61.5t-63.5 -26.5q-35 0 -59.5 25.5t-24.5 58.5zM872 53q0 35 26 61.5t65 26.5 q35 0 60.5 -25.5t25.5 -58.5q0 -34 -27.5 -61t-65.5 -27q-35 0 -59.5 25.5t-24.5 58.5z" />
<glyph unicode="&#x202f;" horiz-adv-x="373" />
<glyph unicode="&#x2039;" horiz-adv-x="655" d="M90.5 431q-0.5 13 7.5 18l424 233q9 5 16.5 -0.5t7.5 -14t-9 -16.5l-308 -225l308 -215q9 -8 8 -16.5t-8.5 -14.5t-14.5 -2l-426 236q-5 4 -5.5 17z" />
<glyph unicode="&#x203a;" horiz-adv-x="655" d="M109.5 667.5q-0.5 8.5 7 14t16.5 0.5l424 -233q8 -5 6.5 -18t-6.5 -17l-424 -236q-7 -4 -14.5 2t-8 14.5t8.5 16.5l307 215l-307 225q-9 8 -9.5 16.5z" />
<glyph unicode="&#x205f;" horiz-adv-x="467" />
<glyph unicode="&#x2122;" horiz-adv-x="1183" d="M57 1217q4 20 4 69q0 31 -4 45l27 4q3 -14 18.5 -17t71.5 -3h186q53 0 70.5 3t20.5 17q30 -2 30 -4q-4 -14 -4 -69v-45q2 -3 -17 -5q-16 -1 -16 2q-5 31 -21.5 45.5t-62.5 14.5h-51v-256q0 -57 11 -74t51 -20q3 -2 2 -16.5t-4 -14.5q-40 4 -93 4q-77 0 -106 -4 q-4 0 -4.5 14.5t2.5 16.5q41 5 52 21t11 73v256h-57q-44 0 -61.5 -15.5t-24.5 -46.5q-5 -2 -18 0t-13 5zM544 912q0 12 3 12q38 4 50.5 22.5t14.5 71.5l4 209q0 23 -19 41t-50 22q-3 0 -3 16.5t3 16.5q31 -6 145 -6l144 -313l82 192q40 95 47 119q81 0 147 8q3 0 3 -16.5 t-3 -16.5q-46 -4 -56.5 -20.5t-8.5 -73.5l4 -178q2 -58 12.5 -73.5t54.5 -18.5q4 0 5 -16.5t-5 -16.5q-40 4 -98 4q-75 0 -100 -4q-3 0 -3 16.5t3 16.5q36 3 46 19.5t9 72.5l-4 201l-142 -322q-4 -2 -15.5 -1.5t-12.5 3.5l-146 318l-4 -199q-2 -52 10 -71.5t52 -22.5 q3 -2 2.5 -16.5t-4.5 -14.5q-36 4 -72 4q-65 0 -90 -4q-5 -2 -5 19z" />
<glyph unicode="&#x25fc;" horiz-adv-x="839" d="M0 0v840h840v-840h-840z" />
<glyph unicode="&#xfb01;" horiz-adv-x="1150" d="M59 792l2 3q13 1 42 2t41.5 2t32 3.5t32 7t22.5 11.5v53q0 127 49 245.5t126.5 201t175 132.5t192.5 50q62 0 118 -31t56 -55q0 -41 -31 -85t-59 -44q-21 0 -58 21.5t-82 43t-85 21.5q-248 0 -248 -459v-96h391q47 0 97 13t75 36q1 2 9 -0.5t15.5 -7.5t6.5 -10 q-14 -55 -14 -293v-354q0 -42 1 -65.5t8.5 -44t14 -29.5t28 -17t40 -10.5t59.5 -7.5q6 0 7 -22q-2 -16 -9 -15q-59 8 -231 8q-142 0 -199 -8q-14 -2 -7 26q3 11 5 11q35 5 52 7.5t34.5 11t23.5 17t12 29.5t6.5 44t0.5 65v407q0 73 -11.5 103t-45.5 30h-369v-540 q0 -56 4.5 -84t24 -50t54 -29.5t99.5 -10.5q6 0 6 -23q-1 -14 -6 -14q-60 8 -252 8q-176 0 -235 -8q-6 -2 -7 7q-3 18 5 29l2 1q41 5 59.5 7.5t40 10.5t28 17t14 29.5t8.5 44t1 65.5v540q-27 0 -90 1t-71 1q-5 -2 -8 8q-8 22 -3 39z" />
<glyph unicode="&#xfb02;" horiz-adv-x="1150" d="M59 792l2 3q13 1 42 2t41.5 2t32 3.5t32 7t22.5 11.5v53q0 128 41.5 245.5t110 201t158.5 133t184 49.5q47 0 91 -13t69 -34q53 42 63 51q1 2 9 0t15.5 -6.5t6.5 -9.5q-14 -55 -14 -293v-995q0 -42 1 -65.5t8.5 -44t14 -29.5t28 -17t40 -10.5t59.5 -7.5q6 0 7 -22 q-2 -16 -9 -15q-59 8 -231 8q-142 0 -199 -8q-14 -2 -7 26q3 11 5 11q35 5 52 7.5t34.5 11t23.5 17t12 29.5t6.5 44t0.5 65v540h-426v-540q0 -56 4.5 -84t24 -50t54 -29.5t99.5 -10.5q6 0 6 -23q-1 -14 -6 -14q-60 8 -252 8q-176 0 -235 -8q-6 -2 -7 7q-3 18 5 29l2 1 q41 5 59.5 7.5t40 10.5t28 17t14 29.5t8.5 44t1 65.5v540q-27 0 -90 1t-71 1q-5 -2 -8 8q-8 22 -3 39zM385 819h426v475q-26 39 -80.5 65.5t-116.5 26.5q-77 0 -125.5 -40.5t-76 -146.5t-27.5 -284v-96z" />
</font>
</defs>
</svg>
