<?xml version="1.0" standalone="no"?>
<!DOCTYPE svg PUBLIC "-//W3C//DTD SVG 1.1//EN" "http://www.w3.org/Graphics/SVG/1.1/DTD/svg11.dtd" >
<svg xmlns="http://www.w3.org/2000/svg">
<metadata></metadata>
<defs>
<font id="requiemdisplay-htf-smallcaps" horiz-adv-x="1275" >
<font-face units-per-em="2048" ascent="1638" descent="-410" />
<missing-glyph horiz-adv-x="430" />
<glyph horiz-adv-x="0" />
<glyph horiz-adv-x="682" />
<glyph unicode=" "  horiz-adv-x="430" />
<glyph unicode="&#x09;" horiz-adv-x="430" />
<glyph unicode="&#xa0;" horiz-adv-x="430" />
<glyph unicode="!" horiz-adv-x="479" d="M164 45q0 32 23 56t57 24q31 0 53 -23t22 -53q0 -32 -22.5 -56t-56.5 -24q-32 0 -54 23t-22 53zM172 1188q-2 20 39.5 33.5t83.5 13t41 -15.5q-11 -439 -84 -920q0 -4 -12.5 -3.5t-12.5 3.5q-1 205 -17 452.5t-38 436.5z" />
<glyph unicode="&#x22;" horiz-adv-x="616" d="M41 961l260 415q5 8 23 0t31.5 -22t6.5 -21l-303 -381q-3 -3 -8.5 -3t-9 3.5t-0.5 8.5zM254 963l278 403q6 8 23.5 -1t30.5 -23t6 -21l-320 -369q-6 -6 -14 -1t-4 12z" />
<glyph unicode="#" horiz-adv-x="1402" d="M98 317q0 19 4 19l334 -4l17 225l14 221l-332 -4q-5 3 -5 21t5 18l334 -4l31 442q0 3 8.5 3.5t17 -1.5t9.5 -6l-33 -438l217 -2l219 2l29 442q1 5 18.5 3.5t18.5 -7.5l-33 -438l329 4q6 0 6 -18t-6 -21l-333 4q1 0 -3.5 -56t-9.5 -112l-4 -55l-14 -223l332 4q6 0 6 -19 t-6 -20q-21 0 -52 0.5t-115 1.5t-115 0.5t-52 -0.5l-29 -440q-3 -5 -20 -3.5t-17 7.5l33 438l-215 2l-219 -2l-31 -442q-2 -5 -18.5 -3.5t-16.5 7.5l33 438l-332 -4q-4 1 -4 20zM469 332l217 -2q14 0 36.5 0.5t70.5 0.5t79.5 0.5t30.5 0.5l19 225l14 221l-217 2l-219 -2 l-17 -223z" />
<glyph unicode="$" horiz-adv-x="890" d="M111.5 119q0.5 18 5.5 88t6 115q0 3 6 4t12 0.5t6 -2.5q9 -132 73 -216.5t177 -97.5l39 484q-124 76 -165 110q-117 97 -117 225q0 123 92.5 219.5t232.5 100.5l6 102q0 3 8.5 3.5t17.5 -1.5t11 -6l-8 -98q116 -5 199 -57q22 -15 22 -203q0 -4 -11 -4t-13 2 q-15 92 -67 148t-134 65q0 1 -8 -107.5t-16 -217.5l-9 -109q8 -5 23 -14q38 -23 57.5 -35.5t53 -36t52 -41.5t43 -45.5t36.5 -53.5t21 -60t9 -71q0 -143 -96 -245t-246 -105l-6 -100q-3 -5 -20 -3.5t-17 7.5l8 98q-151 6 -280 119q-4 21 -3.5 39zM272 924q0 -77 45.5 -131.5 t131.5 -108.5l26 418q-88 -2 -145.5 -49.5t-57.5 -128.5zM434 8h2q97 0 161.5 55t64.5 150q0 45 -15 83.5t-45.5 71t-60.5 56t-76 53.5z" />
<glyph unicode="%" horiz-adv-x="1529" d="M92 614q0 83 28 176t77.5 175.5t126.5 137t165 54.5q89 0 147 -78.5t58 -197.5q0 -83 -28 -176.5t-77.5 -176.5t-126.5 -137.5t-165 -54.5q-89 0 -147 79.5t-58 198.5zM225 586q0 -103 28.5 -153t90.5 -50q50 0 93 56t69 139.5t40.5 171t14.5 159.5q0 103 -28.5 153 t-90.5 50q-50 0 -93 -56t-69 -139.5t-40.5 -171t-14.5 -159.5zM522 -51l226 618l219 625q1 4 18 -1.5t19 -10.5l-228 -621l-217 -622q-2 -2 -6.5 -2t-10 1.5t-10 3.5t-8 4.5t-2.5 4.5zM834 244q0 83 28 176t77.5 176t127.5 137.5t166 54.5t146.5 -79.5t58.5 -196.5 q0 -83 -28.5 -176.5t-78 -176.5t-127.5 -137.5t-166 -54.5q-87 0 -145.5 79.5t-58.5 197.5zM967 217q0 -103 28 -153t90 -50q51 0 94.5 56t69.5 139.5t41 171.5t15 160q0 202 -119 202q-51 0 -94 -56t-69.5 -139.5t-41 -171t-14.5 -159.5z" />
<glyph unicode="&#x26;" horiz-adv-x="1409" d="M84 289q0 116 78 209.5t225 150.5q-141 119 -141 244q0 110 71.5 182t198.5 72q101 0 176.5 -61t75.5 -150q0 -144 -215 -242q68 -41 133.5 -107t104.5 -118t94 -133q139 194 139 297q0 54 -147 65q-3 0 -4 12.5t4 12.5q104 -14 251 -14q137 0 226 14q5 0 6 -6.5 t-0.5 -12.5t-3.5 -6q-76 -3 -123.5 -20.5t-102 -69t-129.5 -157.5l-96 -144q43 -64 70.5 -101t65.5 -77.5t75 -59t78 -18.5q49 0 86 11t82 38q1 1 3.5 -0.5t4.5 -4t3.5 -5.5t1 -5.5t-2.5 -4.5q-50 -43 -119.5 -75t-128.5 -32q-99 0 -170 52t-145 153q-84 -98 -175 -153.5 t-206 -55.5q-39 0 -83.5 11.5t-91 37.5t-84 62t-61.5 90.5t-24 118.5zM219 365q0 -121 83.5 -203t211.5 -82q91 0 151.5 30t120.5 101q-13 19 -47.5 70t-52.5 77.5t-53 71.5t-63.5 74.5t-69 64t-82.5 60.5q-92 -34 -145.5 -104.5t-53.5 -159.5zM362 961q0 -52 39.5 -110 t130.5 -134q69 40 93 90.5t24 124.5q0 78 -40.5 129t-108.5 51q-69 0 -103.5 -39.5t-34.5 -111.5z" />
<glyph unicode="'" horiz-adv-x="432" d="M41 971l289 391q6 8 23 -1.5t29 -24t5 -21.5l-330 -354q-7 -7 -15 -1q-6 5 -1 11z" />
<glyph unicode="(" horiz-adv-x="778" d="M215 465q0 187 52 359.5t141.5 307t205 237.5t248.5 167q5 2 9.5 -9t0.5 -14q-493 -354 -493 -1048q0 -695 493 -1049q4 -3 -0.5 -13.5t-9.5 -8.5q-133 64 -248.5 167t-205 237.5t-141.5 307t-52 359.5z" />
<glyph unicode=")" horiz-adv-x="778" d="M-94 -584q493 354 493 1049q0 694 -493 1048q-4 3 0.5 14t9.5 9q133 -64 248.5 -167t205 -237.5t141.5 -307t52 -359.5t-52 -359.5t-141.5 -307t-205 -237.5t-248.5 -167q-5 -2 -9.5 8.5t-0.5 13.5z" />
<glyph unicode="*" horiz-adv-x="581" d="M29 1171q-4 3 0.5 13t9.5 8l209 -66l67 209q1 6 12 3.5t11 -7.5v-217h221q6 0 7.5 -10t-3.5 -12l-207 -70l68 -209q1 -4 -8.5 -8.5t-12.5 -1.5l-129 176l-178 -129q-3 -3 -7.5 0t-7.5 8t-1 8l127 176z" />
<glyph unicode="+" horiz-adv-x="1177" d="M96 468q0 19 6 19l473 -6l-6 475q0 4 19.5 4t19.5 -4l-6 -475l473 6q5 0 5 -19t-5 -19l-473 6l6 -473q0 -4 -19.5 -4t-19.5 4l6 473l-473 -6q-6 0 -6 19z" />
<glyph unicode="," horiz-adv-x="401" d="M77.5 -227q-0.5 6 0.5 12t2 6q90 0 127 33.5t37 81.5q0 27 -16.5 46t-55.5 40q-28 14 -40.5 27t-12.5 36q0 26 19.5 43t47.5 17q48 0 85.5 -40t37.5 -108q0 -87 -64 -143.5t-163 -56.5q-4 0 -4.5 6z" />
<glyph unicode="-" horiz-adv-x="778" d="M124.5 470q0.5 16 8.5 17l254 56l252 63q5 1 9 -4.5t6 -15t3 -19.5t-0.5 -18t-5.5 -10l-256 -56l-250 -61q-8 0 -14.5 16t-6 32z" />
<glyph unicode="." horiz-adv-x="401" d="M123 45q0 32 23 56t57 24q32 0 54 -23t22 -53q0 -31 -23.5 -55.5t-56.5 -24.5q-32 0 -54 23t-22 53z" />
<glyph unicode="/" horiz-adv-x="667" d="M2 -664l655 2128q3 4 9.5 3.5t12.5 -4t5 -7.5l-657 -2128q-2 -3 -8 -3t-12 3.5t-5 7.5z" />
<glyph unicode="0" horiz-adv-x="1200" d="M115 453q0 137 64.5 254.5t182.5 189.5t263 72q128 0 235 -66t167 -177t60 -241q0 -138 -64.5 -255.5t-182 -189t-262.5 -71.5q-128 0 -235 66t-167.5 177t-60.5 241zM268 518q0 -123 31 -221.5t82 -157.5t112.5 -90t127.5 -31q140 0 226.5 107t86.5 295q0 123 -31 221.5 t-82 157.5t-112 90t-127 31q-140 0 -227 -107t-87 -295z" />
<glyph unicode="1" horiz-adv-x="747" d="M112 940q2 8 5 8q74 -10 276 -10q164 0 236 10q3 1 5 -4q2 -13 -3 -20q-57 -5 -87 -12.5t-55 -28t-34 -57.5t-9 -99v-516q0 -62 9 -99t34 -57.5t55 -28t87 -12.5q5 0 3 -16q-1 -8 -5 -8q-72 10 -236 10q-202 0 -276 -10q-3 -1 -4 4q-1 13 4 20q35 4 51.5 6.5t41 8 t35 13.5t24 22t19 33.5t9.5 47.5t4 66v516q0 38 -4 66t-9.5 47.5t-19 33.5t-24 22t-35 13.5t-41 8t-51.5 6.5q-5 0 -5 16z" />
<glyph unicode="2" horiz-adv-x="974" d="M77.5 24q0.5 4 2.5 5q269 145 398.5 283.5t129.5 301.5q0 117 -59 183.5t-152 66.5q-69 0 -123.5 -28t-111.5 -88q-2 -2 -6.5 1.5t-7.5 9t-1 9.5q143 201 316 201q131 0 211 -84t80 -205q0 -98 -69 -206.5t-164.5 -192.5t-205.5 -148h310q102 0 147.5 11.5t64 40.5 t23.5 96q0 2 11.5 2.5t11.5 -2.5q3 -35 -5 -135.5t-14 -125.5q-4 -18 -10.5 -23t-22.5 -5q-24 0 -138.5 4t-184.5 4q-260 0 -416 -10q-2 -1 -5 3t-5 9.5t-3.5 11.5t-1 10z" />
<glyph unicode="3" horiz-adv-x="825" d="M67 -338q0 6 1 6q113 14 200.5 43t141 64.5t87.5 80.5t47 87t13 88q0 51 -27 96t-75 77.5t-122 46t-161 1.5q-5 0 -10.5 11.5t-6.5 22t3 13.5q98 30 172 74.5t116.5 95.5t63 103t20.5 106q0 75 -49.5 128.5t-132.5 53.5q-63 0 -131.5 -39t-126.5 -98q-1 -1 -5 3t-7 9t0 8 q72 96 162 161t176 65q110 0 190 -77.5t80 -184.5q0 -103 -81 -198.5t-240 -152.5q172 -7 265 -91.5t93 -209.5q0 -44 -17 -90t-50 -92.5t-88 -87.5t-124 -72.5t-165 -50t-205 -18.5q-4 0 -5.5 6t-1.5 12z" />
<glyph unicode="4" horiz-adv-x="1001" d="M10 102l701 897q2 3 8.5 3t9.5 -5v-827h240v-104q-87 0 -240 6v-183q0 -62 9 -98.5t33.5 -57t55 -28t86.5 -12.5q1 0 2 -6.5t0.5 -12.5t-4.5 -6q-93 13 -237 13q-179 0 -275 -13q-4 0 -4.5 6t0.5 12.5t2 6.5q32 4 46 6t37.5 7t33 10.5t24.5 15.5t20.5 23t12.5 32t9 44 t2 58v185h-45q-351 0 -514 -13q-4 0 -10 18t-3 23zM113 170h469v596z" />
<glyph unicode="5" horiz-adv-x="829" d="M133 582q0 72 43 194q45 110 90 157.5t101 47.5q26 0 111.5 -27.5t142.5 -27.5q38 0 57 25.5t33 90.5q0 1 5.5 1.5t11 0t5.5 -3.5q-3 -141 -39 -201.5t-106 -60.5q-52 0 -139.5 31t-133.5 31q-45 0 -76.5 -46.5t-31.5 -105.5q0 -37 15 -61.5t73 -63.5t180 -98 q248 -125 248 -344q0 -168 -147.5 -294.5t-423.5 -182.5q-5 0 -8 11t-1 13q84 22 158.5 57t138 84t101 116t37.5 143q0 91 -49.5 154t-178.5 124q-116 56 -166.5 106t-50.5 130z" />
<glyph unicode="6" horiz-adv-x="1046" d="M115 424q0 101 33 205.5t103.5 211t172.5 200.5t249.5 175.5t323.5 135.5q4 2 7.5 -3t4 -11t-2.5 -9q-191 -73 -334.5 -178t-227.5 -225t-124.5 -245t-40.5 -255q0 -186 83.5 -303t208.5 -117q104 0 164 84.5t60 218.5q0 130 -61 210.5t-169 80.5q-51 0 -110 -33 q-3 -1 -10 6.5t-5 10.5q39 42 97.5 69t113.5 27q96 0 166.5 -50t102.5 -122t32 -152q0 -103 -57 -192.5t-152 -142t-204 -52.5q-100 0 -182 37.5t-134 101.5t-80 145t-28 171z" />
<glyph unicode="7" horiz-adv-x="944" d="M115 633q-2 37 6 149.5t14 135.5q4 18 10.5 22t22.5 4q23 0 135.5 -3t183.5 -3q242 0 398 10q5 0 14.5 -19t5.5 -22q-295 -551 -649 -1261q-7 -6 -26.5 -2t-39 14.5t-14.5 17.5q265 453 617 1119h-418q-100 0 -148 -15t-66 -47.5t-22 -101.5q0 -1 -5.5 -1.5t-11.5 0.5 t-7 3z" />
<glyph unicode="8" horiz-adv-x="1017" d="M111 299q0 114 82.5 208.5t230.5 156.5q-57 37 -94 66t-75 70t-56.5 89t-18.5 104q0 156 109 256.5t270 100.5q131 0 224.5 -84.5t93.5 -206.5q0 -104 -61.5 -182t-190.5 -148q64 -40 106 -72t86 -78.5t66 -102t22 -120.5q0 -165 -116 -276t-297 -111q-156 0 -268.5 93.5 t-112.5 236.5zM250 299q0 -132 80.5 -207.5t183.5 -75.5q124 0 196 71.5t72 180.5q0 51 -17 96t-43.5 79t-67.5 68t-78.5 59t-88.5 56q-4 2 -6.5 3.5t-5.5 3.5q-114 -56 -169.5 -135t-55.5 -199zM309 1083q0 -55 20.5 -101.5t65.5 -88.5t81.5 -68t103.5 -67q170 109 170 291 q0 112 -64.5 183t-163.5 71q-95 0 -154 -61t-59 -159z" />
<glyph unicode="9" horiz-adv-x="1064" d="M109 565q0 105 53.5 197.5t150.5 149.5t215 57q129 0 226.5 -61.5t146.5 -160.5t49 -219q0 -103 -26.5 -201.5t-88 -199.5t-154 -188t-233.5 -164t-317 -131q-5 -1 -8.5 4.5t-3 10.5t3.5 7q663 253 663 873q0 187 -80 289t-202 102q-115 0 -176.5 -87.5t-61.5 -230.5 q0 -128 66.5 -206t175.5 -78q54 0 106 26q6 3 12 -4t3 -12q-39 -42 -98 -69t-113 -27q-72 0 -132.5 28.5t-98 75.5t-58 103.5t-20.5 115.5z" />
<glyph unicode=":" horiz-adv-x="401" d="M123 41q0 32 23 56t57 24q32 0 54 -23t22 -53q0 -31 -23.5 -55.5t-56.5 -24.5q-32 0 -54 23t-22 53zM123 657q0 32 23 56t57 24q32 0 54 -22.5t22 -52.5q0 -31 -23.5 -55.5t-56.5 -24.5q-32 0 -54 22.5t-22 52.5z" />
<glyph unicode=";" horiz-adv-x="401" d="M77.5 -227q-0.5 6 0.5 12t2 6q90 0 127 33.5t37 81.5q0 27 -16.5 46t-55.5 40q-28 14 -40.5 27t-12.5 36q0 26 19.5 43t47.5 17q48 0 85.5 -40t37.5 -108q0 -87 -64 -143.5t-163 -56.5q-4 0 -4.5 6zM123 657q0 31 23.5 55.5t56.5 24.5q32 0 54 -22.5t22 -52.5 q0 -32 -23 -56t-57 -24q-32 0 -54 22.5t-22 52.5z" />
<glyph unicode="&#x3c;" horiz-adv-x="1638" d="M63 414q0 138 112 245t247 107q84 0 167.5 -50t133.5 -145l18 15q-7 44 -29 86.5t-47.5 77.5t-50 71t-41 79.5t-16.5 90.5q0 85 46 142t126 57q41 0 89.5 -21.5t84.5 -58.5q4 -5 -4 -13.5t-12 -6.5q-29 19 -53.5 6t-24.5 -47q0 -17 16.5 -32.5t41.5 -27.5t54.5 -30 t54.5 -39t41.5 -56.5t16.5 -79.5q0 -86 -52 -164.5t-116 -93.5q126 -25 217 -75q41 129 115 203.5t160 74.5t144.5 -65t58.5 -156q0 -84 -40 -136.5t-98 -52.5q-36 0 -61 23t-25 59q0 31 19.5 51.5t44.5 20.5q38 0 57 -22q19 25 19 59q0 51 -40 85t-106 34q-62 0 -118 -49 t-101 -146q209 -128 209 -387q0 -115 -49.5 -185.5t-126.5 -70.5q-43 0 -85 25.5t-61 62.5q-1 5 9 11t12 4q23 -32 63 -16q54 23 78 115q13 52 13 118q0 72 -26.5 135.5t-72 110t-98 80.5t-111.5 57q42 -51 70.5 -125.5t28.5 -159.5q0 -98 -53 -155.5t-124 -57.5 q-21 0 -43.5 6t-29.5 6q-18 0 -29.5 -11.5t-11.5 -33.5q0 -31 45 -76q4 -4 -4.5 -12t-12.5 -6q-92 43 -138 110t-46 148q0 84 52.5 171t150.5 161l-10 18q-40 -1 -86.5 -31.5t-82.5 -66t-80.5 -65t-80.5 -29.5q-37 0 -65 23t-42.5 50.5t-37 50.5t-48.5 23q-31 0 -53 -24.5 t-22 -69.5q0 -20 6 -47q1 -4 -5 -6t-12.5 -2t-7.5 2q-31 67 -31 129z" />
<glyph unicode="=" d="M98 314q0 18 4 18l537 -6l535 6q4 0 4 -18t-4 -21l-535 6l-537 -6q-4 3 -4 21zM98 626.5q0 18.5 4 18.5l537 -6l535 6q4 0 4 -18.5t-4 -20.5l-535 6l-537 -6q-4 2 -4 20.5z" />
<glyph unicode="&#x3e;" horiz-adv-x="1638" d="M78 508q0 91 58.5 156t144.5 65t159.5 -74.5t114.5 -203.5q91 50 217 75q-64 15 -116 93.5t-52 164.5q0 44 16.5 79.5t41.5 56.5t54.5 39t54.5 30t41.5 27.5t16.5 32.5q0 34 -24 47t-53 -6q-4 -2 -12.5 6.5t-4.5 13.5q36 37 84.5 58.5t89.5 21.5q80 0 126 -57t46 -142 q0 -47 -16.5 -90.5t-41 -79.5t-50 -71t-47.5 -77.5t-29 -86.5l18 -15q50 94 134 144.5t168 50.5q87 0 170 -48t135.5 -130.5t52.5 -173.5q0 -62 -31 -129q-1 -2 -7.5 -2t-12 2t-4.5 6q6 27 6 47q0 45 -22.5 69.5t-53.5 24.5q-26 0 -48.5 -23t-37 -50.5t-42.5 -50.5t-65 -23 q-30 0 -64 19.5t-65.5 47t-63 55.5t-67.5 48.5t-69 21.5l-10 -18q98 -74 150 -160.5t52 -171.5q0 -81 -46 -148t-138 -110q-4 -2 -12 6t-4 12q45 45 45 76q0 22 -11.5 33.5t-29.5 11.5q-7 0 -30 -6t-44 -6q-71 0 -123.5 57.5t-52.5 155.5q0 85 28 160t70 125 q-59 -23 -111.5 -57t-97.5 -80.5t-71.5 -110t-26.5 -135.5q0 -156 65 -216q39 -35 73 -15q9 6 15 14q2 2 12 -4t9 -11q-19 -37 -60.5 -62.5t-84.5 -25.5q-77 0 -127 71t-50 185q0 259 209 387q-45 97 -101 146t-118 49q-66 0 -105.5 -34t-39.5 -85q0 -35 18 -59q19 22 58 22 q24 0 43.5 -20.5t19.5 -51.5q0 -36 -25 -59t-61 -23q-58 0 -97.5 52.5t-39.5 136.5z" />
<glyph unicode="?" horiz-adv-x="698" d="M127 1141q0 51 31 127q1 1 12.5 -4t11.5 -7q-6 -21 -6 -36q0 -39 48 -72.5t184 -73.5q119 -34 173 -93.5t54 -160.5q0 -94 -50 -151t-196 -117q-170 -70 -170 -174q0 -32 14 -70q1 -2 -4.5 -5.5t-10.5 -5t-7 0.5q-47 106 -47 166q0 132 168 207l194 88q35 15 48.5 31.5 t13.5 42.5q0 22 -20.5 42t-61.5 31l-184 54q-100 28 -147.5 71t-47.5 109zM160 45q0 31 23.5 55.5t56.5 24.5q32 0 54.5 -23t22.5 -53q0 -32 -23 -56t-56 -24q-32 0 -55 23t-23 53z" />
<glyph unicode="@" horiz-adv-x="1296" d="M102 500q0 121 44 240t120 212t187 151t235 58q111 0 207 -38t161 -101.5t101.5 -147.5t36.5 -176q0 -91 -30.5 -174t-78.5 -138t-106 -87.5t-113 -32.5q-85 0 -121.5 48.5t-33.5 144.5l-4 4q-47 -70 -110 -129.5t-93 -59.5q-46 0 -77.5 41t-31.5 113q0 71 41 146 t94.5 128.5t116.5 98.5q66 47 105 47q33 0 51 -12q39 48 67 67q1 1 4 -0.5t5.5 -4t1.5 -5.5q-59 -268 -76 -387q-14 -91 7 -142t81 -51q101 0 157 84.5t56 212.5q0 98 -31 187.5t-88.5 160t-147 112.5t-198.5 42q-120 0 -220.5 -71t-160 -198.5t-59.5 -285.5 q0 -148 63.5 -269.5t179.5 -193t261 -71.5q166 0 309 112q4 4 10 -1t9.5 -12t0.5 -9q-76 -66 -179.5 -104t-211.5 -38q-125 0 -229 44.5t-171 119t-104 169t-37 196.5zM502 459q0 -97 47 -97q30 0 78.5 43t83.5 97l47 252q-30 24 -68 24q-43 0 -87 -49t-72.5 -124 t-28.5 -146z" />
<glyph unicode="A" horiz-adv-x="1406" d="M-12 -5v7q2 6 4 8q98 7 155 75.5t136 256.5l432 989q3 6 12 6t12 -6l369 -989q26 -71 42.5 -112t38 -82.5t40 -62.5t45 -39t57.5 -25.5t74 -10.5q2 -2 4 -8q1 -4 1 -7v-5q-1 -5 -6 -4h-1q-107 14 -229 14q-188 0 -306 -14h-1q-4 0 -5 4q-1 6 0.5 12.5t3.5 7.5 q37 4 53.5 6t39 7t31.5 12t15.5 18.5t6.5 28.5q0 13 -2 27.5t-7 33.5t-9 34t-12.5 40t-14 39t-16 43.5t-15.5 42.5l-62 168h-460l-72 -168q-6 -15 -20.5 -49t-19.5 -47t-15.5 -39t-14.5 -38.5t-9 -30.5t-7 -31t-2 -25q0 -35 30.5 -50.5t104.5 -21.5q7 -2 6 -16q-2 -8 -6 -8 q-107 14 -192 14q-35 0 -57 -0.5t-41.5 -2t-29 -2.5t-34 -4t-41.5 -5h-1q-5 0 -5 9zM432 551h428l-194 549z" />
<glyph unicode="B" horiz-adv-x="1251" d="M130 -10q-1 2 0 5q0 3 1 7q2 6 4 8q102 10 130 24q42 20 54 87q9 54 9 221v614v93.5t-4 72t-5 55.5t-11.5 40t-16 29t-25 18t-31.5 12t-43.5 7t-52.5 7h-2h-2q-2 0 -4 6q-1 3 -1 7v5q1 5 6 5h1q126 -15 258 -15q21 0 115 4.5t129 4.5q174 0 289.5 -79t115.5 -222 q0 -97 -86.5 -183.5t-212.5 -109.5q11 0 22 1q167 0 279 -86q120 -92 119 -235q0 -173 -132.5 -287t-352.5 -114q-37 0 -133 4t-117 4q-175 0 -293 -14h-1q-5 -1 -6 4zM487 332q0 -74 1.5 -118t9 -81t17.5 -54t31.5 -29t46 -14.5t66.5 -2.5q176 0 259 73.5t83 253.5 q0 160 -125 256q-100 77 -253 77q-38 0 -80 -5q-5 0 -5 12.5t5 12.5q186 0 266 61t80 207q0 285 -299 285q-32 0 -84 -9q-19 -85 -19 -299v-626z" />
<glyph unicode="C" horiz-adv-x="1443" d="M123 623q0 100 35 203t102.5 194.5t157.5 163t207.5 113.5t244.5 42q125 0 254 -38t168 -70q12 -7 23 -95t14 -186q1 -2 -3 -4q-14 -3 -19 2q-14 64 -49 122.5t-92 109.5t-146 81.5t-197 30.5q-233 0 -381.5 -159.5t-148.5 -434.5q0 -165 51 -299.5t135 -218t187.5 -128 t214.5 -44.5q166 0 294 95t140 249q0 2 6 2.5t12 -1t6 -5.5q-5 -99 -16.5 -185t-22.5 -95q-143 -109 -438 -109q-166 0 -306.5 54.5t-234 146.5t-146 212t-52.5 251z" />
<glyph unicode="D" horiz-adv-x="1615" d="M130 -10q-1 2 0 5q0 3 1 7q2 6 4 8q102 10 130 24q42 20 54 87q9 54 9 221v614v93.5t-4 72t-5 55.5t-11.5 40t-16 29t-25 18t-31.5 12t-43.5 7t-52.5 7h-2h-2q-2 0 -4 6q-1 3 -1 7v5q1 5 6 5h1q126 -15 340 -15q22 0 145 4.5t162 4.5q172 0 308.5 -49t223 -135.5 t132 -201.5t45.5 -251q0 -138 -53.5 -261.5t-148.5 -216t-233.5 -146.5t-299.5 -54q-38 0 -157.5 4t-141.5 4q-204 0 -322 -14h-1q-5 -1 -6 4zM487 268q0 -42 1.5 -69t8 -53t15 -41t27.5 -28.5t40.5 -19.5t58 -11t76 -6t99.5 -1q109 0 203.5 38.5t164 109.5t109 178.5 t39.5 238.5q0 320 -160.5 488t-445.5 168q-121 0 -217 -11q-19 -108 -19 -291v-690z" />
<glyph unicode="E" horiz-adv-x="1241" d="M112 -10q-1 2 0 5q0 3 1 7q2 6 4 8q114 13 143 24q43 18 56 72q12 48 12 236v614q0 69 -0.5 103t-3 75t-7.5 57.5t-14.5 37t-23 26.5t-34 14t-47 11.5t-62.5 7.5q-12 1 -19 2q-2 0 -4 6q-1 3 -1 7v5q1 5 6 5h1q218 -15 543 -15q187 0 391 15q-13 -47 -13 -111 q0 -46 4 -78q0 -4 -12 -3.5t-12 3.5q-9 50 -33 74t-91 36.5t-200 12.5h-196q-13 -83 -13 -280v-271h213q101 0 147.5 7.5t57 18.5t15.5 38q0 2 0.5 3.5t1 4t0.5 4.5q4 4 20 2q3 -1 4 -2q-14 -54 -14 -129q0 -50 4 -82q1 -2 -3 -3q-13 -2 -20 3q-7 39 -19 55.5t-56.5 27.5 t-137.5 11h-213v-305q0 -82 5 -136.5t13.5 -87t26 -49t36 -21.5t50.5 -5h105q80 0 132.5 2.5t92 11.5t60.5 18t36.5 32t22 43.5t14.5 60.5q1 2 13 1t12 -5q-17 -110 -39 -188q-7 -24 -16 -30.5t-33 -6.5q-28 0 -146.5 5t-201.5 5q-348 0 -551 -14h-1q-5 -1 -6 4z" />
<glyph unicode="F" horiz-adv-x="1185" d="M113 1305q1 8 6 8q220 -15 553 -15q83 0 201.5 5.5t146.5 5.5q23 0 33 -6.5t14 -30.5q7 -26 12 -98l8 -92q-1 -2 -5 -4q-6 -2 -11.5 -1.5t-5.5 2.5q-18 81 -32 104q-27 42 -109 55q-63 9 -199 9h-223q-15 -77 -15 -280v-279h146q77 0 126.5 4.5t78 10.5t44 21t20.5 28.5 t10 38.5q1 4 1 6t12.5 2.5t12.5 -2.5q-18 -67 -18 -154q0 -66 6 -96q1 -6 -5 -8t-12.5 0t-7.5 6q-8 44 -26.5 63t-72 28t-169.5 9h-146v-303v-86.5t2.5 -68t3 -55t8.5 -39.5t11.5 -30.5t19.5 -19.5t24.5 -15t35 -7.5t42.5 -6.5t54 -4q7 -2 6 -16q-2 -8 -6 -8 q-110 14 -258 14q-156 0 -274 -14h-1q-4 0 -5 4q-1 6 0.5 12.5t3.5 7.5q37 4 54 6t40.5 9t31.5 14t20.5 26t15 38.5t7 57t5 77.5t0.5 104v614q0 92 -0.5 131.5t-7.5 85.5t-15.5 58t-34 28t-52.5 19.5t-80 9.5q-13 1 -19 2q-6 0 -6 15z" />
<glyph unicode="G" horiz-adv-x="1525" d="M123 621q0 101 35.5 204t103 195t157.5 163.5t207.5 113.5t243.5 42q124 0 256.5 -43.5t173.5 -76.5q11 -9 15 -94q2 -34 2 -69q0 -54 -4 -110q0 -4 -5.5 -5t-11.5 0t-6 3q-5 63 -39.5 124.5t-93 111.5t-146 81t-188.5 31q-233 0 -381.5 -160.5t-148.5 -435.5 q0 -165 48 -299t128.5 -217.5t181.5 -128.5t211 -45q77 0 134 12t86 31t42.5 34.5t18.5 31.5q12 41 12 133q0 57 -0.5 90.5t-5 68.5t-9.5 52t-18.5 35.5t-27 25.5t-41.5 14.5t-54.5 10.5t-72.5 6q-2 0 -4 6.5t-0.5 12.5t6.5 5q98 -14 329 -14q138 0 248 14q6 1 6 -9 q0 -4 -1 -8q-2 -7 -5 -7q-30 -2 -51 -4.5t-40.5 -8.5l-32.5 -10t-24 -17t-17.5 -21.5t-11.5 -31t-7.5 -37.5t-4 -50t-1.5 -59.5v-73.5q0 -112 24 -136q-131 -73 -245.5 -108t-249.5 -35q-166 0 -304 54t-228 146t-139.5 211t-49.5 251z" />
<glyph unicode="H" horiz-adv-x="1742" d="M113 -6q0 11 6 16q114 13 142 24q43 18 56 71q11 48 11 237v614q0 92 -0.5 131.5t-7.5 85.5t-15.5 58t-34 28t-52.5 19.5t-80 9.5q-13 1 -19 2q-6 0 -6 15q1 8 6 8q129 -15 311 -15q115 0 229 15h2q2 1 3 -1q2 -2 2.5 -6t0 -7.5t-2 -6t-2.5 -2.5q-35 -3 -55.5 -5.5 t-41.5 -10.5t-31.5 -16t-21 -28t-14 -39t-7 -58t-4 -76t-0.5 -101v-276h768v276q0 63 -0.5 103.5t-5 78t-7.5 57.5t-15.5 38.5t-20.5 26t-31.5 14.5t-40 9.5t-53.5 6.5q-6 0 -6 15q1 8 6 8q129 -15 277 -15t266 15h1q4 0 5 -6v-3q0 -10 -6 -14q-60 -5 -89 -8t-57.5 -19.5 t-37 -28t-17 -57t-8.5 -81v-123.5v-17v-614q0 -186 9 -231q12 -58 56 -78q34 -15 144 -23q7 -2 6 -16q-2 -8 -6 -8q-110 14 -266 14q-157 0 -277 -14h-1q-4 0 -5 5q-1 13 6 19q30 3 44 4.5t34.5 6t29 8.5t21.5 14.5t17.5 21t11.5 30.5t8.5 40.5t4 53.5t3 68t0.5 85v295h-768 v-295q0 -64 0.5 -101t4 -76t7 -58t14 -39t21 -27.5t31.5 -15.5t41.5 -10t55.5 -5q1 -1 2.5 -3.5t2 -6.5t0 -7t-2.5 -5q-1 -2 -3 -2h-2q-107 14 -229 14q-191 0 -311 -14h-1q-5 0 -5 8z" />
<glyph unicode="I" horiz-adv-x="876" d="M162 -10q-1 2 -1 5t1 7q2 6 4 8q36 4 50 5t39 6.5t33 8.5t23.5 14t19 20t12 30.5t9 40t3.5 54t3 68v85.5v614v85.5t-3 68t-3.5 54t-9 40t-12 30.5t-19 20.5t-23.5 14.5t-33 8.5t-39 7t-50 5.5q-2 0 -4 6q-1 3 -1 7q1 3 1 5q1 5 5 5h1q126 -15 293 -15q134 0 248 15h1 q5 0 5 -9q0 -10 -6 -14q-32 -3 -51.5 -4.5t-40.5 -7.5t-32.5 -9.5t-24 -16.5t-18 -21t-11.5 -31.5t-7.5 -40t-3.5 -54.5t-2 -66v-83v-614v-83t2 -66t3.5 -54.5t7.5 -40t11.5 -31.5t18 -21t24 -16t32.5 -8.5t40.5 -7.5t51.5 -4q7 -2 6 -16q-2 -8 -6 -8q-107 14 -248 14 q-175 0 -293 -14h-1q-4 -1 -5 4z" />
<glyph unicode="J" horiz-adv-x="804" d="M15 -409q-1 5 -1 8q0 5 2 6q86 38 144 82.5t97.5 101t61 138t30.5 178.5t9 237v614v85.5t-3 68t-3.5 54t-9 40t-12 30.5t-19 20.5t-23.5 14.5t-33 8.5t-39 7t-50 5.5q-2 0 -4 6t0 12q1 5 5 5h1q126 -15 293 -15q130 0 248 15h1q5 0 5 -9q0 -10 -6 -14q-32 -3 -51.5 -4.5 t-40.5 -7.5t-32.5 -9.5t-24 -16.5t-18 -21t-11.5 -31.5t-7.5 -40t-3.5 -54.5t-2 -66v-83v-614q0 -205 -44.5 -342t-152 -239t-296.5 -179q-1 -1 -3 -1q-5 0 -7 10z" />
<glyph unicode="K" horiz-adv-x="1411" d="M113 -5q1 3 1 7q2 6 3 8q114 13 143 24q43 18 56 72q12 48 12 236v614q0 69 -0.5 103t-3 75t-7.5 57.5t-14.5 37t-23 26.5t-34 14t-47 11.5t-62.5 7.5q-12 1 -19 2q-1 0 -3 6q-1 4 -1 7v5q1 5 5 5h1q126 -15 311 -15q115 0 229 15h1q4 0 6 -5q2 -6 0 -12t-4 -6 q-35 -3 -55.5 -5.5t-41.5 -10.5t-31.5 -16t-21 -28t-14 -39t-7 -58t-4 -76t-0.5 -101v-614q0 -64 0.5 -101t4 -76t7 -58t14 -39t21 -27.5t31.5 -15.5t41.5 -10t55.5 -5q2 -1 4 -8q2 -6 0 -12q-1 -5 -6 -4h-1q-107 14 -229 14q-193 0 -311 -14h-1q-5 0 -5 9zM506 623l299 333 q184 199 217 261q9 17 9 29q0 17 -18 25.5t-95 18.5q-2 0 -4 6t0 12q1 5 5 5h1q79 -10 229 -10q97 0 172 10h1q4 0 6 -5q2 -6 -0.5 -12t-4.5 -6q-119 -10 -192 -65.5t-251 -251.5q-11 -11 -16 -17l-231 -249l366 -365q179 -180 236 -227q91 -76 182 -95q31 -7 68 -10 q7 -2 6 -16q-2 -8 -6 -8q-107 14 -258 14q-185 0 -305 -14h-1q-4 0 -5 5q-1 13 6 19q42 5 58.5 7.5t37.5 10.5t14 20t-12 34q-36 56 -216 236l-24 24z" />
<glyph unicode="L" horiz-adv-x="1144" d="M113 -6q0 11 6 16q114 13 142 24q43 18 56 71q11 48 11 237v614q0 59 -0.5 93.5t-3 72t-5 56t-11 39.5t-16 29t-24.5 17.5t-32 12.5t-42.5 7t-53.5 7h-3q-6 0 -6 15q1 8 6 8q129 -15 293 -15q134 0 248 15h1q3 0 5 -5q2 -6 0 -12t-4 -6q-32 -3 -51.5 -4.5t-41 -7.5 t-33 -9.5t-24.5 -16.5t-18 -21t-11.5 -31.5t-8 -40t-3.5 -54.5t-2 -66v-83v-614q0 -132 10.5 -190t34.5 -76.5t80 -18.5h113q82 0 133.5 1.5t91 9t58.5 14t34 26.5t20 36.5t13 52.5q0 3 16 2q7 -2 7 -4q-11 -105 -29 -168q-7 -24 -16.5 -30.5t-32.5 -6.5q-28 0 -137.5 5 t-192.5 5q-365 0 -571 -14h-1q-5 0 -5 8z" />
<glyph unicode="M" horiz-adv-x="1902" d="M119 1305q0 10 6 10q121 -17 352 -17l492 -1083l303 717q112 264 139 375q74 -7 147 -7q106 0 207 15q5 0 6.5 -6.5t-0.5 -12.5t-4 -6q-155 -12 -181 -54q-24 -37 -23 -216v-42v-20l12 -616q2 -185 12 -229q13 -59 57 -79q35 -15 146 -24q5 0 5 -16q-1 -8 -5 -8 q-110 14 -266 14q-177 0 -277 -14q-5 -1 -6 5t1 12.5t5 6.5q47 5 68 8t45.5 16.5t32 30t15.5 57.5t8 88v36q0 40 -1 96l-12 756l-475 -1112q-2 -5 -11 -5t-12 7l-485 1052l-12 -698q-1 -34 -1 -64q1 -160 23 -204q26 -52 164 -64q2 0 3.5 -6.5t0.5 -12.5t-6 -5 q-107 14 -203 14q-148 0 -248 -14q-5 -1 -6 5t1 12.5t5 6.5q38 4 61 7.5t46 12.5t34.5 17t23.5 28t16.5 39t8.5 56.5t5 74t2 97.5l14 719q0 108 -54 162.5t-173 66.5q-6 0 -6 15z" />
<glyph unicode="N" horiz-adv-x="1685" d="M110 1313h1q126 -15 276 -15l954 -1034v692q0 50 -0.5 80t-2 64t-4 53t-8.5 40.5t-12 31.5t-18 22.5t-24 17t-32.5 10.5t-40.5 9t-50 6q-2 0 -3.5 6t-0.5 12q1 5 5 5h1q126 -15 248 -15q86 0 200 15h1q4 0 6 -5q1 -3 1 -7q-1 -3 -1 -5q-2 -6 -4 -6q-30 -3 -51.5 -5.5 t-41.5 -9t-33 -11.5t-24 -18.5t-17.5 -23t-12 -33.5t-8 -40.5t-4 -52.5t-1.5 -62.5v-77.5v-614q0 -237 16 -375q-1 -3 -5 -5q-2 -1 -4 0h-6q-6 2 -9 7l-995 1071v-698v-77t1.5 -62.5t4 -53t7.5 -40.5t11.5 -33t18 -23t24.5 -18.5t32.5 -11t41 -9t51.5 -4.5q2 -1 4 -7.5 t0.5 -12t-6.5 -4.5q-107 14 -201 14q-130 0 -248 -14q-5 -1 -6.5 4.5t0.5 12t4 7.5q38 4 61 7t45.5 12t34.5 17t23.5 28t16 39.5t8 57t4 74t0.5 97.5v719q0 69 -77 144.5t-152 84.5q-1 0 -3 6q-1 4 -1 7q0 10 5 10z" />
<glyph unicode="O" horiz-adv-x="1693" d="M123 629q0 100 35 202.5t101.5 193t155.5 161t206 112t243 41.5q153 0 287 -55.5t225 -147.5t143 -213t52 -251q0 -127 -56 -254t-151.5 -229t-237 -166t-299.5 -64q-152 0 -285.5 55.5t-224 148t-142.5 214t-52 252.5zM289 696q0 -164 50.5 -298.5t134 -218t187 -128.5 t213.5 -45q153 0 272.5 70t189 206.5t69.5 319.5q0 164 -51 298.5t-135 218t-187 128.5t-213 45q-114 0 -211.5 -41t-168 -116t-110.5 -188t-40 -251z" />
<glyph unicode="P" horiz-adv-x="1208" d="M130 -10q-1 2 0 5q0 3 1 7q2 6 4 6q102 11 130 25q42 21 54 87q9 54 9 220v616q0 87 -0.5 132t-10.5 87t-15 56.5t-35 29.5t-49 17.5t-76 8.5q-5 1 -7 1q-2 2 -4 8q-1 4 -1 7v5q1 5 6 5h1q105 -15 258 -15q22 0 119.5 4.5t136.5 4.5q197 0 318 -90t121 -240 q0 -175 -140 -280t-375 -105h-32q-5 0 -5 12t5 12q10 -2 30 -2q182 0 267.5 80t85.5 250q0 158 -84 240t-244 82q-40 0 -92 -9q-19 -85 -19 -299v-618v-82.5t2 -65.5t3.5 -53.5t7.5 -40t11.5 -32t18 -21t24 -16t32.5 -9.5t40.5 -7.5t51.5 -4.5q6 0 6 -13q-1 -9 -6 -9 q-107 14 -248 14q-175 0 -293 -14h-1q-5 -1 -6 4z" />
<glyph unicode="Q" horiz-adv-x="1693" d="M123 627q0 100 34.5 202.5t101 193.5t155.5 162t206 112.5t244 41.5q153 0 286 -55.5t224 -147.5t143 -213.5t52 -252.5q0 -145 -69 -287t-200 -252t-296 -151q181 -122 332.5 -209.5t311 -156.5t315.5 -103.5t312 -34.5q206 0 402 55q2 1 5 -5q3 -4 3 -10q0 -8 -6 -10 q-318 -92 -578 -92q-313 0 -609.5 130t-678.5 415q-121 2 -229.5 38.5t-191.5 100t-144 146.5t-93 181.5t-32 201.5zM287 696q0 -133 33.5 -247t90 -194t132 -137t159.5 -84.5t172 -27.5q233 0 382 159.5t149 434.5q0 165 -51 299.5t-135 218t-187.5 128t-214.5 44.5 q-234 0 -382 -159.5t-148 -434.5z" />
<glyph unicode="R" horiz-adv-x="1374" d="M122 1275q0 7 5 9q100 33 498 33q111 0 203 -17.5t164 -54t112.5 -97.5t40.5 -142q0 -46 -15 -94.5t-45.5 -99t-87 -96.5t-131.5 -77q39 -111 115 -229t165.5 -213t189.5 -156t182 -61q2 0 4 -6q1 -3 1 -7q-1 -3 -1 -5q-2 -6 -6 -7q-134 0 -250 36.5t-200.5 97t-152 145 t-110 174.5t-70.5 192q-69 -14 -160 -14q-53 0 -86 4v-248v-83t2 -66t3.5 -54.5t8 -40t11.5 -31.5t18 -21t24.5 -16t33 -8.5t41 -7.5t51.5 -4q2 -1 4 -7.5t0.5 -12t-6.5 -4.5q-107 14 -248 14q-175 0 -293 -14q-5 -1 -6 4.5t0.5 12t3.5 7.5q103 10 131 24q41 20 53 86 q9 54 9 222v616q0 68 -1 106.5t-5 79t-11.5 59.5t-21.5 36.5t-34 23t-50 5.5q-18 0 -76 -8q-7 0 -7 15zM487 631q33 -2 84 -2q217 0 313.5 75.5t96.5 213.5q0 356 -383 356q-22 0 -92 -4q-19 -65 -19 -293v-346z" />
<glyph unicode="S" horiz-adv-x="1042" d="M158 136q2 22 7 94t7 128q0 3 6 4t12.5 0.5t6.5 -2.5q11 -164 97.5 -259t240.5 -95q113 0 191.5 64.5t78.5 183.5q0 69 -33 126.5t-85.5 99t-116.5 80.5t-128 79t-116.5 84t-85.5 107t-33 139q0 92 48.5 176.5t138.5 139t198 54.5q148 0 258 -63q24 -14 24 -217 q0 -4 -11 -4.5t-13 2.5q-19 114 -90 174.5t-182 60.5q-102 0 -175 -60t-73 -155q0 -66 32.5 -121t84.5 -94.5t114.5 -77t125 -77t114.5 -85t84.5 -111t32.5 -144.5q0 -169 -114 -288.5t-288 -119.5q-200 0 -356 135q-3 15 -3 30q1 6 1 12z" />
<glyph unicode="T" horiz-adv-x="1411" d="M74 1090q10 54 10 172q0 54 -10 106q0 3 8 3h4q12 -1 12 -3q4 -20 7.5 -30t16.5 -21t30 -14.5t56 -7.5t85.5 -4.5t126.5 -0.5h602q82 0 127.5 0.5t86 4t57.5 7.5t31.5 14t18.5 21t9 31q0 3 10 3h6q6 -1 6 -3q-18 -85 -18 -170q0 -68 6 -108q0 -3 -12.5 -2.5t-12.5 2.5 q-7 39 -19 62t-44 43.5t-93 29t-159 8.5h-217v-891v-83.5t2 -65.5t3.5 -54t7.5 -40t11.5 -32t18 -21t24 -16t33 -8.5t41 -7.5t51.5 -4q3 -1 5 -7.5t0 -12.5q-1 -5 -5 -4h-2q-107 14 -245 14q-175 0 -295 -14h-1q-4 0 -5 5q-1 13 6 19q36 4 50 5t39 6.5t33 8.5t23.5 14.5 t18.5 20t11 30t8.5 40t3.5 54t3 67.5v86v891h-225q-126 0 -194 -17t-92.5 -45t-37.5 -81q0 -4 -18 -2q-3 1 -4 2z" />
<glyph unicode="U" horiz-adv-x="1646" d="M100 1305q1 8 6 8q129 -15 293 -15q134 0 248 15h1q4 0 6 -5q2 -6 -0.5 -12t-4.5 -6q-54 -5 -81 -8t-52.5 -20t-34 -30t-16 -59.5t-8 -86t-0.5 -130.5v-438q0 -119 38.5 -213t102 -149.5t139 -84t156.5 -28.5q205 0 311.5 112t106.5 328v492q0 72 -2 114.5t-10 80 t-19.5 55.5t-37 33t-54 21t-78.5 11q-3 0 -5 6t0 12q2 5 6 5h1q126 -15 252 -15q91 0 205 15h1q4 0 6 -5q1 -3 1 -6t-1 -6q-2 -6 -5 -6q-37 -3 -63 -7t-48.5 -13.5t-36 -19t-24 -29.5t-16 -38.5t-9 -53.5t-4 -67.5t-0.5 -86.5v-512q0 -104 -34 -194.5t-98 -160t-166 -109.5 t-230 -40q-152 0 -274.5 60.5t-196.5 180t-74 277.5v479q0 59 -0.5 93.5t-3 72t-5 56t-11 39.5t-16 29t-24.5 17.5t-32 12.5t-42.5 7t-53.5 7h-3q-6 0 -6 15z" />
<glyph unicode="V" horiz-adv-x="1452" d="M48 1313h1q114 -15 230 -15q181 0 307 15h1q4 0 5 -6q1 -13 -6 -17q-95 -12 -117 -24q-27 -15 -27 -49q0 -58 82 -261l305 -755l324 755q50 121 68 174t18 87q0 36 -31 51.5t-106 21.5q-2 0 -4 6t0 12q1 5 5 5h1q114 -15 192 -15q42 0 70.5 1t40.5 2.5t41 5.5t49 6h1 q4 0 6 -5q1 -3 1 -6t-1 -6q-2 -6 -5 -6q-38 -4 -63.5 -11t-50.5 -25.5t-41 -37t-39.5 -62t-41.5 -83t-51 -115.5l-432 -989q-3 -5 -12 -5t-12 7l-406 987q-4 11 -13 32q-41 100 -60 140.5t-52.5 84t-72.5 57.5t-105 20q-1 0 -3 6q-1 4 -1 7q0 10 5 10z" />
<glyph unicode="W" horiz-adv-x="2050" d="M38 1313h1q107 -15 213 -15q204 0 321 15h1q3 0 4 -4q1 -12 -5 -19q-78 -6 -113.5 -23.5t-35.5 -58.5q0 -60 74 -252l288 -743l301 717l-10 26q-24 71 -39.5 112t-35.5 82.5t-37 62.5t-42 39.5t-53.5 26t-68.5 11.5q-2 0 -3.5 6t-0.5 12q1 5 5 5h1q107 -15 213 -15 q221 0 338 15h1q4 0 5 -5q1 -6 -0.5 -12t-3.5 -6q-98 -8 -134 -26.5t-36 -65.5q0 -62 61 -242l246 -745l291 756q40 103 55.5 152.5t15.5 86.5q0 40 -29.5 58.5t-105.5 25.5q-2 0 -4 6t0 12q1 5 5 5h1q107 -15 197 -15q39 0 65.5 1t38 2.5t38 5.5t46.5 6h1q3 0 4 -4v-3 q0 -10 -5 -16q-90 -8 -139 -75t-125 -259l-401 -989q-2 -5 -11 -5t-12 7l-305 885l-379 -887q-2 -5 -10.5 -5t-11.5 7l-385 987q-24 63 -38 97t-33 74.5t-33.5 60.5t-34 42t-41 32t-49 17.5t-62.5 10.5q-1 0 -3 6q-1 4 -1 7q0 10 5 10z" />
<glyph unicode="X" horiz-adv-x="1454" d="M60 -10q-1 2 0 5q0 3 1 7q2 6 5 8q55 6 85.5 10.5t66.5 20.5t57 32.5t57.5 58.5t67 84.5t87.5 125.5l201 287l-182 282q-45 69 -69.5 106.5t-56 82t-49.5 65t-44 45.5t-45 35t-47.5 21t-56 15.5t-66.5 8.5q-3 0 -5 6t0 12q2 5 6 5h1q126 -15 311 -15q130 0 248 15h1 q4 0 5 -6q1 -13 -6 -17q-97 -9 -112 -43q-4 -8 -4 -19q0 -41 48 -125q29 -50 119 -192l96 -149l138 196q130 187 150 240q7 19 8 33q0 27 -25 39t-95 20q-2 0 -4 6t0 12q1 5 5 5h1q126 -15 242 -15q89 0 203 15h1q4 0 5 -6q1 -13 -6 -17q-32 -3 -55.5 -5.5t-47.5 -9.5 t-40 -11t-37.5 -19t-33.5 -23t-34.5 -33t-35 -40t-40.5 -53t-44.5 -61.5t-53.5 -76.5l-170 -243l211 -328q46 -72 67 -103.5t54.5 -79.5t49.5 -66t44 -46t46.5 -37t47.5 -21.5t57.5 -16.5t67.5 -7q7 -2 6 -16q-2 -8 -6 -8q-110 14 -248 14q-213 0 -311 -14h-1q-4 0 -6 4 q-2 6 0.5 12.5t4.5 7.5q92 11 109 39q6 9 6 24q0 38 -41 111q-31 58 -125 203l-125 195l-166 -240q-127 -182 -150 -232q-11 -25 -11 -43q0 -25 21 -37q26 -14 99 -20q7 -2 6 -16q-2 -8 -6 -8q-107 14 -203 14q-143 0 -241 -14h-2q-5 -1 -6 4z" />
<glyph unicode="Y" horiz-adv-x="1558" d="M56 1284q0 6 5 8q95 35 199 35q108 0 206.5 -47t173 -128t128.5 -186t82 -225q77 248 240.5 411t355.5 163q70 0 135 -23q5 -2 5 -8t-2.5 -10.5t-4.5 -3.5q-44 8 -94 8q-160 0 -296.5 -124t-214 -327.5t-77.5 -433.5v-51v-83.5t2 -65.5t3.5 -54t7.5 -40t11.5 -32t18 -21 t23.5 -16t32 -8.5t40.5 -7.5t51.5 -4q7 -2 6 -16q-2 -8 -6 -8q-110 14 -247 14q-175 0 -293 -14h-1q-4 0 -6 4q-1 6 1 12.5t4 7.5q36 4 50 5t39 6.5t33 8.5t23.5 14t19 20t12 30.5t9 40t3.5 54t3 68v85.5v51q0 185 -50 350.5t-133 280.5t-192 182.5t-225 67.5q-24 0 -74 -4 q-2 -1 -4.5 3.5t-2.5 10.5z" />
<glyph unicode="Z" horiz-adv-x="1372" d="M123 -6q-1 3 -1 5q0 5 3 11l909 1237h-497q-63 0 -108.5 -3.5t-79 -7.5t-56 -16t-36 -22t-23 -32t-13.5 -39t-10 -50q0 -2 -12.5 -2.5t-12.5 2.5q7 28 7 119q0 56 -9 117q204 -15 463 -15q332 0 596 15h1q6 0 8 -8q2 -9 -3 -15l-903 -1229h533q62 0 107 1.5t81 7.5 t59.5 12t41.5 20t27.5 27t17 37.5t11.5 46t9 58.5v1q0 1 6 1.5t12 -0.5t6 -3q0 -48 -12.5 -129.5t-23.5 -113.5q-7 -24 -16 -30.5t-31 -6.5q-33 0 -176 5t-242 5q-379 0 -625 -14q-6 0 -8 8z" />
<glyph unicode="[" horiz-adv-x="696" d="M242 -516v1962q217 0 328 14t192 45q8 3 10.5 -6t-2.5 -14q-34 -34 -128.5 -64.5t-248.5 -46.5v-1818q301 -31 377 -111q5 -5 2.5 -14t-10.5 -6q-81 31 -192 45t-328 14z" />
<glyph unicode="\" horiz-adv-x="1128" d="M50 978q2 7 5 7q79 -10 230 -10q131 0 209 10q3 1 4 -4q2 -13 -4 -23q-79 -6 -89 -33q-12 -31 48 -131q21 -36 69 -110l94 -145l125 180q40 57 63 92.5t34 62.5t12 40.5t-14.5 23.5t-33 13t-54.5 7q-2 1 -3.5 8t-0.5 13.5t6 5.5q76 -10 213 -10q73 0 151 10q3 1 4 -4 q2 -13 -4 -23q-70 -5 -110 -22.5t-83.5 -64t-117.5 -152.5l-158 -225v-238q0 -45 0.5 -74.5t4.5 -56t7.5 -41.5t14 -28.5t19 -19t29 -11t36 -7t47.5 -4.5q5 0 5 -16q-2 -8 -5 -8q-78 10 -213 10q-169 0 -248 -10q-3 -1 -4 4q-1 13 4 20q84 10 102 18q37 16 47 75q7 45 7 149 v215l-133 213q-75 121 -119 174t-83.5 73.5t-107.5 26.5q-6 3 -5 20z" />
<glyph unicode="]" horiz-adv-x="696" d="M-57.5 -569q-2.5 9 2.5 14q76 80 377 111v1818q-154 16 -248.5 46.5t-128.5 64.5q-5 5 -2.5 14t10.5 6q81 -31 192 -45t328 -14v-1962q-217 0 -328 -14t-192 -45q-8 -3 -10.5 6z" />
<glyph unicode="^" horiz-adv-x="1372" d="M96 262q0 153 47 293q-47 137 -47 293q1 4 6.5 3.5t12 -2.5t6.5 -3q4 -43 16.5 -73t31 -48.5t55 -31t74 -18.5t101.5 -13l197 -23l-23 203q-7 63 -13.5 100.5t-18.5 74t-31 55.5t-48.5 31.5t-72.5 16.5q-2 0 -4 6t-2 12.5t4 6.5q150 0 299 -47q146 47 297 47q5 0 5 -6.5 t-2.5 -12.5t-4.5 -6q-31 -3 -54 -10t-40.5 -17t-30.5 -29t-22 -37t-16 -50t-11 -60.5t-10 -74.5l-23 -203l199 23q154 16 211.5 49.5t64.5 134.5q1 2 7.5 4t13 2t6.5 -4q0 -147 -47 -293q47 -149 47 -293q0 -4 -6.5 -4t-13 2t-7.5 4q-3 43 -15.5 72.5t-31 48.5t-54.5 31.5 t-74 19t-101 13.5l-197 20l23 -201q7 -64 13 -101.5t18.5 -74t31 -55t48.5 -31t73 -16.5q3 0 5 -12.5t-5 -12.5q-160 0 -297 47q-140 -47 -299 -47q-4 0 -4 6.5t2 12.5t4 6q43 4 72.5 16.5t48.5 31t31 55t18.5 74t13.5 101.5l23 201l-197 -20q-63 -7 -101.5 -13.5t-74.5 -19 t-54.5 -31.5t-31 -48.5t-16.5 -72.5q0 -2 -6.5 -4t-12.5 -2t-6 4z" />
<glyph unicode="_" horiz-adv-x="1290" d="M127 17.5q0 21.5 6 21.5l512 -6l512 6q5 0 5 -21.5t-5 -23.5l-512 6l-512 -6q-6 2 -6 23.5z" />
<glyph unicode="`" horiz-adv-x="432" d="M45 1307q-7 7 5 21.5t29 24t23 1.5l289 -391q4 -5 1.5 -9t-8 -4.5t-9.5 2.5z" />
<glyph unicode="a" horiz-adv-x="1097" d="M0 14q75 6 124.5 58t108.5 184l330 743q1 5 8 5t9 -5l284 -743q17 -46 27.5 -71t26 -56.5t31 -47.5t37.5 -32.5t50 -24t64 -10.5q4 0 5 -12v-3q0 -9 -5 -9q-78 10 -201 10q-177 0 -256 -10q-5 0 -4 12t4 12q11 1 29 2.5t26.5 2.5t20.5 3t17.5 5t11.5 7.5t8 11t2 15.5 q0 61 -51 195l-39 113h-330l-47 -113q-62 -143 -62 -193q0 -26 24.5 -35t84.5 -14q5 0 5.5 -12t-5.5 -12q-75 10 -172 10q-84 0 -166 -10q-5 0 -5 9q0 15 5 15zM356 416h295l-133 368z" />
<glyph unicode="b" horiz-adv-x="1007" d="M109 14q73 7 103.5 26t42 65t11.5 151v463q0 80 -4.5 121t-23 68.5t-46 37t-83.5 15.5q-2 0 -3.5 6.5t-0.5 13t6 6.5q73 -12 221 -12q17 0 86.5 3t95.5 3q133 0 225 -60t92 -167q0 -74 -69 -140.5t-168 -81.5q8 0 16 1q135 0 221 -64q91 -67 91 -174q0 -128 -106 -214.5 t-271 -86.5q-26 0 -99 3t-90 3q-169 0 -245 -10q-7 0 -7 10q0 12 5 14zM414 198.5q0 -14.5 1 -38.5t2 -33.5t4 -25.5t7 -21.5t10.5 -14.5t14.5 -12t19.5 -6.5t24.5 -4.5t31 -1q128 0 187 52t59 163q0 122 -82 196q-66 59 -179 60q-28 0 -58 -4q-3 0 -3 16.5t3 16.5 q134 0 183.5 44.5t49.5 137.5q0 114 -54 163.5t-157 49.5q-10 0 -16 -0.5t-14.5 -1.5t-18.5 -2q-14 -69 -14 -213v-469v-4v-47.5z" />
<glyph unicode="c" horiz-adv-x="1112" d="M92 465q0 103 42.5 201t116 173t181.5 121t230 46q94 0 189.5 -29t127.5 -53q8 -6 18 -82.5t15 -155.5q0 -4 -13 -4.5t-14 2.5q-10 48 -35.5 94t-67.5 87t-108.5 66t-146.5 25q-174 0 -278.5 -113.5t-104.5 -318.5q0 -124 35.5 -222.5t96 -159.5t136 -92.5t158.5 -31.5 q122 0 218 78t105 195q0 1 6.5 1.5t12.5 0t6 -3.5q-5 -80 -15 -156t-18 -82q-106 -82 -330 -82q-124 0 -231 40.5t-179 109t-112.5 158.5t-40.5 188z" />
<glyph unicode="d" horiz-adv-x="1259" d="M104 977q0 10 7 10q73 -12 282 -12q17 0 109 3t121 3q257 0 400.5 -134.5t143.5 -344.5q0 -137 -71 -253t-201.5 -185.5t-292.5 -69.5q-27 0 -116.5 3t-106.5 3q-192 0 -268 -10q-5 0 -6 6t0.5 12t3.5 6q55 6 83 15t46.5 37t23 69.5t4.5 120.5v463q0 105 -11.5 151 t-42 65t-103.5 26q-5 3 -5 16zM414 201q0 -41 3 -62t14.5 -43t37 -31.5t67.5 -15.5t109 -6q69 0 134.5 25t119.5 72.5t86.5 125t32.5 174.5q0 242 -114 367t-326 125q-96 0 -150 -8q-14 -71 -14 -205v-518z" />
<glyph unicode="e" horiz-adv-x="950" d="M96 14q42 5 67 10t46 16.5t30.5 25t16.5 42.5t8.5 61t1.5 87v463q0 55 -1.5 87t-8 61t-16.5 43t-31 25.5t-46 16.5t-67 9q-4 2 -4.5 14t4.5 12q133 -12 436 -12q129 0 293 12q-8 -31 -8 -98q0 -62 2 -74h-26q-6 40 -21 60t-66 33.5t-147 13.5h-135q-10 -62 -10 -195v-197 h106q91 0 128 5.5t51 19.5t22 51q0 2 12 3t12 -3q-10 -38 -10 -123q0 -9 1 -46t1 -44l-19 -1l-5 1q-4 23 -7.5 35.5t-12 24.5t-19.5 17t-33.5 9t-49 5t-71.5 1h-106v-209q0 -104 7.5 -150t24 -59.5t54.5 -13.5h78q39 0 69.5 2t54.5 3.5t42.5 8.5t31 10.5t22.5 15.5t15.5 18 t11 23.5t8 26.5t7.5 32q2 2 14 1t12 -4q-22 -141 -30 -167q-4 -20 -11.5 -25.5t-25.5 -5.5q-21 0 -109 4t-151 4q-304 0 -443 -10q-5 0 -5 9q0 15 5 15z" />
<glyph unicode="f" horiz-adv-x="929" d="M91 977q0 9 5 10q133 -12 443 -12q61 0 150 3t110 3q18 0 25.5 -4.5t11.5 -22.5q3 -18 7 -84t7 -86v0q0 -1 -3 -2q-15 -3 -22 2q-13 67 -23 84q-22 39 -102 48q-45 6 -122 6h-154q-10 -62 -10 -195v-203h96q83 0 124 11t55 29.5t24 60.5q0 2 12 3t12 -3q-12 -40 -12 -142 q0 -86 4 -100q1 -4 -5 -5.5t-12.5 0t-6.5 5.5q-7 36 -19.5 53.5t-54 29t-121.5 11.5h-96v-221q0 -54 1.5 -87t8.5 -62t16.5 -43.5t29.5 -26t44.5 -16t63.5 -7.5q4 0 5 -12t-5 -12q-78 10 -222 10q-154 0 -233 -10q-5 0 -4 12t4 12q38 4 61 12t40.5 22.5t25.5 42t12 65.5 t4 100v463q0 55 -1.5 87t-8.5 61t-17 43t-31.5 25.5t-46.5 16.5t-67 9q-3 3 -3 16z" />
<glyph unicode="g" horiz-adv-x="1169" d="M92 465q0 103 42.5 201t116 173t182 121t231.5 46q93 0 192.5 -34t126.5 -59q9 -6 13 -83q3 -42 3 -80q0 -35 -2 -68q0 -3 -6 -3.5t-12 0t-6 1.5q-7 103 -103 189.5t-243 86.5q-174 0 -278.5 -113.5t-104.5 -320.5q0 -123 34 -221.5t91.5 -159t131 -92t156.5 -31.5 q173 0 195 68q8 20 8 100q0 58 -0.5 87t-7.5 58t-15 39t-31 21t-46 13.5t-70 5.5q-5 0 -5 16q2 8 5 8q105 -10 262 -10q124 0 199 10q4 1 4 -8q0 -10 -4 -16q-29 -2 -47 -4.5t-34.5 -9t-25.5 -11.5t-17 -20.5t-11 -27t-5.5 -40.5t-2.5 -51v-68q0 -79 18 -100 q-194 -109 -385 -109q-124 0 -228.5 40.5t-174 109t-108 158.5t-38.5 188z" />
<glyph unicode="h" horiz-adv-x="1374" d="M96 14q42 5 67 10t46 16.5t30.5 25t16.5 42.5t8.5 61t1.5 87v463q0 55 -1.5 87t-8 61t-16.5 43t-31 25.5t-46 16.5t-67 9q-4 2 -4.5 14t4.5 12q76 -12 260 -12q107 0 201 12q5 0 4.5 -12t-4.5 -14q-91 -7 -117 -53t-26 -189v-203h547v203q0 102 -12 150t-40.5 67 t-91.5 25q-3 2 -3.5 14t3.5 12q76 -12 234 -12q137 0 227 12q6 0 6 -10v-2q0 -12 -6 -14q-41 -3 -68 -8t-47 -18t-30 -27.5t-16 -44.5t-7.5 -60t-1.5 -84v-463q0 -54 1.5 -83.5t7.5 -60t16 -44.5t30 -27t46.5 -18t68.5 -9q6 0 6 -12v-2q0 -10 -6 -10q-75 10 -227 10 q-155 0 -234 -10q-4 0 -3.5 12t3.5 12q63 7 91.5 26.5t40.5 67t12 148.5v215h-547v-215q0 -142 26 -188.5t117 -53.5q3 0 4 -12t-4 -12q-78 10 -201 10q-181 0 -260 -10q-5 0 -5 9q0 15 5 15z" />
<glyph unicode="i" horiz-adv-x="724" d="M127 -1q-1 4 1 9q2 6 3 6q44 4 69.5 12t45 21.5t28 42t12 66t3.5 100.5v463q0 53 -2 87t-9 62t-16.5 42.5t-29 26t-42 16t-59.5 8.5q-3 3 -3 14q0 1 -1 2q0 9 6 10q76 -12 248 -12q121 0 211 12q6 -1 6 -10v-2q0 -11 -4 -14q-44 -3 -71.5 -11.5t-45.5 -23t-26.5 -44.5 t-11.5 -65.5t-3 -97.5v-463q0 -51 1.5 -82.5t7.5 -60.5t16 -44.5t28.5 -28t43 -18t61.5 -8.5q1 0 2.5 -6t0.5 -12t-5 -6q-75 10 -211 10q-169 0 -248 -10q-6 0 -6 9z" />
<glyph unicode="j" horiz-adv-x="692" d="M24 -313q0 3 1 4q157 89 210.5 208t53.5 357v461q0 53 -2 87t-9 62t-16.5 43t-29 26.5t-42 16.5t-59.5 9q-4 0 -4 16q2 8 6 8q63 -10 248 -10q135 0 213 10h1q2 0 3 -4v-4q0 -10 -4 -16q-37 -3 -61.5 -8.5t-43 -18t-28.5 -28t-16 -45t-7.5 -61t-1.5 -83.5v-461 q0 -247 -87.5 -375t-313.5 -213q-1 -1 -2 -1q-3 0 -5 5q-4 6 -4 15z" />
<glyph unicode="k" horiz-adv-x="1136" d="M91 -6q-1 14 5 20q42 4 66.5 9t45.5 16.5t31 25t17 42.5t8.5 61.5t1.5 87.5v463q0 55 -1.5 87t-8.5 61t-17 43t-31 25.5t-45.5 16.5t-66.5 9q-5 0 -5 12t5 12q79 -10 260 -10q123 0 201 10h1q2 0 3 -4q1 -13 -4 -20q-91 -7 -117 -53t-26 -189v-463q0 -143 26 -189 t117 -53q5 0 5 -16q-2 -8 -5 -8q-78 10 -201 10q-181 0 -260 -10h-1q-2 0 -4 4zM428 467l229 252q116 126 154 182q17 30 -3.5 41.5t-78.5 18.5q-6 0 -5 16q1 8 5 8q63 -8 184 -8q78 0 144 8h1q4 0 5 -5q1 -6 -0.5 -12.5t-3.5 -6.5q-20 -2 -38.5 -5.5t-32.5 -6.5t-31.5 -13 t-28 -14.5t-30 -21.5t-29 -25t-33.5 -33t-35 -36.5t-42.5 -45.5t-47.5 -51l-160 -174l272 -279q147 -147 212.5 -191t160.5 -51q3 0 3 -16q-2 -8 -5 -8q-78 10 -238 10q-164 0 -243 -10h-1q-2 0 -3 4q-3 13 2 20q65 8 82 18t4 34q-44 64 -170 190z" />
<glyph unicode="l" horiz-adv-x="925" d="M91 1q1 4 1 7l2 6q42 5 67 10t46.5 16.5t31.5 25.5t17 42.5t8.5 60.5t1.5 87v463q0 105 -11.5 151t-42 65t-103.5 26q-4 2 -4.5 14t6.5 12q73 -12 245 -12q119 0 213 12q5 -1 4.5 -12.5t-2.5 -13.5q-44 -3 -71.5 -11.5t-46 -23t-27 -44.5t-11.5 -66t-3 -97v-449 q0 -121 18.5 -167t75.5 -46h72q71 0 118 6t74 14t42.5 27.5t21 35t12.5 48.5q0 5 19 3q5 -2 5 -3q-5 -52 -34 -165q-6 -20 -12.5 -25.5t-24.5 -5.5q-21 0 -103.5 4t-144.5 4q-319 0 -455 -10q-5 0 -5 11z" />
<glyph unicode="m" horiz-adv-x="1513" d="M95 977q2 8 5 8q76 -10 320 -10l366 -772l201 495q87 205 105 281q58 -5 125 -5q22 0 46 1q94 2 150 10h1q2 0 3 -4q3 -13 -2 -20q-42 -4 -69 -10t-47.5 -17t-29.5 -28t-16 -43t-6 -61q0 -18 0.5 -38.5t-0.5 -44.5l8 -463q1 -53 3 -83.5t9 -60.5t18 -44.5t31 -27t47 -18 t69 -8.5q5 0 5 -16q-2 -8 -5 -8q-78 10 -228 10q-154 0 -233 -10q-3 -1 -5 4q-2 13 3 20q63 6 91 25t39 67q9 41 9 120v30l-8 567l-350 -833q-2 -4 -10 -4t-9 4l-383 817l-8 -551q-1 -24 -1 -44q0 -40 3 -66q4 -39 19.5 -70t46.5 -44t84 -18q5 0 5 -16q-2 -8 -5 -8 q-78 10 -166 10q-134 0 -213 -10q-3 -1 -4 4q-1 13 4 20q100 10 129 56t32 186l11 539q0 59 -50 108t-135 58q-5 0 -5 16z" />
<glyph unicode="n" horiz-adv-x="1327" d="M71 977q0 10 5 10q76 -12 262 -12l702 -750v494q0 140 -28 186t-127 56q-5 2 -5.5 14t5.5 12q73 -12 198 -12q89 0 179 12q6 -1 6 -10v-2q0 -11 -4 -14q-54 -4 -85 -17t-47.5 -45t-21 -70.5t-4.5 -109.5v-463q0 -182 12 -281q0 -3 -5 -3h-3q-4 0 -8 1q-6 1 -10 4 l-754 789v-510q0 -70 5 -109t21.5 -70.5t48 -44.5t85.5 -18q1 0 2 -6t0.5 -12t-4.5 -6q-78 10 -164 10q-136 0 -215 -10q-4 0 -3.5 12t3.5 12q100 10 128.5 56.5t28.5 185.5v526q0 52 -70.5 112.5t-127.5 66.5q-5 2 -5 16z" />
<glyph unicode="o" d="M92 471q0 103 42.5 200t115.5 171t178.5 119t222.5 45q111 0 210.5 -42t170 -111t111.5 -161t41 -190q0 -102 -42.5 -198.5t-115 -170.5t-178 -119t-223.5 -45q-110 0 -209.5 41.5t-170 110.5t-112 160.5t-41.5 189.5zM244 537q0 -123 36 -224.5t95.5 -164t132.5 -96.5 t151 -34q169 0 272 107.5t103 310.5q0 123 -36 224.5t-96 164.5t-133 97t-151 34q-169 0 -271.5 -107.5t-102.5 -311.5z" />
<glyph unicode="p" horiz-adv-x="966" d="M104 977q2 8 5 8q79 -10 221 -10q16 0 90 3t102 3q152 0 251 -69t99 -185q0 -133 -103.5 -218t-272.5 -85h-21q-3 0 -3 11t3 11h19q107 0 167 65t60 189q0 118 -57 177t-164 59q-20 0 -74 -6q-12 -56 -12 -211v-463q0 -63 3 -98t11 -65t26 -44t44.5 -22.5t70.5 -12.5 q5 0 5 -16q-2 -8 -5 -8q-78 10 -213 10q-168 0 -247 -10h-1q-2 0 -3 4q-1 13 4 20q73 7 103.5 26t42 65t11.5 151v463q0 104 -11.5 149.5t-42 65t-103.5 27.5q-5 0 -5 16z" />
<glyph unicode="q" d="M92 471q0 103 42.5 200t116 171t179 119t223.5 45q110 0 210 -42t170 -111t111.5 -160.5t41.5 -188.5q0 -178 -117.5 -325t-294.5 -191q282 -192 498 -285.5t438 -93.5q139 0 303 49q5 0 5 -17q0 -8 -5 -8q-282 -84 -432 -84q-232 0 -459.5 102.5t-521.5 319.5 q-102 1 -196.5 43.5t-162.5 111t-108.5 159.5t-40.5 186zM244 537q0 -123 36 -224.5t95.5 -164t132.5 -96.5t151 -34q169 0 272 107.5t103 310.5q0 123 -36 224.5t-96 164.5t-133 97t-151 34q-169 0 -271.5 -107.5t-102.5 -311.5z" />
<glyph unicode="r" horiz-adv-x="1091" d="M92 960q1 1 2 1q82 26 402 26q197 0 300 -62t103 -182q0 -77 -50.5 -145t-137.5 -104q29 -82 78 -168.5t108 -162t129 -123.5t133 -48q4 0 4 -16q0 -9 -4 -9q-94 0 -177.5 27t-145.5 72t-112.5 107t-84 130t-53.5 143q-61 -14 -115 -14q-40 0 -65 2v-178q0 -62 3 -97.5 t11.5 -65.5t27 -44t45 -22.5t70.5 -12.5q5 0 5 -16q-2 -8 -5 -8q-78 10 -213 10q-169 0 -248 -10q-3 -1 -4 4q-1 13 4 20q44 5 69 12t44.5 21t28 41.5t12.5 65.5t4 102v463q0 90 -12 139.5t-34 66.5t-60 17q-24 0 -58 -6q-1 -1 -3 3q-4 8 -4 13t3 8zM406 479q12 0 30 -1 t33 -1q148 0 214.5 57t66.5 168q0 128 -69 184t-206 56q-1 0 -55 -4q-14 -51 -14 -205v-254z" />
<glyph unicode="s" horiz-adv-x="802" d="M119 115.5q0 8.5 3.5 83.5t4.5 104q0 3 6.5 3.5t12.5 0t6 -1.5q10 -128 73.5 -207.5t177.5 -79.5q83 0 135 47.5t52 124.5q0 52 -24 95.5t-62.5 74.5t-85 60t-93 59t-85 63t-62.5 80.5t-24 104.5q0 108 85.5 193.5t213.5 85.5q100 0 192 -56q8 -5 15.5 -62t7.5 -128 q0 -3 -12.5 -3t-12.5 3q-14 88 -67.5 142t-135.5 54q-77 0 -124.5 -38t-47.5 -109q0 -50 23.5 -91.5t61.5 -71t84 -58t92 -58t84 -64t61.5 -83.5t23.5 -109q0 -127 -86.5 -216t-222.5 -89q-143 0 -268 109q-2 29 -2 37.5z" />
<glyph unicode="t" horiz-adv-x="1079" d="M74 791q10 55 10 155q0 45 -8 80q-1 1 3 2q6 1 10 1q7 0 11 -3q3 -15 5 -22t11.5 -15t21.5 -10.5t40.5 -5.5t63 -3.5t94.5 -0.5h432q61 0 94 0.5t63 3t42 5t22 10.5t12.5 15.5t6.5 22.5q0 3 12 3t12 -3q-14 -58 -14 -139q0 -56 4 -96q0 -3 -12.5 -2.5t-12.5 2.5 q-10 58 -61.5 89t-167.5 31h-139v-655q0 -77 4 -116.5t21 -69.5t47 -40.5t85 -15.5q2 0 3 -6t0 -12t-5 -6q-78 10 -213 10q-169 0 -245 -10q-5 0 -6 6t0.5 12t3.5 6q55 6 83 15t46.5 37t23 69.5t4.5 120.5v655h-145q-113 0 -168.5 -30.5t-69.5 -89.5q0 -2 -12 -2.5t-12 2.5z " />
<glyph unicode="u" horiz-adv-x="1282" d="M71 977q2 8 5 8q63 -10 248 -10q135 0 213 10h1q2 0 4 -4q1 -14 -5 -20q-44 -4 -70.5 -12.5t-45 -23t-26.5 -44.5t-11 -66t-3 -98v-326q0 -89 26.5 -158.5t71 -111t99.5 -63t116 -21.5q153 0 232.5 84t79.5 246v364q0 95 -11.5 138.5t-42.5 63.5t-102 28q-6 0 -5 16 q1 8 5 8q63 -10 197 -10q99 0 174 10h1q4 0 5 -8q0 -3 -1 -8q-2 -8 -3 -8q-55 -5 -85.5 -16t-47 -40t-21 -66t-4.5 -108v-385q0 -160 -110.5 -268.5t-301.5 -108.5q-114 0 -208.5 45.5t-153 135t-58.5 206.5v361q0 53 -2 87t-9 62t-16.5 43t-29 26t-42 16.5t-58.5 9.5 q-5 0 -5 16z" />
<glyph unicode="v" horiz-adv-x="1110" d="M5 977q0 10 5 10q94 -12 199 -12q185 0 258 12q6 0 5.5 -12t-5.5 -14q-60 -7 -85.5 -18.5t-25.5 -41.5q0 -51 52 -182l223 -520l221 520q33 82 43 117t10 65q0 27 -24.5 41t-79.5 19q-4 2 -4.5 14t4.5 12q94 -12 172 -12q90 0 166 12q5 0 5 -10v-2q0 -12 -5 -14 q-73 -8 -122.5 -57.5t-107.5 -184.5l-323 -744q-2 -3 -9 -3t-10 5l-315 742q-39 93 -69 140t-70.5 72t-102.5 30q-5 2 -5 16z" />
<glyph unicode="w" horiz-adv-x="1560" d="M-1 977q0 10 5 10q90 -12 189 -12q197 0 268 12q4 -1 3 -12.5t-3 -13.5q-117 -9 -117 -66q0 -22 14.5 -78t30.5 -98l211 -508l205 487l-8 21q-45 131 -93 182.5t-126 59.5q-5 2 -5.5 14t5.5 12q86 -12 186 -12q212 0 280 12q6 0 6 -12.5t-3 -13.5q-71 -4 -101.5 -21 t-30.5 -51q0 -63 37 -170l178 -508l197 514q43 111 43 168q0 31 -24 47.5t-80 20.5q-3 2 -3.5 14t3.5 12q86 -12 176 -12q82 0 155 12q3 -1 3 -8v-5q-1 -12 -3 -13q-61 -4 -111.5 -61.5t-101.5 -180.5l-301 -744q-2 -3 -8.5 -3t-7.5 5l-238 648l-276 -650q0 -2 -3 -3h-3.5 h-3.5q-4 1 -6 5l-304 742q-51 132 -100 183t-131 59q-3 3 -3 16z" />
<glyph unicode="x" horiz-adv-x="1116" d="M47 14q104 10 155.5 50.5t157.5 191.5l148 215l-135 215q-47 72 -72 108.5t-55 73t-54.5 52t-54.5 26.5t-71 15q-3 2 -3.5 14t3.5 12q76 -12 229 -12q119 0 213 12q5 0 4.5 -12t-4.5 -14q-45 -4 -65 -16t-18.5 -43.5t27.5 -81.5t80 -134l68 -104l94 137q56 80 81 125 q23 41 23 66v4q-2 26 -21.5 34t-65.5 13q-4 2 -4.5 14t4.5 12q76 -12 209 -12q53 0 147 12q6 0 5.5 -12t-5.5 -14q-91 -8 -153.5 -56t-157.5 -186l-127 -182l157 -246q55 -85 85.5 -128t69 -80t76 -50.5t91.5 -18.5l2 -6q1 -4 1 -7v-5q-1 -6 -5 -6q-75 10 -193 10 q-183 0 -262 -10q-4 0 -4.5 6t0.5 12t2 6q45 6 64.5 17t19.5 41t-26 81t-82 138l-86 135l-117 -170q-54 -78 -79 -121.5t-25.5 -70.5t19.5 -36.5t66 -13.5q5 0 5.5 -12t-5.5 -12q-75 10 -178 10q-99 0 -178 -10q-4 0 -4 9q0 15 4 15z" />
<glyph unicode="y" horiz-adv-x="1138" d="M24 956q-1 3 -1 6q0 7 4 7q76 28 147 28q165 0 293 -118.5t170 -300.5q65 196 178 302.5t250 106.5q51 0 100 -18q4 0 4 -6.5t-2 -12.5t-4 -6q-33 8 -69 8q-120 0 -219 -91.5t-154 -242t-55 -323.5v-39q0 -63 3 -98t11 -65t26.5 -44t45 -22.5t71.5 -12.5q5 0 5 -16 q-2 -8 -5 -8q-78 10 -213 10q-169 0 -248 -10h-1q-7 0 -4 16q2 8 3 8q44 4 69.5 12t45 21.5t28 42t12 66t3.5 100.5v39q0 185 -60.5 336.5t-160 235t-215.5 83.5q-28 0 -55 -6q-2 0 -3 12z" />
<glyph unicode="z" horiz-adv-x="1069" d="M96 -3v4q0 4 2 7l666 914h-344q-129 0 -177 -32t-59 -108q-2 -3 -14 -3t-12 3q4 12 4 103q0 67 -6 102q164 -12 348 -12q301 0 461 12q4 0 5.5 -6.5t-1.5 -11.5l-662 -910h389q77 0 124 8.5t75 30.5t40 51.5t19 81.5q0 2 12.5 2.5t12.5 -2.5q0 -35 -9.5 -109t-15.5 -99 q-6 -19 -13 -25t-23 -6q-26 0 -142.5 4t-189.5 4q-318 0 -484 -10q-4 0 -6 7z" />
<glyph unicode="{" horiz-adv-x="634" d="M62 424q-3 7 0 13.5t12 6.5q154 14 218 96t64 218q0 65 -30 143t-60 152t-30 129q0 97 89 191.5t259 154.5q2 1 6 -6t4 -13.5t-6 -9.5q-89 -36 -144 -96t-55 -117q0 -52 41 -196.5t41 -243.5q0 -148 -85 -260.5t-249 -155.5q155 -30 244.5 -148.5t89.5 -265.5 q0 -99 -41 -243.5t-41 -196.5q0 -56 55 -115.5t144 -95.5q13 -4 2 -25q-4 -5 -6 -6q-170 60 -259 155t-89 192q0 55 30 128.5t60 151.5t30 143q0 136 -64 217.5t-218 94.5q-9 1 -12 8z" />
<glyph unicode="|" horiz-adv-x="1497" d="M74 1305q1 8 6 8q126 -15 293 -15q131 0 245 15q3 1 5 -1.5t2.5 -6t0 -7t-2 -6t-2.5 -2.5q-98 -9 -113 -44q-16 -39 48 -150q31 -53 116 -185l139 -213l178 260q131 187 152 239q21 54 -17 73q-25 12 -94 20q-6 0 -6 15q1 8 6 8q126 -15 244 -15q66 0 184 15q5 1 6 -6 q1 -13 -6 -17q-46 -4 -76.5 -9.5t-63.5 -22.5t-55.5 -35.5t-58 -61t-65.5 -84t-84 -119.5l-219 -313v-303v-82.5t2 -65.5t3.5 -54t7.5 -40t11.5 -32t18 -21t24 -16.5t32.5 -9t41 -7.5t52 -4q2 -1 4 -7.5t0.5 -12t-6.5 -4.5q-107 14 -248 14q-175 0 -293 -14q-5 -1 -6 4.5 t0.5 12t3.5 7.5q103 11 131 24q41 20 52 83q10 53 10 225v287l-178 282q-102 164 -160.5 236.5t-113.5 103t-144 39.5q-6 0 -6 15z" />
<glyph unicode="}" horiz-adv-x="634" d="M41 1508.5q0 6.5 4 13.5t6 6q170 -60 259 -154.5t89 -191.5q0 -55 -30 -129t-60 -152t-30 -143q0 -136 64 -218t218 -96q9 0 12 -6.5t0 -13.5t-12 -8q-154 -13 -218 -94.5t-64 -217.5q0 -65 30 -143t60 -151.5t30 -128.5q0 -97 -89 -192t-259 -155q-2 -1 -5 5 q-11 19 -1 25q1 1 2 1q89 36 144 95.5t55 115.5q0 52 -41 196.5t-41 243.5q0 147 89.5 265.5t244.5 148.5q-164 43 -249 155.5t-85 260.5q0 99 41 243.5t41 196.5q0 57 -55 117t-144 96q-6 3 -6 9.5z" />
<glyph unicode="~" horiz-adv-x="735" d="M41 512q9 94 64 147.5t139 53.5q44 0 146.5 -37t152.5 -37t80.5 26t44.5 99q1 1 8 -0.5t13 -4t5 -5.5q-8 -87 -54 -139t-124 -52q-47 0 -150.5 40t-166.5 40q-104 0 -131 -139q-1 -2 -7 -1t-13 3.5t-7 5.5z" />
<glyph unicode="&#xa1;" horiz-adv-x="479" d="M143 -428q11 439 84 920q0 4 12.5 3.5t12.5 -3.5q1 -205 17 -452.5t38 -436.5q2 -20 -39.5 -33.5t-83.5 -13t-41 15.5zM160 741q0 32 23 56t57 24q31 0 53 -23t22 -53q0 -32 -22.5 -55.5t-56.5 -23.5q-32 0 -54 22.5t-22 52.5z" />
<glyph unicode="&#xa2;" horiz-adv-x="817" d="M63 381q0 105 52.5 201.5t152.5 165.5t228 88l8 110q0 4 9 5.5t18.5 -1t9.5 -8.5l-9 -102q16 2 54 2q68 0 120 -22t52 -44q0 -24 -22.5 -62t-41.5 -38q-17 0 -42 8.5t-64.5 25.5t-63.5 25l-24 -327l-23 -355q36 -8 80 -8q67 0 110.5 18t98.5 60l4 -5q7 -15 2 -20 q-49 -56 -128 -91t-173 -36l-6 -100q-1 -6 -19 -5t-18 7l8 98q-163 10 -268 128.5t-105 281.5zM207 424q0 -147 65 -238.5t170 -124.5l27 349q1 21 3.5 56t7 108t7.5 122t2 49q-45 9 -61 9q-120 0 -170.5 -77.5t-50.5 -252.5z" />
<glyph unicode="&#xa3;" horiz-adv-x="1333" d="M-43 -250q0 31 18.5 65t57 69t113 61t173.5 32q30 77 66 297l-291 -4q-9 0 -9 19.5t9 19.5q295 -4 295 -6q36 224 57 307q50 202 168 348q72 85 162 139t178 54q63 0 103.5 -38.5t40.5 -88.5q0 -39 -23.5 -67.5t-47 -39t-26.5 -6.5q-43 50 -97 84.5t-101 34.5 q-63 0 -98.5 -40t-65 -151.5t-64.5 -344.5q-14 -91 -40 -191l342 6q9 0 8.5 -19.5t-8.5 -19.5q-22 0 -55 0.5t-121.5 2t-121.5 1.5h-55q-56 -179 -164 -292l2 -9q9 0 15 1t16 1q79 0 168 -22.5t166 -54.5t149.5 -64.5t141 -55t117.5 -22.5q61 0 90.5 34.5t29.5 90.5 q0 47 -36.5 86.5t-102.5 59.5q-2 1 -2 6t2.5 11t7.5 5q83 -14 137 -70.5t54 -119.5q0 -36 -14 -72t-41.5 -69t-78 -53.5t-116.5 -20.5q-72 0 -151 30t-148 73.5t-135.5 86.5t-134 73t-123.5 30q-8 0 -11 -1l-7.5 -2.5t-12.5 -3.5q-49 -142 -117 -214t-141 -72 q-56 0 -91.5 32.5t-35.5 73.5z" />
<glyph unicode="&#xa4;" horiz-adv-x="1355" d="M6 456.5q0 18.5 6 18.5l156 -2q-2 18 -2 57q0 49 10 107q1 1 -16 1t-41 -0.5t-48.5 -1t-41.5 -0.5l-17 -1q-6 1 -6 20t6 19q172 -2 172 -4q35 129 121.5 236.5t221.5 175t290 67.5q107 0 218 -33t145 -59q10 -7 20.5 -89.5t13.5 -168.5q0 -3 -6 -4t-12 -0.5t-6 2.5 q-11 53 -45 106t-85.5 98t-126 73t-157.5 28q-185 0 -305.5 -114t-140.5 -320h43l360 6q5 0 5 -19t-5 -20l-360 6h-45q-2 -16 -2 -45q0 -45 8 -127h39l360 6q5 0 5 -18.5t-5 -20.5l-360 6q-33 0 -33 -2q41 -207 177.5 -319.5t307.5 -112.5q136 0 241.5 85.5t131.5 217.5 q0 2 6 2.5t12.5 -0.5t6.5 -4q-5 -84 -15.5 -166.5t-19.5 -89.5q-121 -94 -379 -94q-255 0 -427.5 137.5t-207.5 341.5l-162 -2q-6 2 -6 20.5z" />
<glyph unicode="&#xa5;" horiz-adv-x="1288" d="M-16 1107.5q0 6.5 4 8.5q86 29 172 29q94 0 180.5 -39t153 -106t114.5 -157t72 -192q71 219 206.5 351.5t295.5 132.5q56 0 118 -19q4 -3 3.5 -8.5t-3 -11t-4.5 -4.5q-54 8 -79 8q-110 0 -208 -70t-166.5 -188.5t-101.5 -266.5l373 5q6 0 6 -19t-6 -20l-379 4 q-15 -83 -18 -170l397 6q6 0 6 -18t-6 -21l-397 6v-8v-45q0 -51 0.5 -81t3.5 -62.5t7 -49t13.5 -34t21 -25t31 -15.5t41 -11t54.5 -5q5 0 5 -16q-2 -8 -5 -8q-106 12 -230 12q-179 0 -268 -12q-3 -1 -4 4q-1 13 4 20q45 5 68.5 8.5t46 16.5t31 27.5t16.5 49t9 73.5t1 108v45 v8l-397 -6q-6 3 -6 21t6 18l397 -6q-3 91 -18 170l-379 -4q-6 1 -6 20t6 19q373 -5 373 -7q-51 233 -186 378t-300 145q-21 0 -61 -4q-3 -1 -5.5 4t-2.5 11.5z" />
<glyph unicode="&#xa7;" horiz-adv-x="1024" d="M111 625q0 90 49 174.5t127 142.5q-4 28 -4 45q0 96 82 191q66 81 151 126.5t170 45.5q62 0 101.5 -38.5t39.5 -88.5q0 -39 -23.5 -67t-46.5 -38t-26 -6q-43 50 -95 83.5t-97 33.5q-86 0 -121 -41t-35 -121q0 -50 30.5 -103t78.5 -101t106.5 -98t117.5 -103.5t107 -107.5 t78.5 -119t30.5 -130q0 -90 -49.5 -172.5t-130.5 -140.5q4 -24 4 -41q0 -102 -80 -195q-136 -168 -303 -168q-95 0 -172.5 52t-77.5 120q0 39 23.5 66.5t47 37t27.5 5.5q57 -70 132.5 -119t140.5 -49q159 0 159 170q0 50 -30 102.5t-77.5 99.5t-105.5 96.5t-116 101.5 t-105.5 105.5t-77.5 118t-30 130.5zM215 729q0 -56 25 -111.5t66 -103.5t91.5 -95.5t104.5 -94.5t101.5 -93t85.5 -99.5t54 -104.5q84 77 84 172q0 55 -25 110.5t-66 104.5t-91.5 97t-105 96t-102 94t-86.5 99.5t-56 104.5q-80 -77 -80 -176z" />
<glyph unicode="&#xa8;" horiz-adv-x="858" d="M154 1114q0 36 26.5 63t65.5 27q36 0 61 -26t25 -60q0 -36 -25.5 -63t-64.5 -27q-36 0 -62 26t-26 60zM526 1114q0 36 26.5 63t65.5 27q36 0 61.5 -26t25.5 -60q0 -36 -26.5 -63t-64.5 -27q-36 0 -62 26t-26 60z" />
<glyph unicode="&#xa9;" horiz-adv-x="1382" d="M102 559q0 160 79 296t214.5 215t294.5 79q160 0 296 -79t215 -215t79 -296q0 -159 -79 -294.5t-215 -214.5t-296 -79q-159 0 -294.5 79t-214.5 214.5t-79 294.5zM129 559q0 -114 44.5 -218t119.5 -179t179 -119.5t218 -44.5q153 0 282.5 75.5t205 204.5t75.5 281 q0 153 -75.5 282.5t-205 205t-282.5 75.5q-152 0 -281 -75.5t-204.5 -205t-75.5 -282.5zM406 549q0 118 91 208.5t226 90.5q52 0 105.5 -16.5t70.5 -28.5q5 -3 11.5 -48t7.5 -85q0 -4 -10 -4.5t-11 2.5q-11 60 -58.5 104.5t-133.5 44.5q-96 0 -153.5 -63t-57.5 -174 q0 -135 67.5 -207t165.5 -72q67 0 118.5 42.5t55.5 107.5q0 5 15 3q3 -2 4 -3q-2 -41 -7.5 -86t-9.5 -48q-61 -45 -184 -45q-137 0 -225 81.5t-88 195.5z" />
<glyph unicode="&#xab;" horiz-adv-x="923" d="M83.5 422q0.5 9 6.5 12l412 234q8 5 11 -6q2 -9 -5 -13l-307 -231l307 -221q5 -4 5.5 -10t-3 -9.5t-8.5 -1.5l-414 236q-5 1 -4.5 10zM390.5 422q0.5 9 6.5 12l412 234q8 5 11 -6q2 -9 -5 -13l-307 -231l307 -221q5 -4 5.5 -10t-3 -9.5t-8.5 -1.5l-414 236q-5 1 -4.5 10z " />
<glyph unicode="&#xad;" horiz-adv-x="778" d="M124.5 470q0.5 16 8.5 17l254 56l252 63q5 1 9 -4.5t6 -15t3 -19.5t-0.5 -18t-5.5 -10l-256 -56l-250 -61q-8 0 -14.5 16t-6 32z" />
<glyph unicode="&#xae;" horiz-adv-x="1091" d="M92 960q1 1 2 1q82 26 402 26q197 0 300 -62t103 -180q0 -79 -50.5 -147t-137.5 -104q42 -74 90 -140.5t114.5 -135.5t138 -119t161 -81.5t182.5 -31.5q81 0 170 24q2 1 5 -4.5t4 -10.5t-3 -7q-143 -41 -258 -41q-112 0 -212.5 31t-174 78t-141.5 116.5t-112 132.5 t-89 141q-61 -14 -115 -14q-38 0 -65 2v-178q0 -62 3 -97.5t11.5 -65.5t27 -44t45 -22.5t70.5 -12.5q5 0 5 -16q-2 -8 -5 -8q-78 10 -213 10q-169 0 -248 -10q-3 -1 -4 4q-1 13 4 20q37 4 59.5 8.5t42 16t29 26t16.5 42.5t9 62t2 87v463q0 90 -12 139.5t-34 66.5t-60 17 q-24 0 -58 -6q-1 -1 -3 3q-7 14 -1 21zM406 479q12 0 30 -1t33 -1q148 0 214.5 57t66.5 168q0 128 -69 184t-206 56q-1 0 -55 -4q-14 -51 -14 -205v-254z" />
<glyph unicode="&#xaf;" horiz-adv-x="686" d="M55 1061.5q0 19.5 6 19.5l281 -4l283 4q6 0 6 -19.5t-6 -19.5l-283 5l-281 -5q-6 0 -6 19.5z" />
<glyph unicode="&#xb0;" horiz-adv-x="448" d="M51 1178q0 71 51 121.5t123 50.5q71 0 121.5 -51t50.5 -121q0 -72 -50.5 -123t-121.5 -51q-72 0 -123 51t-51 123zM78 1178q0 -62 43 -105t104 -43q60 0 103 43.5t43 104.5q0 60 -43 102.5t-103 42.5q-61 0 -104 -42.5t-43 -102.5z" />
<glyph unicode="&#xb1;" horiz-adv-x="1705" d="M-196.5 1197q-0.5 4 3.5 7q90 58 178.5 85.5t198.5 27.5q72 0 195 -10l964 -1045v694q0 61 -0.5 97t-4 74t-8 57t-15.5 39t-23 28t-34.5 17t-45.5 12.5t-61 7.5q-2 0 -4 6t-0.5 12.5t6.5 6.5q119 -17 248 -17q71 0 201 17q5 0 6.5 -6.5t-0.5 -12.5t-4 -6 q-138 -12 -165.5 -64t-27.5 -268v-616q0 -226 14 -373q1 -4 -5 -5q-10 -1 -17 5l-995 1071v-698v-76.5t1.5 -62t4 -52.5t7.5 -40t11.5 -33t18 -23t24.5 -19t32.5 -11.5t41 -9t51.5 -5.5q2 0 3.5 -6t0.5 -12t-6 -6q-122 16 -203 16q-133 0 -248 -16q-7 0 -6 12t6 12 q38 4 61 7.5t45.5 12.5t34 16.5t23 28t15.5 39t7.5 57t4 74t0.5 97.5v774q-55 60 -138.5 90.5t-176.5 30.5q-117 0 -209 -47q-2 -1 -6 2t-4.5 7z" />
<glyph unicode="&#xb2;" horiz-adv-x="800" d="M77 608q-1 6 1 8q208 108 306.5 212.5t98.5 228.5q0 89 -40.5 137.5t-112.5 48.5q-58 0 -99.5 -21t-89.5 -67q-1 -1 -4.5 2t-5.5 7t0 7q119 150 244 150q103 0 161 -61.5t58 -153.5q0 -110 -100 -226t-234 -190h244q118 0 149 16t37 87q0 1 9.5 1t9.5 -1q1 -26 -5.5 -94 t-11.5 -89q-3 -13 -7.5 -16.5t-16.5 -3.5q-20 0 -110.5 3t-145.5 3q-193 0 -324 -8q-3 0 -6.5 7t-4.5 13z" />
<glyph unicode="&#xb3;" horiz-adv-x="663" d="M82.5 386q0.5 9 3.5 9q371 25 371 264q0 83 -61.5 129t-190.5 68q-2 0 -5.5 9t-5 17t0.5 9q123 35 182 94.5t59 130.5q0 57 -41 90t-104 33q-98 0 -182 -84q-1 -1 -4.5 2t-6 7t-0.5 7q119 150 244 150q87 0 142 -51.5t55 -132.5q0 -71 -47.5 -122t-161.5 -102 q235 -55 235 -235q0 -128 -131.5 -214.5t-347.5 -86.5q-4 0 -3.5 9z" />
<glyph unicode="&#xb4;" horiz-adv-x="432" d="M41 971l289 391q6 8 23 -1.5t29 -24t5 -21.5l-330 -354q-7 -7 -15 -1q-6 5 -1 11z" />
<glyph unicode="&#xb5;" horiz-adv-x="1497" d="M74 1305q1 8 6 8q126 -15 293 -15q131 0 245 15q3 1 5 -1.5t2.5 -6t0 -7t-2 -6t-2.5 -2.5q-98 -9 -113 -44q-16 -39 48 -150q31 -53 116 -185l139 -213l178 260q131 187 152 239q21 54 -17 73q-25 12 -94 20q-6 0 -6 15q1 8 6 8q126 -15 244 -15q66 0 184 15q5 1 6 -6 q1 -13 -6 -17q-46 -4 -76.5 -9.5t-63.5 -22.5t-55.5 -35.5t-58 -61t-65.5 -84t-84 -119.5l-219 -313v-303v-82.5t2 -65.5t3.5 -54t7.5 -40t11.5 -32t18 -21t24 -16.5t32.5 -9t41 -7.5t52 -4q2 -1 4 -7.5t0.5 -12t-6.5 -4.5q-107 14 -248 14q-175 0 -293 -14q-5 -1 -6 4.5 t0.5 12t3.5 7.5q103 11 131 24q41 20 52 83q10 53 10 225v287l-178 282q-102 164 -160.5 236.5t-113.5 103t-144 39.5q-6 0 -6 15zM547 1589q0 36 26.5 63t65.5 27q36 0 61 -26t25 -60q0 -36 -25.5 -63t-64.5 -27q-36 0 -62 26t-26 60zM920 1589q0 36 26.5 63t65.5 27 q36 0 61 -26t25 -60q0 -36 -26 -63t-64 -27q-36 0 -62 26t-26 60z" />
<glyph unicode="&#xb6;" horiz-adv-x="1325" d="M135 541q0 126 44 234t131 192.5t228.5 133t323.5 48.5q227 0 355 -41q4 -2 3.5 -8t-4.5 -12t-6 -5q-44 15 -120 27l-5 -557l5 -559q79 6 120 20q2 0 6 -6t4.5 -11t-3.5 -7q-52 -18 -130 -24.5t-225 -6.5q-141 0 -260.5 32.5t-204.5 88t-145 130t-88.5 158.5t-28.5 173z M901 -16q85 3 152 6l2 563l-2 563q-86 8 -152 8v-1140z" />
<glyph unicode="&#xb7;" horiz-adv-x="401" d="M123 500q0 32 23 56t57 24q32 0 54 -23t22 -53q0 -31 -23.5 -55.5t-56.5 -24.5q-32 0 -54 23t-22 53z" />
<glyph unicode="&#xb8;" horiz-adv-x="583" d="M168 -190l135 198l35 -12l-74 -111q103 -32 154 -88t51 -119q0 -83 -70 -150t-211 -89q-5 0 -7.5 5.5t-2 11t3.5 5.5q47 7 83 22.5t55 34t30.5 42t15 40.5t3.5 35q0 118 -201 175z" />
<glyph unicode="&#xb9;" horiz-adv-x="552" d="M73.5 591.5q-0.5 4.5 0.5 9.5t2 5q37 4 55 7t39 11.5t30 23.5t15 41t6 65v387q0 25 -1.5 43.5t-7 33t-10 24.5t-16.5 17.5t-19 11.5t-25.5 7.5t-29.5 5t-36 4.5q-1 0 -2 5t-0.5 9.5t4.5 4.5q71 -9 211 -9q109 0 188 9q4 0 3.5 -9.5t-3.5 -9.5q-86 -6 -115.5 -32 t-29.5 -115v-387q0 -89 29.5 -115.5t115.5 -32.5q5 0 4 -13q-2 -5 -4 -5q-70 8 -188 8q-148 0 -211 -8q-4 -1 -4.5 3.5z" />
<glyph unicode="&#xbb;" horiz-adv-x="923" d="M103.5 187q0.5 6 5.5 10l307 221l-307 231q-9 6 -4 16q4 7 10 3l411 -234q6 -3 6.5 -12t-4.5 -10l-413 -236q-5 -2 -8.5 1.5t-3 9.5zM410.5 187q0.5 6 5.5 10l307 221l-307 231q-9 6 -4 16q4 7 10 3l412 -234q6 -3 6.5 -12t-4.5 -10l-414 -236q-5 -2 -8.5 1.5t-3 9.5z " />
<glyph unicode="&#xbc;" horiz-adv-x="1540" d="M73 592q-1 11 3 14q37 4 55 7t39 11.5t30 23.5t15 41t6 65v387q0 25 -1.5 43.5t-7 33t-10 24.5t-16.5 17.5t-19 11.5t-25.5 7.5t-29.5 5t-36 4.5q-2 0 -3 9.5t3 9.5q73 -9 213 -9q109 0 188 9q4 0 3.5 -9.5t-3.5 -9.5q-86 -6 -115.5 -32t-29.5 -115v-387 q0 -89 29.5 -115.5t115.5 -32.5q5 0 4 -13q-2 -5 -4 -5q-70 8 -188 8q-148 0 -213 -8q-3 -1 -3 4zM262 -57l959 1427q3 2 8.5 0t10.5 -6.5t3 -7.5l-958 -1428q-3 -2 -9 0t-11 7t-3 8zM733 76l555 674q0 2 2.5 2.5t5.5 -0.5t4 -4v-625h191v-74q-27 0 -191 4v-135 q0 -89 30 -115t116 -32q5 0 4 -14q-2 -5 -4 -5q-70 8 -186 8q-150 0 -213 -8q-3 -1 -4 4q-3 12 1 15q38 4 55.5 7t39 11.5t30 23.5t15 40.5t6.5 64.5v137h-41q-275 0 -406 -8q-3 0 -7.5 13t-2.5 16zM811 123h379v461z" />
<glyph unicode="&#xbd;" horiz-adv-x="1628" d="M73.5 591.5q-0.5 4.5 0.5 9.5t2 5q37 4 55 7t39 11.5t30 23.5t15 41t6 65v387q0 25 -1.5 43.5t-7 33t-10 24.5t-16.5 17.5t-19 11.5t-25.5 7.5t-29.5 5t-36 4.5q-1 0 -2 5t-0.5 9.5t4.5 4.5q71 -9 211 -9q109 0 188 9q4 0 3.5 -9.5t-3.5 -9.5q-86 -6 -115.5 -32 t-29.5 -115v-387q0 -89 29.5 -115.5t115.5 -32.5q5 0 4 -13q-2 -5 -4 -5q-70 8 -188 8q-148 0 -211 -8q-4 -1 -4.5 3.5zM262 -57l959 1427q3 2 8.5 0t10.5 -6.5t3 -7.5l-958 -1428q-3 -2 -9 0t-11 7t-3 8zM903 23q209 107 308.5 211t99.5 227q0 88 -41.5 137t-114.5 49 q-58 0 -98.5 -20.5t-87.5 -65.5q-1 -1 -4.5 1.5t-6 6.5t-0.5 6q120 152 244 152q103 0 160 -62t57 -155q0 -110 -100.5 -226t-233.5 -188h244q119 0 150 16t37 87q18 0 18 -2q1 -25 -4.5 -92t-9.5 -91q-5 -12 -10 -16t-17 -4q-18 0 -109 3t-147 3q-193 0 -324 -8 q-4 0 -8.5 14t-1.5 17z" />
<glyph unicode="&#xbe;" horiz-adv-x="1654" d="M82.5 386q0.5 9 3.5 9q371 25 371 264q0 83 -61.5 129t-190.5 68q-2 0 -5.5 9t-5 17t0.5 9q123 35 182 94.5t59 130.5q0 57 -41 90t-104 33q-98 0 -182 -84q-1 -1 -4.5 2t-6 7t-0.5 7q119 150 244 150q87 0 142 -51.5t55 -132.5q0 -71 -47.5 -122t-161.5 -102 q235 -55 235 -235q0 -128 -131.5 -214.5t-347.5 -86.5q-4 0 -3.5 9zM377 -57l958 1427q3 2 9 0t11 -6.5t3 -7.5l-959 -1428q-3 -2 -8.5 0t-10.5 7t-3 8zM848 76l555 674q0 2 2.5 2.5t5.5 -0.5t4 -4v-625h191v-74q-27 0 -191 4v-135q0 -89 30 -115t116 -32q5 0 4 -14 q-2 -5 -4 -5q-70 8 -187 8q-150 0 -213 -8q-3 -1 -4 4q-2 12 2 15q38 4 55.5 7t39 11.5t30 23.5t15 40.5t6.5 64.5v137h-41q-275 0 -406 -8q-3 0 -7.5 13t-2.5 16zM926 123h379v461z" />
<glyph unicode="&#xbf;" horiz-adv-x="698" d="M63 -31q0 94 50 151.5t196 117.5q170 70 170 174q0 31 -14 69q-1 2 4.5 6t10.5 5.5t7 -0.5q48 -108 48 -166q0 -132 -168 -207l-195 -88q-35 -15 -48 -31t-13 -43q0 -22 21 -42.5t61 -31.5l184 -53q100 -28 147 -71t47 -109q0 -54 -30 -127q-1 -1 -13 3.5t-12 6.5 q6 21 6 37q0 26 -16 46.5t-68.5 46t-146.5 52.5q-119 34 -173.5 94t-54.5 160zM381 741q0 31 23.5 55.5t56.5 24.5q32 0 55 -23t23 -53q0 -31 -23.5 -55t-56.5 -24q-32 0 -55 22.5t-23 52.5z" />
<glyph unicode="&#xc0;" horiz-adv-x="1406" d="M-12 -9.5q-1 5.5 0.5 12t3.5 7.5q98 7 155 75.5t136 256.5l432 989q3 6 12 6t12 -6l369 -989q26 -71 42.5 -112t38 -82.5t40 -62.5t45 -39t57.5 -25.5t74 -10.5q2 -1 4 -7.5t0.5 -12t-6.5 -4.5q-107 14 -229 14q-188 0 -306 -14q-5 -1 -6 4.5t0.5 12t3.5 7.5q37 4 53.5 6 t39 7t31.5 12t15.5 18.5t6.5 28.5q0 13 -2 27.5t-7 33.5t-9 34t-12.5 40t-14 39t-16 43.5t-15.5 42.5l-62 168h-460l-72 -168q-6 -15 -20.5 -49t-19.5 -47t-15.5 -39t-14.5 -38.5t-9 -30.5t-7 -31t-2 -25q0 -35 30.5 -50.5t104.5 -21.5q7 -2 6 -16q-2 -8 -6 -8 q-107 14 -192 14q-35 0 -57 -0.5t-41.5 -2t-29 -2.5t-34 -4t-41.5 -5q-5 -1 -6 4.5zM367 1782q-7 7 5 21.5t29 24t23 1.5l289 -391q4 -5 1 -9t-8.5 -4.5t-9.5 2.5zM432 551h428l-194 549z" />
<glyph unicode="&#xc1;" horiz-adv-x="1406" d="M-12 -9.5q-1 5.5 0.5 12t3.5 7.5q98 7 155 75.5t136 256.5l432 989q3 6 12 6t12 -6l369 -989q26 -71 42.5 -112t38 -82.5t40 -62.5t45 -39t57.5 -25.5t74 -10.5q2 -1 4 -7.5t0.5 -12t-6.5 -4.5q-107 14 -229 14q-188 0 -306 -14q-5 -1 -6 4.5t0.5 12t3.5 7.5q37 4 53.5 6 t39 7t31.5 12t15.5 18.5t6.5 28.5q0 13 -2 27.5t-7 33.5t-9 34t-12.5 40t-14 39t-16 43.5t-15.5 42.5l-62 168h-460l-72 -168q-6 -15 -20.5 -49t-19.5 -47t-15.5 -39t-14.5 -38.5t-9 -30.5t-7 -31t-2 -25q0 -35 30.5 -50.5t104.5 -21.5q7 -2 6 -16q-2 -8 -6 -8 q-107 14 -192 14q-35 0 -57 -0.5t-41.5 -2t-29 -2.5t-34 -4t-41.5 -5q-5 -1 -6 4.5zM432 551h428l-194 549zM705 1446l288 391q6 8 23 -1.5t29.5 -24t5.5 -21.5l-330 -354q-7 -7 -15 -1q-6 5 -1 11z" />
<glyph unicode="&#xc2;" horiz-adv-x="1406" d="M-12 -9.5q-1 5.5 0.5 12t3.5 7.5q98 7 155 75.5t136 256.5l432 989q3 6 12 6t12 -6l369 -989q26 -71 42.5 -112t38 -82.5t40 -62.5t45 -39t57.5 -25.5t74 -10.5q2 -1 4 -7.5t0.5 -12t-6.5 -4.5q-107 14 -229 14q-188 0 -306 -14q-5 -1 -6 4.5t0.5 12t3.5 7.5q37 4 53.5 6 t39 7t31.5 12t15.5 18.5t6.5 28.5q0 13 -2 27.5t-7 33.5t-9 34t-12.5 40t-14 39t-16 43.5t-15.5 42.5l-62 168h-460l-72 -168q-6 -15 -20.5 -49t-19.5 -47t-15.5 -39t-14.5 -38.5t-9 -30.5t-7 -31t-2 -25q0 -35 30.5 -50.5t104.5 -21.5q7 -2 6 -16q-2 -8 -6 -8 q-107 14 -192 14q-35 0 -57 -0.5t-41.5 -2t-29 -2.5t-34 -4t-41.5 -5q-5 -1 -6 4.5zM432 551h428l-194 549zM479 1434l234 415q3 5 11 4.5t11 -6.5l234 -413q5 -6 -6 -10q-9 -3 -13 3l-231 310l-221 -310q-6 -7 -16 -2q-7 4 -3 9z" />
<glyph unicode="&#xc3;" horiz-adv-x="1406" d="M-12 -9.5q-1 5.5 0.5 12t3.5 7.5q98 7 155 75.5t136 256.5l432 989q3 6 12 6t12 -6l369 -989q26 -71 42.5 -112t38 -82.5t40 -62.5t45 -39t57.5 -25.5t74 -10.5q2 -1 4 -7.5t0.5 -12t-6.5 -4.5q-107 14 -229 14q-188 0 -306 -14q-5 -1 -6 4.5t0.5 12t3.5 7.5q37 4 53.5 6 t39 7t31.5 12t15.5 18.5t6.5 28.5q0 13 -2 27.5t-7 33.5t-9 34t-12.5 40t-14 39t-16 43.5t-15.5 42.5l-62 168h-460l-72 -168q-6 -15 -20.5 -49t-19.5 -47t-15.5 -39t-14.5 -38.5t-9 -30.5t-7 -31t-2 -25q0 -35 30.5 -50.5t104.5 -21.5q7 -2 6 -16q-2 -8 -6 -8 q-107 14 -192 14q-35 0 -57 -0.5t-41.5 -2t-29 -2.5t-34 -4t-41.5 -5q-5 -1 -6 4.5zM389 1448q9 94 64 147.5t139 53.5q44 0 146.5 -37t152.5 -37t80.5 26t44.5 99q1 1 8 -0.5t13 -4t5 -5.5q-8 -87 -54 -139t-124 -52q-47 0 -150.5 40t-166.5 40q-104 0 -131 -139 q-1 -2 -7 -1t-13 3.5t-7 5.5zM432 551h428l-194 549z" />
<glyph unicode="&#xc4;" horiz-adv-x="1406" d="M-12 -9.5q-1 5.5 0.5 12t3.5 7.5q98 7 155 75.5t136 256.5l432 989q3 6 12 6t12 -6l369 -989q26 -71 42.5 -112t38 -82.5t40 -62.5t45 -39t57.5 -25.5t74 -10.5q2 -1 4 -7.5t0.5 -12t-6.5 -4.5q-107 14 -229 14q-188 0 -306 -14q-5 -1 -6 4.5t0.5 12t3.5 7.5q37 4 53.5 6 t39 7t31.5 12t15.5 18.5t6.5 28.5q0 13 -2 27.5t-7 33.5t-9 34t-12.5 40t-14 39t-16 43.5t-15.5 42.5l-62 168h-460l-72 -168q-6 -15 -20.5 -49t-19.5 -47t-15.5 -39t-14.5 -38.5t-9 -30.5t-7 -31t-2 -25q0 -35 30.5 -50.5t104.5 -21.5q7 -2 6 -16q-2 -8 -6 -8 q-107 14 -192 14q-35 0 -57 -0.5t-41.5 -2t-29 -2.5t-34 -4t-41.5 -5q-5 -1 -6 4.5zM432 551h428l-194 549zM442 1589q0 36 27 63t66 27q36 0 61 -26t25 -60q0 -36 -26 -63t-65 -27q-36 0 -62 26t-26 60zM815 1589q0 36 26.5 63t65.5 27q36 0 61 -26t25 -60q0 -36 -26 -63 t-64 -27q-36 0 -62 26t-26 60z" />
<glyph unicode="&#xc5;" horiz-adv-x="1406" d="M-12 -9.5q-1 5.5 0.5 12t3.5 7.5q98 7 155 75.5t136 256.5q27 62 71.5 163.5t138 315.5t156 356.5t62.5 141.5q-67 8 -112.5 57.5t-45.5 116.5q0 71 51 121.5t123 50.5q71 0 121.5 -50.5t50.5 -121.5q0 -67 -45.5 -116.5t-110.5 -57.5q0 1 91.5 -243.5t182.5 -489.5 l91 -244q26 -71 42.5 -112t38 -82.5t40 -62.5t45 -39t57.5 -25.5t74 -10.5q2 -1 4 -7.5t0.5 -12t-6.5 -4.5q-107 14 -229 14q-188 0 -306 -14q-5 -1 -6 4.5t0.5 12t3.5 7.5q37 4 53.5 6t39 7t31.5 12t15.5 18.5t6.5 28.5q0 13 -2 27.5t-7 33.5t-9 34t-12.5 40t-14 39 t-16 43.5t-15.5 42.5l-62 168h-460l-72 -168q-6 -15 -20.5 -49t-19.5 -47t-15.5 -39t-14.5 -38.5t-9 -30.5t-7 -31t-2 -25q0 -35 30.5 -50.5t104.5 -21.5q7 -2 6 -16q-2 -8 -6 -8q-107 14 -192 14q-35 0 -57 -0.5t-41.5 -2t-29 -2.5t-34 -4t-41.5 -5q-5 -1 -6 4.5zM432 551 h428l-194 549zM580 1493q0 -61 43 -104t104 -43q60 0 102.5 43t42.5 104q0 60 -42.5 102.5t-102.5 42.5q-61 0 -104 -42.5t-43 -102.5z" />
<glyph unicode="&#xc6;" horiz-adv-x="1757" d="M-162 -9q1 13 10 19q52 4 93.5 21.5t86 61t85.5 98t106 151.5l502 741q65 94 65 131q0 28 -46 45.5t-160 30.5q-2 0 -4 6t-0.5 12t6.5 5q218 -15 616 -15q192 0 391 15q-12 -58 -12 -111q0 -46 4 -78q1 -2 -3 -3q-14 -3 -19 3q-9 50 -33.5 74t-92 36.5t-200.5 12.5h-195 q-14 -71 -14 -280v-271h215q34 0 60.5 1t47.5 1.5t36.5 4t26.5 4.5t19 6.5t12.5 7.5t8 10.5t4.5 11t3 14t3 15.5q0 4 19 2q3 -1 4 -2q-13 -50 -13 -129q0 -62 5 -82q0 -4 -12.5 -3.5t-12.5 3.5q-5 29 -11.5 43t-27.5 28t-61.5 18.5t-110.5 4.5h-215v-305q0 -82 5 -136.5 t14 -87t27 -49t36.5 -21.5t50.5 -5h105q80 0 132.5 2.5t91.5 11.5t60 18t36.5 32t22 43.5t15.5 60.5q0 4 16 0q6 -2 6 -4q-22 -138 -38 -188q-7 -24 -16 -30.5t-32 -6.5q-28 0 -146.5 5t-201.5 5q-347 0 -553 -14q-5 -1 -6 4.5t0.5 12t3.5 7.5q114 13 143 24q43 18 56 72 q12 48 12 236v168h-475l-110 -168q-11 -17 -33 -49.5t-31.5 -47t-25.5 -39t-23.5 -38t-17 -31t-14 -30.5t-7.5 -25q-9 -36 18.5 -51t100.5 -21q2 -1 2.5 -7.5t-2.5 -12t-8 -4.5q-103 14 -189 14q-35 0 -57 -0.5t-42 -2t-29.5 -2.5t-34.5 -4t-42 -5q-6 -1 -6 5zM418 551h446 v672z" />
<glyph unicode="&#xc7;" horiz-adv-x="1443" d="M123 623q0 100 35 203t102.5 194.5t157.5 163t207.5 113.5t244.5 42q125 0 254 -38t168 -70q12 -7 23 -95t14 -186q1 -2 -3 -4q-14 -3 -19 2q-14 64 -49 122.5t-92 109.5t-146 81.5t-197 30.5q-233 0 -381.5 -159.5t-148.5 -434.5q0 -165 51 -299.5t135 -218t187.5 -128 t214.5 -44.5q166 0 294 95t140 249q0 2 6 2.5t12 -1t6 -5.5q-5 -99 -16.5 -185t-22.5 -95q-143 -109 -438 -109h-20l-49 -74q103 -32 153.5 -88t50.5 -119q0 -83 -69.5 -150t-210.5 -89q-5 0 -7.5 5.5t-2 11t3.5 5.5q47 7 82.5 22.5t54.5 34t31 42t15 40.5t3 35 q0 118 -201 175l103 151q-203 14 -359 109.5t-236.5 240t-80.5 312.5z" />
<glyph unicode="&#xc8;" horiz-adv-x="1241" d="M112.5 -9.5q-1.5 5.5 0.5 12t4 7.5q114 13 143 24q43 18 56 72q12 48 12 236v614q0 69 -0.5 103t-3 75t-7.5 57.5t-14.5 37t-23 26.5t-34 14t-47 11.5t-62.5 7.5q-12 1 -19 2q-2 0 -4 6t-0.5 12t6.5 5q218 -15 543 -15q187 0 391 15q-13 -47 -13 -111q0 -46 4 -78 q0 -4 -12 -3.5t-12 3.5q-9 50 -33 74t-91 36.5t-200 12.5h-196q-13 -83 -13 -280v-271h213q101 0 147.5 7.5t57 18.5t15.5 38q0 2 0.5 3.5t1 4t0.5 4.5q4 4 20 2q3 -1 4 -2q-14 -54 -14 -129q0 -50 4 -82q1 -2 -3 -3q-13 -2 -20 3q-7 39 -19 55.5t-56.5 27.5t-137.5 11h-213 v-305q0 -82 5 -136.5t13.5 -87t26 -49t36 -21.5t50.5 -5h105q80 0 132.5 2.5t92 11.5t60.5 18t36.5 32t22 43.5t14.5 60.5q1 2 13 1t12 -5q-17 -110 -39 -188q-7 -24 -16 -30.5t-33 -6.5q-28 0 -146.5 5t-201.5 5q-348 0 -551 -14q-5 -1 -6.5 4.5zM397 1782q-7 7 5.5 21.5 t29.5 24t23 1.5l288 -391q4 -5 1.5 -9t-8 -4.5t-9.5 2.5z" />
<glyph unicode="&#xc9;" horiz-adv-x="1241" d="M112.5 -9.5q-1.5 5.5 0.5 12t4 7.5q114 13 143 24q43 18 56 72q12 48 12 236v614q0 69 -0.5 103t-3 75t-7.5 57.5t-14.5 37t-23 26.5t-34 14t-47 11.5t-62.5 7.5q-12 1 -19 2q-2 0 -4 6t-0.5 12t6.5 5q218 -15 543 -15q187 0 391 15q-13 -47 -13 -111q0 -46 4 -78 q0 -4 -12 -3.5t-12 3.5q-9 50 -33 74t-91 36.5t-200 12.5h-196q-13 -83 -13 -280v-271h213q101 0 147.5 7.5t57 18.5t15.5 38q0 2 0.5 3.5t1 4t0.5 4.5q4 4 20 2q3 -1 4 -2q-14 -54 -14 -129q0 -50 4 -82q1 -2 -3 -3q-13 -2 -20 3q-7 39 -19 55.5t-56.5 27.5t-137.5 11h-213 v-305q0 -82 5 -136.5t13.5 -87t26 -49t36 -21.5t50.5 -5h105q80 0 132.5 2.5t92 11.5t60.5 18t36.5 32t22 43.5t14.5 60.5q1 2 13 1t12 -5q-17 -110 -39 -188q-7 -24 -16 -30.5t-33 -6.5q-28 0 -146.5 5t-201.5 5q-348 0 -551 -14q-5 -1 -6.5 4.5zM592 1446l289 391 q6 8 23 -1.5t29 -24t5 -21.5l-330 -354q-7 -7 -15 -1q-6 5 -1 11z" />
<glyph unicode="&#xca;" horiz-adv-x="1241" d="M112.5 -9.5q-1.5 5.5 0.5 12t4 7.5q114 13 143 24q43 18 56 72q12 48 12 236v614q0 69 -0.5 103t-3 75t-7.5 57.5t-14.5 37t-23 26.5t-34 14t-47 11.5t-62.5 7.5q-12 1 -19 2q-2 0 -4 6t-0.5 12t6.5 5q218 -15 543 -15q187 0 391 15q-13 -47 -13 -111q0 -46 4 -78 q0 -4 -12 -3.5t-12 3.5q-9 50 -33 74t-91 36.5t-200 12.5h-196q-13 -83 -13 -280v-271h213q101 0 147.5 7.5t57 18.5t15.5 38q0 2 0.5 3.5t1 4t0.5 4.5q4 4 20 2q3 -1 4 -2q-14 -54 -14 -129q0 -50 4 -82q1 -2 -3 -3q-13 -2 -20 3q-7 39 -19 55.5t-56.5 27.5t-137.5 11h-213 v-305q0 -82 5 -136.5t13.5 -87t26 -49t36 -21.5t50.5 -5h105q80 0 132.5 2.5t92 11.5t60.5 18t36.5 32t22 43.5t14.5 60.5q1 2 13 1t12 -5q-17 -110 -39 -188q-7 -24 -16 -30.5t-33 -6.5q-28 0 -146.5 5t-201.5 5q-348 0 -551 -14q-5 -1 -6.5 4.5zM418 1434l233 415 q3 5 11.5 4.5t11.5 -6.5l233 -413q5 -7 -6 -10q-8 -2 -12 3l-232 310l-221 -310q-6 -8 -16 -1q-5 4 -2 8z" />
<glyph unicode="&#xcb;" horiz-adv-x="1241" d="M112.5 -9.5q-1.5 5.5 0.5 12t4 7.5q114 13 143 24q43 18 56 72q12 48 12 236v614q0 69 -0.5 103t-3 75t-7.5 57.5t-14.5 37t-23 26.5t-34 14t-47 11.5t-62.5 7.5q-12 1 -19 2q-2 0 -4 6t-0.5 12t6.5 5q218 -15 543 -15q187 0 391 15q-13 -47 -13 -111q0 -46 4 -78 q0 -4 -12 -3.5t-12 3.5q-9 50 -33 74t-91 36.5t-200 12.5h-196q-13 -83 -13 -280v-271h213q101 0 147.5 7.5t57 18.5t15.5 38q0 2 0.5 3.5t1 4t0.5 4.5q4 4 20 2q3 -1 4 -2q-14 -54 -14 -129q0 -50 4 -82q1 -2 -3 -3q-13 -2 -20 3q-7 39 -19 55.5t-56.5 27.5t-137.5 11h-213 v-305q0 -82 5 -136.5t13.5 -87t26 -49t36 -21.5t50.5 -5h105q80 0 132.5 2.5t92 11.5t60.5 18t36.5 32t22 43.5t14.5 60.5q1 2 13 1t12 -5q-17 -110 -39 -188q-7 -24 -16 -30.5t-33 -6.5q-28 0 -146.5 5t-201.5 5q-348 0 -551 -14q-5 -1 -6.5 4.5zM373 1589q0 36 26.5 63 t65.5 27q36 0 61 -26t25 -60q0 -36 -25.5 -63t-64.5 -27q-36 0 -62 26t-26 60zM745 1589q0 36 27 63t66 27q36 0 61 -26t25 -60q0 -36 -26 -63t-64 -27q-36 0 -62.5 26t-26.5 60z" />
<glyph unicode="&#xcc;" horiz-adv-x="876" d="M158 1782q-7 7 5 21.5t29 24t23 1.5l289 -391q4 -5 1 -9t-8.5 -4.5t-9.5 2.5zM161.5 -9.5q-1.5 5.5 0.5 12t4 7.5q36 4 50 5t39 6.5t33 8.5t23.5 14t19 20t12 30.5t9 40t3.5 54t3 68v85.5v614v85.5t-3 68t-3.5 54t-9 40t-12 30.5t-19 20.5t-23.5 14.5t-33 8.5t-39 7 t-50 5.5q-2 0 -4 6t-0.5 12t6.5 5q126 -15 293 -15q134 0 248 15q5 1 6 -6q1 -13 -6 -17q-32 -3 -51.5 -4.5t-40.5 -7.5t-32.5 -9.5t-24 -16.5t-18 -21t-11.5 -31.5t-7.5 -40t-3.5 -54.5t-2 -66v-83v-614v-83t2 -66t3.5 -54.5t7.5 -40t11.5 -31.5t18 -21t24 -16t32.5 -8.5 t40.5 -7.5t51.5 -4q7 -2 6 -16q-2 -8 -6 -8q-107 14 -248 14q-175 0 -293 -14q-5 -1 -6.5 4.5z" />
<glyph unicode="&#xcd;" horiz-adv-x="876" d="M161.5 -9.5q-1.5 5.5 0.5 12t4 7.5q36 4 50 5t39 6.5t33 8.5t23.5 14t19 20t12 30.5t9 40t3.5 54t3 68v85.5v614v85.5t-3 68t-3.5 54t-9 40t-12 30.5t-19 20.5t-23.5 14.5t-33 8.5t-39 7t-50 5.5q-2 0 -4 6t-0.5 12t6.5 5q126 -15 293 -15q134 0 248 15q5 1 6 -6 q1 -13 -6 -17q-32 -3 -51.5 -4.5t-40.5 -7.5t-32.5 -9.5t-24 -16.5t-18 -21t-11.5 -31.5t-7.5 -40t-3.5 -54.5t-2 -66v-83v-614v-83t2 -66t3.5 -54.5t7.5 -40t11.5 -31.5t18 -21t24 -16t32.5 -8.5t40.5 -7.5t51.5 -4q7 -2 6 -16q-2 -8 -6 -8q-107 14 -248 14 q-175 0 -293 -14q-5 -1 -6.5 4.5zM397 1436q-3 5 0 10l289 391q6 8 23 -1.5t29 -24t5 -21.5l-329 -354q-8 -8 -17 0z" />
<glyph unicode="&#xce;" horiz-adv-x="876" d="M161.5 -9.5q-1.5 5.5 0.5 12t4 7.5q36 4 50 5t39 6.5t33 8.5t23.5 14t19 20t12 30.5t9 40t3.5 54t3 68v85.5v614v85.5t-3 68t-3.5 54t-9 40t-12 30.5t-19 20.5t-23.5 14.5t-33 8.5t-39 7t-50 5.5q-2 0 -4 6t-0.5 12t6.5 5q126 -15 293 -15q134 0 248 15q5 1 6 -6 q1 -13 -6 -17q-32 -3 -51.5 -4.5t-40.5 -7.5t-32.5 -9.5t-24 -16.5t-18 -21t-11.5 -31.5t-7.5 -40t-3.5 -54.5t-2 -66v-83v-614v-83t2 -66t3.5 -54.5t7.5 -40t11.5 -31.5t18 -21t24 -16t32.5 -8.5t40.5 -7.5t51.5 -4q7 -2 6 -16q-2 -8 -6 -8q-107 14 -248 14 q-175 0 -293 -14q-5 -1 -6.5 4.5zM197 1434l233 415q3 5 11.5 4.5t11.5 -6.5l233 -413q5 -7 -6 -10q-8 -2 -12 3l-232 310l-221 -310q-6 -8 -16 -1q-5 4 -2 8z" />
<glyph unicode="&#xcf;" horiz-adv-x="876" d="M161.5 -9.5q-1.5 5.5 0.5 12t4 7.5q36 4 50 5t39 6.5t33 8.5t23.5 14t19 20t12 30.5t9 40t3.5 54t3 68v85.5v614v85.5t-3 68t-3.5 54t-9 40t-12 30.5t-19 20.5t-23.5 14.5t-33 8.5t-39 7t-50 5.5q-2 0 -4 6t-0.5 12t6.5 5q126 -15 293 -15q134 0 248 15q5 1 6 -6 q1 -13 -6 -17q-32 -3 -51.5 -4.5t-40.5 -7.5t-32.5 -9.5t-24 -16.5t-18 -21t-11.5 -31.5t-7.5 -40t-3.5 -54.5t-2 -66v-83v-614v-83t2 -66t3.5 -54.5t7.5 -40t11.5 -31.5t18 -21t24 -16t32.5 -8.5t40.5 -7.5t51.5 -4q7 -2 6 -16q-2 -8 -6 -8q-107 14 -248 14 q-175 0 -293 -14q-5 -1 -6.5 4.5zM166 1589q0 36 26.5 63t65.5 27q36 0 61 -26t25 -60q0 -36 -25.5 -63t-64.5 -27q-36 0 -62 26t-26 60zM539 1589q0 36 26.5 63t65.5 27q36 0 61 -26t25 -60q0 -36 -26 -63t-64 -27q-36 0 -62 26t-26 60z" />
<glyph unicode="&#xd0;" horiz-adv-x="1615" d="M124.5 580.5q0.5 16.5 8.5 17.5l195 43v315v93.5t-4 72t-5 55.5t-11.5 40t-16 29t-25 18t-31.5 12t-43.5 7t-52.5 7h-2h-2q-2 0 -4 6t-0.5 12t6.5 5q126 -15 340 -15q22 0 145 4.5t162 4.5q172 0 308.5 -49t223 -135.5t132 -201.5t45.5 -251q0 -138 -53.5 -261.5 t-148.5 -216t-233.5 -146.5t-299.5 -54q-38 0 -157.5 4t-141.5 4q-204 0 -322 -14q-5 -1 -6.5 4.5t0.5 12t4 7.5q102 10 130 24q42 20 54 87q9 54 9 221v236l-183 -46q-8 0 -14.5 16t-6 32.5zM487 268q0 -42 1.5 -69t8 -53t15 -41t27.5 -28.5t40.5 -19.5t58 -11t76 -6 t99.5 -1q109 0 203.5 38.5t164 109.5t109 178.5t39.5 238.5q0 320 -160.5 488t-445.5 168q-121 0 -217 -11q-19 -108 -19 -291v-280l152 39q5 1 9 -5t6 -15t3 -19t-0.5 -18.5t-5.5 -10.5q-164 -35 -164 -37v-344z" />
<glyph unicode="&#xd1;" horiz-adv-x="1685" d="M105 1308q1 6 6 5q126 -15 276 -15l954 -1034v692q0 50 -0.5 80t-2 64t-4 53t-8.5 40.5t-12 31.5t-18 22.5t-24 17t-32.5 10.5t-40.5 9t-50 6q-2 0 -3.5 6t-0.5 12t6 5q126 -15 248 -15q86 0 200 15q5 1 7 -5t0.5 -12t-4.5 -6q-30 -3 -51.5 -5.5t-41.5 -9t-33 -11.5 t-24 -18.5t-17.5 -23t-12 -33.5t-8 -40.5t-4 -52.5t-1.5 -62.5v-77.5v-614q0 -237 16 -375q0 -3 -4.5 -4.5t-10 0t-9.5 6.5l-995 1071v-698v-77t1.5 -62.5t4 -53t7.5 -40.5t11.5 -33t18 -23t24.5 -18.5t32.5 -11t41 -9t51.5 -4.5q2 -1 4 -7.5t0.5 -12t-6.5 -4.5 q-107 14 -201 14q-130 0 -248 -14q-5 -1 -6.5 4.5t0.5 12t4 7.5q38 4 61 7t45.5 12t34.5 17t23.5 28t16 39.5t8 57t4 74t0.5 97.5v719q0 69 -77 144.5t-152 84.5q-2 0 -3.5 6t-0.5 12zM516 1448q9 94 64 147.5t139 53.5q44 0 146.5 -37t152.5 -37t80.5 26t44.5 99 q1 1 8 -0.5t13 -4t5 -5.5q-8 -87 -54 -139t-124 -52q-47 0 -150.5 40t-166.5 40q-104 0 -131 -139q-1 -2 -7 -1t-13 3.5t-7 5.5z" />
<glyph unicode="&#xd2;" horiz-adv-x="1693" d="M123 629q0 100 35 202.5t101.5 193t155.5 161t206 112t243 41.5q153 0 287 -55.5t225 -147.5t143 -213t52 -251q0 -127 -56 -254t-151.5 -229t-237 -166t-299.5 -64q-152 0 -285.5 55.5t-224 148t-142.5 214t-52 252.5zM289 696q0 -164 50.5 -298.5t134 -218t187 -128.5 t213.5 -45q153 0 272.5 70t189 206.5t69.5 319.5q0 164 -51 298.5t-135 218t-187 128.5t-213 45q-114 0 -211.5 -41t-168 -116t-110.5 -188t-40 -251zM526 1782q-7 7 5.5 21.5t29.5 24t23 1.5l288 -391q4 -5 1.5 -9t-8 -4.5t-9.5 2.5z" />
<glyph unicode="&#xd3;" horiz-adv-x="1693" d="M123 629q0 100 35 202.5t101.5 193t155.5 161t206 112t243 41.5q153 0 287 -55.5t225 -147.5t143 -213t52 -251q0 -127 -56 -254t-151.5 -229t-237 -166t-299.5 -64q-152 0 -285.5 55.5t-224 148t-142.5 214t-52 252.5zM289 696q0 -164 50.5 -298.5t134 -218t187 -128.5 t213.5 -45q153 0 272.5 70t189 206.5t69.5 319.5q0 164 -51 298.5t-135 218t-187 128.5t-213 45q-114 0 -211.5 -41t-168 -116t-110.5 -188t-40 -251zM797 1446l288 391q6 8 23 -1.5t29.5 -24t5.5 -21.5l-330 -354q-7 -7 -15 -1q-6 5 -1 11z" />
<glyph unicode="&#xd4;" horiz-adv-x="1693" d="M123 629q0 100 35 202.5t101.5 193t155.5 161t206 112t243 41.5q153 0 287 -55.5t225 -147.5t143 -213t52 -251q0 -127 -56 -254t-151.5 -229t-237 -166t-299.5 -64q-152 0 -285.5 55.5t-224 148t-142.5 214t-52 252.5zM289 696q0 -164 50.5 -298.5t134 -218t187 -128.5 t213.5 -45q153 0 272.5 70t189 206.5t69.5 319.5q0 164 -51 298.5t-135 218t-187 128.5t-213 45q-114 0 -211.5 -41t-168 -116t-110.5 -188t-40 -251zM602 1434l234 415q3 5 11 4.5t11 -6.5l234 -413q5 -6 -6 -10q-9 -1 -13 3l-231 310l-221 -310q-6 -7 -16 -2q-7 4 -3 9z " />
<glyph unicode="&#xd5;" horiz-adv-x="1693" d="M123 629q0 100 35 202.5t101.5 193t155.5 161t206 112t243 41.5q153 0 287 -55.5t225 -147.5t143 -213t52 -251q0 -127 -56 -254t-151.5 -229t-237 -166t-299.5 -64q-152 0 -285.5 55.5t-224 148t-142.5 214t-52 252.5zM289 696q0 -164 50.5 -298.5t134 -218t187 -128.5 t213.5 -45q153 0 272.5 70t189 206.5t69.5 319.5q0 164 -51 298.5t-135 218t-187 128.5t-213 45q-114 0 -211.5 -41t-168 -116t-110.5 -188t-40 -251zM504 1448q9 94 64 147.5t139 53.5q44 0 146.5 -37t152.5 -37q49 0 79.5 26t44.5 99q1 1 8 -0.5t13.5 -4t5.5 -5.5 q-8 -87 -54 -139t-124 -52q-47 0 -150.5 40t-166.5 40q-48 0 -83 -33.5t-49 -105.5q-1 -2 -7 -1t-12.5 3.5t-6.5 5.5z" />
<glyph unicode="&#xd6;" horiz-adv-x="1693" d="M123 629q0 100 35 202.5t101.5 193t155.5 161t206 112t243 41.5q153 0 287 -55.5t225 -147.5t143 -213t52 -251q0 -127 -56 -254t-151.5 -229t-237 -166t-299.5 -64q-152 0 -285.5 55.5t-224 148t-142.5 214t-52 252.5zM289 696q0 -164 50.5 -298.5t134 -218t187 -128.5 t213.5 -45q153 0 272.5 70t189 206.5t69.5 319.5q0 164 -51 298.5t-135 218t-187 128.5t-213 45q-114 0 -211.5 -41t-168 -116t-110.5 -188t-40 -251zM571 1589q0 36 27 63t66 27q36 0 61 -26t25 -60q0 -36 -26 -63t-65 -27q-36 0 -62 26t-26 60zM944 1589q0 36 26.5 63 t65.5 27q36 0 61 -26t25 -60q0 -36 -26 -63t-64 -27q-36 0 -62 26t-26 60z" />
<glyph unicode="&#xd8;" horiz-adv-x="1693" d="M123 629q0 100 35 202.5t101.5 193t155.5 161t206 112t243 41.5q256 0 449 -149l162 180q3 2 8.5 0t10.5 -6.5t3 -7.5l-164 -182q113 -94 175.5 -226t62.5 -276q0 -127 -56 -254t-151.5 -229t-237 -166t-299.5 -64q-258 0 -450 152l-162 -183q-3 -2 -8.5 0t-10.5 7t-3 8 l163 184q-110 94 -171.5 225.5t-61.5 276.5zM289 696q0 -288 151 -477l793 883q-82 92 -190.5 141t-223.5 49q-114 0 -211.5 -41t-168 -116t-110.5 -188t-40 -251zM457 199q84 -94 192.5 -143.5t224.5 -49.5q153 0 272.5 70t189 206.5t69.5 319.5q0 286 -154 479z" />
<glyph unicode="&#xd9;" horiz-adv-x="1646" d="M100 1305q1 8 6 8q129 -15 293 -15q134 0 248 15q5 1 6.5 -5t-0.5 -12t-4 -6q-54 -5 -81 -8t-52.5 -20t-34 -30t-16 -59.5t-8 -86t-0.5 -130.5v-438q0 -119 38.5 -213t102 -149.5t139 -84t156.5 -28.5q205 0 311.5 112t106.5 328v492q0 72 -2 114.5t-10 80t-19.5 55.5 t-37 33t-54 21t-78.5 11q-3 0 -5 6t0 12t7 5q126 -15 252 -15q91 0 205 15q5 1 7 -5t0 -12t-5 -6q-37 -3 -63 -7t-48.5 -13.5t-36 -19t-24 -29.5t-16 -38.5t-9 -53.5t-4 -67.5t-0.5 -86.5v-512q0 -104 -34 -194.5t-98 -160t-166 -109.5t-230 -40q-152 0 -274.5 60.5 t-196.5 180t-74 277.5v479q0 59 -0.5 93.5t-3 72t-5 56t-11 39.5t-16 29t-24.5 17.5t-32 12.5t-42.5 7t-53.5 7h-3q-6 0 -6 15zM588 1782q-7 7 5 21.5t29 24t23 1.5l289 -391q4 -5 1.5 -9t-8 -4.5t-9.5 2.5z" />
<glyph unicode="&#xda;" horiz-adv-x="1646" d="M100 1305q1 8 6 8q129 -15 293 -15q134 0 248 15q5 1 6.5 -5t-0.5 -12t-4 -6q-54 -5 -81 -8t-52.5 -20t-34 -30t-16 -59.5t-8 -86t-0.5 -130.5v-438q0 -119 38.5 -213t102 -149.5t139 -84t156.5 -28.5q205 0 311.5 112t106.5 328v492q0 72 -2 114.5t-10 80t-19.5 55.5 t-37 33t-54 21t-78.5 11q-3 0 -5 6t0 12t7 5q126 -15 252 -15q91 0 205 15q5 1 7 -5t0 -12t-5 -6q-37 -3 -63 -7t-48.5 -13.5t-36 -19t-24 -29.5t-16 -38.5t-9 -53.5t-4 -67.5t-0.5 -86.5v-512q0 -104 -34 -194.5t-98 -160t-166 -109.5t-230 -40q-152 0 -274.5 60.5 t-196.5 180t-74 277.5v479q0 59 -0.5 93.5t-3 72t-5 56t-11 39.5t-16 29t-24.5 17.5t-32 12.5t-42.5 7t-53.5 7h-3q-6 0 -6 15zM827 1436q-3 5 0 10l289 391q6 8 23 -1.5t29.5 -24t5.5 -21.5l-330 -354q-8 -8 -17 0z" />
<glyph unicode="&#xdb;" horiz-adv-x="1646" d="M100 1305q1 8 6 8q129 -15 293 -15q134 0 248 15q5 1 6.5 -5t-0.5 -12t-4 -6q-54 -5 -81 -8t-52.5 -20t-34 -30t-16 -59.5t-8 -86t-0.5 -130.5v-438q0 -119 38.5 -213t102 -149.5t139 -84t156.5 -28.5q205 0 311.5 112t106.5 328v492q0 72 -2 114.5t-10 80t-19.5 55.5 t-37 33t-54 21t-78.5 11q-3 0 -5 6t0 12t7 5q126 -15 252 -15q91 0 205 15q5 1 7 -5t0 -12t-5 -6q-37 -3 -63 -7t-48.5 -13.5t-36 -19t-24 -29.5t-16 -38.5t-9 -53.5t-4 -67.5t-0.5 -86.5v-512q0 -104 -34 -194.5t-98 -160t-166 -109.5t-230 -40q-152 0 -274.5 60.5 t-196.5 180t-74 277.5v479q0 59 -0.5 93.5t-3 72t-5 56t-11 39.5t-16 29t-24.5 17.5t-32 12.5t-42.5 7t-53.5 7h-3q-6 0 -6 15zM631 1434l233 415q3 5 11.5 4.5t11.5 -6.5l233 -413q5 -7 -6 -10q-8 -2 -12 3l-232 310l-221 -310q-6 -8 -16 -1q-5 4 -2 8z" />
<glyph unicode="&#xdc;" horiz-adv-x="1646" d="M100 1305q1 8 6 8q129 -15 293 -15q134 0 248 15q5 1 6.5 -5t-0.5 -12t-4 -6q-54 -5 -81 -8t-52.5 -20t-34 -30t-16 -59.5t-8 -86t-0.5 -130.5v-438q0 -119 38.5 -213t102 -149.5t139 -84t156.5 -28.5q205 0 311.5 112t106.5 328v492q0 72 -2 114.5t-10 80t-19.5 55.5 t-37 33t-54 21t-78.5 11q-3 0 -5 6t0 12t7 5q126 -15 252 -15q91 0 205 15q5 1 7 -5t0 -12t-5 -6q-37 -3 -63 -7t-48.5 -13.5t-36 -19t-24 -29.5t-16 -38.5t-9 -53.5t-4 -67.5t-0.5 -86.5v-512q0 -104 -34 -194.5t-98 -160t-166 -109.5t-230 -40q-152 0 -274.5 60.5 t-196.5 180t-74 277.5v479q0 59 -0.5 93.5t-3 72t-5 56t-11 39.5t-16 29t-24.5 17.5t-32 12.5t-42.5 7t-53.5 7h-3q-6 0 -6 15zM596 1589q0 36 26.5 63t65.5 27q36 0 61 -26t25 -60q0 -36 -25.5 -63t-64.5 -27q-36 0 -62 26t-26 60zM969 1589q0 36 26.5 63t65.5 27 q36 0 61 -26t25 -60q0 -36 -26 -63t-64 -27q-36 0 -62 26t-26 60z" />
<glyph unicode="&#xdd;" horiz-adv-x="1558" d="M56 1284q0 6 5 8q95 35 199 35q108 0 206.5 -47t173 -128t128.5 -186t82 -225q77 248 240.5 411t355.5 163q70 0 135 -23q5 -2 5 -8t-2.5 -10.5t-4.5 -3.5q-44 8 -94 8q-160 0 -296.5 -124t-214 -327.5t-77.5 -433.5v-51v-83.5t2 -65.5t3.5 -54t7.5 -40t11.5 -32t18 -21 t23.5 -16t32 -8.5t40.5 -7.5t51.5 -4q7 -2 6 -16q-2 -8 -6 -8q-110 14 -247 14q-175 0 -293 -14q-5 -1 -6.5 4.5t0.5 12t4 7.5q36 4 50 5t39 6.5t33 8.5t23.5 14t19 20t12 30.5t9 40t3.5 54t3 68v85.5v51q0 185 -50 350.5t-133 280.5t-192 182.5t-225 67.5q-24 0 -74 -4 q-2 -1 -4.5 3.5t-2.5 10.5zM727 1446l289 391q6 8 23 -1.5t29 -24t5 -21.5l-330 -354q-7 -7 -15 -1q-6 5 -1 11z" />
<glyph unicode="&#xde;" horiz-adv-x="1208" d="M130.5 -9.5q-1.5 5.5 0.5 11.5t4 6q102 11 130 25q42 21 54 87q9 54 9 220v616q0 61 -0.5 98t-4.5 74.5t-8 56.5t-15.5 39t-23 28t-35 16.5t-46 12t-60.5 7.5q-2 0 -4 6t-0.5 12t6.5 5q126 -15 293 -15q118 0 232 15q5 1 6 -5q2 -11 -4 -16h-2q-43 -4 -67 -8.5 t-46.5 -16.5t-32.5 -27t-17.5 -45.5t-9.5 -67.5t-2 -97v-4q82 6 164 6q197 0 318 -90t121 -240q0 -175 -140 -280t-375 -105h-32q-5 0 -5 12.5t5 12.5q10 -2 30 -2q182 0 267.5 80t85.5 250q0 158 -84 239.5t-244 81.5q-55 0 -102 -8q-9 -62 -9 -299v-342q0 -49 0.5 -82.5 t3 -66t5 -53t9.5 -40.5t13.5 -31t20.5 -22t26 -15.5t34 -9.5t41.5 -7t51.5 -5q6 0 6 -13q-1 -9 -6 -9q-107 14 -262 14q-175 0 -293 -14q-5 -1 -6.5 4.5z" />
<glyph unicode="&#xdf;" d="M92 471q0 102 42.5 199t116 171.5t179 119.5t223.5 45q110 0 210 -42t170 -111t111.5 -160.5t41.5 -188.5q0 -179 -117 -325.5t-293 -192.5q103 -101 210 -160t202 -59t172 36q2 1 4 -3q5 -16 -2 -21q-61 -39 -118.5 -59.5t-133.5 -20.5q-116 0 -240 66t-270 204 q-136 3 -254 74t-186 186t-68 242zM244 537q0 -123 36 -224.5t95.5 -164t132.5 -96.5t151 -34q169 0 272 108t103 312q0 123 -36 224t-96 164t-133 96.5t-151 33.5q-169 0 -271.5 -107.5t-102.5 -311.5z" />
<glyph unicode="&#xe0;" horiz-adv-x="1097" d="M-5 2q1 12 5 12q75 6 124.5 58t108.5 184l330 743q1 5 8 5t9 -5l284 -743q17 -46 27.5 -71t26 -56.5t31 -47.5t37.5 -32.5t50 -24t64 -10.5q4 0 5 -12t-5 -12q-78 10 -201 10q-177 0 -256 -10q-5 0 -4 12t4 12q11 1 29 2.5t26.5 2.5t20.5 3t17.5 5t11.5 7.5t8 11t2 15.5 q0 61 -51 195l-39 113h-330l-47 -113q-62 -143 -62 -193q0 -26 24.5 -35t84.5 -14q5 0 5.5 -12t-5.5 -12q-75 10 -172 10q-84 0 -166 -10q-6 0 -5 12zM254 1440q-7 7 5 21.5t29 24t23 1.5l289 -391q4 -5 1.5 -9t-8 -4.5t-9.5 2.5zM356 416h295l-133 368z" />
<glyph unicode="&#xe1;" horiz-adv-x="1097" d="M1 2q1 12 5 12q76 6 125.5 58t108.5 184l329 743q1 5 8 5t9 -5l284 -743q17 -46 27.5 -71t26 -56.5t31 -47.5t37.5 -32.5t50 -24t64 -10.5q4 0 5 -12t-5 -12q-78 10 -201 10q-177 0 -256 -10q-5 0 -4 12t4 12q11 1 29 2.5t26.5 2.5t20.5 3t17.5 5t11.5 7.5t8 11t2 15.5 q0 61 -51 195l-39 113h-330l-47 -113q-61 -141 -61 -193q0 -26 24 -35t84 -14q5 0 5.5 -12t-5.5 -12q-75 10 -172 10q-84 0 -166 -10q-6 0 -5 12zM362 416h295l-133 368zM545 1104l289 391q6 8 23 -1.5t29 -24t5 -21.5l-330 -354q-7 -7 -15 -1q-6 5 -1 11z" />
<glyph unicode="&#xe2;" horiz-adv-x="1097" d="M-5 2q1 12 5 12q75 6 124.5 58t108.5 184l330 743q1 5 8 5t9 -5l284 -743q17 -46 27.5 -71t26 -56.5t31 -47.5t37.5 -32.5t50 -24t64 -10.5q4 0 5 -12t-5 -12q-78 10 -201 10q-177 0 -256 -10q-5 0 -4 12t4 12q11 1 29 2.5t26.5 2.5t20.5 3t17.5 5t11.5 7.5t8 11t2 15.5 q0 61 -51 195l-39 113h-330l-47 -113q-62 -143 -62 -193q0 -26 24.5 -35t84.5 -14q5 0 5.5 -12t-5.5 -12q-75 10 -172 10q-84 0 -166 -10q-6 0 -5 12zM324 1092l233 415q3 5 11.5 4.5t11.5 -6.5l233 -413q5 -7 -6 -10q-8 -2 -12 3l-232 310l-221 -310q-6 -8 -16 -1 q-5 4 -2 8zM356 416h295l-133 368z" />
<glyph unicode="&#xe3;" horiz-adv-x="1097" d="M-5 2q1 12 5 12q75 6 124.5 58t108.5 184l330 743q1 5 8 5t9 -5l284 -743q17 -46 27.5 -71t26 -56.5t31 -47.5t37.5 -32.5t50 -24t64 -10.5q4 0 5 -12t-5 -12q-78 10 -201 10q-177 0 -256 -10q-5 0 -4 12t4 12q11 1 29 2.5t26.5 2.5t20.5 3t17.5 5t11.5 7.5t8 11t2 15.5 q0 61 -51 195l-39 113h-330l-47 -113q-62 -143 -62 -193q0 -26 24.5 -35t84.5 -14q5 0 5.5 -12t-5.5 -12q-75 10 -172 10q-84 0 -166 -10q-6 0 -5 12zM250 1106q9 94 64 147.5t139 53.5q44 0 146.5 -37t152.5 -37t80.5 26t44.5 99q1 1 8 -0.5t13 -4t5 -5.5q-8 -87 -54 -139 t-124 -52q-47 0 -150.5 40t-166.5 40q-48 0 -83 -33.5t-49 -105.5q-1 -2 -7 -1t-12.5 3.5t-6.5 5.5zM356 416h295l-133 368z" />
<glyph unicode="&#xe4;" horiz-adv-x="1097" d="M-5 2q1 12 5 12q75 6 124.5 58t108.5 184l330 743q1 5 8 5t9 -5l284 -743q17 -46 27.5 -71t26 -56.5t31 -47.5t37.5 -32.5t50 -24t64 -10.5q4 0 5 -12t-5 -12q-78 10 -201 10q-177 0 -256 -10q-5 0 -4 12t4 12q11 1 29 2.5t26.5 2.5t20.5 3t17.5 5t11.5 7.5t8 11t2 15.5 q0 61 -51 195l-39 113h-330l-47 -113q-62 -143 -62 -193q0 -26 24.5 -35t84.5 -14q5 0 5.5 -12t-5.5 -12q-75 10 -172 10q-84 0 -166 -10q-6 0 -5 12zM289 1247q0 36 26.5 63t65.5 27q36 0 61 -26t25 -60q0 -36 -25.5 -63t-64.5 -27q-36 0 -62 26t-26 60zM356 416h295 l-133 368zM662 1247q0 36 26.5 63t65.5 27q36 0 61 -26t25 -60q0 -36 -26 -63t-64 -27q-36 0 -62 26t-26 60z" />
<glyph unicode="&#xe5;" horiz-adv-x="1097" d="M-5 2q1 12 5 12q75 6 124.5 58t108.5 184l322 723q-67 8 -112.5 57.5t-45.5 116.5q0 71 51 121.5t123 50.5q71 0 121.5 -50.5t50.5 -121.5q0 -67 -45 -117.5t-110 -56.5l276 -723q17 -46 27.5 -71t26 -56.5t31 -47.5t37.5 -32.5t50 -24t64 -10.5q4 0 5 -12t-5 -12 q-78 10 -201 10q-177 0 -256 -10q-5 0 -4 12t4 12q11 1 29 2.5t26.5 2.5t20.5 3t17.5 5t11.5 7.5t8 11t2 15.5q0 61 -51 195l-39 113h-330l-47 -113q-62 -143 -62 -193q0 -26 24.5 -35t84.5 -14q5 0 5.5 -12t-5.5 -12q-75 10 -172 10q-84 0 -166 -10q-6 0 -5 12zM356 416 h295l-133 368zM424 1153q0 -61 43 -104t104 -43q60 0 103 43t43 104q0 60 -43 102.5t-103 42.5q-61 0 -104 -42.5t-43 -102.5z" />
<glyph unicode="&#xe6;" horiz-adv-x="1331" d="M-88 -6q-1 13 4 20q78 6 137.5 57.5t143.5 184.5l366 578q19 34 17.5 61t-37 45t-103.5 21q-2 0 -3 6t0 12t5 6q136 -10 471 -10q160 0 293 10q-8 -31 -8 -98q0 -60 2 -72q0 -3 -12 -2.5t-12 2.5q-5 30 -14 47t-33.5 32t-70 21.5t-118.5 6.5h-133q-12 -59 -12 -197v-176 h106q94 0 130 5t49.5 19t21.5 52q0 3 19 2q5 -1 5 -2q-10 -38 -10 -125q0 -64 4 -88q0 -3 -12 -2.5t-12 2.5q-7 33 -13.5 48t-28.5 26t-54.5 13.5t-98.5 2.5h-106v-226q0 -105 8 -151t24 -59t54 -13h80q35 0 63 1t51.5 4t40.5 5t31.5 9t23.5 11t17 15t12 17t9 22t7 24t7 29 q0 1 6 1.5t12 0t6 -3.5q-22 -143 -30 -168q-4 -18 -11.5 -23t-23.5 -5q-20 0 -110 4t-152 4q-304 0 -443 -10q-3 -1 -4 4q-1 13 4 20q42 4 67 9t46.5 16.5t31.5 25.5t17 43t8.5 61t1.5 87v113h-321l-72 -113q-88 -142 -98 -195q-6 -23 12.5 -32.5t73.5 -14.5q5 0 5 -16 q-2 -8 -5 -8q-75 10 -162 10q-83 0 -166 -10q-3 -1 -4 4zM356 414h293v460z" />
<glyph unicode="&#xe7;" horiz-adv-x="1112" d="M92 465q0 103 42.5 201t116 173t181.5 121t230 46q94 0 189.5 -29t127.5 -53q8 -6 18 -82.5t15 -155.5q0 -4 -13 -4.5t-14 2.5q-10 48 -35.5 94t-67.5 87t-108.5 66t-146.5 25q-174 0 -278.5 -113.5t-104.5 -318.5q0 -124 35.5 -222.5t96 -159.5t136 -92.5t158.5 -31.5 q122 0 218 78t105 195q0 1 6.5 1.5t12.5 0t6 -3.5q-5 -80 -15 -156t-18 -82q-104 -80 -313 -82l-56 -84q103 -32 154 -88t51 -119q0 -83 -69.5 -150t-210.5 -89q-5 0 -7.5 5.5t-2 11t3.5 5.5q47 7 82.5 22.5t54.5 34t31 42t15 40.5t3 35q0 118 -201 175l109 159 q-238 9 -387.5 153.5t-149.5 342.5z" />
<glyph unicode="&#xe8;" horiz-adv-x="950" d="M91 2q1 12 5 12q42 5 67 10t46 16.5t30.5 25t16.5 42.5t8.5 61t1.5 87v463q0 55 -1.5 87t-8 61t-16.5 43t-31 25.5t-46 16.5t-67 9q-4 2 -4.5 14t4.5 12q133 -12 436 -12q129 0 293 12q-8 -31 -8 -98q0 -62 2 -74h-26q-6 40 -21 60t-66 33.5t-147 13.5h-135 q-10 -62 -10 -195v-197h106q91 0 128 5.5t51 19.5t22 51q0 2 12 3t12 -3q-10 -38 -10 -123q0 -9 1 -46t1 -44l-19 -1l-5 1q-4 23 -7.5 35.5t-12 24.5t-19.5 17t-33.5 9t-49 5t-71.5 1h-106v-209q0 -104 7.5 -150t24 -59.5t54.5 -13.5h78q39 0 69.5 2t54.5 3.5t42.5 8.5 t31 10.5t22.5 15.5t15.5 18t11 23.5t8 26.5t7.5 32q2 2 14 1t12 -4q-22 -141 -30 -167q-4 -20 -11.5 -25.5t-25.5 -5.5q-21 0 -109 4t-151 4q-304 0 -443 -10q-6 0 -5 12zM229 1440q-7 7 5.5 21.5t29.5 24t23 1.5l288 -391q4 -5 1.5 -9t-8 -4.5t-9.5 2.5z" />
<glyph unicode="&#xe9;" horiz-adv-x="950" d="M91 2q1 12 5 12q42 5 67 10t46 16.5t30.5 25t16.5 42.5t8.5 61t1.5 87v463q0 55 -1.5 87t-8 61t-16.5 43t-31 25.5t-46 16.5t-67 9q-4 2 -4.5 14t4.5 12q133 -12 436 -12q129 0 293 12q-8 -31 -8 -98q0 -62 2 -74h-26q-6 40 -21 60t-66 33.5t-147 13.5h-135 q-10 -62 -10 -195v-197h106q91 0 128 5.5t51 19.5t22 51q0 2 12 3t12 -3q-10 -38 -10 -123q0 -9 1 -46t1 -44l-19 -1l-5 1q-4 23 -7.5 35.5t-12 24.5t-19.5 17t-33.5 9t-49 5t-71.5 1h-106v-209q0 -104 7.5 -150t24 -59.5t54.5 -13.5h78q39 0 69.5 2t54.5 3.5t42.5 8.5 t31 10.5t22.5 15.5t15.5 18t11 23.5t8 26.5t7.5 32q2 2 14 1t12 -4q-22 -141 -30 -167q-4 -20 -11.5 -25.5t-25.5 -5.5q-21 0 -109 4t-151 4q-304 0 -443 -10q-6 0 -5 12zM453 1104l288 391q6 8 23 -1.5t29.5 -24t5.5 -21.5l-330 -354q-7 -7 -15 -1q-6 5 -1 11z" />
<glyph unicode="&#xea;" horiz-adv-x="950" d="M91 2q1 12 5 12q42 5 67 10t46 16.5t30.5 25t16.5 42.5t8.5 61t1.5 87v463q0 55 -1.5 87t-8 61t-16.5 43t-31 25.5t-46 16.5t-67 9q-4 2 -4.5 14t4.5 12q133 -12 436 -12q129 0 293 12q-8 -31 -8 -98q0 -62 2 -74h-26q-6 40 -21 60t-66 33.5t-147 13.5h-135 q-10 -62 -10 -195v-197h106q91 0 128 5.5t51 19.5t22 51q0 2 12 3t12 -3q-10 -38 -10 -123q0 -9 1 -46t1 -44l-19 -1l-5 1q-4 23 -7.5 35.5t-12 24.5t-19.5 17t-33.5 9t-49 5t-71.5 1h-106v-209q0 -104 7.5 -150t24 -59.5t54.5 -13.5h78q39 0 69.5 2t54.5 3.5t42.5 8.5 t31 10.5t22.5 15.5t15.5 18t11 23.5t8 26.5t7.5 32q2 2 14 1t12 -4q-22 -141 -30 -167q-4 -20 -11.5 -25.5t-25.5 -5.5q-21 0 -109 4t-151 4q-304 0 -443 -10q-6 0 -5 12zM244 1092l233 415q3 5 11.5 4.5t11.5 -6.5l233 -413q5 -7 -6 -10q-8 -2 -12 3l-232 310l-221 -310 q-6 -8 -16 -1q-5 4 -2 8z" />
<glyph unicode="&#xeb;" horiz-adv-x="950" d="M91 2q1 12 5 12q42 5 67 10t46 16.5t30.5 25t16.5 42.5t8.5 61t1.5 87v463q0 55 -1.5 87t-8 61t-16.5 43t-31 25.5t-46 16.5t-67 9q-4 2 -4.5 14t4.5 12q133 -12 436 -12q129 0 293 12q-8 -31 -8 -98q0 -62 2 -74h-26q-6 40 -21 60t-66 33.5t-147 13.5h-135 q-10 -62 -10 -195v-197h106q91 0 128 5.5t51 19.5t22 51q0 2 12 3t12 -3q-10 -38 -10 -123q0 -9 1 -46t1 -44l-19 -1l-5 1q-4 23 -7.5 35.5t-12 24.5t-19.5 17t-33.5 9t-49 5t-71.5 1h-106v-209q0 -104 7.5 -150t24 -59.5t54.5 -13.5h78q39 0 69.5 2t54.5 3.5t42.5 8.5 t31 10.5t22.5 15.5t15.5 18t11 23.5t8 26.5t7.5 32q2 2 14 1t12 -4q-22 -141 -30 -167q-4 -20 -11.5 -25.5t-25.5 -5.5q-21 0 -109 4t-151 4q-304 0 -443 -10q-6 0 -5 12zM233 1247q0 36 27 63t66 27q36 0 61 -26t25 -60q0 -36 -25.5 -63t-64.5 -27q-36 0 -62.5 26t-26.5 60 zM606 1247q0 36 26.5 63t65.5 27q36 0 61 -26t25 -60q0 -36 -26 -63t-64 -27q-36 0 -62 26t-26 60z" />
<glyph unicode="&#xec;" horiz-adv-x="724" d="M63 1440q-7 7 5.5 21.5t29.5 24t23 1.5l289 -391q4 -5 1 -9t-8.5 -4.5t-9.5 2.5zM127.5 -4q-0.5 6 1 12t2.5 6q44 4 69.5 12t45 21.5t28 42t12 66t3.5 100.5v463q0 53 -2 87t-9 62t-16.5 42.5t-29 26t-42 16t-59.5 8.5q-3 3 -3.5 14t5.5 12q76 -12 248 -12q121 0 211 12 q6 -1 5.5 -12t-3.5 -14q-44 -3 -71.5 -11.5t-45.5 -23t-26.5 -44.5t-11.5 -65.5t-3 -97.5v-463q0 -51 1.5 -82.5t7.5 -60.5t16 -44.5t28.5 -28t43 -18t61.5 -8.5q1 0 2.5 -6t0.5 -12t-5 -6q-75 10 -211 10q-169 0 -248 -10q-5 0 -5.5 6z" />
<glyph unicode="&#xed;" horiz-adv-x="724" d="M127.5 -4q-0.5 6 1 12t2.5 6q44 4 69.5 12t45 21.5t28 42t12 66t3.5 100.5v463q0 53 -2 87t-9 62t-16.5 42.5t-29 26t-42 16t-59.5 8.5q-3 3 -3.5 14t5.5 12q76 -12 248 -12q121 0 211 12q6 -1 5.5 -12t-3.5 -14q-44 -3 -71.5 -11.5t-45.5 -23t-26.5 -44.5t-11.5 -65.5 t-3 -97.5v-463q0 -51 1.5 -82.5t7.5 -60.5t16 -44.5t28.5 -28t43 -18t61.5 -8.5q1 0 2.5 -6t0.5 -12t-5 -6q-75 10 -211 10q-169 0 -248 -10q-5 0 -5.5 6zM336 1104l289 391q6 8 23 -1.5t29 -24t5 -21.5l-330 -354q-7 -7 -15 -1q-6 5 -1 11z" />
<glyph unicode="&#xee;" horiz-adv-x="724" d="M109 1092l233 415q3 5 11.5 4.5t11.5 -6.5l233 -413q5 -7 -6 -10q-8 -2 -12 3l-232 310l-221 -310q-6 -8 -16 -1q-5 4 -2 8zM127.5 -4q-0.5 6 1 12t2.5 6q44 4 69.5 12t45 21.5t28 42t12 66t3.5 100.5v463q0 53 -2 87t-9 62t-16.5 42.5t-29 26t-42 16t-59.5 8.5 q-3 3 -3.5 14t5.5 12q76 -12 248 -12q121 0 211 12q6 -1 5.5 -12t-3.5 -14q-44 -3 -71.5 -11.5t-45.5 -23t-26.5 -44.5t-11.5 -65.5t-3 -97.5v-463q0 -51 1.5 -82.5t7.5 -60.5t16 -44.5t28.5 -28t43 -18t61.5 -8.5q1 0 2.5 -6t0.5 -12t-5 -6q-75 10 -211 10q-169 0 -248 -10 q-5 0 -5.5 6z" />
<glyph unicode="&#xef;" horiz-adv-x="724" d="M92 1247q0 36 26.5 63t65.5 27q36 0 61 -26t25 -60q0 -36 -25.5 -63t-64.5 -27q-36 0 -62 26t-26 60zM127.5 -4q-0.5 6 1 12t2.5 6q44 4 69.5 12t45 21.5t28 42t12 66t3.5 100.5v463q0 53 -2 87t-9 62t-16.5 42.5t-29 26t-42 16t-59.5 8.5q-3 3 -3.5 14t5.5 12 q76 -12 248 -12q121 0 211 12q6 -1 5.5 -12t-3.5 -14q-44 -3 -71.5 -11.5t-45.5 -23t-26.5 -44.5t-11.5 -65.5t-3 -97.5v-463q0 -51 1.5 -82.5t7.5 -60.5t16 -44.5t28.5 -28t43 -18t61.5 -8.5q1 0 2.5 -6t0.5 -12t-5 -6q-75 10 -211 10q-169 0 -248 -10q-5 0 -5.5 6z M465 1247q0 36 26.5 63t65.5 27q36 0 61 -26t25 -60q0 -36 -26 -63t-64 -27q-36 0 -62 26t-26 60z" />
<glyph unicode="&#xf0;" horiz-adv-x="1259" d="M88 445.5q0 16.5 8 17.5l170 37v219q0 105 -11.5 151t-42 65t-103.5 26q-4 2 -4.5 14t6.5 12q73 -12 282 -12q17 0 109 3t121 3q257 0 400.5 -134.5t143.5 -344.5q0 -137 -71 -253t-201.5 -185.5t-292.5 -69.5q-27 0 -116.5 3t-106.5 3q-192 0 -268 -10q-5 0 -6 6t0.5 12 t3.5 6q55 6 83 15t46.5 37t23 69.5t4.5 120.5v180l-157 -39q-8 0 -14.5 16t-6.5 32.5zM414 201q0 -41 3 -62t14.5 -43t37 -31.5t67.5 -15.5t109 -6q69 0 134.5 25t119.5 72.5t86.5 125t32.5 174.5q0 242 -114 367t-326 125q-96 0 -150 -8q-14 -71 -14 -205v-184l188 47 q5 1 9 -5t6 -15t3 -19t-0.5 -18.5t-5.5 -10.5l-200 -43v-270z" />
<glyph unicode="&#xf1;" horiz-adv-x="1327" d="M71.5 975q-0.5 12 4.5 12q76 -12 262 -12l702 -750v494q0 140 -28 186t-127 56q-5 2 -5.5 14t5.5 12q73 -12 198 -12q89 0 179 12q6 -1 5.5 -12t-3.5 -14q-54 -4 -85 -17t-47.5 -45t-21 -70.5t-4.5 -109.5v-463q0 -182 12 -281q0 -2 -5 -2.5t-11 0.5t-10 4l-754 789v-510 q0 -70 5 -109t21.5 -70.5t48 -44.5t85.5 -18q1 0 2 -6t0.5 -12t-4.5 -6q-78 10 -164 10q-136 0 -215 -10q-4 0 -3.5 12t3.5 12q100 10 128.5 56.5t28.5 185.5v526q0 52 -70.5 112.5t-127.5 66.5q-4 2 -4.5 14zM342 1106q9 94 64 147.5t139 53.5q44 0 146.5 -37t152.5 -37 t80.5 26t44.5 99q1 1 8 -0.5t13 -4t5 -5.5q-8 -87 -54 -139t-124 -52q-47 0 -150.5 40t-166.5 40q-104 0 -131 -139q-1 -2 -7 -1t-13 3.5t-7 5.5z" />
<glyph unicode="&#xf2;" d="M92 471q0 103 42.5 200t115.5 171t178.5 119t222.5 45q111 0 210.5 -42t170 -111t111.5 -161t41 -190q0 -102 -42.5 -198.5t-115 -170.5t-178 -119t-223.5 -45q-110 0 -209.5 41.5t-170 110.5t-112 160.5t-41.5 189.5zM244 537q0 -123 36 -224.5t95.5 -164t132.5 -96.5 t151 -34q169 0 272 107.5t103 310.5q0 123 -36 224.5t-96 164.5t-133 97t-151 34q-169 0 -271.5 -107.5t-102.5 -311.5zM328 1440q-7 7 5 21.5t29 24t23 1.5l289 -391q4 -5 1 -9t-8.5 -4.5t-9.5 2.5z" />
<glyph unicode="&#xf3;" d="M92 471q0 103 42.5 200t115.5 171t178.5 119t222.5 45q111 0 210.5 -42t170 -111t111.5 -161t41 -190q0 -102 -42.5 -198.5t-115 -170.5t-178 -119t-223.5 -45q-110 0 -209.5 41.5t-170 110.5t-112 160.5t-41.5 189.5zM244 537q0 -123 36 -224.5t95.5 -164t132.5 -96.5 t151 -34q169 0 272 107.5t103 310.5q0 123 -36 224.5t-96 164.5t-133 97t-151 34q-169 0 -271.5 -107.5t-102.5 -311.5zM575 1094q-3 5 0 10l289 391q6 8 23 -1.5t29.5 -24t5.5 -21.5l-330 -354q-8 -8 -17 0z" />
<glyph unicode="&#xf4;" d="M92 471q0 103 42.5 200t115.5 171t178.5 119t222.5 45q111 0 210.5 -42t170 -111t111.5 -161t41 -190q0 -102 -42.5 -198.5t-115 -170.5t-178 -119t-223.5 -45q-110 0 -209.5 41.5t-170 110.5t-112 160.5t-41.5 189.5zM244 537q0 -123 36 -224.5t95.5 -164t132.5 -96.5 t151 -34q169 0 272 107.5t103 310.5q0 123 -36 224.5t-96 164.5t-133 97t-151 34q-169 0 -271.5 -107.5t-102.5 -311.5zM385 1092l233 415q3 5 11.5 4.5t11.5 -6.5l233 -413q5 -7 -6 -10q-8 -2 -12 3l-231 310l-222 -310q-6 -8 -16 -1q-5 4 -2 8z" />
<glyph unicode="&#xf5;" d="M92 471q0 103 42.5 200t115.5 171t178.5 119t222.5 45q111 0 210.5 -42t170 -111t111.5 -161t41 -190q0 -102 -42.5 -198.5t-115 -170.5t-178 -119t-223.5 -45q-110 0 -209.5 41.5t-170 110.5t-112 160.5t-41.5 189.5zM244 537q0 -123 36 -224.5t95.5 -164t132.5 -96.5 t151 -34q169 0 272 107.5t103 310.5q0 123 -36 224.5t-96 164.5t-133 97t-151 34q-169 0 -271.5 -107.5t-102.5 -311.5zM293 1106q9 94 64 147.5t139 53.5q44 0 146.5 -37t152.5 -37t80.5 26t44.5 99q1 1 8 -0.5t13 -4t5 -5.5q-8 -87 -54 -139t-124 -52q-47 0 -150.5 40 t-166.5 40q-48 0 -83 -33.5t-49 -105.5q-1 -2 -7 -1t-12.5 3.5t-6.5 5.5z" />
<glyph unicode="&#xf6;" d="M92 471q0 103 42.5 200t115.5 171t178.5 119t222.5 45q111 0 210.5 -42t170 -111t111.5 -161t41 -190q0 -102 -42.5 -198.5t-115 -170.5t-178 -119t-223.5 -45q-110 0 -209.5 41.5t-170 110.5t-112 160.5t-41.5 189.5zM244 537q0 -123 36 -224.5t95.5 -164t132.5 -96.5 t151 -34q169 0 272 107.5t103 310.5q0 123 -36 224.5t-96 164.5t-133 97t-151 34q-169 0 -271.5 -107.5t-102.5 -311.5zM358 1247q0 36 27 63t66 27q36 0 61 -26t25 -60q0 -36 -26 -63t-65 -27q-36 0 -62 26t-26 60zM731 1247q0 36 26.5 63t65.5 27q36 0 61 -26t25 -60 q0 -36 -26 -63t-64 -27q-36 0 -62 26t-26 60z" />
<glyph unicode="&#xf8;" d="M92 471q0 103 42.5 200t115.5 171t178.5 119t222.5 45q189 0 334 -113l137 151q2 2 8.5 -0.5t11.5 -6.5t3 -7l-139 -153q84 -71 131 -169.5t47 -205.5q0 -102 -42.5 -198.5t-115 -170.5t-178 -119t-223.5 -45q-185 0 -334 113l-137 -154q-2 -2 -8.5 0.5t-11.5 7t-3 7.5 l139 155q-83 72 -130.5 169.5t-47.5 203.5zM244 537q0 -214 104 -353l94.5 105t182 202.5t206 229t82.5 90.5q-59 71 -136.5 108t-158.5 37q-169 0 -271.5 -107.5t-102.5 -311.5zM365 162q59 -70 136 -107t158 -37q169 0 272 107.5t103 310.5q0 213 -104 355z" />
<glyph unicode="&#xf9;" horiz-adv-x="1282" d="M71 977q2 8 5 8q63 -10 248 -10q135 0 213 10q3 1 5 -4q1 -14 -5 -20q-44 -4 -70.5 -12.5t-45 -23t-26.5 -44.5t-11 -66t-3 -98v-326q0 -89 26.5 -158.5t71 -111t99.5 -63t116 -21.5q153 0 232.5 84t79.5 246v364q0 95 -11.5 138.5t-42.5 63.5t-102 28q-6 0 -5 16 q1 8 5 8q63 -10 197 -10q99 0 174 10q8 2 5 -16q-2 -8 -3 -8q-55 -5 -85.5 -16t-47 -40t-21 -66t-4.5 -108v-385q0 -160 -110.5 -268.5t-301.5 -108.5q-114 0 -208.5 45.5t-153 135t-58.5 206.5v361q0 53 -2 87t-9 62t-16.5 43t-29 26t-42 16.5t-58.5 9.5q-5 0 -5 16z M389 1440q-7 7 5 21.5t29 24t23 1.5l289 -391q4 -5 1.5 -9t-8 -4.5t-9.5 2.5z" />
<glyph unicode="&#xfa;" horiz-adv-x="1282" d="M71 977q2 8 5 8q63 -10 248 -10q135 0 213 10q3 1 5 -4q1 -14 -5 -20q-44 -4 -70.5 -12.5t-45 -23t-26.5 -44.5t-11 -66t-3 -98v-326q0 -89 26.5 -158.5t71 -111t99.5 -63t116 -21.5q153 0 232.5 84t79.5 246v364q0 95 -11.5 138.5t-42.5 63.5t-102 28q-6 0 -5 16 q1 8 5 8q63 -10 197 -10q99 0 174 10q8 2 5 -16q-2 -8 -3 -8q-55 -5 -85.5 -16t-47 -40t-21 -66t-4.5 -108v-385q0 -160 -110.5 -268.5t-301.5 -108.5q-114 0 -208.5 45.5t-153 135t-58.5 206.5v361q0 53 -2 87t-9 62t-16.5 43t-29 26t-42 16.5t-58.5 9.5q-5 0 -5 16z M631 1104l289 391q6 8 23 -1.5t29 -24t5 -21.5l-330 -354q-7 -7 -15 -1q-6 5 -1 11z" />
<glyph unicode="&#xfb;" horiz-adv-x="1282" d="M71 977q2 8 5 8q63 -10 248 -10q135 0 213 10q3 1 5 -4q1 -14 -5 -20q-44 -4 -70.5 -12.5t-45 -23t-26.5 -44.5t-11 -66t-3 -98v-326q0 -89 26.5 -158.5t71 -111t99.5 -63t116 -21.5q153 0 232.5 84t79.5 246v364q0 95 -11.5 138.5t-42.5 63.5t-102 28q-6 0 -5 16 q1 8 5 8q63 -10 197 -10q99 0 174 10q8 2 5 -16q-2 -8 -3 -8q-55 -5 -85.5 -16t-47 -40t-21 -66t-4.5 -108v-385q0 -160 -110.5 -268.5t-301.5 -108.5q-114 0 -208.5 45.5t-153 135t-58.5 206.5v361q0 53 -2 87t-9 62t-16.5 43t-29 26t-42 16.5t-58.5 9.5q-5 0 -5 16z M434 1092l234 415q3 5 11 4.5t11 -6.5l234 -413q5 -6 -6 -10q-9 -3 -13 3l-231 310l-221 -310q-6 -7 -16 -2q-7 4 -3 9z" />
<glyph unicode="&#xfc;" horiz-adv-x="1282" d="M71 977q2 8 5 8q63 -10 248 -10q135 0 213 10q3 1 5 -4q1 -14 -5 -20q-44 -4 -70.5 -12.5t-45 -23t-26.5 -44.5t-11 -66t-3 -98v-326q0 -89 26.5 -158.5t71 -111t99.5 -63t116 -21.5q153 0 232.5 84t79.5 246v364q0 95 -11.5 138.5t-42.5 63.5t-102 28q-6 0 -5 16 q1 8 5 8q63 -10 197 -10q99 0 174 10q8 2 5 -16q-2 -8 -3 -8q-55 -5 -85.5 -16t-47 -40t-21 -66t-4.5 -108v-385q0 -160 -110.5 -268.5t-301.5 -108.5q-114 0 -208.5 45.5t-153 135t-58.5 206.5v361q0 53 -2 87t-9 62t-16.5 43t-29 26t-42 16.5t-58.5 9.5q-5 0 -5 16z M412 1247q0 36 26.5 63t65.5 27q36 0 61 -26t25 -60q0 -36 -25.5 -63t-64.5 -27q-36 0 -62 26t-26 60zM784 1247q0 36 27 63t66 27q36 0 61 -26t25 -60q0 -36 -26.5 -63t-64.5 -27q-36 0 -62 26t-26 60z" />
<glyph unicode="&#xfd;" horiz-adv-x="1138" d="M23.5 956.5q-1.5 12.5 3.5 12.5q76 28 147 28q165 0 293 -118.5t170 -300.5q65 196 178 302.5t250 106.5q51 0 100 -18q4 0 4 -6.5t-2 -12.5t-4 -6q-33 8 -69 8q-120 0 -219 -91.5t-154 -242t-55 -323.5v-39q0 -63 3 -98t11 -65t26.5 -44t45 -22.5t71.5 -12.5q5 0 5 -16 q-2 -8 -5 -8q-78 10 -213 10q-169 0 -248 -10q-8 -2 -5 16q2 8 3 8q44 4 69.5 12t45 21.5t28 42t12 66t3.5 100.5v39q0 185 -60.5 336.5t-160 235t-215.5 83.5q-28 0 -55 -6q-2 0 -3.5 12.5zM545 1104l289 391q6 8 23 -1.5t29 -24t5 -21.5l-330 -354q-7 -7 -15 -1 q-6 5 -1 11z" />
<glyph unicode="&#xfe;" horiz-adv-x="966" d="M104 977q2 8 5 8q79 -10 247 -10q135 0 213 10q3 1 4 -4q1 -13 -4 -20q-21 -2 -38.5 -5t-31 -9.5t-24 -11.5t-19 -16.5t-14 -17.5t-10 -22.5t-7 -24t-5 -28.5t-3.5 -29t-3 -33q78 4 108 4q152 0 256.5 -68.5t104.5 -179.5q0 -123 -88.5 -189.5t-257.5 -66.5h-21 q-3 0 -3 11.5t3 11.5h19q89 0 137.5 58t48.5 167q0 94 -58.5 152.5t-162.5 58.5q-28 0 -82 -6q-4 -47 -4 -191v-270q0 -63 3 -98t11 -65t26 -44t44.5 -22.5t70.5 -12.5q5 0 5 -16q-2 -8 -5 -8q-78 10 -213 10q-168 0 -247 -10q-3 -1 -4 4q-1 13 4 20q73 7 103.5 26t42 65 t11.5 151v463q0 105 -11.5 151t-42 65t-103.5 26q-5 0 -5 16z" />
<glyph unicode="&#xff;" horiz-adv-x="1138" d="M23.5 956.5q-1.5 12.5 3.5 12.5q76 28 147 28q165 0 293 -118.5t170 -300.5q65 196 178 302.5t250 106.5q51 0 100 -18q4 0 4 -6.5t-2 -12.5t-4 -6q-33 8 -69 8q-120 0 -219 -91.5t-154 -242t-55 -323.5v-39q0 -63 3 -98t11 -65t26.5 -44t45 -22.5t71.5 -12.5q5 0 5 -16 q-2 -8 -5 -8q-78 10 -213 10q-169 0 -248 -10q-8 -2 -5 16q2 8 3 8q44 4 69.5 12t45 21.5t28 42t12 66t3.5 100.5v39q0 185 -60.5 336.5t-160 235t-215.5 83.5q-28 0 -55 -6q-2 0 -3.5 12.5zM358 1247q0 36 27 63t66 27q36 0 61 -26t25 -60q0 -36 -26 -63t-65 -27 q-36 0 -62 26t-26 60zM731 1247q0 36 26.5 63t65.5 27q36 0 61 -26t25 -60q0 -36 -26 -63t-64 -27q-36 0 -62 26t-26 60z" />
<glyph unicode="&#x152;" horiz-adv-x="2045" d="M123 629q0 138 58 264.5t157.5 220t242 149.5t302.5 56q65 0 281 -10.5t323 -10.5q189 0 393 15q-12 -43 -12 -111q0 -62 2 -78q1 -2 -3 -3q-13 -2 -20 3q-9 50 -33.5 74t-91.5 36.5t-200 12.5h-195q-14 -89 -14 -280v-271h215q34 0 60.5 1t47.5 1.5t36.5 4t26.5 4.5 t19 6.5t12.5 7.5t8 10.5t4.5 11t3 14t3 15.5q0 2 12.5 2.5t12.5 -2.5q-15 -58 -15 -129q0 -50 4 -82q1 -2 -3 -3q-13 -3 -21 3q-6 38 -18 55t-56.5 28t-136.5 11h-215v-305q0 -82 5 -136.5t14 -87t27 -49t36.5 -21.5t50.5 -5h104q69 0 116.5 2.5t85 6.5t61 14.5t39.5 20.5 t27 31.5t16.5 40t13.5 52.5q0 4 16 0q6 -2 6 -4q-21 -132 -39 -188q-7 -24 -16 -30.5t-31 -6.5q-28 0 -146.5 5t-201.5 5q-109 0 -342 -10t-299 -10q-173 0 -313.5 51t-231 139.5t-139.5 206t-49 252.5zM287 694q0 -309 165.5 -488t446.5 -179q69 0 113 7.5t73 22.5 t43.5 45.5t19.5 67.5t5 98v762q0 56 -3.5 89.5t-16 63.5t-32.5 45t-58.5 26.5t-88.5 14.5t-127 3q-109 0 -207 -40.5t-172 -113.5t-117.5 -183t-43.5 -241z" />
<glyph unicode="&#x153;" horiz-adv-x="1527" d="M92 471q0 104 42.5 198.5t116 164.5t179.5 111.5t227 41.5q29 0 234 -6t221 -6q160 0 293 10q-8 -31 -8 -98q0 -60 2 -72q0 -3 -12.5 -2.5t-12.5 2.5q-5 30 -14 47t-33 32t-70 21.5t-120 6.5h-133q-11 -72 -11 -197v-195h107q58 0 88 1.5t53.5 4.5t33 13.5t14.5 21.5 t11 35q0 4 20 2q5 -1 5 -2q-10 -38 -10 -125q0 -64 4 -88q0 -3 -12.5 -2.5t-14.5 2.5q-6 34 -12 49t-27.5 26.5t-54 14t-98.5 2.5h-107v-209q0 -105 8 -151t24 -59t54 -13h78q35 0 63 1t51.5 4t40.5 5t31.5 9t23.5 11t17 15t12 17t9 22t7 24t7 29q4 4 20 2q5 -2 5 -4 q-23 -149 -29 -168q-6 -18 -12.5 -23t-24.5 -5q-20 0 -109 4t-151 4q-16 0 -234 -6t-247 -6q-129 0 -233.5 37.5t-172 103.5t-103.5 153.5t-36 188.5zM244 535q0 -243 114 -370.5t326 -127.5q96 0 129 36t33 122v583q0 42 -3 63t-14.5 43.5t-36.5 32t-68 15.5t-110 6 q-69 0 -134 -26t-118.5 -74.5t-85.5 -127t-32 -175.5z" />
<glyph unicode="&#x178;" horiz-adv-x="1558" d="M56 1284q0 6 5 8q95 35 199 35q108 0 206.5 -47t173 -128t128.5 -186t82 -225q77 248 240.5 411t355.5 163q70 0 135 -23q5 -2 5 -8t-2.5 -10.5t-4.5 -3.5q-44 8 -94 8q-160 0 -296.5 -124t-214 -327.5t-77.5 -433.5v-51v-83.5t2 -65.5t3.5 -54t7.5 -40t11.5 -32t18 -21 t23.5 -16t32 -8.5t40.5 -7.5t51.5 -4q7 -2 6 -16q-2 -8 -6 -8q-110 14 -247 14q-175 0 -293 -14q-5 -1 -6.5 4.5t0.5 12t4 7.5q36 4 50 5t39 6.5t33 8.5t23.5 14t19 20t12 30.5t9 40t3.5 54t3 68v85.5v51q0 185 -50 350.5t-133 280.5t-192 182.5t-225 67.5q-24 0 -74 -4 q-2 -1 -4.5 3.5t-2.5 10.5zM571 1589q0 36 27 63t66 27q36 0 61 -26t25 -60q0 -36 -26 -63t-65 -27q-36 0 -62 26t-26 60zM944 1589q0 36 26.5 63t65.5 27q36 0 61 -26t25 -60q0 -36 -26 -63t-64 -27q-36 0 -62 26t-26 60z" />
<glyph unicode="&#x2c6;" horiz-adv-x="571" d="M41 958l233 416q3 5 11.5 4.5t11.5 -6.5l233 -414q5 -7 -6 -9q-8 -2 -12 3l-231 310l-222 -310q-6 -8 -16 -2q-4 4 -2 8z" />
<glyph unicode="&#x2dc;" horiz-adv-x="735" d="M41 973q9 94 64 147.5t139 53.5q44 0 146.5 -37t152.5 -37t80.5 26t44.5 99q1 1 8 -0.5t13 -4.5t5 -6q-8 -87 -54 -138.5t-124 -51.5q-47 0 -150.5 40t-166.5 40q-104 0 -131 -139q-1 -2 -7 -1t-13 3.5t-7 5.5z" />
<glyph unicode="&#x2000;" horiz-adv-x="926" />
<glyph unicode="&#x2001;" horiz-adv-x="1853" />
<glyph unicode="&#x2002;" horiz-adv-x="926" />
<glyph unicode="&#x2003;" horiz-adv-x="1853" />
<glyph unicode="&#x2004;" horiz-adv-x="617" />
<glyph unicode="&#x2005;" horiz-adv-x="463" />
<glyph unicode="&#x2006;" horiz-adv-x="308" />
<glyph unicode="&#x2007;" horiz-adv-x="308" />
<glyph unicode="&#x2008;" horiz-adv-x="231" />
<glyph unicode="&#x2009;" horiz-adv-x="370" />
<glyph unicode="&#x200a;" horiz-adv-x="102" />
<glyph unicode="&#x2010;" horiz-adv-x="778" d="M124.5 470q0.5 16 8.5 17l254 56l252 63q5 1 9 -4.5t6 -15t3 -19.5t-0.5 -18t-5.5 -10l-256 -56l-250 -61q-8 0 -14.5 16t-6 32z" />
<glyph unicode="&#x2011;" horiz-adv-x="778" d="M124.5 470q0.5 16 8.5 17l254 56l252 63q5 1 9 -4.5t6 -15t3 -19.5t-0.5 -18t-5.5 -10l-256 -56l-250 -61q-8 0 -14.5 16t-6 32z" />
<glyph unicode="&#x2012;" horiz-adv-x="778" d="M124.5 470q0.5 16 8.5 17l254 56l252 63q5 1 9 -4.5t6 -15t3 -19.5t-0.5 -18t-5.5 -10l-256 -56l-250 -61q-8 0 -14.5 16t-6 32z" />
<glyph unicode="&#x2013;" horiz-adv-x="1290" d="M127 545.5q0 21.5 6 21.5l512 -6l512 6q5 0 5 -21.5t-5 -23.5l-512 6l-512 -6q-6 2 -6 23.5z" />
<glyph unicode="&#x2014;" horiz-adv-x="1802" d="M127 545.5q0 21.5 6 21.5l768 -6l768 6q5 0 5 -21.5t-5 -23.5l-768 6l-768 -6q-6 2 -6 23.5z" />
<glyph unicode="&#x2018;" horiz-adv-x="401" d="M68 1106q0 95 69 156t182 69q4 0 5.5 -6t0.5 -12t-3 -6q-91 -4 -137 -43.5t-46 -83.5q0 -31 18.5 -54.5t59.5 -46.5q34 -17 48 -31t14 -40q0 -29 -22 -47.5t-52 -18.5q-55 0 -96 44.5t-41 119.5z" />
<glyph unicode="&#x2019;" horiz-adv-x="401" d="M54 960q-1 6 0 12.5t3 6.5q91 4 137 43.5t46 83.5q0 30 -18 53.5t-60 46.5q-33 17 -47.5 31.5t-14.5 40.5q0 28 22 46.5t52 18.5q55 0 96 -44t41 -119q0 -95 -69.5 -156.5t-182.5 -69.5q-4 0 -5 6z" />
<glyph unicode="&#x201a;" horiz-adv-x="401" d="M54 -233.5q1 6.5 3 6.5q91 4 137 43.5t46 83.5q0 30 -18 53.5t-60 46.5q-33 17 -47.5 31.5t-14.5 40.5q0 28 22 46.5t52 18.5q55 0 96 -44.5t41 -119.5q0 -95 -69.5 -156t-182.5 -69q-4 0 -5 6t0 12.5z" />
<glyph unicode="&#x201c;" horiz-adv-x="700" d="M70 1106q0 95 69.5 156t182.5 69q4 0 5 -6t0 -12t-3 -6q-91 -4 -137 -43.5t-46 -83.5q0 -31 18.5 -54.5t59.5 -46.5q34 -17 48 -31t14 -40q0 -29 -22 -47.5t-52 -18.5q-55 0 -96 44.5t-41 119.5zM371 1106q0 95 69.5 156t182.5 69q4 0 5 -6t0 -12t-3 -6 q-91 -4 -137 -43.5t-46 -83.5q0 -31 18.5 -54.5t59.5 -46.5q34 -17 48 -31t14 -40q0 -29 -22 -47.5t-52 -18.5q-55 0 -96 44.5t-41 119.5z" />
<glyph unicode="&#x201d;" horiz-adv-x="700" d="M54 960q-1 6 0 12.5t3 6.5q91 4 137 43.5t46 83.5q0 30 -18 53.5t-60 46.5q-33 17 -47.5 31.5t-14.5 40.5q0 28 22 46.5t52 18.5q55 0 96 -44t41 -119q0 -95 -69.5 -156.5t-182.5 -69.5q-4 0 -5 6zM355 960q-1 6 0 12.5t3 6.5q91 4 137 43.5t46 83.5q0 30 -18 53.5 t-60 46.5q-33 17 -47.5 31.5t-14.5 40.5q0 28 22 46.5t52 18.5q55 0 96 -44t41 -119q0 -95 -69.5 -156.5t-182.5 -69.5q-4 0 -5 6z" />
<glyph unicode="&#x201e;" horiz-adv-x="741" d="M54 -233.5q1 6.5 3 6.5q91 4 137 43.5t46 83.5q0 30 -18 53.5t-60 46.5q-33 17 -47.5 31.5t-14.5 40.5q0 28 22 46.5t52 18.5q55 0 96 -44.5t41 -119.5q0 -95 -69.5 -156t-182.5 -69q-4 0 -5 6t0 12.5zM355 -233.5q1 6.5 3 6.5q91 4 137 43.5t46 83.5q0 30 -18 53.5 t-60 46.5q-33 17 -47.5 31.5t-14.5 40.5q0 28 22 46.5t52 18.5q55 0 96 -44.5t41 -119.5q0 -95 -69.5 -156t-182.5 -69q-4 0 -5 6t0 12.5z" />
<glyph unicode="&#x2022;" horiz-adv-x="401" d="M123 657q0 32 23 56t57 24q32 0 54 -22.5t22 -52.5q0 -31 -23.5 -55.5t-56.5 -24.5q-32 0 -54 22.5t-22 52.5z" />
<glyph unicode="&#x2026;" horiz-adv-x="1122" d="M123 45q0 32 23 56t57 24q32 0 54 -23t22 -53q0 -31 -23.5 -55.5t-56.5 -24.5q-32 0 -54 23t-22 53zM483 45q0 32 23 56t57 24q32 0 54 -23t22 -53q0 -31 -23.5 -55.5t-56.5 -24.5q-32 0 -54 23t-22 53zM844 45q0 32 23 56t57 24q31 0 53 -23t22 -53q0 -32 -23 -56 t-56 -24q-32 0 -54 23t-22 53z" />
<glyph unicode="&#x202f;" horiz-adv-x="370" />
<glyph unicode="&#x2039;" horiz-adv-x="616" d="M83.5 422q0.5 9 6.5 12l412 234q8 5 11 -6q2 -9 -5 -13l-307 -231l307 -221q5 -4 5.5 -10t-3 -9.5t-8.5 -1.5l-414 236q-5 1 -4.5 10z" />
<glyph unicode="&#x203a;" horiz-adv-x="616" d="M103.5 187q0.5 6 5.5 10l307 221l-307 231q-9 6 -4 16q4 7 10 3l411 -234q6 -3 6.5 -12t-4.5 -10l-413 -236q-5 -2 -8.5 1.5t-3 9.5z" />
<glyph unicode="&#x205f;" horiz-adv-x="463" />
<glyph unicode="&#x25fc;" horiz-adv-x="983" d="M0 0v983h983v-983h-983z" />
</font>
</defs>
</svg>
